<?xml version="1.0" encoding="UTF-8" standalone="no"?>
<svg
   id="Ebene_2"
   data-name="Ebene 2"
   viewBox="0 0 586.48 119.14"
   version="1.1"
   sodipodi:docname="LogoQuer.svg"
   inkscape:version="1.3.2 (091e20e, 2023-11-25, custom)"
   xmlns:inkscape="http://www.inkscape.org/namespaces/inkscape"
   xmlns:sodipodi="http://sodipodi.sourceforge.net/DTD/sodipodi-0.dtd"
   xmlns="http://www.w3.org/2000/svg"
   xmlns:svg="http://www.w3.org/2000/svg">
  <sodipodi:namedview
     id="namedview1"
     pagecolor="#505050"
     bordercolor="#ffffff"
     borderopacity="1"
     inkscape:showpageshadow="0"
     inkscape:pageopacity="0"
     inkscape:pagecheckerboard="1"
     inkscape:deskcolor="#505050"
     inkscape:zoom="1.4510299"
     inkscape:cx="293.23999"
     inkscape:cy="59.61283"
     inkscape:window-width="1920"
     inkscape:window-height="1177"
     inkscape:window-x="-8"
     inkscape:window-y="-8"
     inkscape:window-maximized="1"
     inkscape:current-layer="Ebene_2" />
  <defs
     id="defs1">
    <style
       id="style1">
      .cls-1 {
        fill: #fff;
      }

      .cls-2 {
        fill: #c53cf5;
      }
    </style>
  </defs>
  <g
     id="Ebene_1-2"
     data-name="Ebene 1-2">
    <path
       id="path3"
       class="cls-2"
       d="M200.09,119.14h-48.63L100.05,31.12l-51.53,87.99H0L78.03,0h44.1l77.96,119.14Z"
       style="fill:#ec008c;fill-opacity:1" />
    <path
       id="path3-6-7-5"
       class="cls-2"
       d="M62.61,118.99l8.33-13.99,58.2-.04,8.34,14.03H62.61Z"
       style="fill:#ec008c;fill-opacity:1" />
    <path
       id="path3-6-7"
       class="cls-1"
       d="M120.07,89.82c-13.34-.12-26.68-.06-40.02-.01l10.01-16.8,10.01-16.8,10,16.81,10,16.81h0Z" />
    <path
       id="text5"
       class="cls-1"
       d="M236.04,119.14c-7.31,0-13.2-.77-17.67-2.32-4.47-1.57-7.87-3.72-10.21-6.43-2.34-2.74-3.91-5.9-4.71-9.46h24.08c1.78,2.54,4.62,3.82,8.52,3.82s6.73-1.27,8.52-3.82c.15-.25.23-.47.23-.67,0-.67-.9-1.17-2.71-1.5-1.78-.35-4.46-.61-8.03-.79-4.5-.2-9.22-.67-14.17-1.42-11.03-1.7-16.54-6.1-16.54-13.2,0-.6.04-1.23.11-1.91.8-3.57,2.37-6.71,4.71-9.43,2.34-2.74,5.74-4.89,10.21-6.43,4.47-1.57,10.36-2.36,17.67-2.36s13.2.79,17.67,2.36c4.47,1.55,7.87,3.69,10.21,6.43,2.34,2.72,3.91,5.86,4.71,9.43h-24.08c-1.78-2.54-4.62-3.82-8.52-3.82s-6.73,1.27-8.52,3.82c-.13.2-.19.39-.19.56,0,.6.85,1.05,2.56,1.35,1.73.27,4.27.51,7.61.71,3.37.2,6.95.52,10.74.97,3.79.45,7.33,1.23,10.63,2.36,3.32,1.1,5.9,2.73,7.76,4.9,1.46,1.67,2.19,3.79,2.19,6.36,0,.72-.06,1.48-.19,2.28-.8,3.57-2.37,6.72-4.71,9.46-2.34,2.72-5.74,4.86-10.21,6.43-4.47,1.55-10.36,2.32-17.67,2.32h0ZM312.71,119.14c-13.36,0-23.2-2.73-29.5-8.19-5.58-4.81-8.36-11.4-8.36-19.75s2.79-14.95,8.36-19.79c6.3-5.44,16.14-8.15,29.5-8.15,7.84,0,14.32.9,19.44,2.69,5.12,1.77,9.11,4.2,11.94,7.29,2.84,3.09,4.72,6.63,5.65,10.62h-23.85c-2.39-4.16-6.78-6.25-13.19-6.25-5.48,0-9.51,1.57-12.09,4.71-2.06,2.49-3.09,5.45-3.09,8.86s1.03,6.37,3.09,8.86c2.59,3.14,6.62,4.71,12.09,4.71,6.41,0,10.8-2.09,13.19-6.28h23.85c-.93,4.01-2.81,7.57-5.65,10.66-2.84,3.09-6.82,5.54-11.94,7.33-5.12,1.77-11.6,2.66-19.44,2.66h0v.02ZM423.9,117.98h-65.11v-53.67h62.13v13.28h-39.45v8.42h33.34v10.32h-33.34v8.38h42.42v13.28h.01ZM513.15,117.98h-26.98l-30.56-36.32v36.32h-22.68v-53.67h26.98l30.56,36.13v-36.13h22.68v53.67ZM565.3,117.98h-22.68v-40.4h-21.17v-13.28h65.03v13.28h-21.17v40.4h-.01Z" />
  </g>
</svg>
