<?xml version="1.0" encoding="UTF-8" standalone="no"?>
<!-- Created with Inkscape (http://www.inkscape.org/) -->

<svg
   width="366.99127"
   height="246.23851"
   viewBox="0 0 366.99127 246.23851"
   version="1.1"
   id="svg1"
   sodipodi:docname="Logo.svg"
   inkscape:version="1.3.2 (091e20e, 2023-11-25, custom)"
   xmlns:inkscape="http://www.inkscape.org/namespaces/inkscape"
   xmlns:sodipodi="http://sodipodi.sourceforge.net/DTD/sodipodi-0.dtd"
   xmlns="http://www.w3.org/2000/svg"
   xmlns:svg="http://www.w3.org/2000/svg">
  <sodipodi:namedview
     id="namedview1"
     pagecolor="#505050"
     bordercolor="#ffffff"
     borderopacity="1"
     inkscape:showpageshadow="0"
     inkscape:pageopacity="0"
     inkscape:pagecheckerboard="1"
     inkscape:deskcolor="#505050"
     inkscape:zoom="2.5014219"
     inkscape:cx="183.69552"
     inkscape:cy="122.93008"
     inkscape:window-width="1920"
     inkscape:window-height="1177"
     inkscape:window-x="-8"
     inkscape:window-y="-8"
     inkscape:window-maximized="1"
     inkscape:current-layer="svg1" />
  <defs
     id="defs1" />
  <g
     id="layer1"
     transform="translate(-49.626373,-115.04734)">
    <g
       id="g1"
       transform="matrix(1.2765957,0,0,1.2187057,-22.330505,68.451031)">
      <path
         id="path3"
         style="fill:#ec008c;fill-opacity:1"
         transform="matrix(0.99830004,-0.00867187,0.0093892,0.92203117,61.322444,30.513013)"
         d="M 267,180 206.13731,179.40941 142.97328,53.885019 77.308174,178.15928 16.597136,177.57016 115.83938,9.4659618 171.02795,9.9827163 Z" />
      <path
         id="path3-6-7-5"
         style="display:inline;fill:#ec008c;fill-opacity:1"
         transform="matrix(0.39932002,-0.0038156,0.00375568,0.4056937,147.27709,127.63921)"
         d="m 24.780137,163.70916 26.493425,-44.87662 182.093338,1.58544 25.67866,45.49049 z" />
      <path
         id="path3-6-7"
         style="display:inline;fill:#ffffff;fill-opacity:1"
         transform="matrix(0.19966001,-0.0019078,0.00187784,0.20284685,175.92863,119.78281)"
         d="M 267,180 C 183.53885,178.45022 100.06888,178.04243 16.597136,177.57016 L 80.25,69.750003 143.90287,-38.070159 205.45143,70.964917 Z" />
      <path
         style="font-size:59.8179px;font-family:Horizon;-inkscape-font-specification:Horizon;stroke-width:0.562143;fill:white;"
         d="m 119.39866,361.70126 h -17.81685 l -3.943076,-6.86387 H 71.20553 l -3.943075,6.86387 H 49.4456 l 26.812907,-41.88421 h 16.32725 z m -27.689142,-17.23269 -7.272782,-12.70547 -7.30199,12.70547 z m 51.727302,18.13814 q -8.49952,0 -13.69854,-1.81089 -5.19901,-1.8401 -7.91536,-5.02377 -2.71634,-3.21288 -3.65099,-7.38962 h 18.66389 q 2.07376,2.97922 6.601,2.97922 4.52723,0 6.60099,-2.97922 0.17525,-0.29208 0.17525,-0.52574 0,-0.78861 -2.10297,-1.16832 -2.07377,-0.40891 -6.2213,-0.61337 -5.22822,-0.23366 -10.98219,-1.1099 -12.82229,-1.98614 -12.82229,-10.31041 0,-0.70099 0.0876,-1.4896 0.93465,-4.17674 3.65099,-7.36041 2.71635,-3.21287 7.91536,-5.02377 5.19902,-1.8401 13.69854,-1.8401 8.49951,0 13.69853,1.8401 5.19902,1.8109 7.91536,5.02377 2.71634,3.18367 3.65099,7.36041 h -18.66389 q -2.07376,-2.97922 -6.60099,-2.97922 -4.52724,0 -6.601,2.97922 -0.14604,0.23366 -0.14604,0.43812 0,0.70099 1.98614,1.05148 2.01535,0.32129 5.90001,0.55495 3.91386,0.23367 8.32426,0.75941 4.41041,0.52574 8.23665,1.8401 3.85545,1.28515 6.01684,3.82625 1.69406,1.95693 1.69406,4.96535 0,0.84703 -0.14604,1.78168 -0.93465,4.17674 -3.65099,7.38962 -2.71634,3.18367 -7.91536,5.02377 -5.19902,1.81089 -13.69853,1.81089 z m 59.43819,0 q -15.53863,0 -22.86983,-6.39654 -6.48417,-5.63714 -6.48417,-15.42181 0,-9.78466 6.48417,-15.45101 7.3312,-6.36733 22.86983,-6.36733 9.11289,0 15.07131,2.10297 5.95842,2.07377 9.25892,5.69555 3.3005,3.62179 4.3812,8.29506 H 213.0978 q -2.77476,-4.87773 -10.22279,-4.87773 -6.36733,0 -9.37575,3.68021 -2.39506,2.92079 -2.39506,6.92228 0,4.00149 2.39506,6.92229 3.00842,3.6802 9.37575,3.6802 7.44803,0 10.22279,-4.90693 h 18.48864 q -1.0807,4.70248 -4.3812,8.32426 -3.3005,3.62179 -9.25892,5.72477 -5.95842,2.07376 -15.07131,2.07376 z m 86.19269,-0.90545 h -50.47136 v -41.91342 h 48.16393 v 10.36883 h -30.58074 v 6.57179 h 25.84905 v 8.06139 h -25.84905 v 6.54259 h 32.88817 z m 69.19365,0 h -20.9129 L 313.6608,333.34033 v 28.36093 h -17.5832 v -41.91342 h 20.9129 l 23.68766,28.21489 v -28.21489 h 17.58319 z m 40.42383,0 h -17.58319 v -31.54459 h -16.41488 v -10.36883 h 50.41294 v 10.36883 h -16.41487 z"
         id="text5"
         transform="matrix(0.78619723,0,0,0.81755366,17.492229,-56.16699)"
         aria-label="ASCENT" />
    </g>
  </g>
</svg>
