<?xml version="1.0" encoding="UTF-8" standalone="no"?>
<svg
   width="29.733311"
   height="30.000036"
   viewBox="0 0 29.733311 30.000036"
   fill="none"
   version="1.1"
   id="svg3"
   sodipodi:docname="WhatsApp.svg"
   inkscape:version="1.3.2 (091e20e, 2023-11-25, custom)"
   xmlns:inkscape="http://www.inkscape.org/namespaces/inkscape"
   xmlns:sodipodi="http://sodipodi.sourceforge.net/DTD/sodipodi-0.dtd"
   xmlns="http://www.w3.org/2000/svg"
   xmlns:svg="http://www.w3.org/2000/svg">
  <defs
     id="defs3" />
  <sodipodi:namedview
     id="namedview3"
     pagecolor="#505050"
     bordercolor="#ffffff"
     borderopacity="1"
     inkscape:showpageshadow="0"
     inkscape:pageopacity="0"
     inkscape:pagecheckerboard="1"
     inkscape:deskcolor="#505050"
     inkscape:zoom="8.4045802"
     inkscape:cx="37.539055"
     inkscape:cy="6.9604905"
     inkscape:window-width="1920"
     inkscape:window-height="1177"
     inkscape:window-x="-8"
     inkscape:window-y="-8"
     inkscape:window-maximized="1"
     inkscape:current-layer="svg3" />
  <path
     d="m 29.72308,14.324537 c -0.14,-3.8314 -1.7545,-7.4605399 -4.5066,-10.1297399 -2.7521,-2.6692 -6.4289,-4.172073 -10.2627,-4.1947929953662 h -0.0724 C 12.29958,-0.0019139 9.7618799,0.6683771 7.5177499,1.9449171 c -2.24408,1.27654 -4.11715,3.11534 -5.4349,5.33547 -1.31775004,2.22014 -2.03477004,4.7451499 -2.08051504,7.3264499 -0.045744,2.5814 0.581365,5.1301 1.81962504,7.3956 l -1.31484004,7.8679 c -0.00214,0.0161 -8.2e-4,0.0325 0.00388,0.0481 0.00469,0.0156 0.01266,0.03 0.02336,0.0423 0.0107,0.0123 0.02389,0.0221 0.03869,0.0289 0.0148,0.0068 0.03088,0.0103 0.04716,0.0104 h 0.02262 l 7.78196004,-1.731 c 2.0106901,0.9653 4.2125901,1.4662 6.4429901,1.4656 0.1418,0 0.2835,0 0.4252,0 1.962,-0.056 3.8935,-0.5 5.6829,-1.3064 1.7895,-0.8064 3.4015,-1.9592 4.7431,-3.3919 1.3416,-1.4327 2.3862,-3.1169 3.0734,-4.9555 0.6872,-1.8385 1.0035,-3.7949 0.9307,-5.7563 z m -14.504,12.8241 c -0.1176,0 -0.2352,0 -0.3513,0 -1.9712,0.0025 -3.9142,-0.4692 -5.6649401,-1.3751 l -0.39807,-0.2081 -5.27744,1.247 0.97406,-5.3393 -0.22617,-0.383 c -1.08025,-1.8417 -1.66211,-3.9331 -1.68826,-6.0682 -0.02615,-2.135 0.5043,-4.2401 1.53911,-6.1077499 1.03482,-1.86769 2.53829,-3.4336 4.36235,-4.54351 1.8240601,-1.10992 3.9057601,-1.72554 6.0401601,-1.78623 0.1186,0 0.2377,0 0.3573,0 3.2225,0.00955 6.3122,1.28463 8.6035,3.55053 2.2913,2.26589 3.6008,5.3412599 3.6463,8.5633599 0.0454,3.2222 -1.1767,6.3332 -3.4031,8.6629 -2.2265,2.3297 -5.279,3.6915 -8.4999,3.792 z"
     fill="#25d366"
     id="path2" />
  <path
     d="m 9.6985799,7.6900671 c -0.1837,0.00359 -0.36484,0.044 -0.53267,0.11885 -0.16783,0.07485 -0.31894,0.18262 -0.44437,0.31692 -0.35435,0.36339 -1.345,1.23794 -1.4023,3.0744999 -0.05729,1.8365 1.22588,3.6535 1.40531,3.9083 0.17944,0.2548 2.4532301,4.222 6.1987301,5.8308 2.2015,0.9485 3.1665,1.1113 3.7922,1.1113 0.2579,0 0.4524,-0.0271 0.6559,-0.0392 0.6861,-0.0422 2.2347,-0.8353 2.5724,-1.6978 0.3378,-0.8625 0.3604,-1.6164 0.2714,-1.7672 -0.0889,-0.1508 -0.3332,-0.2594 -0.7011,-0.4524 -0.3679,-0.193 -2.1728,-1.158 -2.5121,-1.2937 -0.1258,-0.0586 -0.2612,-0.0938 -0.3996,-0.104 -0.0901,0.0047 -0.1777,0.0313 -0.2552,0.0776 -0.0775,0.0462 -0.1426,0.1107 -0.1896,0.1877 -0.3015,0.3755 -0.9936,1.1912 -1.2259,1.4265 -0.0507,0.0584 -0.1132,0.1055 -0.1833,0.1383 -0.0701,0.0327 -0.1464,0.0503 -0.2238,0.0517 -0.1426,-0.0063 -0.2821,-0.0439 -0.4086,-0.1101 -1.0933,-0.4643 -2.0901,-1.1292 -2.9388,-1.9602 -0.793,-0.7816 -1.4658,-1.6764 -1.9964,-2.6553 -0.205,-0.38 0,-0.576 0.187,-0.7539 0.187,-0.178 0.3875,-0.4237 0.5805,-0.6364 0.1584,-0.1816 0.2904,-0.3846 0.3921,-0.6031 0.0526,-0.1014 0.0792,-0.2143 0.0773,-0.3285 -0.0018,-0.1143 -0.032,-0.2262 -0.0879,-0.3259 -0.0889,-0.19 -0.7539,-2.0581899 -1.066,-2.8075899 -0.2533,-0.64083 -0.5549,-0.66194 -0.8188,-0.68154 -0.2171,-0.01508 -0.4659001,-0.02262 -0.7147001,-0.03016 h -0.0317"
     fill="#25d366"
     id="path3" />
</svg>
