<?xml version="1.0" encoding="UTF-8" standalone="no"?>
<svg
   id="Ebene_2"
   data-name="Ebene 2"
   viewBox="0 0 201.23 31.4"
   version="1.1"
   sodipodi:docname="3dConnexionWeiß.svg"
   inkscape:version="1.3.2 (091e20e, 2023-11-25, custom)"
   xmlns:inkscape="http://www.inkscape.org/namespaces/inkscape"
   xmlns:sodipodi="http://sodipodi.sourceforge.net/DTD/sodipodi-0.dtd"
   xmlns="http://www.w3.org/2000/svg"
   xmlns:svg="http://www.w3.org/2000/svg">
  <sodipodi:namedview
     id="namedview15"
     pagecolor="#505050"
     bordercolor="#ffffff"
     borderopacity="1"
     inkscape:showpageshadow="0"
     inkscape:pageopacity="0"
     inkscape:pagecheckerboard="1"
     inkscape:deskcolor="#505050"
     inkscape:zoom="3.2872833"
     inkscape:cx="75.138033"
     inkscape:cy="34.222788"
     inkscape:window-width="1920"
     inkscape:window-height="1177"
     inkscape:window-x="1672"
     inkscape:window-y="-8"
     inkscape:window-maximized="1"
     inkscape:current-layer="Ebene_1-2" />
  <defs
     id="defs3">
    <style
       id="style1">
      .cls-1 {
        fill: none;
      }

      .cls-2 {
        clip-path: url(#clippath-1);
      }

      .cls-3 {
        clip-path: url(#clippath-2);
      }

      .cls-4 {
        clip-path: url(#clippath);
      }
    </style>
    <clipPath
       id="clippath">
      <rect
         class="cls-1"
         width="201.22"
         height="31.4"
         id="rect1" />
    </clipPath>
    <clipPath
       id="clippath-1">
      <rect
         class="cls-1"
         width="201.22"
         height="31.4"
         id="rect2" />
    </clipPath>
    <clipPath
       id="clippath-2">
      <rect
         class="cls-1"
         width="201.22"
         height="31.4"
         id="rect3" />
    </clipPath>
  </defs>
  <g
     id="Ebene_1-2"
     data-name="Ebene 1-2">
    <g
       class="cls-4"
       clip-path="url(#clippath)"
       id="g8">
      <g
         id="g7">
        <path
           d="M76.36,25.05c-3.66,0-6.07-2.73-5.61-7.46.47-4.75,3.53-7.38,7.1-7.38,1.97,0,3.07.53,3.63.98l-.96,1.83c-.42-.32-1.04-.61-2.08-.61-2.47,0-3.71,2-4.02,5.12-.31,3.16.72,5.18,2.95,5.18.99,0,1.7-.27,2.23-.64l.64,2c-.71.53-1.94.98-3.88.98"
           id="path3"
           style="fill:#ffffff;fill-opacity:1" />
        <path
           d="M90.32,12.26c-2.56,0-3.32,2.63-3.59,5.36-.26,2.7.05,5.22,2.56,5.22s3.32-2.52,3.58-5.22c.26-2.73.04-5.36-2.55-5.36M89.06,25.05c-4.49,0-6.35-3.18-5.93-7.41.42-4.27,2.9-7.43,7.4-7.43s6.36,3.16,5.93,7.43c-.42,4.23-2.9,7.41-7.4,7.41"
           id="path4"
           style="fill:#ffffff;fill-opacity:1" />
        <path
           d="M108.14,24.8l1-10.14c.12-1.16-.36-2.38-2.66-2.38-1.18,0-1.82.16-2.54.4l-1.18,12.13h-3.64l1.33-13.54c1.58-.64,3.67-1.04,6.39-1.04,4.79,0,6.17,2.07,5.94,4.38l-1,10.2h-3.64Z"
           id="path5"
           style="fill:#ffffff;fill-opacity:1" />
        <path
           d="M124.67,24.8l1-10.14c.12-1.16-.36-2.38-2.66-2.38-1.18,0-1.82.16-2.54.4l-1.18,12.13h-3.64l1.33-13.54c1.58-.64,3.67-1.04,6.39-1.04,4.79,0,6.17,2.07,5.93,4.38l-1,10.2h-3.64Z"
           id="path6"
           style="fill:#ffffff;fill-opacity:1" />
        <path
           d="M139.5,12.21c-2.11,0-3.72,1.54-3.96,4.96l6.73-.9c.28-2.89-.77-4.05-2.75-4.05M135.57,18.82c.04,2.66,1.34,3.98,3.98,3.98,1.84,0,3.22-.4,4.13-.79l.66,2.05c-1.18.56-2.97,1.01-5.4,1.01-4.56,0-7.18-2.63-6.71-7.45.46-4.67,3.37-7.38,7.57-7.38s6.33,2.52,5.71,7.32l-9.96,1.28h0Z"
           id="path7"
           style="fill:#ffffff;fill-opacity:1" />
      </g>
    </g>
    <polygon
       points="163.91 24.8 165.31 10.49 168.94 10.49 167.54 24.8 163.91 24.8"
       id="polygon8"
       style="fill:#ffffff;fill-opacity:1" />
    <g
       class="cls-2"
       clip-path="url(#clippath-1)"
       id="g10">
      <g
         id="g9">
        <path
           d="M178.78,12.26c-2.56,0-3.32,2.63-3.6,5.36-.26,2.7.05,5.22,2.56,5.22s3.32-2.52,3.58-5.22c.27-2.73.06-5.36-2.54-5.36M177.53,25.05c-4.5,0-6.35-3.18-5.94-7.41.43-4.27,2.9-7.43,7.4-7.43s6.36,3.16,5.94,7.43c-.42,4.23-2.9,7.41-7.4,7.41"
           id="path8"
           style="fill:#ffffff;fill-opacity:1" />
        <path
           d="M196.56,24.8l1-10.14c.11-1.16-.36-2.38-2.66-2.38-1.18,0-1.82.16-2.54.4l-1.18,12.13h-3.64l1.33-13.54c1.58-.64,3.67-1.04,6.39-1.04,4.8,0,6.17,2.07,5.94,4.38l-1.01,10.2h-3.64Z"
           id="path9"
           style="fill:#ffffff;fill-opacity:1" />
      </g>
    </g>
    <polygon
       points="161.97 10.49 158.55 10.49 154.7 15.94 154.4 18.97 157.05 24.8 161.05 24.8 156.75 17.17 161.97 10.49"
       id="polygon10"
       style="fill:#ffffff;fill-opacity:1" />
    <polygon
       points="153.95 15.82 151.23 10.49 147.8 10.49 151.69 17.18 145.92 24.8 149.9 24.8 153.62 19.1 153.95 15.82"
       id="polygon11"
       style="fill:#ffffff;fill-opacity:1" />
    <g
       class="cls-3"
       clip-path="url(#clippath-2)"
       id="g15">
      <g
         id="g14">
        <path
           d="M33.76,11.82c-.3-.37-.76-.48-1.28-.33-1.15.34-7.33,4.42-7.33,4.42l-1.58,5-3.31,10.49s7.47-4.83,10.4-9c1.02-1.44,1.89-3.18,2.5-4.85.94-2.53,1.26-4.89.58-5.74"
           id="path11"
           style="fill:#ffffff;fill-opacity:1" />
        <path
           d="M16.95,0l-7.39,4.19c-.31.16-.31.42-.19.62.11.19.38.27.68.15.3-.14.57-.24.57-.24,1.14-.57,3.82-1.89,6.8-1.51,2,.25,4.07.97,6.31,2.17,2.06,1.11,3.21,2.24,3.32,3.27v.14c0,.55-.32,1.08-.94,1.56-1.53,1.19-3.64,2.13-4.36,2.44-1.3-.6-9.33-4.38-9.58-4.5-.34-.15-.6-.04-.72.12-.02.02-.02.04-.03.06-.11.18-.09.42.09.6.09.09.2.16.87.56.88.52,2.36,1.4,3.57,2.3,1.78,1.34,2.93,3.04,3.1,4.68.15,1.24.12,3.03-.72,4.88-.12.27-.25.53-.42.8-1.92,3.31-4.88,4.04-8.76,2.18-3.18-1.52-6.1-3.21-6.91-3.68.04-.13.27-.92.6-2.01.89-2.99,2.45-8.21,2.45-8.21.02-.05.03-.1.03-.16,0-.22-.14-.42-.37-.48-.26-.07-.5.05-.59.3l-2.88,7.92L0,22.23l18.01,9.16,3.21-10.17,2.08-6.63,10.87-6.58L16.95,0Z"
           id="path12"
           style="fill:#ffffff;fill-opacity:1" />
        <path
           d="M64.1,17.46c-.35,3.69-1.49,5.27-3.83,5.27-.48,0-.89-.07-1.11-.12l.96-10.06c.32-.09.68-.13,1.14-.13.91,0,1.58.23,2.05.72.73.75.99,2.17.79,4.3M66.12,11.78c-1.09-1.11-2.69-1.7-4.77-1.7s-4.49.99-4.7,1.08l-1.24,13.03c1.1.68,2.86.99,4.72.99,4.36,0,7.03-2.7,7.49-7.62.25-2.53-.26-4.48-1.51-5.77"
           id="path13"
           style="fill:#ffffff;fill-opacity:1" />
        <path
           d="M49.91,16.76c.88-.42,2.36-1.36,2.52-3.02.09-.92-.2-1.74-.83-2.37-.85-.84-2.31-1.31-4.08-1.31-2.33,0-3.85.57-4.4.81l-.28.13.79,2.18.38-.16c.58-.25,1.68-.58,2.93-.58.75,0,1.31.16,1.63.47.24.24.4.64.36,1.05-.13,1.23-1.59,2.08-3.8,2.25l-.3.02-.2,1.99h.41c1.05-.03,2.44.1,3.16.79.38.36.55.86.49,1.48-.15,1.4-1.32,2.22-3.1,2.22-1.59,0-2.55-.39-2.89-.56l-.32-.16-1.25,2.25.3.16c1.1.56,2.52.82,4.5.82,3.57,0,6.18-1.96,6.51-4.68.2-1.74-.7-3.05-2.51-3.77"
           id="path14"
           style="fill:#ffffff;fill-opacity:1" />
      </g>
    </g>
  </g>
</svg>
