<?xml version="1.0" encoding="UTF-8"?> <svg xmlns="http://www.w3.org/2000/svg" id="Ebene_2" data-name="Ebene 2" version="1.1" viewBox="0 0 592 329.2"><defs><style> .cls-1 { fill: #eac936; } .cls-1, .cls-2, .cls-3, .cls-4 { stroke-width: 0px; } .cls-1, .cls-4, .cls-5 { fill-rule: evenodd; } .cls-2, .cls-4 { fill: #333363; } .cls-3 { fill: #1f286e; } .cls-5 { fill: #fff; stroke: #181715; stroke-miterlimit: 22.9; stroke-width: 1.4px; } </style></defs><g id="Ebene_1-2" data-name="Ebene 1-2"><polygon class="cls-4" points=".5 0 591.5 0 591.5 164.4 .5 164.4 .5 0 .5 0"></polygon><polygon class="cls-1" points=".5 164.1 591.5 164.1 591.5 328.7 .5 328.7 .5 164.1 .5 164.1"></polygon><path class="cls-5" d="M224.9,126.5l.2-102.8,142.4.3v102.5c-7,91.6-133.7,94.7-142.7,0h0Z"></path><path class="cls-2" d="M257.5,50.4c.5.7,1,1.3,1.7,1.8h0s0,0,0,0c-.6-.5-1.2-1-1.7-1.7-.4-.8-.8-1.5-1.1-2.4-.6-1.5-.5-3.2-.2-4.7.6-2.7,6.1-4.4,8.3-3.2.7.4,1.7,1.5,1.5,2.4-.2,1-1.7.7-2.4.4,0,0,0,0-.1,0-1.2.5-2.1,1.9-2.3,3.1-.2,1.2.5,2.5,1.3,3.3h0s0,0,0,0h0c-.8-.9-1.3-1.7-1.1-2.9,0,0,0,0,0,0l1.8.8s0,0,0,.1l.2,2.6c0,0,0,0,0,0h-.2c0,0,0,0,0,0,.5.4,1.2.7,1.8.8,2.3.4,4.3.6,6.1.5,1.1,0,1.9,0,2.2-.1,0,0,0,0,0,0h0c0,.2,0,.2,0,.2s.1,0,.2,0c0,0,0,0,.1,0,.7,0,1.5-.1,2.2,0,0,0,0,0,0,0,0,.4-.2.6-.5.8-2.1,1.4-3.8,3.5-3.6,6.1.2,2.7,1.9,5.4,3.9,7.2.5.5,1.4,1.4,2.1,1.6,0,0,0,0,0,0-2-2-3-4.5-3.6-7.3-.3-1.3-.1-2.2.4-3.5.6-1.5,1.3-3,2.2-4.5,0,0,0,0,0-.1l-.6-.2c-.2,0-.2-.3-.1-.4,1.8-2,3.7-4,6.3-4.5.1,0,.1,0,0,0-.4,0-1.2,0-1.6-.3-.3-.2-.5-.6-.2-.9.2-.2.6-.3,1.2-.5.9-.2,2.2-.4,4-.6,5.5-.5,10.9-.3,16.4.4,1.3.2,3.2.2,3,2,0,.2-.1.3-.3.3h-.6c0,0,0,0,0,0,2,1,4.2,2.9,4.7,5.1.9,3.8.8,7.7-1.1,11.1-.7,1.3-2.1,3.1-3.1,4.3-.5.7-.8,1.5-.7,2.4,0,1.3.2,3.1.7,4.4,0,0,0,0,0,.1h0c0,.2,0,.2,0,.2.5-.2,1.1-.2,1.6-.2,0,0,0,0,.1,0,.2.3.3.6.2,1-.1.8-1.1.7-1.7.8,0,0,0,0,0,0,0,0,.2,0,.2,0,0,0,0,0,.1,0,.6.9.7,2,.8,3.1,0,0,0,0,0,0,1.5-1.3,3.2-2.1,5.2-2.2,2.8-.2,6.2.7,6.4,4.1.1,2-.5,3.7-1.3,5.6-.4,1-1,2.2-1.9,2.7-1.7,1-3.7.8-5.5.2-.7-.2-1.8-1.3-1.6-2.1,0-.3.4-.5.8-.6,2.2-.2,4.8-.5,5.7-2.9.2-.7.5-1.3.7-1.9.2-.5.2-.7-.3-1.1-1.9-1.3-3.8-1.7-5.6.1-1.4,1.4-2.1,2.9-2.8,4.9-.7,2.3-1.3,4.6-1.8,6.9,0,.3-.2.6-.3.9-2.2,3.7-6.9,4.3-10.6,2.6,0,0,0,0,0,0-1,3.8-3.6,7.2-8.1,5.3-2.4-1-3.4-3.6-3.1-6,0-.7.3-1.5.5-2.3,0,0,0,0,0,0-1.5.2-2.8.2-4-.8-1-.8-1.6-2-1.9-3.3-.4-1.9-.2-4.5,1-6,1.1-1.3,2.9-1.7,4.5-1.6,0,0,0,0,0,0,0,.8,0,1.6,0,2.5.2,1.5.4,2.9.5,4.4,0,0,0,0,0,0,.1,0,.2,0,.1-.2,0-.8,0-1.6.4-2.3.1-.3.3-.6.6-.8.4-.3.7-.7,1.2-.8.7-.1,1.4-.1,2,0,0,0,0,0,0,0,0-.2-2.2-.4-2.4-.4-1.5,0-1.9-1.7-2-2.9,0,0,0,0,0-.1.2-.4.3-.7.3-.9,0-1.8,0-3.6-.3-5.2-.4-3-1.5-5.1-4-6.8-1.1-.7-2-1.6-3.3-2-2.5-.8-4.2-3-5.2-5.4,0,0,0,0-.1,0-.1,0-.1.1-.3,0-.8-.2-1.5-.5-2.4-.6-2.9-.5-5.3-1-7.9-1.7-.2,0-.3-.1-.1-.3,0,0,0,0,0-.1l-.5-.4s0,0,0,0c0,0,0,0,0,0h.1c0,.1,0,.2,0,.2-1,0-2-.2-2.8-.2-9.5-.1-19.4,4.4-19.7,15.3,0,1.9.4,3.8.9,5.6,1.1,3.3,5.2,7.2,8.8,6.6,1.3-.2,2.3-2,2.6-3.1,0-.3,0-.7-.1-1.2-.6-2.1-1.8-3.3-3.8-3.8-1.7-.4-3.6.6-5.1,1.3-.2,0-.4,0-.6,0-.1,0-.2,0-.2-.2,0-1.6.6-2.7,1.9-3.7.7-.5,1.8-1.3,2.7-1.3,1.6,0,3.1,0,4.5.1,2.9.4,5.7,3.1,7.2,5.5,0,0,0,.2,0,.3-.3,1.2-1.1,2.1-1.9,3.1,0,0,0,.2-.1.3,0,0,0,0,0,0,.9-1.2,1.7-2,2-3.3.3-.9.4-1.7.3-2.3-.2-1.6-.3-3.2-.3-4.8s.4-2.3.7-3.4c.7-2.2,2-3.4,4.3-4,1.4-.3,2.3.4,3.6.7.3,0,1.4.3,1.5.5,0,0,0,.2,0,.2-.8.2-1.7.3-2.4.7-1.6.8-2.9,2.4-3.2,4.2,0,.4,0,1.1.1,1.9.4,2.7.8,4.5.1,6.7,0,.2-.1.3-.3.3,0,0,0,0,0,0-.9,2.2-1.6,4.2-2.2,6-.2.6-.4.9-.8,1.4-1,1-2,2-3,3.1,0,0,0,0,0,0,.9-.6,1.9-1.2,3-1.6.5-.2,1.1-.9,1.3-1.4.5-1.1.9-2.2,1.5-3.2.8-1.7,3.3-2.7,5-2.8,1.7-.2,3.9-.4,4.8,1.6.4.9.3,2.1,0,3.1,0,.2-.4.2-.5,0-.4-1-1.7-1.3-2.8-1.4-.9,0-1.4.1-2.1.7-1.5,1.2-2.2,2.8-3.2,4.4-1.3,2.2-3.8,4.6-6.5,4.5-1.7,0-3.7-.6-4.6-2.1-.1-.2-.3-.2-.4,0-.9.9-2.1,1.4-3.4,1.5-.9,0-1.3-.5-1.8-1,0,0,0,0,0,0,0,.4-.1.7-.3,1-1.3,1.8-2.4,3.4-3.4,4.9-1.1,1.9-1.5,3.9-1,6.2.6,2.8,2.5,6.3,5.6,6.8,3.1.4,6.1-3.4,3.9-6.1-.6-.7-1.2-2.4.3-2.6,3.9-.7,6.1,2.5,6.9,5.8,0,0,0,0,.1,0,.8-.5,1.1-1.1,1.3-2.1.3-1.1.6-2.2.8-3.3,0-.1.2-.2.2,0,.1,0,.2.2.2.4.5,2.1,1,4.1.9,6.3-.1,1.8-1.1,1.8-2.1,2.9-.7.7-1.3,1.4-1.9,2.2-1,1.3-2,2.4-3.1,3.6,0,0,0,0,0,0,1.7-.7,3.3-1.6,4.8-2.7.8-.6,1.3-.9,2.2-1.1,0,0,0,0,0,0-.6-.4-.7-1.2-.5-1.8.4-1.3,2.3-1.2,3.4-1.1,0,0,0,0,0,0,0,1,.2,2,.2,3.1,0,.9,0,2.2-.8,2.8,0,0,0,0-.1,0-1.8,0-2.3,0-3.5,1.4-1.5,1.7-3.4,2.7-5.7,3.1,0,0-.1.1-.1.2.1.4.4.8.7,1.1,2.4,1.9,4,4.3,5.1,7.2,1.2,3.2,2.2,6.8,1.7,10.3-.2,1.6-.6,3.4-1.2,5.5-.2.7.9.9,1.4.9.6-.1,1.2,0,1.7,0,.2,0,.4,0,.6,0,0,0,0,0,0,0,0,.8-.4,1.5-.7,2.1,0,.2,0,.5,0,.7.3.4,1.5,1.9.4,2.1-.4,0-.8.3-1,.6-.2.4-.7.3-1,.2-.8-.2-1.5-.5-2.3-.6-1.3-.3-1.8,0-2,1.4-.3,2-1.4,2.8-3.1,3.9-1.9,1.2-4.1,2.3-4.4,4.8,0,.4,0,1,.1,1.8.1.9.3,1.8.4,2.6,0,.2,0,.3,0,.4,0,.1-.2.2-.3.1-1.8-.9-3.6-2.2-4.2-4.2-.2-.7-.4-1.6-.4-2.3.3-2.5,3.6-4.6,5.6-5.9,0,0,0,0,0,0-2.7.6-5,1.5-7.7.9-1.6-.4-3.1-.8-4.6-1.4-.2,0-.1-.3,0-.4,1.5-.2,2.5-.4,3.9-1.4,1.9-1.4,3.8.9,5.9,0,0,0,0,0,0-.1-1.8-.2-3.7-1.1-4.4-2.9-.4-1-.5-3.1,0-3.9.8-1.2,2-2.4,3.4-2.4,1.3,0,2.6,0,3.8.4,0,0,0,0,.1,0,.4.6-1,.8-1.3.8-.7,0-1.9.2-2.3.6-.3.4-.3,1-.3,1.4,0,2.1,1.9,2.7,3.6,2.6,1.8-.1,3.4-.2,4.4-1.9.8-1.2,1.5-2.6,1.7-4,.2-1.5.3-3.1.5-4.6,0-.4,0-.9,0-1.4-.2-2.2-.7-4.4-1.4-6.6-.4-1.2-1-2.3-1.8-3.2-.9-1-4.2-4.8-2.4-5.8,0,0,0,0,0,0s0,0,0,0c-1.9.4-4.4.6-6.3,0-1.8-.7-3.6-2-4.9-3.3,0,0,0,0,0,0,0,0,0,0,0,0h0c1.3,1.3,2,3.2,1.1,4.9,0,0,0,0,0,.1.4,1,1.2,2.3,2.4,2.7,0,0,0,0,.1,0,.5-.2,1.8-.8,2,0,.2.7-.5,1.7.3,2.1,2.2,1.1,3.8,2.6,5.2,4.5,1.7,2.4,3.3,5.2,3.7,8.1,0,.3,0,.6,0,.9-.3,1.3-.7,2.5-1.1,3.7-.3.8-1,1.4-1.9,1.6-.2,0-.3,0-.5,0,0,0,0,0,0,0,0-.6,0-2.7,1-2.5,0,0,.1,0,.1,0l.6-1.1s0-.1,0-.1c-.4-.7-.7-1.2-1.1-1.4-.5-.4-1.6-1.4-1.5-2.1,0-.4,1-.2,1.2-.6.3-.5-.7-2.3-.9-2.7-1.5-2.6-3.4-5.3-5.7-7.3-.1,0-.3-.2-.6-.3,0,0,0,0-.1,0-.1,0-.2.2-.2.4,0,.6-.2,1.2-.4,1.8-.7,1.9-1.6,3.8-2.5,5.6-.3.6-.7,1.2-1,1.5-2.1,2.3-5.8,2.7-8.3.8-.8-.6-1.3-1.4-1.5-2.4,0-.2,0-.2.2-.2,2,.6,3.5,1.1,5.6,0,1.9-1,3.1-2.5,3.8-4.5.3-.8.5-1.7,1-2.4.5-.7.8-1.4,1-2.2,0,0,0,0,0-.1l-.5-.9s0,0-.1,0c-.4.7-.5,1.1-.8,1.9-.9,2.8-4.2,4.2-6.9,3.6-2.1-.5-4.1-2.8-3.5-5.2.2-.9,1-1.1,1.7-.6,1.3,1,2.4,1.2,4,.6,1-.3,1.5-1.4,1.7-2.3.6-2.8-.2-5.3-1.3-7.9-1.5-3.4-2-7.4-1.6-11.1.4-4.9,3.9-10,7.5-13,.4-.3.9-.6,1.6-.7,0,0,0,0,0,0-.2,0-.4-.2-.7,0-1.7.5-2.9.2-3.9-1.3-5.6-7.6-9.5-18.8-2.8-27.2,4-5,10.5-7.3,16.9-7.5.9,0,1.6,0,2.4.2.4.1.8.2,1.2.3.2,0,.2,0,0,0-.4-.2-.7-.3-1.1-.3-.6-.2-1.3-.3-2-.4,0,0,0,0-.1,0-.5-.3-.8-.7-1-1-1.1-2-2.1-4.3-3.9-5.7-1.8-1.4-3.1.2-4.7,1,0,0,0,0,0,0,.4-.8.9-1.7,1.7-2.7.5-.6,1.1-1,1.8-1,2.2-.3,3.9.5,5.6,1.9.1.1.2.2.2.4,0,.1,0,.2.1.3.7,1,1.5,2,2.1,3.1,1.5,2.9,4.4,4.8,7.6,5.4,1.1.2,2.2.2,3.3-.1.8-.2,1.5-.6,2.1-1.2,0,0,0,0,0,0,0,0,0,0,0,0-.6.7-1.4,1.1-2.2,1.3-1,.3-2,.2-3,.1-3.1-.6-5.5-2.1-7.1-4.6-.3-.4-.5-1-.8-1.5-.6-.9-1.1-1.7-1.6-2.3,0,0,0,0,0-.1v-.2c-.5-1.2-1.1-2.5-1.4-3.9-.1-.8,0-1.7-.1-2.4-.2-2.1-2-6.2-4.7-5.7-.7.1-1.3.3-2,.4,0,0,0,0,0,0,.3-.7,1.8-1.5,2.6-1.8,2.6-1.3,6.4-.2,7.6,2.6.7,1.6,1.1,2.7.8,4.3-.6,2.5.6,6,2.1,7.9h-.1ZM297.4,46.1s-.6,0-1.3,0c-.7,0-1.3,0-1.3,0s.6,0,1.3,0c.7,0,1.3,0,1.3,0h0ZM293.8,46.1s0,0,0,0h-2.8c0,0,0,0,0,.1h0s0,0,0,0h2.8c0,0,0,0,0,0h0ZM289.5,46.2s0,0-.2,0c0,0-.2,0-.2,0s0,0,.2,0c0,0,.2,0,.2,0h0ZM289.8,46.2c.2,0,.4,0,.6,0,0,0,0,0,0,0-.2,0-.4,0-.6,0,0,0,0,0,0,0h0ZM298,46.2c.2,0,.4,0,.6,0,.1,0,.1,0,0,0h-.6q0,0,0,0h0ZM298.7,46.3c0,0,.1,0,.2,0,0,0,0,0,0,0,0,0-.1,0-.2,0,0,0,0,0,0,0h0ZM288.4,46.3c0,0,0,0,0,0h.3c.2,0,.2,0,0,0-.1,0-.2,0-.3,0h0ZM287.7,46.4s0,0-.2,0-.2,0-.2,0c0,0,0,0,.2,0s.2,0,.2,0h0ZM286.9,46.5s-.4,0-.9,0c-.5,0-.9,0-.9,0,0,0,.4,0,.9,0,.5,0,.9,0,.9,0h0ZM297.7,52.3s-.1,0-.3,0-.3,0-.3,0,.1,0,.3,0,.3,0,.3,0h0ZM296.5,52.5s-.1,0-.2,0c-.1,0-.2,0-.2,0s.1,0,.2,0c.1,0,.2,0,.2,0h0ZM295.6,52.6s-.1,0-.3,0-.3,0-.3,0,.1,0,.3,0,.3,0,.3,0h0ZM281,52.7s0,0-.2,0-.2,0-.2,0,0,0,.2,0,.2,0,.2,0h0ZM294.5,52.7s-.1,0-.3,0-.3,0-.3,0,.1,0,.3,0,.3,0,.3,0h0ZM281.7,52.9s0,0,.1,0c0,0,0,0,.1,0,0,0,.1,0,.2,0,0,0,0,0,0,0h-.4s0,0,0,0h0ZM292.7,52.9c.2,0,.3,0,.5,0,.3,0,.3,0,0,0h-.5c-.1,0-.1,0,0,0h0ZM292,53s-.1,0-.3,0-.3,0-.3,0,.1,0,.3,0,.3,0,.3,0h0ZM282.8,53c.3,0,.5,0,.8,0,0,0,0,0,0,0-.3,0-.5,0-.8,0,0,0,0,0,0,0h0ZM283.6,53.1h0c0,0,0,0,0,0h0c3.8,0,6.9,0,6.9,0h0s-3.1,0-6.9,0h0s0,0,0,0h0ZM279.9,60.9c0-1.2.2-2.2.7-3.3.4-.9.9-1.7,1.4-2.5,0,0,0,0,0,0-.7-.3-1.5-.5-2.2-.6-.5,0-.8,0-1,.5-.6,1.3-.9,2.9-1.1,4.3-.3,2,0,4.2.9,5.9.6,1,1.8,1.9,2.8,2.6h0s0,0,0,0c-1.2-1.8-1.4-4.6-1.5-6.7h0ZM296.5,54.9c.4,1.8.8,3.5.3,5.3-.4,1.4-.7,2.8-1.1,4.3,0,0,0,0,0,0,.6-.4,1.1-.8,1.6-1.3,1.2-1.2,1.6-3,1.6-4.7,0-1.7-.6-3-2.1-3.8-.3-.2-.4,0-.3.2h0ZM286.7,55.5c-.6-.3-1.1-.2-1.7.2-1.6,1.3-1.8,4.7-1.7,6.6.1,2,.3,3.6,1.4,5.2,0,0,.1.1.2.1,1.7,0,2.8-.4,3.1-2.2.6-3.1.8-6.1-.2-9.1-.2-.6-.7-.7-1.1-.9h0ZM290.2,66.5s0,0,0,0c.8-.5,1.5-1,2.3-1.6.9-.8,1.9-4.7,1.6-5.8-.3-1.3-.8-2.6-1.4-3.8,0,0,0,0-.1,0h-2c0,0,0,0,0,0,.5,1.6,1,3.5,1,5.3,0,1.9-.6,4-1.4,5.9h0ZM270.5,56.3v.2s0,0,0,0,.2-.2,0-.2c0,0,0,0,0,0h0ZM270.5,59.4c-.2-.9,0-1.7,0-2.5,0,0,0,0,0,0s0,0,0,0c-.2,1.2-.2,2.4.1,3.5,0,.2,0,.2,0,0,0-.3-.1-.7-.2-1h0ZM257.2,57.4s-.1,0-.2-.1c-.1,0-.3,0-.3,0,0,0,.1,0,.2.1.1,0,.3,0,.3,0h0ZM257.9,57.7s0,0-.2-.1-.2,0-.2,0c0,0,0,0,.2.1s.2,0,.2,0h0ZM301.5,57.8c0,0,0-.1,0-.2h0c0,0,0,.2,0,.2,0,0,0,0,0,0,0,0,0,0,0,0h0ZM258.6,58s-.1,0-.3-.1c-.1,0-.3,0-.3,0,0,0,.1,0,.3.1.1,0,.3,0,.3,0h0ZM301.6,59.6s0-.2,0-.5,0-.5,0-.5,0,.2,0,.5,0,.5,0,.5h0ZM301.5,60.2c0,0,0,.1,0,.2,0,0,0,0,0,0,0,0,0-.2,0-.2,0,0,0,0,0,0h0ZM293.9,67.7c0,0,.1,0,.2,0,0,0,0,0,0,0-.1,0-.2,0-.2,0,0,0,0,0,0,0h0ZM291.6,68.1c-.1,0-.2,0-.4,0-.3,0-.3,0,0,0,.1,0,.3,0,.4,0,0,0,0,0,0,0,0,0,0,0,0,0h0ZM290.7,68.3c0,0,.1,0,.2,0h0s-.2,0-.2,0c-.2,0-.2,0,0,0h0ZM290.1,68.4s0,0-.2,0c-.1,0-.2,0-.2,0s0,0,.2,0c.1,0,.2,0,.2,0h0ZM289.3,68.6s0,0-.2,0c-.1,0-.2,0-.2,0s0,0,.2,0c.1,0,.2,0,.2,0h0ZM288,68.7c.1,0,.2,0,.4,0,0,0,0,0,0,0h-.4c0,0,0,0,0,0h0ZM287,68.8s0,0,0,0,0,0,0,0c.1,0,.3,0,.5,0,0,0,0,0,0,0h-.4q0,0,0,0ZM285.8,69c.1,0,.3,0,.5,0,0,0,0,0,0,0-.1,0-.3,0-.5,0,0,0,0,0,0,0h0ZM285.5,69.5v-.2c0-.1,0-.1,0,0,0,.2,0,.3,0,.4,0,.3.1.3,0,0,0,0,0,0,0-.1,0,0,0,0,0-.1h0ZM284.6,73.6v.3s0,0,0,0c0-.1,0-.2,0-.3,0,0,0,0,0,0h0ZM285,75.1c0,0,0-.2,0-.2,0,0,0,0,0,0v.4c0,.1.1.1.1,0,0,0,0,0,0,0,0,0,0,0,0,0h0ZM285,75.4c0,.2,0,.4,0,.5,0,0,0,0,0,0,0-.2,0-.4,0-.5h0ZM285.3,76.5s0,0,0,0c0,0,0,0,0,0,0,0,0,.2,0,.3,0,.2,0,.2,0,0h0v-.2h0ZM285.3,77.4v.4s0,0,0,0h0s0,0,0,0v-.4s0,0,0,0h0s0,0,0,0h0ZM287.6,78.4c0-.1,0-.2,0-.3,0,0,0,0,0,0,0,.1,0,.2,0,.3,0,0,0,0,0,0h0ZM285.5,78.6c0,0,0-.2,0-.3,0,0,0,0,0,0,0,.2,0,.5,0,.7,0,.1,0,.1,0,0,0,0,0-.2,0-.3,0,0,0,0,0-.1h0ZM287.6,78.9c0,0,0,.1,0,.2,0,.2,0,.2,0,0,0,0,0-.2,0-.2,0-.2,0-.2,0,0h0ZM287.7,79.6v.4c0,0,0,0,0,0,0-.2,0-.3,0-.4,0,0,0,0,0,0h0ZM285.7,80.1s0,0,0,0h0s0,0,0,0v2.7s0,0,0,0h0s0,0,0,0v-2.7h0ZM288,81.2s0-.1,0-.3c0-.2,0-.3,0-.3s0,.1,0,.3c0,.2,0,.3,0,.3h0ZM288.1,82.1c0,0,0,.1,0,.2,0,0,0,0,0,0v-.2s0,0,0,0h0ZM287.9,83.1h0c0,0,0,.1,0,0,0,0,0-.1,0-.2,0,0,0,0,0,0h0ZM292.5,83.7h-.1c0,0,0,0,0,0,0,0,.1,0,.2,0,0,0,0,0,0,0h0ZM291.8,83.9c0,0,.1,0,.2,0,0,0,0,0,0,0h-.2c0,0,0,0,0,0h0ZM287.1,84s0,0-.2,0c-.1,0-.2,0-.2,0s0,0,.2,0c.1,0,.2,0,.2,0h0ZM290.2,84.1s0,0,0,0c0,0,.2,0,.2,0,0,0,0,0,0,0h-.2ZM289.7,84.3c0,0-.1,0-.2,0,0,0,0,0,0,0h.2s0,0,0,0h0ZM291.5,85.8s0,0-.2,0c0,0-.2,0-.2,0s0,0,.2,0c0,0,.2,0,.2,0h0ZM290.6,85.9s-.1,0-.3,0c-.1,0-.3,0-.3,0s.1,0,.3,0c.1,0,.3,0,.3,0h0ZM289.1,86s0,0,0,0c.2,0,.3,0,.5,0,0,0,0,0,0,0h-.4ZM302.7,86.7c0,0,0,.1,0,.2,0,.2,0,.2,0,0v-.2s0,0,0,0c0,0,0,0,0,0h0ZM279.4,88.9s0,0,0,0h0s0,0,0,0v-1.7s0,0,0,0h0s0,0,0,0v1.7h0ZM290,88.8c0-.2,0-.6,0-.8,0,0,0,0,0,0,0,.3,0,.6,0,.8,0,.2,0,.2,0,0h0ZM287.4,91.9s-.2,0-.5,0-.5,0-.5,0,.2,0,.5,0,.5,0,.5,0h0ZM284.2,92.3h.4c0,0,0,0,0,0h0c0,0,0-.1,0-.1h-.4s0,0,0,0,0,0,0,0h0ZM283.6,92.4s-.1,0-.3,0-.3,0-.3,0,.1,0,.3,0,.3,0,.3,0h0ZM284.6,92.8s0,0,0-.2c0,0,0-.2,0-.2s0,0,0,.2c0,0,0,.2,0,.2h0ZM284.4,93.3c0,.2,0,.4,0,.6,0,0,0,0,0,0v-.6c0,0,0,0,0,0h0ZM294,93.8s-.2,0-.5,0-.5,0-.5,0,.2,0,.5,0,.5,0,.5,0h0ZM296,94.2s0,0-.2,0-.2,0-.2,0,0,0,.2,0,.2,0,.2,0h0ZM297.7,94.3s-.3,0-.6,0c-.3,0-.6,0-.6,0s.3,0,.6,0c.3,0,.6,0,.6,0h0ZM284.4,95.8c0,.1,0,.3,0,.4,0,0,0,0,0,0v-.4c0,0,0,0,0,0h0ZM286.9,99.8c-.2,0-.4-.1-.6-.1h0c.6.3,1.2.4,1.9.3,0,0,0,0,0,0s0,0,0,0c-.4,0-.9,0-1.3-.1h0Z"></path><path class="cls-2" d="M308.8,38c-.7.6-1.9,1.3-2.9,1-1-.3-.6-3.2-.2-3.9.7-1.4,3.3-1.7,3.5.3,0,0,.1.2.2,0,1.7-1.2,2.9-3.1,5.4-3,.3,0,.4.2.4.5,0,1.8-3,3.7-4.3,4.5,0,0-.1.2-.2.4-.9,2-2,3.6-3.2,5-.4.4-.9.6-1.6.6-1.2,0-2.5-.1-3.7-.2-6-.6-11.1-.8-16.6,0-1,.1-1.9.2-2.9.3-.7,0-1.9.2-2.4-.3-1.1-1.4-2.3-2.9-3.4-4.3-.5-.6-1-1.2-1.6-1.6-1.2-.8-3.3-2-3.7-3.4-.3-1,.5-1.9,1.5-2.1,1.7-.3,3.8,2,3.5,3.7,0,0,0,0,0,0,.9-1.5,1.9-3.7,4-2,1.2.9,1.7,2,1.6,3.5,0,.5-.3.9-.9,1.1-.9.3-1.8.2-2.6-.3t0,0l2.8,3.4s0,0,.1,0c.9-.1,1.7-.3,2.5-.4,1.1-.2,1.3-2.4,1.4-3.3,0-.8-.1-1.7-1.2-1.7s-1.4-2.1-1.3-3c0,0,0-.2.1-.2.7,0,1.4,0,2.1.2,0,0,0,0,0,0-.3-.9-.2-2.9,1.4-2.3,0,0,0,0,.1,0,.3.5.4.9.4,1.2,0,1.3,0,2.6.2,3.9.1,1.4.1,2.5,0,3.8,0,.5.1,1.4.8,1.3,1.1-.1,2.3-.3,3.4-.6,0,0,.1,0,.1-.1v-3.2c-.1,0-.2,0-.2,0-.3.2-.7.6-1.2.6-1.2,0-1.9-.6-2.3-1.7-.5-1.6-.7-5.1,2-5,.5,0,.9.2,1.3.4,0,0,0,0,0,0,0,0,0,0,0,0-.3-.3-.5-.8-.5-1.2s0,0,0-.1c1-1.3,1.8-2,3.5-1.6.9.2,2.1.9,1.9,2,0,0,0,0,0,0,1.4-.4,2.7.4,2.9,1.9.3,1.7,0,3.2-1,4.5-.8,1.1-2.4,1.5-3.2.2,0,0,0,0,0,0l-.4,3.5s0,0,0,0c1.8,0,3.6,0,5.4.1,0,0,0,0,0,0,.3-1.6.4-3.2.3-4.8,0-.4,0-.7,0-.9.1-.5,1.2-.4,1.8-.3.4,0,.9-.8,1.2-1,.3-.3.9-.6,1.1,0,.4,1,.6,2.8-.3,3.6-.7.7-1.4,1.4-2.1,2.1,0,0,0,.1,0,.2.1.5.3,1.1.4,1.6.2.8,2.8.7,3.4.5,0,0,0,0,.1,0,.9-1.1,1.6-2.2,2.8-3.1,0,0,0,0,0,0,0,0,0,0,0,0h0ZM291.9,31.4s0,0,0,0h0s0,0,0,0l1.1,1.2s0,0,0,0h0s0,0,0,0l-1.1-1.2h0ZM293.2,33.1c0,.1,0,.2,0,.4l-1.1,2.4c0,.2,0,.2,0,0,.4-.6.7-1.2,1-1.8,0,0,0,0,.1,0h.1c0,0,0,0,0-.1l-.2-.4v-.4s0,0,.1,0c0,0,0-.1,0-.1h0c0,0,0,0,0,0h0c0,.1,0,.1,0,.1ZM294.1,35.1s0,0-.1-.2c0,0-.2-.2-.2-.2s0,0,.1.2c0,0,.2.2.2.2h0Z"></path><path class="cls-2" d="M325.7,51.4c1.1-.6,2.3-1.3,3.6-2.1,1-.7,1.9-1.4,2.5-2.5,1.1-2,1.3-3.9,1.8-6.6.5-2.9,2.6-4.2,5.1-5.2.5-.2,1.4-.2,1.7.3.4.7-.7,1.2-1.1,1.5-2.7,1.9-2.9,5.1-3.3,8.5-.1.8-.2,1.4-.4,1.8-.6,1.7-2,3.3-3.4,4.4,0,0,0,0,0,0,1.2-.3,2.3-.8,3.3-1.6,1.7-1.5,2.5-4,4.8-4.9,1-.4,2-.4,3-.1.5.2,0,1.7,0,2-.3.7-1.3.7-1.9.9-1.8.8-2,2.4-3,3.8-1,1.3-2.3,2.4-3.7,3.2-3.3,2-6.9,3.1-10.8,3.3-4.7.2-9.3.2-13-3.3-.1-.2-.2-.3-.3-.5,0,0,0-.2.1-.1,1.5.1,3.1,0,4.6-.4,0,0,.1-.1.1-.2-.1-.3-2.9-.7-3.4-.7-.7-.1-2.9-.9-2.7-1.7,0,0,0,0,0,0,.5,0,.9,0,1.2,0,1.6.2,3.2.3,4.7.5,1.8.2,3.7,0,5.7-.4,3.1-.7,6.5-3.4,5.2-6.9-.5-1.4-1.5-2.1-3-2.1-.3,0-.8.2-1.1.1-.2,0-.3-.2-.2-.4.7-1.4,1.9-2.2,3.5-2.4,3.1-.3,5.7,1.1,5.5,4.5-.1,1.9-.8,3.6-2.1,4.9-.8.8-1.8,1.6-3,2.5-.1,0-.1,0,0,0h0Z"></path><path class="cls-2" d="M344.7,95.5c-3,.4-5.6.4-8.5-.3-2.7-.7-6.2-1.9-7.4-4.8-.2-.4-.3-.9-.4-1.7-.2-1.6-.3-5.5-2.8-5.1-1.4.2-2.8.7-4.2,1.4-.1,0-.2,0-.4,0,0,0,0,0,0,0-.3-1.9.1-3.5,2-4.3,1.6-.7,4.1-.8,5.6.3.3.2.7.7,1.2,1.4,1.3,2,2.7,3.7,3.2,5.7,0,.2.1.3.2.4,0,0,.1,0,0,0-.7-1.8-1.3-2.9-1.6-3.5-.9-1.7-.9-3.6-.5-5.4.8-3.8,2.4-9.9-2.2-12.2-.9-.5-2.7.9-3.3,0-.1-.2,0-.4.1-.6.5-.3,1.7-.7,2.4-.9,2.1-.5,4,0,5.7,1.2,3.5,2.6,2.8,7.7,2.2,11.4-.2,1.6-.2,2.8,1,3.8,0,0,.1,0,.1,0,0-3.3,1.4-7.5,5.3-7.8,1.7-.1,3.4,0,4.9.8,1.4.9,2.3,2.3,2.7,4.1,0,.1,0,.2-.2.2-.2,0-1.3-.8-1.3-.8-1-.6-2.2-.7-3.4-.6-1.9.2-3.2.9-3.2,3s.4,2.7,1.3,3.8c1.5,1.9,4.6,1.8,6.4.5,2.4-1.6,3.9-4.8,4.3-7.6.7-5.2,0-10.1-3.6-14-3.6-3.8-8.1-6-13.5-6.4-1.3-.1-3,0-5,.2,0,0,0,0-.1,0,0-.2,0-.3.2-.4,2.8-1.5,5.4-1.7,8.5-1.5,8.7.4,15,7.4,17.6,15.2,1.6,4.8.5,10.7-1.4,15.3-.9,2.2-1.9,3.8-3.6,5.4,0,0,0,0,0,0,.1,0,.2.1.2.2,1.4,1.8,2.7,3.7,3.9,5.5,1.6,2.3,2.7,4.8,3.2,7.6.3,1.8,0,3.7-.5,5.6-.5,2-1.2,3.8-2.2,5.8-1.6,3.1-5.4,10.4.1,12.2,1.2.4,2.3.2,2.8-1,0,0,0,0,0,0,0,0,.2-.2.3-.2.4,0,0,2,0,2.4-.6,3.2-3.1,4.4-6.1,4.1-1-.1-2-.4-2.9-1,0,0,0,0,0,0,.4,1,.7,1.9.9,2.9.1.7.8,1.7,1,2.6.3,1.2-.9,2.4-1.8,2.8-.6.3-1.3.3-2,.1,0,0,0,0-.1,0-1-1.2.6-2,.8-3.1,0,0,0,0,0-.1-.5-1-1.9-1.7-2.5-2.3-1.9-1.8-2.1-4.1-1.8-6.6,0,0,0,0,0,0-1.5,2.4-3,4.8-4.5,7.2-1.4,2.2-2,4.4-2.1,7.1,0,1.6.4,3.8,1.6,5,1.6,1.5,4,1.1,5.7,0,.5-.4,1.1-1.1.9-1.9-.2-.8-.8-1.5-1.2-2.2-.1-.1,0-.4.2-.3,2.6.4,4.1,2.5,4.1,5.1,0,1.1-.2,2.3-.7,3.4,0,0,0,0,0,0,1.4.4,2.6,1.1,3.6,1.8.6.4.8,1.5-.2,1.6-1.9.3-4-.2-5.8-.6-.1,0-.1,0-.2-.1,0,0,0,0-.1,0l-.7.5s0,0,0,.1c1.1,2.4,2,5.3,1.9,7.9-.1,3.1-2.6,3.9-5.3,3.6,0,0-.1,0-.1-.1,0-.2,0-.4.1-.5.5-.7.8-1.5,1.1-2.3.5-1.4-.2-2.7-1.2-3.7-1.4-1.5-3.2-2.9-4.6-4.2-2.9-2.8-5.1-6.8-6.3-10.6-2.7-8.9.5-17.9,7-24.2,0,0,0-.2,0-.2-2-2.7-6-2.5-9-2.2-.1,0-.2,0-.2-.2,0-.3,1-1.8,1.2-2.1,2.1-2.9,6.9-1.5,9.3.4.1.1.1,0,0,0-.5-.6-.9-1.2-1.3-1.8,0,0,0,0-.1,0-.8.2-3.9-2.4-4.6-3-.8-.7-1.2-1.5-1.4-2.5-.2-1.7-.1-3.4.2-5.1,0-.3.3-.5.6-.5,0,0,0,0,0,0,.5,1.7,1,3.4,1.8,5.1.3.6.7,1.1,1.3,1.4.2.1.2.2.2.4,0,.1,0,.1,0,0-.1-2.5.5-4.7,1.9-6.6,1.6-2.2,4.8-2.2,7.1-1.2,0,0,0,0,0,0-.4-.7-.7-1.4-1-2.2-.3-.9-.9-1.6-1.5-2.3-.1-.1-.1-.2,0-.4,0,0,0,0,0,0,0,0-.1,0-.2,0-1.1-.9-2.4-1.6-3.7-2.1,0,0,0,0,0,0v-.2c0,0,0-.1,0-.1.5,0,.9,0,1.4,0,.8,0,1.5,0,2.3-.3.2,0,.2,0,0,0h0ZM348.2,94.6c-.2,0-.3,0-.3,0,0,0,0,0,.1,0h.2c.2,0-.1.9-.2,1-.4.8-.6,1.5-.9,2.2,0,0,0,0,0,.1.1.5.3.8.6,1.2,1.3,1.9,2.3,3.6,3.3,5.2.4.8,1.1,1.6,2,2.6.2.2.2.4,0,.6-1.9,1.3-2.9,0-3.6-1.6,0,0,0,0,0,0v.5c0,0,0,0,0,.1-1.4.8-3.4-2-3.9.7-.2.8.7,2.1,1.2,2.6,2.5,2.9,5.9,2.2,8-.5,1.9-2.4,2.5-5.7,1.1-8.6-1-1.9-2.3-4.4-4-7.4-.3-.5.2-.7.5-1,0,0,0,0,0,0-1.2.8-2.4,1.5-3.8,2,0,0,0,0,0,0h0ZM338.3,145.4c0,.1,0,.2.1.2,0,0,0,0,0,0,0-.1,0-.2-.1-.3-.3-.8-.5-1.6-.6-2.5-.5-3.7.3-7.1,2.2-10.2,1.3-2.2,3.2-4.5,5.6-5.5,0,0,0,0,0,0-1.6-.5-2.5-2.4-2.9-3.9,0-.3-.2-.6-.3-.9,0,0,0,0,0,0-.3.2-.5.5-.7.8-2.1,2.9-3.6,6.1-4.6,9.5-1.3,4.5-.6,8.6,1.4,12.9h0ZM350.4,125.3s0-.1,0-.3,0-.3,0-.3c0,0,0,.1,0,.3s0,.3,0,.3h0ZM350.6,128s0-.5,0-1.1c0-.6-.1-1.1-.1-1.1,0,0,0,.5,0,1.1,0,.6.1,1.1.1,1.1h0ZM350.8,128.6c0,0,0,.1,0,.2,0,0,0,0,0,0v-.2s0,0,0,0h0Z"></path><path class="cls-2" d="M345.5,60.5c0,0,0,.1-.1.1l-15.4-1.1c0,0-.1,0-.1-.1h0c0,0,0-.1.1-.1l15.4,1.1c0,0,.1,0,.1.1h0Z"></path><path class="cls-2" d="M244.9,61.4s0,0,0,0c.3-.2.6-.3,1-.3,4.8-.4,9.6-.8,14.5-1.1,0,0,.1,0,.1,0,0,.1,0,.2-.1.2-5.1.4-10.2.8-15.5,1.2h0Z"></path><path class="cls-2" d="M348.3,62.9c0,0,0,.1-.1.1l-21.1-1.5c0,0-.1,0-.1-.1h0c0,0,0-.2.1-.1l21.1,1.5c0,0,.1,0,.1.1h0Z"></path><path class="cls-2" d="M263.3,62.1c0,0,0,.2-.1.2l-21,1.5c0,0-.1,0-.1-.1h0c0,0,0-.2.1-.2l21-1.5c0,0,.1,0,.1.1h0Z"></path><path class="cls-2" d="M349.7,65.2c0,0,0,.1-.1.1l-29.1-2c0,0-.1,0-.1-.1h0c0-.1,0-.2.1-.2l29.1,2c0,0,.1,0,.1.1h0c0,0,0,0,0,0Z"></path><path class="cls-2" d="M269.9,63.9s0,0,0,0l-29.3,2.1s0,0,0,0v-.2s0,0,0,0l29.3-2s0,0,0,0v.2h0Z"></path><path class="cls-2" d="M323.7,65.5c0,0,0,0-.1,0l-5.6-.4c0,0-.1,0-.1-.1h0c0-.1,0-.2.1-.2l5.6.4c0,0,.1,0,.1.1h0c0,0,0,0,0,0Z"></path><path class="cls-2" d="M272.5,65.8c0,0,0,.1-.1.1l-5.6.4c0,0-.1,0-.1-.1h0c0,0,0-.2.1-.2l5.6-.4c0,0,.1,0,.1.1h0Z"></path><path class="cls-2" d="M350.9,67.4c0,0,0,.1-.1.1l-17-1.2c0,0-.1,0-.1-.2h0c0,0,0-.1.1-.1l17,1.2c0,0,.1,0,.1.2h0Z"></path><path class="cls-2" d="M256.7,66.9c0,0,0,.1-.1.2l-16.9,1.1c0,0-.1,0-.1-.1h0c0,0,0-.2.1-.2l16.9-1.1c0,0,.1,0,.1.1h0Z"></path><path class="cls-2" d="M325.7,67.8c0,0,0,.1-.1.1l-9.6-.7c0,0-.1,0-.1-.1h0c0,0,0-.1.1-.1l9.6.7c0,0,.1,0,.1.1h0Z"></path><path class="cls-2" d="M274.5,67.8c0,0,0,.1-.1.1l-9.6.7c0,0-.1,0-.1-.1h0c0,0,0-.1.1-.2l9.6-.7c0,0,.1,0,.1.1h0Z"></path><path class="cls-2" d="M352.1,69.7c0,0,0,.1-.1.1l-16.2-1.1c0,0-.1,0-.1-.2h0c0,0,0-.1.1-.1l16.2,1.1c0,0,.1,0,.1.2h0Z"></path><path class="cls-2" d="M326,69.9c0,0,0,.1-.1.1l-12.7-.8c0,0-.1,0-.1-.1h0c0,0,0-.2.1-.2l12.7.8c0,0,.1,0,.1.1h0Z"></path><path class="cls-2" d="M254.8,69.3c0,0,0,.1-.1.1l-16.3,1.1c0,0-.1,0-.1-.1h0c0,0,0-.2.1-.2l16.3-1.1c0,0,.1,0,.1.1h0Z"></path><path class="cls-2" d="M277.5,69.8c0,0,0,.1-.1.2l-12.7.9c0,0-.1,0-.1-.1h0c0,0,0-.2.1-.2l12.7-.9c0,0,.1,0,.1.1h0Z"></path><path class="cls-2" d="M352.4,71.9c0,0,0,0-.1,0l-15.7-1.1s0,0,0,0h0c0-.1,0-.2.1-.2l15.7,1.1s0,0,0,0h0c0,0,0,0,0,0Z"></path><path class="cls-2" d="M327.3,72.3c0,0,0,.1-.1,0l-14.4-1c0,0-.1,0-.1-.1h0c0-.1,0-.2.1-.2l14.4,1c0,0,.1,0,.1.1h0Z"></path><path class="cls-2" d="M253.9,71.4c0,0,0,.1-.1.1l-15.7,1.1c0,0-.1,0-.1-.1h0c0,0,0-.2.1-.2l15.7-1.1c0,0,.1,0,.1.1h0Z"></path><path class="cls-2" d="M277.6,72c0,0,0,.1-.1.1l-14.4,1c0,0-.1,0-.1-.1h0c0,0,0-.2.1-.2l14.4-1c0,0,.1,0,.1.1h0Z"></path><path class="cls-2" d="M329,74.5c0,0,0,.1-.1.1l-16.1-1.1c0,0-.1,0-.1-.2h0c0,0,0-.1.1-.1l16.1,1.1c0,0,.1,0,.1.2h0Z"></path><path class="cls-2" d="M352.9,74c0,0,0,.1-.1.1l-3.8-.3c0,0-.1,0-.1-.1h0c0,0,0-.1.1-.1l3.8.3c0,0,.1,0,.1.1h0Z"></path><path class="cls-2" d="M280.9,73.9c0,0,0,.1-.1.2l-19.1,1.3c0,0-.1,0-.1-.1h0c0,0,0-.2.1-.2l19.1-1.3c0,0,.1,0,.1.1h0Z"></path><path class="cls-2" d="M241.5,74.5c0,0,0,.1-.1.1l-3.9.3c0,0-.1,0-.1-.1h0c0,0,0-.1.1-.2l3.9-.3c0,0,.1,0,.1.1h0Z"></path><path class="cls-2" d="M328.4,76.7c0,0,0,.1-.1.1l-15.7-1.1c0,0-.1,0-.1-.1h0c0-.1,0-.2.1-.2l15.7,1.1c0,0,.1,0,.1.1h0s0,0,0,0Z"></path><path class="cls-2" d="M280.4,76.1c0,0,0,.1-.1.1l-18.3,1.3c0,0-.1,0-.1-.1h0c0-.1,0-.2.1-.2l18.3-1.3c0,0,.1,0,.1.1h0c0,0,0,0,0,0Z"></path><path class="cls-2" d="M352.3,76.2c0,0,0,.1-.1.1h-1.3c0-.1-.1-.2-.1-.3h0c0,0,0-.1.1-.1h1.3c0,.1.1.2.1.3h0Z"></path><path class="cls-2" d="M239.5,76.8c0,0,0,.1-.1.1h-1.1c0,0-.1,0-.1-.1h0c0,0,0-.1.1-.1h1.1c0,0,.1,0,.1.1h0Z"></path><path class="cls-2" d="M280.8,78.3c0,0,0,.1-.1.2l-18.1,1.2c0,0-.1,0-.1-.1h0c0,0,0-.2.1-.2l18.1-1.2c0,0,.1,0,.1.1h0Z"></path><path class="cls-2" d="M244.9,78.6c0,0,0,.1-.1.1h-1.4c0,.1-.1,0-.1,0h0c0,0,0-.2.1-.2h1.4c0-.1.1,0,.1,0h0Z"></path><path class="cls-2" d="M280.5,80.5c0,0,0,.1-.1.1l-12,.8c0,0-.1,0-.1-.1h0c0,0,0-.1.1-.2l12-.8c0,0,.1,0,.1.1h0Z"></path><path class="cls-2" d="M247.3,80.6c0,0,0,.1-.1.1l-6.5.4c0,0-.1,0-.1-.1h0c0,0,0-.2.1-.2l6.5-.4c0,0,.1,0,.1.1h0Z"></path><path class="cls-2" d="M246.5,82.8c0,0,0,.1-.1.1l-4.7.3c0,0-.1,0-.1-.1h0c0,0,0-.2.1-.2l4.7-.3c0,0,.1,0,.1.1h0Z"></path><path class="cls-2" d="M278.2,82.8c0,0,0,.1-.1.1l-7.2.4c0,0-.1,0-.1-.1h0c0,0,0-.1.1-.2l7.2-.4c0,0,.1,0,.1.1h0Z"></path><path class="cls-2" d="M247.4,85c0,0,0,.1-.1.1h-3.1c0,.1-.1,0-.1,0h0c0,0,0-.2.1-.2h3.1c0-.1.1,0,.1,0h0Z"></path><path class="cls-2" d="M276,85.1c0,0,0,.1-.1.1l-5.2.4c0,0-.1,0-.1-.1h0c0-.1,0-.2.1-.2l5.2-.4c0,0,.1,0,.1.1h0Z"></path><path class="cls-2" d="M275.2,87.3c0,0,0,.1-.1.2l-4.5.4c0,0-.1,0-.1-.1h0c0,0,0-.2.1-.2l4.5-.4c0,0,.1,0,.1.1h0Z"></path><path class="cls-2" d="M268.3,87.8c0,0,0,.1-.1.1l-3.9.3c0,0-.1,0-.1-.1h0c0,0,0-.1.1-.1l3.9-.3c0,0,.1,0,.1.1h0Z"></path><path class="cls-2" d="M274.8,89.6c0,0,0,.1-.1.2l-10.5.7c0,0-.1,0-.1-.1h0c0,0,0-.2.1-.2l10.5-.7c0,0,.1,0,.1.1h0Z"></path><path class="cls-2" d="M327.4,130v-1.7s0,0,0,0h-5c-.1,0-.2,0-.2-.2h0c0-.2,0-.2.1-.2h5.1s0,0,0,0v-12.3s0,0,0,0h-2.4c0,0,0,0,0,0v-.2c0,0,0,0,0,0h2.4s0,0,0,0v-16.3c0-.6,0-1.1-.2-1.5-.5-1.4-1.7-2.1-3.1-2.1h-19.8c-.1,0-.2,0-.1-.2,0-.2.2-.3.4-.5,0,0,0,0,.1,0,6.3,0,12.6,0,18.8,0,2,0,3.7.7,4.4,2.7.1.5.2,1.3.2,2.6v73.8c0,2.5-3.2,4-5.4,4-7.2,0-11.7,0-13.7,0-1.3,0-2.5,0-3.6.2-3.8.9-7.4,3.9-9.9,6.7,0,0,0,0-.1,0-2.7-2.9-6.4-5.9-10.3-6.8-.5-.1-1.3-.2-2.2-.2h-13.6c-.5,0-1.1,0-1.6-.1-2.1-.3-4.4-1.7-4.4-4.1v-33c0-.6,0-2.1,0-3.1,0-.6,0-1,0-1.2v-37.3c0-1.8.9-3.5,2.7-4.1.4-.1,1.1-.2,2-.2,5,0,10,0,14.9,0,0,0,0,0,0,0,0,.4-.2.6-.6.6h-12.5c-.8,0-2.2,0-3.1,0-1.6.2-2.8,1.6-2.8,3.2,0,12.9,0,25.8,0,38.7,0,0,0,0,0,0h31s0,0,0,0v-39.4c0,0,0,0,0,0,.2,0,.4,0,.5.1,0,0,0,0,0,.1v39.2s0,0,0,0h31.5s0,0,0,0v-2.3c0,0,0-.1-.1-.1h-29.7c0,0-.1,0-.2-.1,0-.2,0-.3.2-.3,3,0,5.9,0,8.9,0,7.4,0,13.9,0,20.9,0,0,0,0,0,0,0v-3.6s0,0,0,0h-4.7c0,0-.1,0-.2-.1,0-.2,0-.2.3-.2,1.5,0,3.1,0,4.6,0,0,0,0,0,0,0h0ZM295.8,170.4c0,0,0,.1,0,.2v12.6c0,.2,0,.2.2,0,3.1-3.2,7.4-6.3,12.1-6.3s5.9,0,8.9,0c1.4,0,3.6,0,5.5,0,1.8,0,3.2-.4,4.5-1.7.3-.4.6-.9.6-1.4v-36c0,0,0,0,0,0h-31.5s0,0,0,0v32.4h0s0,0,0,0c0,0,0,0,0,0h0ZM292,154.9h3s0,0,0,0v-16.9c0,0,0-.1-.1-.1h-30.9s0,0,0,0c-.1,11.8,0,23.6,0,35.4s0,1,.2,1.3c.5,1.1,1.8,1.9,3,2.2.4.1.9.2,1.6.2h13c1.3,0,2.2,0,2.7.1,4,.5,7.9,3.4,10.7,6.2,0,0,.1,0,.1,0v-12.6s0,0,0,0h-5.4c0,0-.1,0-.1-.1,0-.1,0-.2.2-.2,0,0,0,0,.1,0h5.2c0,0,.1,0,.1-.1v-14.7c0,0,0-.1-.1-.1h-3s0,0,0,0v-.2c0,0,0,0,0,0h0Z"></path><path class="cls-2" d="M244.7,108.1c0,.4,0,.7-.3.9-.5.4-1.1.1-1.4-.4-.5-1.1-.1-3.1.4-4.3,1-2.6,2.8-5.4,5.2-7,.4-.3.8-.3,1.2-.1,0,0,0,0,0,0,.3.7,0,1.1-.6,1.6-2.6,2.3-4.4,5.7-4.6,9.2h0Z"></path><path class="cls-2" d="M298.9,98c.2,0,.4,0,.6,0h26.8c0,0,.1,0,.1.2h0c0,.2,0,.2-.1.2h-28.7c-.1,0-.1,0-.2-.1,0,0,0,0,0,0,.5,0,1,0,1.5,0h0Z"></path><path class="cls-2" d="M326.4,100.3c0,0,0,.1-.1.1h-28.8c0,0-.1,0-.1-.1h0c0-.1,0-.2.1-.2h28.8c0,0,.1,0,.1.1h0Z"></path><path class="cls-2" d="M281.1,101.9c.2-.2,1.5-1.3,1.9-1.3,0,0,0,0,0,0,0,1.2-.3,2.2-.9,3.2-.1.2-.4.2-.6,0-1.6-.7-3.1-.5-4.7.2-.4.2-.8,0-.9-.5-.4-.9-.5-1.8-.2-2.7,0-.1.2-.2.3,0,.9,1.6,2.4.7,3.1-.3,0,0,.2,0,.2,0,.3.7.8,1.1,1.5,1.2,0,0,0,0,.1,0h0Z"></path><path class="cls-2" d="M326.4,102.4c0,0,0,.2-.2.2h-28.7c0,0-.2,0-.2-.2h0c0-.1,0-.2.2-.2h28.7c0,0,.2,0,.2.2h0Z"></path><path class="cls-2" d="M279,108.9c-.5.1-1.1.2-1.6,0-.9-.2-1.6-1.1-1.2-2,.4-.9.9-1.8,1.5-2.5,0,0,0,0,.1,0,.9-.3,2.5-.7,3.4-.1,1.1.7,1.7,1.7,1.7,3.1,0,1.8-1.8,1.5-3,1.5-.2,0-.4,0-.8.1h0Z"></path><path class="cls-2" d="M326.4,104.6c0,0,0,.2-.2.2h-28.7c0,0-.2,0-.2-.2h0c0-.1,0-.2.2-.2h28.7c0,0,.2,0,.2.2h0Z"></path><path class="cls-2" d="M326.5,106.9s0,0,0,0h-29s0,0,0,0v-.3s0,0,0,0h29s0,0,0,0v.3h0Z"></path><path class="cls-2" d="M272.8,118.3c-.2,0-.5.2-.8.2,0,0,0,0,0,0-.7-3.4-1.4-6.8-1.8-10.3,0-.2,0-.3,0-.5,0-.1.2-.2.2,0,.7.9,1.3,1.9,1.8,2.8.2.3.3.6.4.9.6,2.3,1.2,4.6,1.8,6.9,0,0,0,0,0,.1,0,0-.1,0-.2,0-.5-.1-.9-.1-1.4,0h0Z"></path><path class="cls-2" d="M326.4,108.8c0,0,0,.2-.2.2h-28.7c0,0-.2,0-.2-.2h0c0,0,0-.2.2-.2h28.7c0,0,.2,0,.2.2h0Z"></path><path class="cls-2" d="M272.9,120.9c-.1,0-.2.2-.3.3-.3,0-.8.2-.8-.2,0-.7-.2-2,.5-2.5.5-.3,1-.3,1.8-.2,0,0,0,0,.1,0,.1.2.3.2.5.3.6.5,1,1.2,1,2,0,0,0,0,0,0,0,0,0-.1,0-.2-.1-.8-.5-1.4-1-1.9,0,0,0-.2.1-.2l.9.2s0,0,0,0c0-.1-.8-.2-1-.3-.1,0-.2,0-.2-.2-.2-1-.4-2.7-.1-3.7.7-2,1.9-4,3.7-5.2,1-.6,2.6-.6,3.6-.5.4,0,.8.2,1.2.5,0,0,0,0,0,.1,0,.4-.5.7-.6,1.1,0,.2,0,.2,0,0,.4-.7.8-1.5,1.7-1.5,1.9,0,1.8,3.6,1.7,4.7,0,1.7-.1,3.4-.2,5.1,0,.6-.3,1.2-1,1.4-2.3.6-3.8.8-6.1.7-.7,0-1.5.4-2.1.6,0,0,0,0-.1,0,0,0-.2,0-.2,0s0,0-.1,0c-1.1-.5-1.7-1.2-3-.7,0,0,0,0,0,.1h0ZM282.7,116.7c-.9,0-1.6.3-2.4.8-.1,0-.1,0,0,0,.9-.2,1.4-.7,2.4-.7s0,0,0,0c0-.3,0-.6,0-.9,0-.6-.2-1.8-.5-3.7,0-.4,0-.8,0-1.4,0,0,0,0,0,0-.4,0,.4,5.3.4,5.8,0,0,0,0,0,0h0ZM277,118.6c-.2,0-.8.3-1,.2-.1,0-.1,0,0,0h0c0,0,0,.1.1,0,1-.3,3.9-1.2,4.1-1.4,0,0,0,0,0,0-1.1.3-2.1.7-3.1,1.1h0Z"></path><path class="cls-2" d="M309.5,111c0,0,0,.1-.1.1h-11.9c0,0-.1,0-.1-.1v-.2c0,0,0-.1.1-.1h11.9c0,0,.1,0,.1.1v.2h0Z"></path><path class="cls-2" d="M327.2,111c0,0,0,.2-.1.2h-13.8c0,0-.1,0-.1-.2h0c0-.1,0-.2.1-.2h13.8c0,0,.1,0,.1.2h0Z"></path><path class="cls-2" d="M312.5,114.9c-.4.3-.7.9-1.2.5-.7-.6-1.5-1.6-1.3-2.6.4-2,3.5-1.7,3.4.4,0,.7-.3,1.2-.8,1.7h0Z"></path><path class="cls-2" d="M309.4,113.2c0,0,0,0-.1,0h-11.8c0,0-.1,0-.1,0v-.2c0,0,0,0,.1,0h11.8c0,0,.1,0,.1,0v.2h0Z"></path><path class="cls-2" d="M327.1,113.1c0,0,0,.2-.2.2h-13c0,0-.2,0-.2-.2h0c0,0,0-.2.2-.2h13c0,0,.2,0,.2.2h0Z"></path><path class="cls-2" d="M300.8,117c-.2-.2-.5-.3-.7-.4-1.7-.9-.8-3.3,1.1-2.9,1.2.3,1.3,1.7.8,2.6-.2.5-.5,1.1-1.2.7h0Z"></path><path class="cls-2" d="M321.9,116.4c-.4-.7-.4-1.8.2-2.4.7-.7,2-.4,2.4.6.4,1.1-.1,1.7-1,2.2-.4.2-.8.5-1.2.4,0,0,0,0,0,0-.1-.3-.2-.4-.3-.7h0Z"></path><path class="cls-2" d="M308.3,117.5c-.2-.3-.5-.8-.5-1.2-.3-3.4,2.5-2.3,3.5-.6.3.6-1.1,1.5-1.5,1.7-.4.2-.9.2-1.3.1,0,0,0,0-.1,0h0Z"></path><path class="cls-2" d="M315,117.5c-1.1.5-2-.3-2.7-1.1-.6-.7.2-1.4.8-1.8.6-.5,1.4-.8,2-.2.5.4.5,1.3.5,2,0,.4-.2.7-.4,1.1,0,0,0,0,0,0h0Z"></path><path class="cls-2" d="M306.8,115.3c0,0,0,.2-.2.2h-2.3c0,0-.2,0-.2-.2h0c0,0,0-.2.2-.2h2.3c0,0,.2,0,.2.2h0Z"></path><path class="cls-2" d="M320.1,115.3c-.2,0-.4.2-.6.2h-3.3c0,0,0,0-.1,0h0c0-.2,0-.3.1-.3h4.4c.1,0,.2,0,0,0-.1,0-.3,0-.4.1h0Z"></path><path class="cls-2" d="M302,117.7c-.6-.3.1-1.6.4-1.9.3-.4.6-.5,1.1-.5.7,0,1.1,1,.9,1.7-.1.4-.2.8-.3,1.3,0,0,0,.1-.1.1-.6,0-1.2,0-1.8-.4,0,0,0,0,0-.1,0,0,0,0-.1-.1h0Z"></path><path class="cls-2" d="M320.3,115.4c.4,0,1,0,1.3.4.3.4.7,1.2.5,1.9,0,0,0,0,0,.1-.8.6-2.5,1.1-2.7-.5,0-.7.1-1.8,1-2h0Z"></path><path class="cls-2" d="M304.7,116.5c.2-.1.4-.3.5-.5,0,0,0,0,.1,0,1.7-.7,2.8.8,3,2.3,0,.1,0,.2-.2.3-1.2.5-2.5.6-3.8.3,0,0,0,0,0,0,0-.8,0-1.5.4-2.1,0,0,0,0,0,0h0Z"></path><path class="cls-2" d="M315,118.4c0-1.2.8-2.5,2.1-2.6,1.7,0,2.1,1.7,2.1,3,0,0,0,0,0,0-1.4.3-2.7.2-4-.3,0,0,0,0,0-.1h0Z"></path><path class="cls-2" d="M311.9,116.3c1.2,1.2,1,2.3,1,3.9s-.4,1.5-1.5,1.5c-.7,0-1.1-.4-1.1-1.2,0-1.5-.2-3,.9-4.2.2-.2.4-.2.6,0h0Z"></path><path class="cls-2" d="M299.1,119.4h0c-.3-.8-.6-1.9,0-2.5,0,0,0,0,.1,0,.7-.2,1.4,0,1.9.5.4.4.1,1.3,0,1.8-.4.8-1.2,1-1.8.3h0Z"></path><path class="cls-2" d="M322.7,117.7c.1-.8,2.1-1.4,2.5-.4.2.7.2,1.3-.1,1.9-.5.8-1.5,1-2,0-.3-.5-.4-1.1-.3-1.6h0Z"></path><path class="cls-2" d="M298.5,117.5c0,0,0,.1-.1.1h-.8c0,0-.1,0-.1-.1h0c0,0,0-.1.1-.1h.8c0,0,.1,0,.1.1h0Z"></path><path class="cls-3" d="M301.3,117.4h.2c0,0,.1,0,0,0,0,0-.3.2-.3,0,0,0,0,0,0,0h0Z"></path><path class="cls-2" d="M326.4,117.5c0,0,0,.1-.1.1h-.8c0,0-.1,0-.1-.1h0c0,0,0-.2.1-.2h.8c0,0,.1,0,.1.1h0Z"></path><path class="cls-2" d="M310,117.6l.3-.2c0,0,0,0,0,0h0c0,0,0,.1,0,.1-.1,0-.2,0-.4,0,0,0,0,0,0,0h0Z"></path><path class="cls-2" d="M313,117.4c0,0,.1,0,.2.1,0,0,0,0,0,0-.1,0-.2,0-.2-.1,0,0,0,0,0,0h0Z"></path><path class="cls-2" d="M322.5,117.4c0,0,.1,0,0,.1,0,0-.1,0-.2,0,0,0,0,0,0-.1h.1Z"></path><path class="cls-2" d="M302.2,118c1.2.6,1.4,2.1,1.6,3.2.2,1.4-1.7,1.9-2.1.7-.4-1-.9-2.2-.6-2.9.1-.4.2-.8.3-1.3,0,0,0,0,0,0,.3,0,.5,0,.7.2,0,0,0,0,.1,0h0Z"></path><path class="cls-2" d="M322.5,117.9c0,.6.5,1.4.4,1.9,0,.5-.3,1.2-.6,2-.3.8-.9,1.1-1.7.8-1.2-.4-.2-2.6,0-3.3.3-.8.9-1.1,1.6-1.5.1,0,.3,0,.3.1h0Z"></path><path class="cls-2" d="M307.2,119.1s0,0,0,0l.2,1.9c0,.5-.2.9-.6.9h-.4c-.4,0-.7-.3-.7-.8l-.2-1.9s0,0,0,0l1.6-.2h0Z"></path><path class="cls-2" d="M317.7,119.2c0,0,.1,0,.1.2l-.2,1.6c0,.5-.5.9-.9.9h-.2c-.4,0-.8-.5-.7-1.1l.2-1.6c0,0,0-.2.2-.2l1.5.2h0Z"></path><path class="cls-2" d="M299,119.3h0c0,0,0,0,0,0s0,0,0,0v.3c.1,0,.1,0,0,0h-1.7c0,0-.1,0-.1-.1v-.2s0,0,0,0h1.5s0,0,0,0h0s0,0,0,0Z"></path><path class="cls-2" d="M310.2,119.7c0,0,0,.1-.1.1h-2.6c0,0-.1,0-.1-.1v-.2c0,0,0-.1.1-.1h2.6c0,0,.1,0,.1.1v.2h0Z"></path><path class="cls-2" d="M315.9,119.6c0,0,0,.1-.1.1h-2.6c0,0-.1,0-.1-.1v-.2c0,0,0-.1.1-.1h2.6c0,0,.1,0,.1.1v.2h0Z"></path><path class="cls-2" d="M326.5,119.7s0,0,0,0h-1.5s0,0,0,0v-.3s0,0,0,0h1.5s0,0,0,0v.3h0Z"></path><path class="cls-2" d="M320.4,119.7c0,0,0,.1-.1.2h-2.1c0,0-.1,0-.1-.1h0c0-.1,0-.2.1-.2h2.1c0,0,.1,0,.1.1h0Z"></path><path class="cls-2" d="M305.4,119.7c0,0,0,0-.1,0h-1.7s-.1,0-.1,0h0c0-.2,0-.2.1-.2h1.6c0,0,.1,0,.1,0h0c0,.1,0,.1,0,.1Z"></path><path class="cls-2" d="M272.6,121.3c.1,0,.2-.2.3-.3.8-.3,1.6-.2,2.3.3,0,0,0,0,0,.1.3,1.2.6,2.4.8,3.6,0,0,0,0,0,.1h0c0,.1,0,.2,0,.2.1,0,.2-.2.1-.3-.2-.9-.3-1.9-.4-2.8,0,0,0-.1,0-.2.7-.3,2-.9,2.7-.9,1.4.1,2.7,0,4-.2,1-.2,1.2.7,1.4,1.5.2,1.2.4,2.3.5,3.5,0,1.2.2,2.4.3,3.6,0,.8.1,1.2.6,1.8.4.5.9,1,1.4,1.4.1.1.1.2,0,.3-.3.2-1.1.7-1.5.5s0,0-.1,0c-.6.9-1.3,1.7-2.4,1.7-1.2,0-2.4,0-3.5-.2-.9-.1-1.6-.5-2.5,0-1.2.7-2.2,1.1-3.4.1,0,0,0,0,0-.1.8-2,1.6-4.1,1.8-6.2,0-.6.1-1.2.3-1.8.1-.4.2-.8.3-1.2,0-.1,0-.1,0,0l-.3.3s0,0-.1,0c-.6.2-1.4,0-1.6-.7-.4-1.4-.7-2.9-1-4.3h0Z"></path><path class="cls-2" d="M301.2,121.7c0,0,0,.2-.2.2h-3.5c0,0-.2,0-.2-.2h0c0,0,0-.2.2-.2h3.5c0,0,.2,0,.2.2h0Z"></path><path class="cls-2" d="M326.8,121.7c0,0,0,.2-.2.2h-3.3c0,0-.2,0-.2-.2h0c0,0,0-.2.2-.2h3.3c0,0,.2,0,.2.2h0Z"></path><path class="cls-2" d="M311.5,123.8c-2.4,0-5,.3-8,.8-.8.1-1.2-.2-1.3-1.1,0-.4,1.4-.8,1.7-.8,5.7-1.2,11.1-.9,16.8.4.5.1,1.4.6,1.2,1.3-.1.5-.7.6-1.1.5-2.1-.2-4.2-.6-6.4-.9-1-.1-2-.2-3-.2h0Z"></path><path class="cls-2" d="M301.5,123.8c0,0,0,.1-.1.1h-3.9c0,0-.1,0-.1-.1h0c0-.2,0-.3.1-.3h3.9c0,0,.1,0,.1.1h0Z"></path><path class="cls-2" d="M326.4,123.8c0,0,0,.2-.2.2h-3.5c0,0-.2,0-.2-.2h0c0,0,0-.2.2-.2h3.5c0,0,.2,0,.2.2h0Z"></path><path class="cls-2" d="M310.7,126.9c-2.6,0-5.3.1-7.8.7-.9.2-1.5-.5-1.3-1.3,0,0,0,0,0-.1.4-.3.8-.4,1.4-.5,3.9-.6,7.6-.9,11.3-.5,1.6.1,3.5.4,5.6.7.8.1,2.5.5,2.1,1.6-.3.7-2.1.4-2.8.3-2.9-.4-5.7-.9-8.6-.9h0Z"></path><path class="cls-2" d="M300.3,126c0,0,0,.1-.1.1h-2.8c0,0-.1,0-.1-.1v-.2c0,0,0-.1.1-.1h2.8c0,0,.1,0,.1.1v.2h0Z"></path><path class="cls-2" d="M327,126c0,0,0,.1-.1.1h-4.5c0,0-.1,0-.1-.1h0c0-.2,0-.3.1-.3h4.5c0,0,.1,0,.1.1h0Z"></path><path class="cls-2" d="M311.9,129.9c-3,0-5.3.3-8,.5-.4,0-.8,0-1.2,0-.4,0-.6-.8-.4-1.1.3-.6,1.6-.7,2.2-.8,5.4-.7,10.7-.5,16.1.5.8.1,1.8.7,1.2,1.6,0,0,0,0-.1,0-.5.1-1.1.2-1.7.1-1.4-.1-2.6-.3-3.7-.4-2.2-.3-3.6-.5-4.3-.5h0Z"></path><path class="cls-2" d="M301.4,128.2c0,0,0,.2-.2.2h-3.7c0,0-.2,0-.2-.2h0c0-.1,0-.2.2-.2h3.7c0,0,.2,0,.2.2h0Z"></path><path class="cls-2" d="M302.4,130.3c0,0,0,.2-.2.2h-4.7c0,0-.2,0-.2-.2h0c0-.1,0-.2.2-.2h4.7c0,0,.2,0,.2.2h0Z"></path><path class="cls-2" d="M314,131.4c1.7,0,3.4-.2,5.1-.2.6,0,1,.3,1,.9,0,.6-1.6.9-2,.9-4.2.4-8.5.3-12.8-.3-.7-.1-1-.2-1.5-.7-.5-.4-.2-1.2.5-1.3.8,0,1.7,0,2.7.1,2.3.3,4.7.6,7,.5h0Z"></path><path class="cls-2" d="M326.8,132.5c0,0,0,.2-.2.2h-4.2c0,0-.2,0-.2-.2h0c0-.1,0-.2.2-.2h4.2c0,0,.2,0,.2.2h0Z"></path><path class="cls-2" d="M303.2,132.7c0,0,0,.1-.1.1h-5.6c0,0-.1,0-.1-.1v-.2c0,0,0-.1.1-.1h5.6c0,0,.1,0,.1.1v.2h0Z"></path><path class="cls-2" d="M293.5,139.9s0,0,0,0h-28.4s0,0,0,0v-.3s0,0,0,0h28.4s0,0,0,0v.3h0Z"></path><path class="cls-2" d="M313,140.9c0,.6,1.3,1.2,1.8.8.5-.4.9-.7,1.5-1.1.1,0,.3,0,.3.2,0,1.1-.3,2.2-.8,3.2-.1.2-.5.2-.7,0-1.2-.5-2.2-.5-3.6-.3-.6.1-1.2.7-1.8.4,0,0,0,0,0,0-.5-1-.6-2-.4-3.1,0-.1.2-.2.3,0,.4.5.9,1.2,1.7.8.5-.3,1-.6,1.5-.9,0,0,.2,0,.2.1h0Z"></path><path class="cls-2" d="M293.5,142c0,0,0,.2-.2.2h-28.1c0,0-.2,0-.2-.2h0c0-.1,0-.2.2-.2h28.1c0,0,.2,0,.2.2h0Z"></path><path class="cls-2" d="M308.4,158.6l.9.2s0,0,0,0h0s0,0,0,0l-.8-.2h-.3s0,0,0-.1c-.3-1-.5-3.1,0-4,.8-2.1,2.1-4,4.1-5.2,0,0,0,0,0,0-1.1-.1-2.1-.2-2.4-1.5-.3-1,.9-2.4,1.4-3.1.1-.1.3-.3.5-.3,1-.3,2.4-.8,3.3,0,1.1.9,2.3,3.3.7,4.4,0,0,0,0-.1,0,0,0-.1,0-.2,0,0,0,0,0,0,0h.4s0,0,.1,0l.8.4s0,0,0,.1v.2c0,0,0,0,0,0,1-1.1,2.4-.3,2.5,1,.3,2.4.1,5,.1,7.4s0,2.1-.9,2.3c-.8.2-1.5.4-2.1.5,0,0,0,0,0,0-.1,0-.1,0,0,0,.8-.1,1,.9,1.1,1.5.4,2.5.6,5.3.9,7.8.1.9,1.3,2,1.9,2.6,0,0,0,.2,0,.3-.4.4-.9.5-1.4.6,0,0,0,0-.1,0-.6.7-1.2,1.5-2.3,1.5-1.4,0-3.3.1-4.7-.2-.6-.1-.9,0-1.4.2-1,.6-2.4.9-3.4.2-.1,0-.1-.2-.1-.3.5-1.3.9-2.6,1.3-3.9.4-1.3.4-2.6.8-3.8.1-.5.2-1,.3-1.5,0,0,0,0,0,0,0,0,0,0,0,0,0,0,0,0,0,0-.2,1-1.1.8-1.8.4,0,0,0,0,0-.1-.4-1.5-.8-3-1-4.5,0,0,0,0,0,0h-.5c-.1,0-.2,0-.2-.1-.2-.8-.4-1.9.3-2.6,0,0,0,0,.1,0s0,0,.1,0c0,0,0,0,0,0h-.1s0,0,0,0c-.5-2.7-1-5.4-1.5-8.1-.1-.9-.3-1.7-.4-2.6,0,0,0-.1.1-.1.4,0,2.1,3,2.2,3.4.6,2.4,1.2,4.8,1.9,7.3,0,0,0,.1-.1.1-.2,0-1.8-.2-1.8,0,0,0,0,0,0,0,.5,0,1,0,1.4,0,0,0,0,0,.1,0l.5.4c0,0,0,0,0,0h0c0-.2,0-.2,0-.2h.2ZM314.6,148.7s-.5,0-1,0c-.5,0-1,.1-1,.1,0,0,.5,0,1,0,.5,0,1-.1,1-.1h0ZM316.5,149.9s0,0-.2.1c0,0-.1.1-.1.1,0,0,0,0,.2-.1,0,0,.1-.1.1-.1h0ZM315.9,153.4l.4,3.3c0,0,0,0,0,0-.4,0-.7,0-.9.1-1.1.3-2.3.7-3.6,1.2,0,0,0,0,0,0,0,0,0,0,0,0,1.2-.4,2.4-.9,3.6-1.2.3,0,.6-.1.8,0,.1,0,.3-.1.2-.2l-.5-3.2c-.1-.8-.2-1.6-.2-2.4q0-.3,0,0c0,.8,0,1.6.2,2.4h0ZM310.9,158.5c-.1,0-.2,0-.2.1,0,0,0,0,0,0l.9-.4c.1,0,.1,0,0,0-.2,0-.4.1-.5.2,0,0,0,0-.1,0h0ZM309.8,158.9h-.2c0,0,0,0,0,0,0,.1.2,0,.3,0,.2,0,.4,0,.6-.1.1,0,.1,0,0,0l-.6.2h0ZM308.5,159.1s0,0,0,0h.1c0,.2,0,.2,0,.1,0,0,0-.1-.1-.2h0ZM309,160.6c0,.1,0,.2,0,.2,0,0,0,0,0,0,0-.1,0-.2,0-.3,0-.2,0-.4-.2-.6,0,0,0,0,0,0l.2.7h0ZM306.7,160.9c.6-.1,1-.1,1.5,0,.2,0,.2,0,0,0-.5-.2-1-.3-1.5,0-.4.1-.3.1,0,0h0ZM315.7,161s0,0,0,0h-3.9c0,0,0,.1,0,.1h0s0,0,0,0h3.9c0,0,0-.1,0-.1h0ZM309.9,161.8c.1,0,.2,0,.3,0,0,0,0,0,0,0h-.4c-.4,0-.7-.1-1-.4,0,0-.1,0-.1,0,.3,1.3.6,2.6.8,3.9,0,.2,0,.2,0,0,0-.5-.2-1-.2-1.4,0-.2,0-.4,0-.6s-.1-.6-.1-.9c0,0,0,0,0-.1l.5-.3h0Z"></path><path class="cls-2" d="M293.5,144.2s0,0,0,0h-28.4s0,0,0,0v-.3s0,0,0,0h28.4s0,0,0,0v.3h0Z"></path><path class="cls-2" d="M293.5,146.4s0,0,0,0h-28.4s0,0,0,0v-.3s0,0,0,0h28.4s0,0,0,0v.3h0Z"></path><path class="cls-2" d="M293.5,148.7s0,0,0,0h-28.4s0,0,0,0v-.2s0,0,0,0h28.4s0,0,0,0v.2h0Z"></path><path class="cls-2" d="M276.2,150.7c0,0,0,.1-.1.1h-11c0,0-.1,0-.1-.1v-.2c0,0,0-.1.1-.1h11c0,0,.1,0,.1.1v.2h0Z"></path><path class="cls-2" d="M294.4,150.7c0,0,0,.1-.1.1h-14.2c0,0-.1,0-.1-.1v-.2c0,0,0-.1.1-.1h14.2c0,0,.1,0,.1.1v.2h0Z"></path><path class="cls-2" d="M277.2,154.4c-.5-.5-.7-1.1-.6-1.7.3-3.4,6.1-.8,2.3,2.3-.7.6-1.2,0-1.7-.6h0Z"></path><path class="cls-2" d="M276.1,152.8c0,0,0,.1-.1.1h-10.8c0,0-.1,0-.1-.1h0c0-.2,0-.3.1-.3h10.8c0,0,.1,0,.1.1h0Z"></path><path class="cls-2" d="M294.1,152.8c0,0,0,.1-.1.1h-13.3c0,0-.1,0-.1-.1h0c0-.2,0-.3.1-.3h13.3c0,0,.1,0,.1.1h0Z"></path><path class="cls-2" d="M267.3,159.1h0c0,.1,0,.2,0,.2-1.4,1.1-2.2-.7-2.1-1.8,0-.9.4-1.1,1.3-1.1,0,0,.1,0,0-.1-1.2-.8-1-2.7.5-3.1.8-.2,1.4,0,1.8.6.3.4.3,1,.2,1.5,0,0,0,0,0,0,.4-.4.8-.5,1.4-.4.6,0,.8.8,1,1.3,0,0,0,0,0,0,.7-1.1,2.1-1,3-.2,0,0,0,0,0,0,0-.7-.1-1.9.8-2.1,1.2-.3,2.1.5,2.8,1.4,0,0,0,0,0,.1,0,.5-.2.8-.6,1.1-.7.6-1.5,1.2-2.5.8,0,0,0,0,0,0,.3,1.1,0,1.1-1,1.3,0,0,0,0,0,.1,0,0,0,.2,0,.3,0,0,0,0,0,.1.1.7.5,2.4-.5,2.6-.4,0-.7,0-.9-.2-.5-.4-.5-2.1-.5-2.7s0,0,0,0h-1.2c0-.1,0-.2-.1-.2v-.5c0,0-.1,0-.1,0-.4,0-.8,0-1.1,0,0,0-.1,0,0,0,.2.2.3.4.4.6.3.8,1.3,3,0,3.6-.8.3-1.5.1-1.8-.6-.4-.9-.7-1.7-.8-2.7,0-.1,0-.1,0,0h0ZM267.9,157.4h0c0,0,.2,0,.2,0,0,0,0,0,0-.1v-.5c0-.2,0-.2,0,0-.1.2-.3.3-.6.2,0,0,0,0,0,0v.4c.1,0,.2,0,.2,0,0,0,0,0,.1-.1h0Z"></path><path class="cls-2" d="M290.9,156.5c.8,0,1.3,0,1.3.9,0,.6-.1,2.2-.9,2.3-.5,0-.9,0-1.2-.3,0,0,0,0,0,0-.2,1-.4,1.9-.7,2.5-.3.6-.8.8-1.6.6-1.3-.3-.8-1.9-.5-2.9,0,0,0,0,0,0h-2.3c0,0-.1,0-.1-.1v-.2c0,0,0,0,.1,0h2.4s0,0,.1,0c.1-.4.4-.7.6-.9,0,0,0,0,0,0-.7.1-1.7.3-1.8-.7,0-.8.1-1.4.5-2.1,0,0,0,0,0,0h-3.7c0,0,0,0,0,0v-.2c0,0,0,0,0,0h4.1s0,0,0,0c0,.1.1.2.3.2.4,0,.8.1,1.1.4,0,0,0,0,0,0-.4-1.4.6-2.3,1.9-2.1,1.2.2,1.5,1.5,1.1,2.5,0,.1-.3.3-.7.6,0,0,0,0,0,0h0ZM289.5,157.6s0,0,0,.1c.1.3.2.3,0,0,0-.3,0-.5.2-.7.1-.1.1-.1,0,0-.2,0-.4,0-.6,0,0,0,0,0,0,0v.7c0,0,0,0,0,0h.3c0,0,0,0,.1,0h0Z"></path><path class="cls-2" d="M284.7,158.9c-.3,0-.6-.1-.9,0-.2,0-.2,0,0,0h.9c0,.5,0,1.2-.1,2.1,0,.5-.2.8-.8.8-1.6,0-.9-2.1-.8-3,0,0,0,0,0,0-.5-.1-.8-.2-1-.3-.4-.2,0-.8,0-1.1,0,0,0,0,0,0-.7.7-1.9,0-2.4-.6,0,0,0,0,0,0,0,0,0,0,0,0,0,0,0,0,0,0,.7,1,.5,1.8.5,2.9s-.2,2.3-1.9,2.1c-1.2-.2-.9-2.6-.9-3.4,0-.6.7-2.7,1.5-2.4,0,0,0,0,0,0v-.3s0,0,0-.1c.7-1,2.1-2,3.3-1.2,0,0,0,0,.1.1.3.7.4,1.4.2,2.2,0,0,0,0,0,0,.5-.7,1.2-1,2-.9,1.4.1,1.8,2,1.6,3.1,0,0,0,.1-.1.1h-1.2c0,.1,0,.2,0,.2Z"></path><path class="cls-2" d="M273.5,155.1c0,0,0,.1-.1.1h-2.6c0,0-.1,0-.1-.1h0c0-.2,0-.3.1-.3h2.6c0,0,.1,0,.1.1h0Z"></path><path class="cls-2" d="M268,157.4h0c0-.1,0-.2,0-.3,0,0,0,0,.1,0,0,0,0,.2,0,.3h0Z"></path><path class="cls-2" d="M293.5,157.5c0,0,0,0,0,0h-1s0,0,0-.1v-.2c0,0,0,0,.1,0h1s0,0,0,.1v.2h0Z"></path><path class="cls-2" d="M276.6,157.4c.1-.1.3-.2.5-.2.1,0,.1,0,0,0-.1.1-.3.2-.5.2s0,0,0,0h0Z"></path><path class="cls-2" d="M289.3,157.4s0-.1,0-.1c0,0,.1,0,.1,0,0,0,0,.1,0,.1,0,0-.1,0-.1,0h0Z"></path><path class="cls-3" d="M280,157.4c-.1,0-.2,0-.2-.1,0,0,0-.1.1,0h.1c0,.1,0,.2,0,.2h0Z"></path><path class="cls-2" d="M265,159.5c0-.4.6-.3.7,0,0,0,0,.1,0,0h-.5c0,0-.1,0,0-.1h0Z"></path><path class="cls-2" d="M291.9,159.7s0,0,0,0h0c0-.2.1-.4.3-.4h1c.2,0,.3.1.4.3h0s0,0,0,0h-1.6Z"></path><path class="cls-2" d="M272,159.5c0,0,0,.1-.1.1h-1.5c0,0-.1,0-.1-.1h0c0-.2,0-.2.1-.2h1.5c0,0,.1,0,.1.1h0c0,0,0,0,0,0Z"></path><path class="cls-2" d="M276.9,159.5c0,0,0,.1-.1.1h-2.5c0,0-.1,0-.1-.1h0c0-.2,0-.2.1-.2h2.5c0,0,.1,0,.1.1h0Z"></path><path class="cls-2" d="M282.7,159.6c0,0,0,.1-.1.1h-2.6c0,0-.1,0-.1-.1v-.2c0,0,0-.1.1-.1h2.6c0,0,.1,0,.1.1v.2h0Z"></path><path class="cls-2" d="M267.6,161.6c0,0,0,.2-.2.2h-2.3c0,0-.2,0-.2-.2h0c0-.1,0-.2.2-.2h2.3c0,0,.2,0,.2.2h0Z"></path><path class="cls-2" d="M294,161.8c0,0,0,.1-.1.1h-3.6c0,0-.1,0-.1-.1v-.2c0,0,0-.1.1-.1h3.6c0,0,.1,0,.1.1v.2h0Z"></path><path class="cls-2" d="M277.8,163.6c-2.8.2-5.2.4-7.5.9-.8.2-1.4,0-1.6-.8-.3-.9,1.4-1.1,2-1.2,5.7-1.1,11.3-.8,16.9.5.5.1,1.5.7,1.2,1.4-.3.6-1.6.4-2.1.3-1.9-.3-3.7-.6-5.6-.9-1-.2-2.2-.3-3.3-.2h0Z"></path><path class="cls-2" d="M268.1,163.8c0,0,0,.2-.2.2h-2.7c0,0-.2,0-.2-.2h0c0-.1,0-.2.2-.2h2.7c0,0,.2,0,.2.2h0Z"></path><path class="cls-2" d="M293.5,163.9c0,0,0,.1-.1.1h-3.8c0,0-.1,0-.1-.1h0c0-.2,0-.3.1-.3h3.8c0,0,.1,0,.1.1h0Z"></path><path class="cls-2" d="M278,166.9c-2.6,0-4.6.1-5.8.3-1.1.1-1.9.3-2.6.4-.9.3-1.4,0-1.5-.8-.2-1,1.5-1.2,2.2-1.3,2.5-.3,5.1-.5,7.6-.6,3.2,0,6.6.4,9.7.9.6.1,1.5.5,1.6,1.1.3,1.4-2.5.9-3.2.8-.8-.1-2.4-.3-4.8-.6-1.1-.1-2.2-.2-3.3-.2h0Z"></path><path class="cls-2" d="M294.1,165.9c0,0,0,.2-.2.2h-4.5c0,0-.2,0-.2-.2h0c0-.1,0-.2.2-.2h4.5c0,0,.2,0,.2.2h0Z"></path><path class="cls-2" d="M266.9,166.1c0,0,0,.1-.1.1h-1.6c0,0-.1,0-.1-.1h0c0-.2,0-.2.1-.2h1.6c0,0,.1,0,.1.1h0Z"></path><path class="cls-2" d="M267.9,168.1c0,0,0,.2-.2.2h-2.6c0,0-.2,0-.2-.2h0c0-.1,0-.2.2-.2h2.6c0,0,.2,0,.2.2h0Z"></path><path class="cls-2" d="M294.6,168.1c0,0,0,.2-.2.2h-5.1c0,0-.2,0-.2-.2h0c0-.1,0-.2.2-.2h5.1c0,0,.2,0,.2.2h0Z"></path><path class="cls-2" d="M277.3,170c-2,0-3.9.2-5.9.3-.7,0-1.3,0-2,0-.4,0-.6-.3-.7-.7-.1-.7.9-.9,1.4-1,1-.2,1.9-.3,2.9-.4,4.5-.4,9.2-.2,14.1.6.6.1,1.1.3,1.5.7.5.5.1,1.2-.5,1.3-.8,0-1.8,0-3-.2-2.5-.4-5.2-.7-7.8-.7h0Z"></path><path class="cls-2" d="M269,170.6c0,0,0,.1-.1.1h-3.8c0,0-.1,0-.1-.1v-.2c0,0,0-.1.1-.1h3.8c0,0,.1,0,.1.1v.2h0Z"></path><path class="cls-2" d="M280.9,171.5c1.4,0,2.8-.1,4.2-.2.8,0,1.9-.2,2,.8.1.9-1.5,1.1-2.1,1.1-2.7.3-5.5.2-8.2.1-1.8,0-3.5-.3-5.2-.6-.5,0-.9-.4-1.3-.8,0,0,0,0,0-.1,0-.7.2-1,.9-1,.9,0,1.7,0,2.6.1,2.4.3,4.8.6,7.2.5h0Z"></path><path class="cls-2" d="M294,172.6c0,0,0,.1-.1.1h-4.5c0,0-.1,0-.1-.1v-.2c0,0,0-.1.1-.1h4.5c0,0,.1,0,.1.1v.2h0Z"></path><path class="cls-2" d="M269.7,172.6c0,0,0,.2-.2.2h-4.3c0,0-.2,0-.2-.2h0c0-.1,0-.2.2-.2h4.3c0,0,.2,0,.2.2h0Z"></path><path class="cls-2" d="M294.7,174.8c0,0,0,.2-.2.2h-29.4c0,0-.2,0-.2-.2h0c0-.1,0-.2.2-.2h29.4c0,0,.2,0,.2.2h0Z"></path><path class="cls-2" d="M536.5,250.1c-18.1,8.7-35.8-7.9-31.2-26.6,2.5-10.3,11.9-17.7,22.6-17.2,3.2.1,6.2,1.1,9.1,2.8,0,0,0,0,0,.1v9.8c0,0,0,.1-.2,0-.7-.6-1.3-1.2-2-1.8-5.5-4.7-13.4-3.8-18.1,1.6-3.7,4.3-4.5,10.3-3,15.6,1.5,5.2,5.3,8.8,10.6,9.8,5.2,1,9-.9,12.5-4.6,0,0,.1,0,.1,0v9.8c0,.4-.2.5-.5.6h0Z"></path><path class="cls-2" d="M46.6,242.3h-17c0,0-.1,0-.1,0l-3.6,9.1s0,0,0,0h-8.6c0,0-.1,0,0-.1l18-44.9c0,0,0,0,.1,0,1.5,0,3.1,0,4.6,0,.3,0,1,0,1.5,0,0,0,.1,0,.1.1l17.5,44.8c0,0,0,.1,0,.1h-8.6c0,0-.1,0-.1,0l-3.5-9.1s0,0,0,0h0ZM32.2,235.1s0,0,0,0h11.7c0,0,0,0,0,0l-5.8-15.6s0,0-.1,0l-5.9,15.5h0Z"></path><path class="cls-2" d="M104.4,242.3l-3.6,9c0,0-.1.1-.2.1h-8.5s0,0,0,0l18.1-44.9s0,0,0,0h6.1c0,0,0,0,.1,0l17.5,44.8c0,0,0,.1,0,.1h-8.6c0,0,0,0-.1,0-1.1-2.9-2.2-5.7-3.3-8.6,0-.2-.1-.3-.2-.5,0,0,0,0-.1,0h-17s0,0,0,0h0ZM118.9,235.1l-5.6-15.2s0,0,0-.1c0,0,0-.1,0-.2,0,0,0,0-.1,0l-5.9,15.4c0,0,0,.2.1.2h11.5s0,0,0,0h0Z"></path><path class="cls-2" d="M371.7,250.8l.3.5c0,.1,0,.2-.1.2h-8.6s0,0-.1,0l-3.5-9.1c0,0,0,0-.1,0h-17s0,0,0,0l-3.7,9.1c0,0,0,0-.1,0h-8.6s0,0,0,0l18-44.9s0,0,.1,0h6.1c0,0,.1,0,.1.1l15.6,40.1c0,0,.1,0,.1,0l3.5-4.5c0-.1.1-.1.2,0,1.9,3.2,6.9,3.4,7.7-.8.2-1,.3-2.1.3-3.3,0-10.2,0-20.4,0-30.7s0-.1.1-.1h8s0,0,0,0v28.4c0,6.8-1.1,15.7-9.8,16.7-2,.2-4.1,0-6-.5-.4-.1-1.4-.6-2.7-1.3,0,0-.1,0,0,0h0ZM357,235.1l-5.6-15.3c0,0,0-.1,0-.2h0c0-.3,0-.3-.1-.1l-6,15.6s0,.1,0,.1h11.6s0,0,0,0h0Z"></path><path class="cls-2" d="M398.7,251.4h-8.6s0,0,0,0l18.1-44.9s0,0,0,0h6.2s0,0,0,0l17.5,44.9s0,0,0,0h-8.7s0,0,0,0l-3.5-9.1s0,0,0,0h-17.1s0,0,0,0l-3.7,9.1s0,0,0,0h0ZM405.1,235.1s0,0,0,0h11.7c0,0,0,0,0,0l-5.7-15.6s0,0-.1,0l-6,15.5h0Z"></path><path class="cls-2" d="M478.5,242.4l-3.6,9c0,0,0,0-.1,0h-8.5c0,0,0,0,0-.1l18-44.7c0-.1.2-.2.3-.2h5.9c0,0,.1,0,.1.1l17.5,44.8c0,0,0,.1,0,.1h-8.7s0,0,0,0c0,0,0-.1,0-.2-1.1-2.9-2.2-5.9-3.4-8.9,0,0,0,0-.1,0h-16.9c0,0-.1,0-.2.1h0ZM481.3,235.1s0,0,0,0h11.7c0,0,0,0,0,0l-5.7-15.6s0,0-.1,0l-5.9,15.5h0Z"></path><path class="cls-2" d="M60.6,207.3c3.9,0,9.4-.2,14.4.2,12.6.9,20.8,10.9,20,23.5-.7,11-9.4,20.4-20.7,20.5-4.6,0-9.2,0-13.7,0,0,0,0,0,0,0v-44c0,0,0,0,0,0h0ZM68.8,231.2c0,0,0,.1,0,.2,0,0,0,0,0,.1v12.4c0,.1,0,.1.2.1,2.6,0,5.4,0,7.8-.6,10.9-2.9,13.1-18.3,4.9-25.3-3.6-3.1-8.3-3.3-12.8-3.2,0,0,0,0,0,.1v16.2h0Z"></path><path class="cls-2" d="M157.8,244.1v7.3s0,0,0,0h-21s0,0,0,0v-44.1s0,0,0,0h8.1s0,0,0,0v36.6s0,0,0,0h12.7s0,0,0,0h0Z"></path><path class="cls-2" d="M183.1,227.9c.5.1,1,.3,1.5.5,5.6,2,7.5,7.4,6.6,12.9-.6,4.1-2.8,7-6.4,8.7-2.4,1.1-4.8,1.4-7.6,1.4h-13.9c0,0,0,0,0,0v-44.1s0,0,0,0c3.8,0,7.7,0,11.5,0,1.8,0,3.6.3,5.4.8,6.4,1.7,8.5,9.1,6.9,14.8-.6,2.2-2.1,3.6-3.9,4.9,0,0,0,0,0,.1h0ZM171.3,214.4v11.2s0,0,0,0h3.2c3,0,5.4-2.3,5.4-5.1v-1.1c0-2.8-2.4-5.1-5.4-5.1h-3.2s0,0,0,0h0ZM182.7,236.8c-1-5-7.7-4.5-11.3-4.4,0,0-.1,0-.1.1v11.9c0,0,0,.1.1.1,5.1.1,12.9.2,11.3-7.8h0Z"></path><path class="cls-2" d="M219.4,244.1v7.3s0,0,0,0h-23.1s0,0,0,0v-44.1s0,0,0,0h23.1s0,0,0,0v7.4s0,0,0,0h-14.9s0,0,0,0v9.6s0,0,0,0h14.2s0,0,0,0v7.3s0,0,0,0h-14.2s0,0,0,0v11.8s0,0,0,0h14.9s0,0,0,0h0Z"></path><path class="cls-2" d="M243.3,233c4.2,6,8.5,12,12.8,18,0,.1.2.2.2.3,0,0,0,.1,0,.1h-9.9c0,0-.1,0-.1,0l-11.1-17.5c0,0,0,0-.1,0h-.9c0,0-.1,0-.1.1v17.4c0,0,0,0,0,0h-8c0,0-.1,0-.1-.1,0-.6,0-1.1,0-1.6,0-14.1,0-28.2,0-42.3,0,0,0,0,0,0,4.8,0,9.2,0,13.2,0,8.8.2,14.5,5.7,13.6,14.8-.6,5.8-3.7,9.4-9.3,10.8,0,0,0,0,0,0h0ZM244.2,219.9c-.4-5.4-6-5.7-10.1-5.6,0,0,0,0,0,0v13.1c0,0,0,0,0,0,5.5.3,10.6-.8,10.1-7.6h0Z"></path><path class="cls-2" d="M256,214.8v-7.4s0,0,0,0h26.9s0,0,0,0v7.4s0,0,0,0h-9.3s0,0,0,0v36.5s0,0,0,0h-8.1s0,0,0,0v-36.5s0,0,0,0h-9.2s0,0,0,0h0Z"></path><path class="cls-2" d="M317.2,214.9s0,0,0,0h-17.1c0,0,0,0,0,0v-7.3c0-.1.1-.2.2-.2h30.4c.1,0,.2.1.2.3l-20.2,36.3c0,0,0,.1,0,.1h19c0,0,0,0,0,0v7.2c0,0,0,.1-.1.1h-32.7c0,0-.1,0,0-.1l20.3-36.4h0Z"></path><path class="cls-2" d="M445.9,207.3c3.5,0,6.7.4,9.9,1.6,9.6,3.7,14.5,13.3,13.2,23.3-1.3,9.8-8.5,18-18.7,19.1-.8,0-1.9.1-3.5.1h-12s0,0,0,0v-44c0,0,0-.1.1-.1,3.7,0,7.4,0,11.1,0h0ZM457.3,219.6c-3.6-4.5-8.9-5-14.3-4.8,0,0,0,0,0,0v29c0,0,0,0,0,.1,2.5.1,5,0,7.3-.5,4.8-.9,8.2-4.6,9.6-9.1,1.5-5,.7-10.6-2.6-14.7h0Z"></path><path class="cls-2" d="M560.4,214.8h-17.1s0,0,0,0v-7.5s0,0,0,0h30.7s0,0,0,0l-20.3,36.6s0,0,0,0h19.1s0,0,0,0v7.4s0,0,0,0h-32.7s0,0,0,0l20.3-36.5s0,0,0,0h0Z"></path><path class="cls-2" d="M347.9,280.5s0,0,0,0v29.5c0,0,0,0,0,0h-8.1c0,0,0,0,0,0v-45c0,0,0,0,0,0h5.5c0,0,.1,0,.2,0l25.2,30.4c0,0,.1,0,.1,0v-29.4s0,0,0,0h8c0,0,0,0,0,0v24.1s0,0,0,0c0,0,0,0,0,.1v20.7s0,0-.1,0h-5.3c-.3,0-.6-.4-.8-.6-8.2-9.9-16.4-19.7-24.5-29.6,0-.1-.2-.3-.3-.4h0Z"></path><path class="cls-2" d="M416.4,294h-9.6c0,0,0,0,0,0v-7.3c0,0,0,0,0,0h19c0,0,.1,0,.1.1,0,1.5,0,3-.1,4.5-1,13.2-10.4,21.8-23.9,19.8-10.1-1.5-17-9.4-18.2-19.4-1.7-15.2,8.7-27.7,24.4-26.4,6.7.6,12.2,4.4,15.6,10.2,0,0,0,.1,0,.1l-7.1,4s0,0-.1,0c-1.9-3.4-4.9-5.8-8.7-6.3-10.7-1.5-17,8.4-15.5,18,1.2,7.6,7.4,13.1,15.2,12,4.9-.7,8.3-3.9,9.1-8.9,0-.2,0-.2-.2-.2h0Z"></path><path class="cls-2" d="M179,273.4c-2.5,1.3-3.6,4.7-1.3,6.9.8.8,2.2,1.5,3.4,2,5.4,2.3,12.3,4.4,13.4,11.1,1.5,8.9-3.2,17-12.7,17.8-7.1.6-12.3-2.5-16-8.3,0,0,0-.1,0-.1l5.1-5.2c0,0,.2,0,.2,0,1.8,3.5,4.6,5.6,8.6,5.8,2.9.1,5.5-1.8,6.3-4.6.2-.7.2-2,0-2.8-.6-2.5-2.5-3.7-4.8-4.6-4.3-1.7-8.3-3-11-6-1.8-2-2.4-4.6-2.4-7.3,0-7.3,5.7-12.7,12.9-12.8,4.7,0,8.8,1.5,12.4,4.8.1,0,.1.2,0,.3l-4.1,5.6c0,0-.2,0-.2,0-2.4-3.1-6.3-4.5-9.9-2.6h0Z"></path><path class="cls-2" d="M206,273.5h-9.2s0,0,0,0v-7.5s0,0,0,0h26.8s0,0,0,0v7.5s0,0,0,0h-9.2s0,0,0,0v36.5s0,0,0,0h-8.1s0,0,0,0v-36.5s0,0,0,0h0Z"></path><path class="cls-2" d="M235,310.1s0,0,0,0h-8.1s0,0,0,0v-44.1s0,0,0,0h8.1s0,0,0,0v44.1h0Z"></path><path class="cls-2" d="M252,283.3h13s0,0,0,0v7.3s0,0,0,0h-12.9s0,0,0,0v19.1s0,0,0,.1c0,0,0,.1,0,.1h-8.2s0,0,0,0v-44c0,0,0-.1.1-.1h22c0,0,0,0,0,0v7.4s0,0,0,0h-13.7c0,0-.1,0-.1.1v9.5c0,0,0,0,0,0h0Z"></path><path class="cls-2" d="M311,301.7c4.4,3.1,11,1.4,12.9-3.8.5-1.2.7-2.7.7-4.5,0-9.1,0-18.2,0-27.3,0-.1,0-.2.2-.2h8c0,0,.1,0,.1.1v26.1c0,6.5-1.1,12.4-6.9,16.2-6.2,4.1-15.8,3.8-21.5-1.1-4.3-3.7-5.3-8.8-5.3-14.2,0-9,0-18,0-27,0,0,0,0,0,0h7.8c.2,0,.4.2.4.4,0,9.3,0,18.4,0,27.5,0,3,1,6,3.6,7.9h0Z"></path><path class="cls-2" d="M278.2,273.5h-9.1c0,0-.1,0-.1-.1v-7.4s0,0,0,0h26.9s0,0,0,0v7.4c0,0,0,0,0,0h-9.3s-.1,0-.1,0v36.2s0,0,0,0c0,0,0,0,0,.1,0,0,0,0,0,0h-8.1s0,0,0,0v-36.4c0,0,0-.1-.1-.1h0Z"></path></g></svg> 