<?xml version="1.0" encoding="UTF-8"?>
<svg id="Ebene_2" data-name="Ebene 2" xmlns="http://www.w3.org/2000/svg" viewBox="0 0 800.47 251.09">
  <defs>
    <style>
      .cls-1 {
        fill: #fff;
      }

      .cls-2 {
        fill: #ffb71b;
      }
    </style>
  </defs>
  <g id="Content_1">
    <g>
      <path id="Path_12755" data-name="Path 12755" class="cls-2" d="M84.17,0L0,199.94h57.48L138.52,0h-54.35Z"/>
      <path id="Path_12756" data-name="Path 12756" class="cls-1" d="M365.78,72.2c8.03,9.73,12.05,24.41,12.05,44.04v83.88h-42.32v-81.89c0-9.45-1.73-16.34-5.18-20.68-4.04-4.6-10.01-7.02-16.12-6.52-7.94-.34-15.65,2.76-21.15,8.5-5.54,6.21-8.41,14.35-8,22.66v77.93h-42.31V61.01h41.19v19.83c4.64-7.36,11.18-13.32,18.93-17.27,8.13-4.06,17.11-6.1,26.19-5.95,16.44,0,28.68,4.86,36.72,14.58"/>
      <path id="Path_12757" data-name="Path 12757" class="cls-1" d="M424.27,197.98c-9.78-2.56-19.03-6.83-27.33-12.61l11.2-29.46c7.59,5.16,15.9,9.17,24.66,11.9,8.79,2.8,17.96,4.24,27.19,4.25,5.29.28,10.56-.84,15.27-3.26,3.36-1.7,5.47-5.15,5.46-8.92.14-3.11-1.28-6.08-3.79-7.93-4.35-2.58-9.15-4.31-14.15-5.1l-22.4-5.11c-13.27-3.01-23.03-7.68-29.28-14.01-6.52-7.01-9.9-16.37-9.38-25.93-.14-8.26,2.47-16.33,7.42-22.94,5.47-7,12.73-12.38,21.01-15.58,9.85-3.92,20.38-5.85,30.98-5.66,9.8-.01,19.54,1.52,28.86,4.53,9.03,2.87,17.55,7.18,25.22,12.75l-11.2,28.32c-12.45-9.46-27.54-14.8-43.16-15.29-5.35-.28-10.67.9-15.41,3.4-3.52,1.9-5.68,5.62-5.59,9.63-.12,2.77,1.13,5.42,3.35,7.08,3.61,2.28,7.6,3.91,11.77,4.81l23.26,5.38c14.02,3.21,24.25,8.07,30.68,14.59,6.69,7.15,10.19,16.71,9.68,26.48.43,12.54-5.53,24.43-15.84,31.58-10.56,7.65-25.09,11.48-43.58,11.48-11.77.12-23.51-1.36-34.89-4.39"/>
      <path id="Path_12758" data-name="Path 12758" class="cls-1" d="M706.12,197.98c-9.78-2.56-19.03-6.83-27.32-12.61l11.2-29.46c7.59,5.16,15.9,9.17,24.66,11.9,8.79,2.8,17.95,4.24,27.18,4.25,5.29.29,10.57-.84,15.28-3.26,3.36-1.7,5.47-5.15,5.45-8.92.14-3.11-1.28-6.08-3.78-7.93-4.35-2.58-9.15-4.31-14.15-5.1l-22.4-5.11c-13.28-3.01-23.03-7.68-29.27-14.01-6.52-7.01-9.91-16.37-9.39-25.93-.14-8.26,2.48-16.33,7.42-22.94,5.47-7,12.73-12.38,21.02-15.58,9.84-3.92,20.36-5.85,30.96-5.66,9.8-.01,19.54,1.51,28.87,4.53,9.04,2.87,17.55,7.17,25.22,12.75l-11.2,28.32c-12.45-9.46-27.53-14.8-43.16-15.29-5.35-.28-10.68.9-15.42,3.4-3.53,1.9-5.69,5.62-5.61,9.63-.12,2.77,1.14,5.43,3.37,7.08,3.61,2.28,7.59,3.91,11.77,4.81l23.27,5.38c14,3.21,24.23,8.07,30.68,14.59,6.68,7.15,10.17,16.71,9.66,26.48.44,12.54-5.53,24.43-15.84,31.58-10.56,7.65-25.08,11.48-43.57,11.48-11.78.12-23.51-1.35-34.89-4.39"/>
      <path id="Path_12759" data-name="Path 12759" class="cls-1" d="M148.28,6.3l-27.24,67.21,51.25,126.44h57.51L148.28,6.3Z"/>
      <path id="Union_1" data-name="Union 1" class="cls-1" d="M556.22,251.09l45.27-107.57-20.72,49.24-55.38-131.58h41.76l34.51,81.97,34.51-81.97h41.75l-79.93,189.91h-41.76Z"/>
    </g>
  </g>
</svg>