<?xml version="1.0" encoding="UTF-8"?>
<svg id="Layer_2" data-name="Layer 2" xmlns="http://www.w3.org/2000/svg" viewBox="0 0 381.51 81.63">
  <defs>
    <style>
      .cls-1 {
        fill: #00457d;
      }

      .cls-2 {
        fill: #f49f22;
      }
    </style>
  </defs>
  <g id="Layer_1-2" data-name="Layer 1">
    <g>
      <path class="cls-1" d="M183.8,67.33v-35.1c0-2.6-3.5-3.3-3.5-3.3h-7.5v52.6h41.1s3.4.4,3.4-3.6v-6.7h-29.3c-4.9-.1-4.2-3.9-4.2-3.9Z"/>
      <path class="cls-1" d="M51.2,53.23c.3-.3.6-.7.9-1,1.7-2.3,2.7-5.4,2.7-8.5,0-4.4-1.9-8.5-5.2-11.2-4.3-3.6-9.2-3.6-13.1-3.6H5.6c-5,0-5.6,3.6-5.6,3.6v49h39.2c5.4,0,9.6-1.2,12.5-3.5,3.5-2.8,5.5-7.3,5.5-12.3s-2.2-9.7-6-12.5ZM11,41.83c0-2.4,2.1-2.7,4.1-2.7h21.5c3.1,0,4.5.5,5.1.8.9.6,1.9,2,1.9,4.1,0,1-.2,2.2-1.3,3.3-1.6,1.5-4.2,1.6-6.4,1.6H11s0-5.3,0-7.1ZM44.8,69.53c-1.4,1.5-3.7,1.7-5.7,1.7H11.1v-11.9h24.6c6.1,0,8.1,1.2,8.8,1.9l.2.2c.2.2,1.5,1.5,1.5,4.2-.1,2.3-1.1,3.5-1.4,3.9Z"/>
      <path class="cls-1" d="M232.2,59.23h34c2.9,0,2.6-2.6,2.6-2.6v-7.8h-36.6v-6.9c0-2.4,2.1-2.7,4.1-2.7h32.5s3,.2,3-2.8v-7.5h-45.7c-5.3,0-4.9,3.7-4.9,3.7v48.9h49.7s2.8.2,2.8-2.9v-7.5h-41.5v-11.9Z"/>
      <path class="cls-1" d="M120.9,71.93h22.4c4.1-.1,13.8.2,14.7-5.2.1-.3.1-.6.1-.8-.2-2.1-1.2-5.9-15.4-6.5-7.8-.3-13.4-.6-18.1-2.4-5.7-2.1-8.7-6.1-8.8-11.8v-.5c0-9.7,8-15.1,22.4-15.8.8,0,1.6-.1,2.5-.1h1.4c6.7,0,13.2,0,24.4.1v6.6c0,3.6-4.2,3.3-4.2,3.3h-21.5c-.7,0-1.6,0-2.7.1-4.3.2-11.2.9-11.2,5,0,.3,0,.6.1.8.4,1.5,2.1,3.5,13.8,4h.7c8,.3,14.3,1.5,19.2,3.6,5.8,2.5,8.7,7,8.7,13.3v1.1l-.1.6c-.5,5.8-3.4,13.7-24.1,14.2l-.1.1h-24.4l-3.4-6.8s-.9-2.9,3.6-2.9Z"/>
      <path class="cls-2" d="M356.5,11.23c-4.8-4.8-11.2-5.3-11.2-5.3-12.6,5.4-25.2,13-25.2,13,0,0,18.9-8.5,38.4-4.6,0,.1-1.1-2.1-2-3.1Z"/>
      <path class="cls-1" d="M380,5.53c-5.5-8.4-20.5-5.5-30.1-2.5,2.8.8,18,2,12.5,25.2-3.3,13.7-13.1,29.9-12.7,30.7.5,1.2,39.9-38.7,30.3-53.4Z"/>
      <path class="cls-1" d="M319.9,60.23c2.4-.5,4.9-1.4,7-3.1,1.3-1.1,2.4-2.3,3.3-3.7.1-.1.1-.2.2-.3,1.4-2.4,2.2-5.2,2.2-8.3,0-5.8-2.9-11-7.5-13.7-3.9-2.2-8.4-2.2-11.7-2.2h-31c-3.9,0-4.1,3.1-4.1,3.1v49.5h8.1s2.8.1,2.8-3.3v-17.3h16.5l14.3,16.4h0c1,1.2,1.7,1.9,1.7,1.9,0,0,1.9,2.3,5.9,2.3h11.2l-18.9-21.3ZM289.2,50.53v-8.4s-.4-3,3.6-3h20.8c2.2,0,4.4,0,5.9,1.2.8.6,1.8,2.1,1.8,4.2,0,1.6-.5,3.1-1.4,4-1.7,1.8-4.9,2-9.2,2h-21.5Z"/>
      <path class="cls-1" d="M89.9,28.93h-4.4c-4.7,0-5,.7-6.5,3.8-3,6.3-9.3,17.6-14.6,28.4,2.8-2.2,7.4-4.5,14.1-4.9l6.9-12.6,7.9,15.8h-15.7c-9.3.8-13.9,5.5-15.4,7.6-3.6,7.3-6.3,12.7-6.3,12.7,0,0-1.1,1.8,1.2,1.8h9.7l4-8.2s1.8-3.8,6.4-3.8h21.1s3.6,7,4.6,9.1c.8,1.6,1.4,2.9,4.3,2.9h9l-26.3-52.6Z"/>
    </g>
  </g>
</svg>