<?xml version="1.0" encoding="UTF-8"?>
<svg id="Layer_2" data-name="Layer 2" xmlns="http://www.w3.org/2000/svg" viewBox="0 0 348.6 209.4">
  <defs>
    <style>
      .cls-1 {
        fill: #fdf003;
      }

      .cls-2 {
        fill: #25201d;
      }

      .cls-3 {
        fill: #e92020;
      }
    </style>
  </defs>
  <g id="Layer_1-2" data-name="Layer 1">
    <path class="cls-2" d="M348.6,0v209.4H0V0h348.6ZM346.2,2.4H3v204h343.2V2.4Z"/>
    <path class="cls-1" d="M346.2,2.4v204H3V2.4h343.2Z"/>
    <g>
      <path class="cls-2" d="M300.6,86.4h-24.6c.23-4.99-.85-19.31-8.41-17.73-1.74.36-3.83,2.49-4.16,4.26,0,0-.35,62.03-.02,63.56,1.81,8.3,10.64,3.57,11.38-3.6.45-4.35,1.32-11.02-4.79-9.89v-21.6h31.2v62.4h-21.6c.44-8.05-3.63-2.2-6.65-.95-4.84,2.01-17.36,2.62-21.78-.33-1.88-1.26-4.87-2.24-11.04-11.76-7.87-12.14-6.49-53.68-5.56-68.89.48-7.8,3.47-20.03,8.41-26.22,12.42-15.56,47.28-15.84,54.18,5.08,2.58,7.82,3.81,17.55,3.43,25.67Z"/>
      <g>
        <polygon class="cls-3" points="196.59 145.97 182.1 153.21 203.67 77.37 166.19 95.09 192.6 30.6 165.33 31.19 137.4 128.7 175.2 109.81 168.34 150.41 158.41 138 168.6 185.4 196.59 145.97"/>
        <path class="cls-2" d="M100.02,51.79c.36.26,10.32,9.66,12.74,15.87,5.44,13.95,4.91,55,1.09,69.89-.61,2.39-4.08,12.21-5.41,13.53-.26.26-9.56,10.05-20,12.06-5.43,1.05-31.14.8-39.83.67V45.6c9.05.37,18.29-.47,27.33-.02,7.72.38,17.66,1.69,24.09,6.21ZM88.22,82.48c-.21-3.3-1.02-9.67-4-11.6,0,0-3.26-1.8-8.02-1.87v71.4c7.44.98,10.56-4.19,11.85-10.65l.17-47.28Z"/>
      </g>
    </g>
  </g>
</svg>