<?xml version="1.0" encoding="UTF-8"?>
<svg id="Ebene_1" data-name="Ebene 1" xmlns="http://www.w3.org/2000/svg" viewBox="0 0 520.28 121.23">
  <defs>
    <style>
      .cls-1 {
        fill: #fff;
      }

      .cls-2 {
        fill: #eb6608;
      }

      .cls-3 {
        fill: #005ca8;
      }
    </style>
  </defs>
  <rect class="cls-1" width="174.72" height="121.23"/>
  <g>
    <g>
      <path class="cls-2" d="m171.21,117.14v-19.94h-63.75c-1.74,9.17-3.21,16.93-3.78,19.94h67.53Z"/>
      <polygon class="cls-2" points="3.97 97.2 3.97 117.14 71.02 117.14 66.55 97.2 3.97 97.2 3.97 97.2"/>
      <path class="cls-3" d="m36.92,50.21l-4.88-20.63h41.64l13.49,59.22h.57l8.5-37.94c4.28-17.23,5.9-21.29,30.02-21.29h17.35s-3.5,15.88-7.86,33.12c-1.66,6.56-16.15,5.79-15.42-.34.08-.64.76-5.27,1.3-8.55.79-4.73-4.7-5.33-5.69-.65-.7,3.36-3.88,20-6.86,35.65h62.15V3.76H3.97v85.04h60.69l-8.64-38.56-19.1-.03h0Z"/>
    </g>
    <g>
      <path class="cls-3" d="m218.19,23.62h16.38V6.62h8.62v42.53h-8.62v-18.25h-16.38v18.25h-8.69V6.62h8.69v17Z"/>
      <path class="cls-3" d="m269.33,49.16v-4.64c-.24.44-.61.97-1.11,1.59-.5.62-1.27,1.25-2.32,1.89-1.16.68-2.34,1.13-3.52,1.35-1.18.22-2.36.33-3.52.33-2.17,0-3.94-.32-5.33-.96-1.38-.64-2.48-1.46-3.28-2.44-.8-.98-1.34-2.04-1.62-3.16-.28-1.12-.42-2.17-.42-3.13.04-1.69.35-3.08.93-4.19.58-1.1,1.27-2,2.08-2.68,1.28-1.16,3.01-2.03,5.17-2.59,2.16-.56,4.81-.86,7.94-.9h.36c.8,0,1.51.01,2.13.03.62.02,1.33.07,2.14.16-.08-.72-.16-1.5-.24-2.32-.08-.82-.38-1.6-.9-2.32-.48-.68-1.12-1.23-1.92-1.63-.8-.4-1.88-.64-3.25-.72h-.78c-1.52.04-2.82.22-3.88.54-1.06.32-1.91.62-2.56.9-.32.16-.74.37-1.26.63-.52.26-1.16.69-1.92,1.3l-.24-7.11c.64-.24,1.31-.48,2.02-.72.7-.24,1.48-.46,2.32-.66.84-.2,1.8-.37,2.86-.51,1.06-.14,2.26-.21,3.58-.21.76,0,1.59.02,2.47.06.88.04,1.76.17,2.62.39.86.22,1.73.53,2.59.93.86.4,1.68.92,2.44,1.57.4.36.87.86,1.42,1.51.54.64.97,1.47,1.29,2.47.4,1.05.63,2.29.69,3.74.06,1.45.09,2.69.09,3.74v7.47c0,1.89.02,3.61.06,5.15.04,1.55.1,3.26.19,5.15h-7.31Zm-.19-14.28c-.52-.04-1.03-.07-1.53-.09-.5-.02-1.03-.03-1.59-.03-2.16,0-4.03.21-5.59.63-1.56.42-2.68,1.24-3.37,2.44-.32.6-.48,1.29-.48,2.05,0,.44.08.92.24,1.42s.43.97.81,1.42c.38.44.88.8,1.5,1.09.62.28,1.41.42,2.37.42.48,0,1.09-.09,1.83-.27.74-.18,1.49-.52,2.25-1.02s1.45-1.21,2.07-2.11,1.05-2.08,1.29-3.53c.08-.44.13-.94.16-1.51.02-.56.03-.86.03-.9Z"/>
      <path class="cls-3" d="m330.2,49.16h-8.12v-16.21c0-1.97-.08-3.62-.24-4.94-.16-1.33-.74-2.39-1.75-3.19-.64-.44-1.26-.7-1.84-.78-.58-.08-.96-.12-1.12-.12-.84,0-1.55.14-2.11.42-.56.28-1,.56-1.33.84-.68.6-1.22,1.33-1.6,2.17-.38.84-.66,1.71-.84,2.59-.18.88-.29,1.76-.33,2.62-.04.86-.06,1.62-.06,2.26-.04.4-.06.76-.06,1.08v13.26h-8.12v-17.96c0-.44-.01-.95-.03-1.54-.02-.58-.09-1.17-.21-1.75-.12-.58-.31-1.14-.57-1.69-.26-.54-.65-1.03-1.18-1.48-.56-.48-1.14-.76-1.72-.84-.58-.08-.96-.12-1.12-.12-.24,0-.7.07-1.39.21-.68.14-1.39.49-2.11,1.05-1.17.92-1.95,2.1-2.35,3.53-.4,1.43-.6,3.29-.6,5.58v15.01h-8.19v-25.66c-.04-1.08-.07-2.07-.09-2.95-.02-.88-.05-1.87-.09-2.95h7.83v4.81c.48-.68.87-1.2,1.17-1.54.3-.34.61-.65.93-.93.8-.72,1.63-1.28,2.47-1.66.84-.38,1.64-.66,2.38-.84.74-.18,1.39-.29,1.93-.33.54-.04.91-.06,1.12-.06.64,0,1.31.06,1.99.18.68.12,1.38.33,2.08.63.7.3,1.38.7,2.02,1.21.64.5,1.25,1.16,1.81,1.96.24.4.42.73.54,1,.12.26.28.59.48,1,.36-.6.68-1.07.96-1.42.28-.34.54-.63.78-.87.84-.96,1.75-1.69,2.71-2.17.96-.48,1.86-.83,2.68-1.06.82-.22,1.55-.34,2.17-.36.62-.02,1.03-.03,1.24-.03.24,0,.68.02,1.33.06.64.04,1.38.21,2.2.51.82.3,1.67.79,2.53,1.48.86.68,1.64,1.65,2.32,2.89.72,1.41,1.16,2.77,1.3,4.1.14,1.33.21,2.67.21,4.04v18.98Z"/>
      <path class="cls-3" d="m345.37,3.12v19.39c.32-.56.6-.99.85-1.3.24-.3.46-.57.66-.81.76-.8,1.83-1.56,3.19-2.26,1.37-.7,3.05-1.07,5.06-1.11.56,0,1.39.07,2.47.21,1.08.14,2.23.51,3.44,1.11,1.21.6,2.36,1.52,3.46,2.74,1.1,1.23,2,2.92,2.68,5.09.2.68.41,1.57.63,2.65.22,1.08.33,2.43.33,4.04.04,3.41-.45,6.29-1.48,8.62-1.02,2.33-2.28,4.14-3.77,5.42-.24.2-.58.46-1.03.78s-.99.62-1.63.9c-1.13.52-2.23.83-3.32.93-1.09.1-1.77.15-2.05.15-2.09,0-3.84-.32-5.25-.96-1.41-.64-2.51-1.46-3.32-2.47-.32-.44-.59-.86-.81-1.26s-.37-.64-.45-.72v4.89h-7.75V3.12h8.06Zm7.59,20.53c-.8,0-1.63.16-2.47.48-1.08.44-1.96,1.04-2.62,1.81s-1.17,1.6-1.54,2.5c-.36.9-.6,1.81-.72,2.71-.12.9-.18,1.72-.18,2.44,0,.92.08,1.84.24,2.74.16.9.46,1.82.9,2.74.2.36.41.72.63,1.09.22.36.49.7.81,1.02.48.52.97.92,1.48,1.21.5.28.96.48,1.39.6s.79.18,1.12.18h.72c.24,0,.73-.06,1.48-.18.74-.12,1.52-.52,2.32-1.21.64-.56,1.17-1.22,1.6-1.96.42-.74.75-1.51.99-2.29.24-.78.4-1.55.48-2.29.08-.74.12-1.42.12-2.02,0-.96-.09-1.95-.27-2.95-.18-1-.49-1.97-.93-2.89-.2-.44-.42-.83-.66-1.18-.24-.34-.46-.61-.66-.81-.4-.36-.95-.74-1.66-1.14-.7-.4-1.56-.6-2.56-.6Z"/>
      <path class="cls-3" d="m381.33,17.59v15.9c0,.88.02,1.76.06,2.62.04.86.16,1.69.36,2.47.2.78.51,1.51.94,2.17.42.66,1.02,1.19,1.79,1.6.65.36,1.25.57,1.82.63.56.06.95.09,1.15.09,1.17,0,2.16-.2,2.96-.6.81-.4,1.43-.84,1.88-1.32.44-.52.78-1.03,1-1.54.22-.5.37-.81.45-.93.4-1.04.66-2.05.76-3.01.1-.96.15-1.97.15-3.01v-15.05h8.12v20.9c.08,1.97.15,3.75.19,5.33.04,1.59.1,3.36.19,5.33h-7.66l-.24-4.95c-.24.4-.52.82-.85,1.26-.32.44-.89.98-1.69,1.63-.81.64-1.85,1.23-3.14,1.78-1.29.54-2.9.81-4.83.81-2.13.04-3.9-.27-5.28-.93-1.39-.66-2.51-1.45-3.35-2.38-.72-.8-1.29-1.7-1.69-2.68-.4-.98-.69-1.98-.88-2.98-.18-1-.29-2-.33-2.98-.04-.98-.06-1.88-.06-2.68v-17.46h8.19Z"/>
      <path class="cls-3" d="m428.64,25.05c-.24-.08-.56-.17-.96-.27-.4-.1-.9-.15-1.51-.15-.24,0-.67.03-1.3.09-.62.06-1.32.25-2.08.57-.76.32-1.51.83-2.23,1.54-.72.7-1.29,1.7-1.69,2.98-.2.48-.34.98-.42,1.51-.08.52-.16,1.27-.24,2.23-.04.6-.06,1.15-.06,1.63v13.98h-8.19v-23.37c0-1.53-.01-2.89-.03-4.1s-.07-2.57-.16-4.1h7.71v7.59c.2-.8.38-1.42.54-1.84.16-.42.34-.83.54-1.24.92-1.73,2.1-2.98,3.52-3.77,1.43-.79,2.86-1.18,4.31-1.18.36,0,.73.02,1.11.06.38.04.75.1,1.12.19v7.64Z"/>
      <path class="cls-3" d="m454.59,17.59h7.81v23.67c0,2.09-.04,3.98-.12,5.66-.08,1.69-.24,3.22-.48,4.61-.24,1.38-.59,2.63-1.05,3.73-.46,1.1-1.09,2.12-1.9,3.04-.56.64-1.08,1.14-1.57,1.51-.48.36-.86.62-1.14.78-1.08.68-2.17,1.2-3.25,1.57-1.08.36-2.09.61-3.01.75-.92.14-1.74.22-2.44.24-.7.02-1.2.03-1.48.03-1.89,0-3.58-.14-5.09-.42-1.51-.28-2.6-.52-3.28-.72-.56-.2-1.06-.38-1.51-.54-.44-.16-.94-.34-1.51-.54l.72-7.11c2.17,1.21,4.07,1.96,5.7,2.26,1.63.3,2.85.45,3.65.45.72,0,1.55-.07,2.47-.21s1.83-.4,2.71-.78c.88-.38,1.7-.92,2.44-1.63.74-.7,1.3-1.6,1.66-2.68.2-.56.35-1.2.45-1.9.1-.7.19-1.66.27-2.86.08-.64.12-1.21.14-1.69.02-.48.05-1.04.09-1.69-.32.56-.6,1.03-.84,1.42-.24.38-.46.69-.66.93-.92,1.08-1.87,1.92-2.83,2.5-.96.58-1.87.99-2.71,1.23-.84.24-1.58.38-2.2.42-.62.04-1.05.06-1.29.06-1.57,0-2.9-.22-4.01-.66-1.11-.44-1.98-.88-2.62-1.33-.6-.4-1.09-.79-1.48-1.17-.38-.38-.67-.67-.87-.87-.72-.8-1.28-1.55-1.66-2.23-.38-.68-.65-1.16-.81-1.45-.28-.68-.53-1.44-.75-2.26-.22-.82-.39-1.56-.51-2.2-.12-.68-.23-1.42-.31-2.2s-.12-1.52-.12-2.2c0-1.08.11-2.28.33-3.58.22-1.31.59-2.61,1.12-3.92.52-1.31,1.22-2.54,2.08-3.71.86-1.16,1.96-2.17,3.29-3.01,1.08-.68,2.19-1.17,3.32-1.48,1.13-.3,2.25-.45,3.38-.45s2.5.23,4.01.69c1.51.46,2.84,1.21,4.01,2.26.32.28.6.56.84.84s.58.7,1.03,1.26v-4.43Zm-7.59,5.88c-.85,0-1.63.14-2.35.42-1.53.56-2.72,1.57-3.56,3.01-.84,1.45-1.27,3.44-1.27,5.97,0,.64.03,1.35.09,2.11.06.76.19,1.54.39,2.32.2.78.5,1.55.9,2.29.4.74.94,1.42,1.63,2.02.36.32.87.64,1.54.96.66.32,1.46.48,2.38.48.12,0,.37-.02.75-.06.38-.04.81-.14,1.3-.3.48-.16,1-.4,1.57-.72s1.11-.76,1.63-1.33c.92-.96,1.53-2.01,1.81-3.13.28-1.12.46-2.19.54-3.2.04-.2.06-.36.06-.48v-.54c0-.92-.05-1.67-.14-2.23-.1-.56-.18-1.04-.26-1.45-.48-1.81-1.34-3.29-2.57-4.43-1.23-1.15-2.71-1.72-4.44-1.72Z"/>
      <path class="cls-3" d="m475.07,36.19c.04.08.14.47.3,1.17.16.7.44,1.35.84,1.96.52.88,1.14,1.6,1.84,2.14.7.54,1.43.96,2.17,1.26.74.3,1.5.51,2.26.63.76.12,1.49.18,2.17.18,1.21,0,2.44-.14,3.71-.42,1.27-.28,2.5-.72,3.71-1.32.48-.2.97-.46,1.48-.78.5-.32.81-.52.94-.6l.12,7.04c-1.21.52-2.66,1.04-4.37,1.57-1.71.52-3.89.78-6.54.78h-1.08c-.48,0-1.04-.03-1.66-.09-.62-.06-1.32-.17-2.08-.33-.76-.16-1.53-.38-2.29-.66-1.25-.48-2.44-1.13-3.59-1.96-1.15-.82-2.15-1.85-3.01-3.07-.86-1.22-1.56-2.66-2.08-4.31-.52-1.65-.78-3.53-.78-5.66,0-1.97.18-3.63.54-5,.36-1.36.72-2.45,1.08-3.25.2-.36.4-.74.6-1.14.2-.4.32-.64.36-.72.2-.28.39-.55.57-.81.18-.26.39-.51.63-.75,1.16-1.4,2.67-2.61,4.52-3.61,1.85-1,4.18-1.51,6.99-1.51,2.57,0,4.75.44,6.54,1.32,1.79.88,3.25,2.06,4.4,3.52,1.15,1.46,1.98,3.17,2.5,5.11s.78,3.98.78,6.11v1.62c0,.48-.02,1-.06,1.56h-21.53Zm14.06-5.72c-.08-.88-.2-1.75-.36-2.61-.16-.86-.56-1.71-1.21-2.55-.48-.64-.99-1.13-1.51-1.47-.52-.34-1.03-.59-1.51-.75-.48-.16-.92-.26-1.3-.3-.38-.04-.65-.06-.81-.06-.12,0-.4.02-.85.06-.44.04-.96.15-1.54.33-.58.18-1.19.48-1.81.9-.62.42-1.2,1.01-1.72,1.77-.64,1.04-1.04,2-1.18,2.88-.14.88-.23,1.48-.27,1.8h14.06Z"/>
      <path class="cls-3" d="m520.28,25.05c-.24-.08-.56-.17-.96-.27-.4-.1-.9-.15-1.51-.15-.24,0-.67.03-1.3.09-.62.06-1.32.25-2.08.57-.76.32-1.51.83-2.23,1.54-.72.7-1.29,1.7-1.69,2.98-.2.48-.34.98-.42,1.51-.08.52-.16,1.27-.24,2.23-.04.6-.06,1.15-.06,1.63v13.98h-8.19v-23.37c0-1.53-.01-2.89-.03-4.1-.02-1.2-.07-2.57-.16-4.1h7.71v7.59c.2-.8.38-1.42.54-1.84.16-.42.34-.83.54-1.24.92-1.73,2.1-2.98,3.52-3.77,1.43-.79,2.86-1.18,4.31-1.18.36,0,.73.02,1.11.06.38.04.75.1,1.11.19v7.64Z"/>
      <path class="cls-3" d="m221.97,95.03c.36,1.12.68,2.12.96,2.98.28.86.58,1.84.9,2.92.32,1.04.6,2,.84,2.86.24.86.52,1.82.84,2.86.32-1.04.62-2.02.9-2.92.28-.9.55-1.8.81-2.68.26-.88.53-1.78.81-2.68.28-.9.58-1.88.9-2.92l7.6-23.68h8.44l-14.53,42.53h-10.49l-14.71-42.53h9.09l7.6,23.26Z"/>
      <path class="cls-3" d="m258.99,82.12c1.25,0,2.48.11,3.71.33,1.23.22,2.4.57,3.52,1.05,1.69.72,3.06,1.61,4.13,2.65,1.06,1.04,1.92,2.09,2.56,3.13.64,1.04,1.12,2.02,1.42,2.92.3.9.49,1.56.57,1.96.24,1,.38,1.9.42,2.68.04.78.06,1.34.06,1.66,0,2.17-.29,4.11-.87,5.81-.58,1.71-1.35,3.19-2.29,4.46-.94,1.27-2.01,2.31-3.19,3.13-1.19.82-2.38,1.46-3.58,1.9-1.41.52-2.73.82-3.98.9-1.25.08-2.09.12-2.53.12-1,0-2-.07-2.98-.21s-1.96-.37-2.92-.69c-1.21-.4-2.43-1.02-3.68-1.87-1.25-.84-2.37-1.9-3.37-3.16-1-1.27-1.82-2.77-2.44-4.52-.62-1.75-.93-3.75-.93-6,.04-2.85.52-5.26,1.45-7.23.92-1.97,1.99-3.54,3.19-4.7.72-.68,1.36-1.19,1.9-1.51.54-.32.93-.56,1.18-.72.8-.44,1.94-.9,3.4-1.38,1.47-.48,3.22-.72,5.27-.72Zm.06,6.03c-.8,0-1.62.16-2.47.48-.52.2-.98.43-1.38.69-.4.26-.68.47-.84.63-.88.76-1.63,1.84-2.23,3.22-.6,1.38-.9,3.1-.9,5.15,0,1.81.25,3.39.75,4.76.5,1.37,1.03,2.39,1.59,3.07.48.56.93.99,1.35,1.29.42.3.73.49.93.57.68.36,1.33.57,1.96.63.62.06,1.03.09,1.23.09,1.16,0,2.15-.2,2.95-.6.8-.4,1.42-.82,1.87-1.26.92-.84,1.64-1.98,2.14-3.4.5-1.43.73-3.22.69-5.39-.04-1.2-.21-2.53-.51-3.97-.3-1.45-1.03-2.75-2.2-3.91-.56-.56-1.22-1.04-1.99-1.45-.76-.4-1.75-.6-2.95-.6Z"/>
      <path class="cls-3" d="m288.74,68.27v46.03h-8.19v-46.03h8.19Z"/>
      <path class="cls-3" d="m303.92,95.52c.52-.76.99-1.44,1.42-2.02s.91-1.21,1.48-1.9l7.11-8.86h9.47l-11.75,13.91,13.25,17.65h-10.12l-6.93-9.58c-.8-1.08-1.49-2.08-2.05-2.98-.56-.9-1.18-1.94-1.87-3.1v15.67h-8.12v-46.03h8.12v27.24Z"/>
      <path class="cls-3" d="m345.41,89.48c-1.25-.36-2.38-.66-3.4-.9-1.02-.24-2.14-.34-3.34-.3-1.69,0-3.05.29-4.1.87-1.04.58-1.57,1.42-1.57,2.5,0,.24.06.51.18.81.12.3.3.55.54.75.44.36,1.01.67,1.69.93.68.26,1.53.55,2.54.87,1.05.32,1.91.6,2.6.84.68.24,1.25.46,1.69.66,1.29.6,2.29,1.32,2.99,2.14.71.82,1.22,1.65,1.54,2.47.32.82.51,1.57.57,2.23.06.66.09,1.11.09,1.35,0,.92-.13,1.89-.39,2.89-.26,1-.75,1.97-1.48,2.89-.48.6-.98,1.12-1.51,1.57-.52.44-1.03.79-1.51,1.05-.48.26-.91.47-1.3.63-.38.16-.65.26-.81.3-1.25.44-2.46.68-3.65.72-1.19.04-1.96.06-2.32.06-.88,0-1.7-.03-2.44-.09-.74-.06-1.47-.15-2.17-.27-.7-.12-1.43-.27-2.17-.45-.74-.18-1.56-.37-2.44-.57l.41-6.87c.72.32,1.76.74,3.11,1.26,1.35.52,2.95.78,4.8.78,1.69,0,3.05-.3,4.08-.9,1.03-.6,1.54-1.42,1.54-2.46,0-.52-.13-.96-.39-1.32-.26-.36-.59-.67-1-.93-.4-.26-.83-.48-1.27-.66-.44-.18-.84-.33-1.21-.45-.81-.28-1.58-.55-2.33-.81-.75-.26-1.47-.54-2.17-.84-.7-.3-1.37-.65-1.99-1.06-.62-.4-1.22-.92-1.78-1.57-.56-.6-1.07-1.36-1.51-2.26-.44-.9-.66-2.04-.66-3.41,0-1.05.19-2.1.57-3.17.38-1.06,1.09-2.12,2.14-3.17.92-.88,1.94-1.56,3.04-2.02,1.1-.46,2.16-.79,3.16-1s1.86-.31,2.56-.33c.7-.02,1.13-.03,1.3-.03,1.49,0,2.87.12,4.16.36,1.29.24,2.67.52,4.16.84l-.54,6.03Z"/>
      <path class="cls-3" d="m360.38,68.27v19.39c.32-.56.6-.99.85-1.29.24-.3.46-.57.66-.81.76-.8,1.83-1.55,3.19-2.26,1.37-.7,3.05-1.07,5.06-1.11.56,0,1.39.07,2.47.21,1.08.14,2.23.51,3.43,1.11,1.21.6,2.36,1.52,3.46,2.74s2,2.92,2.68,5.09c.2.68.41,1.57.63,2.65.22,1.08.33,2.43.33,4.04.04,3.41-.45,6.29-1.48,8.62-1.03,2.33-2.28,4.14-3.77,5.42-.24.2-.58.46-1.03.78s-.98.62-1.63.9c-1.13.52-2.23.83-3.32.93-1.08.1-1.77.15-2.05.15-2.09,0-3.84-.32-5.25-.96-1.41-.64-2.51-1.46-3.32-2.47-.32-.44-.59-.86-.81-1.26-.22-.4-.37-.64-.45-.72v4.89h-7.75v-46.03h8.06Zm7.59,20.53c-.8,0-1.63.16-2.47.48-1.08.44-1.96,1.04-2.62,1.81-.66.76-1.18,1.6-1.54,2.5-.36.9-.6,1.81-.72,2.71-.12.9-.18,1.72-.18,2.44,0,.92.08,1.84.24,2.74.16.9.46,1.82.9,2.74.2.36.41.72.63,1.08.22.36.49.7.81,1.03.48.52.97.92,1.48,1.21.5.28.96.48,1.39.6.42.12.79.18,1.12.18h.72c.24,0,.73-.06,1.48-.18s1.52-.52,2.32-1.21c.64-.56,1.17-1.22,1.6-1.96.42-.74.75-1.51.99-2.29.24-.78.4-1.55.48-2.29.08-.74.12-1.42.12-2.02,0-.96-.09-1.95-.27-2.95-.18-1.01-.49-1.97-.93-2.89-.2-.44-.42-.83-.66-1.18-.24-.34-.46-.61-.66-.81-.4-.36-.95-.74-1.66-1.15-.7-.4-1.56-.6-2.56-.6Z"/>
      <path class="cls-3" d="m407.36,114.31v-4.64c-.24.44-.61.97-1.11,1.59-.5.62-1.27,1.25-2.32,1.89-1.16.68-2.34,1.13-3.52,1.35-1.18.22-2.36.33-3.52.33-2.17,0-3.94-.32-5.33-.96-1.38-.64-2.48-1.46-3.28-2.44-.8-.98-1.34-2.04-1.62-3.16-.28-1.12-.42-2.17-.42-3.13.04-1.69.35-3.08.93-4.19.58-1.1,1.27-2,2.08-2.68,1.28-1.17,3.01-2.03,5.17-2.59s4.81-.86,7.94-.9h.36c.8,0,1.51.01,2.14.03.62.02,1.33.07,2.13.16-.08-.72-.16-1.5-.24-2.32s-.38-1.6-.9-2.32c-.48-.68-1.12-1.23-1.92-1.63-.8-.4-1.88-.64-3.25-.72h-.78c-1.52.04-2.82.22-3.88.54-1.06.32-1.91.62-2.55.9-.32.16-.74.37-1.26.63-.52.26-1.16.69-1.92,1.3l-.24-7.11c.64-.24,1.31-.48,2.02-.72.7-.24,1.48-.46,2.32-.66.84-.2,1.8-.37,2.86-.51,1.06-.14,2.26-.21,3.58-.21.76,0,1.58.02,2.47.06.88.04,1.76.17,2.62.39s1.73.53,2.59.93c.86.4,1.68.92,2.44,1.57.4.36.87.86,1.42,1.51.54.64.97,1.47,1.29,2.47.4,1.04.63,2.29.69,3.74.06,1.45.09,2.69.09,3.74v7.47c0,1.89.02,3.61.06,5.15s.1,3.26.19,5.15h-7.31Zm-.19-14.28c-.52-.04-1.03-.07-1.53-.09s-1.03-.03-1.59-.03c-2.16,0-4.03.21-5.59.63-1.56.42-2.68,1.24-3.37,2.44-.32.6-.48,1.29-.48,2.05,0,.44.08.92.24,1.42.16.5.43.97.81,1.42.38.44.88.8,1.5,1.09.62.28,1.41.42,2.37.42.48,0,1.09-.09,1.83-.27.74-.18,1.49-.52,2.25-1.03.76-.5,1.45-1.21,2.07-2.11.62-.9,1.05-2.08,1.29-3.53.08-.44.14-.94.16-1.51s.03-.86.03-.9Z"/>
      <path class="cls-3" d="m442.7,114.31v-15.25c-.04-1.89-.12-3.38-.24-4.49-.12-1.11-.4-2.1-.84-2.98-.28-.52-.6-.95-.97-1.29-.36-.34-.82-.65-1.39-.93-.2-.08-.51-.18-.94-.3-.42-.12-.91-.18-1.48-.18-.28-.04-.81.01-1.6.15-.79.14-1.62.55-2.5,1.23-.72.56-1.3,1.19-1.72,1.87-.42.68-.73,1.43-.94,2.23s-.34,1.64-.42,2.5c-.08.86-.12,1.76-.12,2.68v14.77h-8.25v-23.97c0-1.4-.02-2.67-.06-3.79-.04-1.12-.1-2.39-.19-3.79h7.9v4.86c.36-.48.76-.96,1.21-1.45.6-.68,1.21-1.21,1.81-1.57.6-.36,1-.6,1.21-.72,1.21-.68,2.33-1.12,3.38-1.32,1.04-.2,2.15-.3,3.32-.3,1.53,0,2.78.16,3.77.48.98.32,1.8.68,2.44,1.08.32.2.71.49,1.18.87.46.38.97.97,1.54,1.78.48.64.85,1.35,1.12,2.11.26.76.45,1.61.57,2.53.12.92.2,1.97.24,3.13.04,1.17.08,2.47.12,3.92v16.15h-8.12Z"/>
      <path class="cls-3" d="m465.87,95.52c.52-.76.99-1.44,1.42-2.02s.91-1.21,1.48-1.9l7.11-8.86h9.47l-11.75,13.91,13.25,17.65h-10.12l-6.93-9.58c-.8-1.08-1.49-2.08-2.05-2.98-.56-.9-1.18-1.94-1.87-3.1v15.67h-8.12v-46.03h8.12v27.24Z"/>
    </g>
  </g>
</svg>