<?xml version="1.0" encoding="UTF-8"?>
<svg id="Layer_2" data-name="Layer 2" xmlns="http://www.w3.org/2000/svg" viewBox="0 0 240 240">
  <defs>
    <style>
      .cls-1 {
        fill: #09a0e0;
      }

      .cls-2 {
        fill: #f9fcfd;
      }
    </style>
  </defs>
  <g id="Layer_1-2" data-name="Layer 1">
    <g>
      <path class="cls-2" d="M0,112V0h240v112c-3.01-4.46-9.32-3.3-12.35-5.15-2.49-1.53-2.03-9.56-3.63-12.78,3.51-1.33,10.83-4.54,10.92-8.62.07-3.12-5.59-15.87-7.9-17.99-5.92-5.44-11.73,1.82-15.54-1.46-.42-.36-5.46-7.82-5.38-8.31,1.39-2.85,7.51-9.03,6.74-11.98-.26-.99-13.18-14.1-14.31-14.76-6.64-3.9-11.29,5.76-14.81,4.91l-7.78-5.57,1.06-11.81c-.98-4.11-18.13-11.47-20.37-11.27-4.63.41-7,8.85-9.33,9.64l-10.63-.83c-2.55-.61.49-13.03-10.13-14.08-2.76-.27-14.67-.34-16.56.56-4.06,1.93-2.52,10.6-4.22,12.28-.81.8-12.45,2.82-13.63,2.07-1.42-4.22-5.86-10.32-10.91-9.2-1.74.38-14.31,5.85-15.28,6.81-4.03,3.98,1.37,8.98-.13,13.84-.41,1.35-7.71,6.41-9.16,6.96-4.39,1.68-7.99-6.02-13.11-5.3-1.55.22-14.02,12.31-14.42,13.76-1.2,4.35,5.16,8.51,5.82,12.78l-6.15,10.3c-4.56,1.24-10.13-3.36-14.19-.71-2.1,1.37-7.58,14.67-7.64,17.42-.14,6.79,8.72,6.24,9.87,10.2l-1.93,13.2c-5.64.39-10.81.91-14.92,5.08Z"/>
      <path class="cls-2" d="M0,129c2.28,5.73,12.61,3.26,14.94,6.56l2.98,12.3c-3.54,1.97-10.86,5.1-10.98,9.6-.06,2.44,5.6,16.25,7.49,17.62,3.44,2.49,10.87.14,14.9.02l6.21,7.94.1,1.98c-3.33,5.72-9.46,8.61-4.63,15.48,3.33,4.73,11.29,12.05,17.46,11.47,4-.37,6.52-7.07,11.21-5.23.95.37,7.01,4.23,7.15,4.84-.52,4.16-3.58,11.28-.91,15,.58.81,14.22,6.86,15.79,7.19,8.9,1.89,9.99-3.94,13.4-10.66l9.94,1.32c1.9,1.33,1.09,13.8,5.94,15.56H0v-111Z"/>
      <path class="cls-2" d="M240,133v107h-107l3-15,11.33-.85c8.51,15.94,16.47,8.59,29.53,3.72l-1.76-15.19c.16-.52,8.09-5.86,8.96-6.19,3.86-1.48,11.02,8.39,17.49,4.59.98-.57,11.1-11,11.32-11.79,1.16-4.25-6.99-10.08-6.66-13.62l6.95-11.57c1.01-.57,10.57,3.57,14.87,1.42,1.18-.59,6.43-12.46,6.78-14.27,1.54-7.84-9.91-9.41-10.6-12.86l2.68-12.81,13.12-2.58Z"/>
      <path class="cls-1" d="M0,112c4.11-4.17,9.28-4.7,14.92-5.08l1.93-13.2c-1.15-3.96-10.01-3.41-9.87-10.2.06-2.75,5.54-16.05,7.64-17.42,4.06-2.65,9.63,1.95,14.19.71l6.15-10.3c-.66-4.27-7.02-8.43-5.82-12.78.4-1.45,12.86-13.54,14.42-13.76,5.12-.72,8.73,6.98,13.11,5.3,1.45-.55,8.74-5.62,9.16-6.96,1.49-4.86-3.91-9.86.13-13.84.97-.96,13.54-6.43,15.28-6.81,5.05-1.12,9.49,4.97,10.91,9.2,1.18.75,12.81-1.27,13.63-2.07,1.7-1.68.16-10.34,4.22-12.28,1.9-.9,13.8-.83,16.56-.56,10.62,1.05,7.59,13.47,10.13,14.08l10.63.83c2.33-.8,4.7-9.24,9.33-9.64,2.24-.2,19.39,7.16,20.37,11.27l-1.06,11.81,7.78,5.57c3.52.85,8.16-8.81,14.81-4.91,1.13.66,14.05,13.77,14.31,14.76.77,2.95-5.35,9.13-6.74,11.98-.07.49,4.96,7.95,5.38,8.31,3.81,3.28,9.62-3.97,15.54,1.46,2.31,2.12,7.97,14.87,7.9,17.99-.09,4.08-7.41,7.29-10.92,8.62,1.6,3.22,1.13,11.26,3.63,12.78,3.03,1.85,9.34.7,12.35,5.15v21l-13.12,2.58-2.68,12.81c.68,3.45,12.14,5.02,10.6,12.86-.36,1.81-5.6,13.67-6.78,14.27-4.3,2.15-13.86-1.99-14.87-1.42l-6.95,11.57c-.33,3.54,7.82,9.37,6.66,13.62-.22.79-10.34,11.21-11.32,11.79-6.46,3.8-13.63-6.07-17.49-4.59-.87.33-8.8,5.67-8.96,6.19l1.76,15.19c-13.07,4.87-21.03,12.23-29.53-3.72l-11.33.85-3,15h-22c-4.84-1.76-4.04-14.24-5.94-15.56l-9.94-1.32c-3.41,6.72-4.5,12.55-13.4,10.66-1.57-.33-15.21-6.38-15.79-7.19-2.67-3.72.39-10.84.91-15-.15-.62-6.21-4.47-7.15-4.84-4.69-1.83-7.21,4.86-11.21,5.23-6.17.57-14.13-6.75-17.46-11.47-4.83-6.86,1.3-9.76,4.63-15.48l-.1-1.98-6.21-7.94c-4.03.12-11.46,2.47-14.9-.02-1.88-1.36-7.55-15.18-7.49-17.62.12-4.5,7.44-7.62,10.98-9.6l-2.98-12.3c-2.33-3.3-12.66-.83-14.94-6.56v-17ZM148.86,20.92l-16.93-3.35c-2.27-1.59-.28-12.63-5.44-13.56-1.63-.3-14.72-.29-15.37.13l-3.83,13.89-15.69,2.77-8.24-10.61-16.27,7.47,1.68,13.15-13.28,8.16c-4.27-.66-8.43-7.02-12.78-5.82-.65.18-9.26,8.43-9.78,9.3-3.09,5.18,3.86,8.28,4.88,12.31s-6.42,11.43-8.49,15.12l-13.33-1.43c-1.89,3-7.45,14.56-5.8,17.35l9.86,5.86c-.49,3.55-1.36,15.72-3.71,17.18-3.08,1.91-9.42.37-12.44,3.56-1.48,1.95-1.55,15.74.34,17.35,2.97,1.63,12.4.91,13.58,3.92l3.02,14.73c-2.25,3.11-10.35,5.36-10.88,9.15-.27,1.91,4.69,14.15,6.03,14.97,3.18,1.96,10.81-2.56,14.82-1.33l8.21,13.32c-1.65,4.48-9.07,8.99-6.07,14.04.55.92,9.97,10.16,10.7,10.3l12-7.69,13.9,8.84c.94,3.83-3.96,11.73-1.66,14.57.52.64,12.7,6.11,13.86,6.28,4.54.67,6.98-9.64,10.86-11.65l15.31,2.88c.49.46,1.51,11.19,2.27,13.23,1.16,3.11,14.46,1.56,17.83,1.2l3.43-13.57,15.28-3.77,8.93,11.72,15.72-5.79-1.23-15.96,12.51-7.99,12.81,6.87,12.38-11.67c.63-3.19-8.79-8.88-6.34-14.31.41-.91,7.53-10.71,8.18-10.92l14.36,1.43c1.19-4.15,7.81-13.46,5.04-17.13-1.85-2.45-9.69-3.97-10.09-7.94l3.09-15.4,13.46-3.05.02-17.1-13.6-3.58-2.85-15.71c2.1-3.06,10.57-5.55,10.92-9.19l-6.18-15.32-14.7,1.69-7.99-13.5c.55-3.23,7.76-9.55,6.38-12.31l-11.27-10.89c-3.99-1.22-8.62,5.72-11.77,5.82-.76.03-12.33-7.17-13.06-7.92-3.36-3.47,2.3-10.12.38-14.88l-15.18-6-7.78,10.76Z"/>
      <path class="cls-2" d="M148.86,20.92l7.78-10.76,15.18,6c1.92,4.76-3.74,11.41-.38,14.88.72.75,12.3,7.94,13.06,7.92,3.15-.11,7.78-7.04,11.77-5.82l11.27,10.89c1.38,2.76-5.84,9.08-6.38,12.31l7.99,13.5,14.7-1.69,6.18,15.32c-.36,3.64-8.82,6.13-10.92,9.19l2.85,15.71,13.6,3.58-.02,17.1-13.46,3.05-3.09,15.4c.4,3.96,8.24,5.49,10.09,7.94,2.77,3.67-3.84,12.98-5.04,17.13l-14.36-1.43c-.65.22-7.77,10.02-8.18,10.92-2.45,5.43,6.97,11.12,6.34,14.31l-12.38,11.67-12.81-6.87-12.51,7.99,1.23,15.96-15.72,5.79-8.93-11.72-15.28,3.77-3.43,13.57c-3.36.36-16.67,1.9-17.83-1.2-.76-2.04-1.78-12.77-2.27-13.23l-15.31-2.88c-3.88,2.01-6.33,12.32-10.86,11.65-1.16-.17-13.34-5.63-13.86-6.28-2.3-2.84,2.59-10.74,1.66-14.57l-13.9-8.84-12,7.69c-.73-.14-10.15-9.38-10.7-10.3-3.01-5.04,4.42-9.55,6.07-14.04l-8.21-13.32c-4-1.23-11.64,3.29-14.82,1.33-1.33-.82-6.29-13.07-6.03-14.97.53-3.78,8.63-6.04,10.88-9.15l-3.02-14.73c-1.17-3.01-10.6-2.28-13.58-3.92-1.89-1.61-1.82-15.4-.34-17.35,3.02-3.19,9.36-1.65,12.44-3.56,2.35-1.46,3.22-13.63,3.71-17.18l-9.86-5.86c-1.65-2.79,3.91-14.36,5.8-17.35l13.33,1.43c2.08-3.7,9.48-11.2,8.49-15.12s-7.96-7.13-4.88-12.31c.52-.87,9.13-9.12,9.78-9.3,4.35-1.2,8.51,5.16,12.78,5.82l13.28-8.16-1.68-13.15,16.27-7.47,8.24,10.61,15.69-2.77,3.83-13.89c.64-.42,13.74-.42,15.37-.13,5.15.93,3.17,11.97,5.44,13.56l16.93,3.35ZM209.29,119.87c0-49.42-40.06-89.48-89.48-89.48S30.34,70.46,30.34,119.87s40.06,89.48,89.48,89.48,89.48-40.06,89.48-89.48Z"/>
      <path class="cls-1" d="M209.29,119.87c0,49.42-40.06,89.48-89.48,89.48S30.34,169.29,30.34,119.87,70.4,30.4,119.82,30.4s89.48,40.06,89.48,89.48ZM141,35.01l-21.07-1.57c-1.9,6.56-2.74,14.8,5.04,17.17,6.71,2.05,6.4-7.42,8.18-8.45,1.12-.65,3.31.36,4.64-.37.53-.29,4.05-5.9,3.21-6.78ZM117,34c-6.81-.37-13.6,1.41-20.01,3.51l9.03,15.02,10.99-1.53v-17ZM159,46.99c.44-1.86-.63-1.94-1.66-2.83-1.93-1.67-11.56-7.72-13.68-7.08-3.08,2.82-8.63,12.42-7.72,16.26l7.42,3.51c1.87-3.31,6.53-3.38,8.24-4.76,2.02-1.64.86-6.33,7.4-5.09ZM102.82,54.82c1.54-2.68-7.18-15.45-8.46-15.69-6.54,2.48-11.68,7.39-16.36,12.38-.37,2.16.44,1.16,1.38,1.57,4.87,2.15,9.33,4.81,14.3,6.7l9.13-4.96ZM73,52.01c-3.93-3.42-14.91,11.27-17.98,13.49-.11,3.66,10.98-2.31,11.93-3.05.66-.52,6.5-10.05,6.05-10.44ZM186,63.99c-1.04-2.49-10.63-12.66-12.99-10.99-2.96,6.57,7.23,12.04,12.99,10.99ZM92,61.02l-16.41-7.07-5.59,10.04c6.59,1.33,14.37,1.98,20.6-.9.87-.4,3.04-.36,1.4-2.08ZM116,54c-11.31-1.54-1.13,16.43,1,14l-1-14ZM109.98,62c-1.64-1.55-4.35,4.26-3.93,5.36,8.15,7.39,7.82,1.59,3.93-5.36ZM116.73,71.23c-11.41,2.35-9.37,16.85,3.77,16.85,16.94,0,14.56-20.63-3.77-16.85ZM107,79.01c-5.86.94-11.99-.2-15,5.98,3.78.11,9.03-1.42,12.46-3.03,1.48-.69,2.97-.66,2.54-2.95ZM200.99,91c1.08-1.04-2.92-12.14-4.99-9.99l1,9.99h3.99ZM139.99,93c1.07-6.51-1.76-8.47-7.99-7.99l.99,4.99-5.99-.99,5.63,9.93c4.82-.21,5.43-3.81,2.37-6.93l4.99.99ZM83.99,86.01h-7s0,3.99,0,3.99c3.11.39,6.93-.12,6.99-3.99ZM94,98.99l6.06-.43,1.92-7.56-5.04,3.43-2.95,4.56ZM120.99,91c-2.76-2.79-2,7.24-1.98,8h3.99s-2.01-8-2.01-8ZM125.87,91.13l-2.87-.13,2.1,7.88,3.89.11-3.13-7.86ZM54,99c1.47-1.35-5.36-7.22-7.54-4l1.55,11c2.84-.36.72-5.08,1.4-6.03l4.59-.97ZM74,135c-.45,1.46-.11,4.23-1.01,6-1.93,1.39-5.86-6.58-8.98-5-3.16,12.07-6.47,20.36,8.98,23.01l-.1-8.9-4.89-.11c-.48-3.89,1.62-.99,2.5-.99h18.5l12-48h-18l-4.96,19.54-14.04.46,5-20h-18l-12,48h18c-.3-7.4,2.44-14.68,4.96-21.54l14.04-.46c1.03,3.3-1.36,5.92-2,8,.2-1.22-.13-2.71,0-4h-8c-1.36,1.22,5.01,6.85,6.88,5.86-.27-1.13,1.1-1.76,1.12-1.87ZM151,101h-44l-2,7h14l-7.01,27-8.72-2.83c-1.34-.3-1.61.56-2.06,1.53-1.82,3.9-1.84,11.83-3.2,16.29,4.98.87,6.86-3.79,9.51-6.99,2.89-1.44.56,5.3.49,5.99h18l10.5-41h14.5v-7ZM200,101h-35.5c-1.75,0-6.45,3.88-7.51,5.49-2.36,3.61-9.93,26.51-2.49,26.51h21c2.74,2.07.26,7.21-2,9h-26.5v7h34.5c.34,0,4.8-2.06,5.46-2.54,4.46-3.21,8.18-16.8,8.82-22.24.54-4.57-2.75-8.22-7.28-8.22h-18.5l1.94-7.56,26.39-.4,1.66-7.04ZM44.98,110.01c-2.88-2.44-2.9,9.33-3.98,9.98,5.51.77,7.45-7.04,3.98-9.98ZM106,110.01c-3.14-3.41-7.97,17.02-6.99,18.99,2.77.48,1.69-.57,2.25-2.19,1.91-5.44,2.9-11.33,4.74-16.8ZM200.99,127.99c1.25-5.03,6.39-11.78,4.53-17.01-1.08-3.04-1.55,1.65-2.97,1.14l-9.39-.98-1.03,3.24c2.08,1.95,6.28,5.03,7.34,7.66.88,2.18-.32,5.44,1.53,5.95ZM111.21,114.79c-.63-.38-.74-2.3-1.72-2.79-3.17-.87-7.37,16.77-6.4,17.91,2.99.64,5.93,1.89,8.66-.17l3.25-14.74c-1.18-.09-2.79.39-3.8-.21ZM140.63,121.14c-9.85,11.46,13.02,10.11,8.41.31l-8.41-.31ZM204.99,138c1.46-4.21,1-8.61,1-13-4.08,3.74-7.23,9.83-1,13ZM100,131.01h-2.99c-.05,4.89-2.66,9.44-3.34,14.2s1.92,5.5,3.4.37c.49-1.68,3.47-14.06,2.93-14.56ZM147,133.01l-9.05-1.59c-.12,4-4.41,4.28-4.98,5.27-.9,1.57-.91,5.36-.96,7.3,2.97.71,1.87-2.4,4-3.48,3.85-1.95,10.04-.02,11-7.5ZM200.84,136.21c-.83-.48-1.88-.2-2.77-.16-1.49,4.23-2.55,10.4-6.02,13.5s-7.36,1.84-9.92,5.06l4.88,14.39c.55.42,9.26-8.51,9.99-9.5,2.03-2.77,7.35-15.04,7.02-17.97-.07-.6-2.92-5.16-3.19-5.32ZM93,153h-17l-1.58,8.01,18.03,7.02,2.54-17.03c-2.79-1.01-1.81,1.88-1.99,1.99ZM100,151.99h-2.99s-2,18-2,18l21,2v-2.99c-13.27,2.1-17.01-4.82-16.01-17.01ZM178,153.01l-10-.02.02,7c3.47-1.83,7.85-3.54,9.99-6.99ZM180.91,157.08c-2.1-1.48-18.83,9.86-19.76,13.62-.45,1.8,1.5,5.05.85,7.31,2.97.75,1.94-2.55,3.97-3.51,1.69-.8,4.08-.72,5.89-.35l1.15,3.85c1.36.97,10.04-4.91,11.06-6.43,2.56-3.8-2.24-10.45-3.16-14.49ZM91.89,171.1l-18.88-7.1c-2.04,5.76,1.94,10.26-2.01,15.98l19.99,8.01.9-16.9ZM115,175l-20.99-3-1.07,16.38c.34,1.26,19.24,4.47,22.06,3.61v-17ZM186.99,174.01l-21.88,12.12.89,6.88c1.77,1.63,17.26-13.4,18.99-15.5.93-1.13,2.43-1.62,1.99-3.5ZM117,176.5v15c1.3,2.81,13.15,1.26,13.89.4l1.19-13.26c-4.23-3-10.46-5.89-15.09-2.14ZM67,180c-1.85-.08-8.69-.75-8,2.48,1.87,2.03,3.99,4.42,6.98,4.52l1.02-7ZM89.99,201l-.45-10.04-20.53-8.96c-.7,2.92-2.07,5.82-.08,8.57,1.47,2.03,19.79,11.76,21.06,10.42ZM162.99,188c-9.07-.17-11.2,8.75-16.99,13.99,3.66.52,17.82-5.56,18.03-8.48.13-1.71-1.2-3.67-1.05-5.5ZM115.01,194.99l-23.01-3,.04,10.96,22.95,4.04v-12.01ZM133,195h-16v12.01c3.71.32,22.66-.58,24-3.51-1.84-1.43-4.88-1.65-6.46-3.53-1.48-1.75-1.34-4.8-1.53-4.97Z"/>
      <path class="cls-2" d="M74,135c.64-2.08,3.04-4.7,2-8l-14.04.46c-2.52,6.86-5.26,14.14-4.96,21.54h-18l12-48h18l-5,20,14.04-.46,4.96-19.54h18l-12,48h-18.5c-.87,0-2.98-2.89-2.5.99l4.89.11.1,8.9c-15.46-2.64-12.14-10.93-8.98-23.01,3.12-1.58,7.05,6.39,8.98,5,.9-1.77.56-4.54,1.01-6-.02.11-1.38.73-1.12,1.87-1.87.99-8.24-4.65-6.88-5.86h8c-.14,1.28.19,2.77,0,3.99Z"/>
      <path class="cls-2" d="M200,101l-1.66,7.04-26.39.4-1.94,7.56h18.5c4.54,0,7.82,3.65,7.28,8.22-.64,5.44-4.36,19.03-8.82,22.24-.66.48-5.12,2.54-5.46,2.54h-34.5v-7h26.5c2.26-1.79,4.74-6.93,2-9h-21c-7.44,0,.13-22.9,2.49-26.51,1.06-1.61,5.76-5.49,7.51-5.49h35.5Z"/>
      <path class="cls-2" d="M151,101v7h-14.5l-10.5,41h-18c.07-.69,2.4-7.44-.49-5.99-2.65,3.2-4.52,7.86-9.51,6.99,1.36-4.46,1.39-12.39,3.2-16.29.45-.97.73-1.83,2.06-1.53l8.72,2.83,7.01-27h-14l2-7h44Z"/>
      <path class="cls-2" d="M115,175v17c-2.82.85-21.72-2.36-22.06-3.61l1.07-16.38,20.99,3Z"/>
      <path class="cls-2" d="M91.89,171.1l-.9,16.9-19.99-8.01c3.95-5.72-.03-10.22,2.01-15.98l18.88,7.1Z"/>
      <path class="cls-2" d="M116.73,71.23c18.33-3.78,20.71,16.85,3.77,16.85-13.14,0-15.18-14.5-3.77-16.85Z"/>
      <path class="cls-2" d="M180.91,157.08c.92,4.03,5.72,10.68,3.16,14.49-1.03,1.53-9.71,7.41-11.06,6.43l-1.15-3.85c-1.81-.37-4.2-.45-5.89.35-2.03.96-1,4.26-3.97,3.51.65-2.26-1.3-5.51-.85-7.31.93-3.76,17.66-15.1,19.76-13.62Z"/>
      <path class="cls-2" d="M200.84,136.21c.27.16,3.12,4.72,3.19,5.32.33,2.94-4.99,15.2-7.02,17.97-.73.99-9.44,9.92-9.99,9.5l-4.88-14.39c2.56-3.22,6.54-2.04,9.92-5.06s4.53-9.26,6.02-13.5c.89-.04,1.94-.33,2.77.16Z"/>
      <path class="cls-2" d="M102.82,54.82l-9.13,4.96c-4.97-1.88-9.43-4.55-14.3-6.7-.94-.42-1.75.59-1.38-1.57,4.67-4.99,9.81-9.9,16.36-12.38,1.28.24,10,13.01,8.46,15.69Z"/>
      <path class="cls-2" d="M117,34v17l-10.99,1.53-9.03-15.02c6.41-2.1,13.2-3.88,20.01-3.51Z"/>
      <path class="cls-2" d="M141,35.01c.84.88-2.68,6.49-3.21,6.78-1.34.73-3.52-.29-4.64.37-1.78,1.03-1.46,10.5-8.18,8.45-7.78-2.37-6.94-10.61-5.04-17.17l21.07,1.57Z"/>
      <polygon class="cls-2" points="115.01 194.99 115 207 92.04 202.96 92 192 115.01 194.99"/>
      <path class="cls-2" d="M159,46.99c-6.53-1.24-5.37,3.46-7.4,5.09-1.71,1.38-6.36,1.46-8.24,4.76l-7.42-3.51c-.91-3.84,4.64-13.44,7.72-16.26,2.11-.64,11.74,5.42,13.68,7.08,1.03.89,2.1.97,1.66,2.83Z"/>
      <path class="cls-2" d="M117,176.5c4.63-3.75,10.86-.86,15.09,2.14l-1.19,13.26c-.74.86-12.6,2.41-13.89-.4v-15Z"/>
      <path class="cls-2" d="M93,153c.19-.11-.8-3,1.99-1.99l-2.54,17.03-18.03-7.02,1.58-8.01h17Z"/>
      <path class="cls-2" d="M133,195c.2.17.05,3.22,1.53,4.97,1.59,1.87,4.63,2.09,6.46,3.53-1.34,2.93-20.28,3.83-24,3.51v-12.01h16.01Z"/>
      <path class="cls-2" d="M89.99,201c-1.27,1.34-19.58-8.39-21.06-10.42-1.99-2.74-.62-5.65.08-8.57l20.53,8.96.45,10.04Z"/>
      <path class="cls-2" d="M111.21,114.79c1,.6,2.62.12,3.8.21l-3.25,14.74c-2.74,2.05-5.67.81-8.66.17-.98-1.15,3.22-18.78,6.4-17.91.98.49,1.09,2.42,1.72,2.79Z"/>
      <path class="cls-2" d="M92,61.02c1.64,1.71-.53,1.67-1.4,2.08-6.22,2.88-14,2.23-20.6.9l5.59-10.04,16.41,7.07Z"/>
      <path class="cls-2" d="M100,151.99c-1,12.19,2.74,19.11,16.01,17.01v2.99s-21-2-21-2l2-18h2.99Z"/>
      <path class="cls-2" d="M200.99,127.99c-1.85-.51-.65-3.78-1.53-5.95-1.06-2.63-5.26-5.71-7.34-7.66l1.03-3.24,9.39.98c1.43.52,1.89-4.18,2.97-1.14,1.86,5.23-3.28,11.98-4.53,17.01Z"/>
      <path class="cls-2" d="M186.99,174.01c.43,1.88-1.06,2.37-1.99,3.5-1.73,2.09-17.22,17.13-18.99,15.5l-.89-6.88,21.88-12.12Z"/>
      <path class="cls-2" d="M162.99,188c-.15,1.83,1.17,3.8,1.05,5.5-.22,2.93-14.38,9-18.03,8.48,5.78-5.24,7.91-14.16,16.99-13.99Z"/>
      <path class="cls-2" d="M139.99,93l-4.99-.99c3.06,3.11,2.45,6.71-2.37,6.93l-5.63-9.93,5.99.99-.99-4.99c6.23-.48,9.06,1.48,7.99,7.99Z"/>
      <path class="cls-2" d="M73,52.01c.46.4-5.38,9.93-6.05,10.44-.95.74-12.03,6.71-11.93,3.05,3.07-2.23,14.05-16.91,17.98-13.49Z"/>
      <path class="cls-2" d="M147,133.01c-.96,7.48-7.15,5.55-11,7.5-2.13,1.08-1.03,4.19-4,3.48.05-1.93.07-5.73.96-7.3.57-.99,4.86-1.27,4.98-5.27l9.05,1.59Z"/>
      <path class="cls-2" d="M140.63,121.14l8.41.31c4.61,9.8-18.26,11.15-8.41-.31Z"/>
      <path class="cls-2" d="M186,63.99c-5.77,1.06-15.95-4.42-12.99-10.99,2.36-1.68,11.96,8.5,12.99,10.99Z"/>
      <path class="cls-2" d="M116,54l1,14c-2.13,2.43-12.31-15.54-1-14Z"/>
      <path class="cls-2" d="M100,131.01c.55.5-2.44,12.88-2.93,14.56-1.49,5.14-4.11,4.61-3.4-.37s3.29-9.31,3.34-14.21h2.99Z"/>
      <path class="cls-2" d="M106,110.01c-1.84,5.47-2.82,11.37-4.74,16.8-.57,1.61.52,2.67-2.25,2.19-.98-1.97,3.85-22.4,6.99-18.99Z"/>
      <path class="cls-2" d="M107,79.01c.43,2.3-1.06,2.26-2.54,2.95-3.43,1.61-8.68,3.15-12.46,3.03,3.01-6.19,9.13-5.04,15-5.98Z"/>
      <path class="cls-2" d="M54,99l-4.59.97c-.68.95,1.44,5.66-1.4,6.03l-1.55-11c2.18-3.21,9,2.65,7.54,4Z"/>
      <path class="cls-2" d="M178,153.01c-2.14,3.45-6.52,5.16-9.99,6.99l-.02-7,10,.02Z"/>
      <path class="cls-2" d="M67,180l-1.02,7c-2.99-.1-5.11-2.49-6.98-4.52-.69-3.23,6.15-2.56,8-2.48Z"/>
      <path class="cls-2" d="M204.99,138c-6.23-3.17-3.08-9.26,1-13,0,4.39.46,8.79-1,13Z"/>
      <path class="cls-2" d="M109.98,62c3.88,6.95,4.21,12.75-3.93,5.36-.42-1.1,2.3-6.91,3.93-5.36Z"/>
      <path class="cls-2" d="M44.98,110.01c3.46,2.94,1.53,10.75-3.98,9.98,1.08-.65,1.1-12.43,3.98-9.98Z"/>
      <polygon class="cls-2" points="94 98.99 96.95 94.43 101.99 91.01 100.07 98.57 94 98.99"/>
      <path class="cls-2" d="M200.99,91h-3.99s-1-9.99-1-9.99c2.07-2.15,6.07,8.95,4.99,9.99Z"/>
      <polygon class="cls-2" points="125.87 91.13 129 98.99 125.11 98.89 123 91.01 125.87 91.13"/>
      <path class="cls-2" d="M120.99,91l2.01,7.99h-3.99c-.02-.75-.78-10.79,1.98-7.99Z"/>
      <path class="cls-2" d="M83.99,86.01c-.06,3.87-3.88,4.38-6.99,3.99v-3.99s6.99,0,6.99,0Z"/>
    </g>
  </g>
</svg>