<?xml version="1.0" encoding="UTF-8"?>
<svg id="Layer_2" data-name="Layer 2" xmlns="http://www.w3.org/2000/svg" xmlns:xlink="http://www.w3.org/1999/xlink" viewBox="0 0 281.95 77.17">
  <defs>
    <style>
      .cls-1 {
        fill: none;
      }

      .cls-2 {
        fill-rule: evenodd;
      }

      .cls-2, .cls-3 {
        fill: #ed1c29;
      }

      .cls-4 {
        clip-path: url(#clippath);
      }
    </style>
    <clipPath id="clippath">
      <rect class="cls-1" width="281.95" height="77.17"/>
    </clipPath>
  </defs>
  <g id="Ebene_1" data-name="Ebene 1">
    <path class="cls-2" d="M0,76.86h26V19.97H0v56.89h0ZM0,14.35h26V0H0v14.35h0Z"/>
    <path class="cls-3" d="M169.77,76.86h25.06v-30.16c0-6.97,2.37-11.73,9.87-11.61,6.62.11,9.37,3.91,9.37,9.63v32.14h25v-30.64c0-6.97,3.12-10.75,10.75-10.75,4.57,0,7.87,3.54,7.87,9.26v32.14h24.25v-39.21c0-13.83-12.27-18.31-24.75-18.31-10.51,0-15.12,3.5-20.87,8.53-4.5-5.16-9.14-8.91-20.37-8.91s-16.75,2.95-20.81,8.25l-.21.56v-7.8h-25.17v56.89h0Z"/>
    <g class="cls-4">
      <path class="cls-3" d="M31.33,37.34h8.9v22.63c0,14.87,5.35,16.62,16.47,16.62h17.09v-16.33c-2.5.1-3.22.21-4.47.08-1.99-.2-3.95-.19-3.95-5.49v-17.51h9.45v-15.09h-9.45V3.38h-25.15v18.87h-8.9v15.09h0Z"/>
      <path class="cls-2" d="M134.45,57.34s-2.99,5.14-13.5,5.37c-11.44.26-14.83-7.69-14.83-11.75h55.83c.25-24.75-16.96-33.63-42.13-33.63s-40.38,11.75-40.52,29.9c-.15,18.85,17.71,31.05,42.77,29.85,11.95-.57,16.37-1.67,23.02-5,6.66-3.33,13.46-8.82,15.43-14.75h-26.08ZM107.08,40.89c1.35-7.18,7.62-8.68,14.5-8.68,5.89,0,13.11,2.54,13.63,8.68h-28.13Z"/>
    </g>
  </g>
</svg>