<?xml version="1.0" encoding="UTF-8"?>
<svg xmlns="http://www.w3.org/2000/svg" viewBox="0 0 1001.91 357.08">
  <defs>
    <style>
      .cls-1 {
        fill: #fff;
      }

      .cls-2 {
        fill: #e30613;
      }

      .cls-3 {
        fill: #004f9f;
      }
    </style>
  </defs>
  <g id="Ebene_3" data-name="Ebene 3">
    <rect class="cls-2" width="1001.91" height="357.08"/>
  </g>
  <g id="Weiß">
    <g>
      <path class="cls-3" d="M662.52,97.27h100.51c28.79,0,32.54,16.29,32.29,29.6-.36,19.52-19.91,26.56-19.91,26.56l26.89,32.29h-46.33l-19.86-29.5h-25.28v29.5h-48.32v-88.46ZM710.84,138.78h27.02c9,0,12.3-2.65,12.3-9v-1.52c0-7.82-4.8-9-15.3-9h-24.02v19.52Z"/>
      <path class="cls-1" d="M808.18,188.47h-53.67l-19.86-29.5h-21.07v29.5h-53.82v-93.96h103.26c12.43,0,21.69,3.01,27.5,8.93,5.27,5.37,7.73,13.04,7.54,23.47-.3,16.07-12.17,24.33-18.25,27.51l28.35,34.04ZM757.44,182.97h39l-25.65-30.8,3.69-1.33c.72-.26,17.77-6.69,18.09-24.02.17-9-1.73-15.2-5.96-19.52-4.75-4.83-12.68-7.29-23.58-7.29h-97.76v82.96h42.82v-29.5h29.5l19.86,29.5ZM737.86,141.53h-29.77v-25.02h26.77c8.04,0,18.05,0,18.05,11.75v1.52c0,10.41-8.04,11.75-15.05,11.75ZM713.59,136.03h24.27c8.87,0,9.55-2.59,9.55-6.25v-1.52c0-4.63-1.03-6.25-12.55-6.25h-21.27v14.02Z"/>
    </g>
    <g>
      <path class="cls-3" d="M524.7,97.27h118.81v20.53h-66.71v14.17h62.21v18.33h-62.21v14.17h68.67v21.26h-120.77v-88.46Z"/>
      <path class="cls-1" d="M648.22,188.47h-126.27v-93.96h124.31v26.03h-66.71v8.67h62.21v23.83h-62.21v8.67h68.67v26.76ZM527.45,182.97h115.27v-15.76h-68.67v-19.67h62.21v-12.83h-62.21v-19.67h66.71v-15.03h-113.31v82.96Z"/>
    </g>
    <g>
      <path class="cls-3" d="M421.65,97.27,433.65,151.27,424.33,130.61c-3.51,0-6.36-2.85-6.36-6.36s2.85-6.36,6.36-6.36h83.27v-20.66h-105.58c-14.55,0-26.34,13.57-26.34,27.02,0,.2,0,.39,0,.59.3,14.65,13.82,26.43,28.18,26.43,0,0,23.32,0,38.09,0,14.77,0,18.69,0,18.69,0,3.6,0,7.37,2.92,7.37,6.53s-3.77,6.52-7.37,6.52l-34.81.04h-48.14v21.42h104.67c14.68,0,26.58-12.31,26.58-27.5s-11.9-27.64-26.58-27.64l-33.3-.02h-24.74ZM423.17,117.87"/>
      <path class="cls-1" d="M482.37,188.52h-107.42v-26.92l85.7-.04c2.29,0,4.62-1.9,4.62-3.77s-2.33-3.78-4.62-3.78c0,0-3.92,0-18.69,0h-38.09c-16.44,0-30.6-13.35-30.93-29.13,0-.21,0-.43,0-.65,0-15.58,13.87-29.77,29.09-29.77h108.33v26.16h-86.02c-1.99,0-3.61,1.62-3.61,3.61s1.62,3.61,3.61,3.61l58.04.03c16.17,0,29.33,13.63,29.33,30.39s-13.16,30.25-29.33,30.25ZM380.45,183.02h101.92c13.14,0,23.83-11.1,23.83-24.75s-10.69-24.89-23.83-24.89l-58.03-.03c-5.02,0-9.11-4.09-9.11-9.11s4.09-9.11,9.11-9.11h80.52v-15.16h-102.83c-13.5,0-23.59,12.81-23.59,24.27,0,.17,0,.35,0,.52.26,12.66,12.15,23.75,25.43,23.75h38.09c14.76.01,18.69,0,18.69,0,4.79,0,10.12,3.81,10.12,9.28s-5.33,9.27-10.12,9.27l-34.8.04h-45.4v15.92Z"/>
    </g>
    <g>
      <path class="cls-3" d="M239.6,97.27h118.82v20.53h-66.72v14.17h62.21v18.33h-62.21v14.17h68.67v21.26h-120.77v-88.46Z"/>
      <path class="cls-1" d="M363.11,188.47h-126.27v-93.96h124.32v26.03h-66.72v8.67h62.21v23.83h-62.21v8.67h68.67v26.76ZM242.35,182.97h115.27v-15.76h-68.67v-19.67h62.21v-12.83h-62.21v-19.67h66.72v-15.03h-113.32v82.96Z"/>
    </g>
    <g>
      <path class="cls-3" d="M116.63,97.27h51.57v65.73h56.6v22.72h-108.16v-88.46Z"/>
      <path class="cls-1" d="M227.54,188.47h-113.66v-93.96h57.07v65.73h56.6v28.22ZM119.38,182.97h102.66v-17.22h-56.6v-65.73h-46.07v82.96Z"/>
    </g>
  </g>
  <g id="Ebene_2" data-name="Ebene 2">
    <g>
      <path class="cls-1" d="M387.21,220.92h-12.46v-4.19h29.91v4.19h-12.47v33.21h-4.98v-33.21Z"/>
      <path class="cls-1" d="M408.05,216.73h4.45v14.3h.1c1.41-3.3,5.34-4.61,8.54-4.61,7.12,0,9.32,4.09,9.32,9.9v17.81h-4.45v-18.33c0-3.35-2.1-5.45-5.5-5.45-5.4,0-8.01,3.61-8.01,8.48v15.29h-4.45v-37.4Z"/>
      <path class="cls-1" d="M460.27,245.54c-1.2,6.02-5.45,9.22-11.58,9.22-8.64,0-12.73-6.02-12.99-14.25,0-8.17,5.34-14.09,12.73-14.09,9.58,0,12.52,8.96,12.26,15.5h-20.27c-.16,4.71,2.51,8.9,8.43,8.9,3.72,0,6.23-1.73,7.02-5.29h4.4ZM455.97,237.99c-.26-4.24-3.35-7.65-7.8-7.65s-7.49,3.46-7.75,7.65h15.56Z"/>
      <path class="cls-1" d="M464.56,237.47h15.14v4.19h-15.14v-4.19Z"/>
      <path class="cls-1" d="M508.02,227.68c-.58-5.39-4.08-7.65-9.27-7.65-4.24,0-8.38,1.52-8.38,6.39,0,9.22,23.94,2.72,23.94,17.44,0,7.96-7.8,11.16-14.61,11.16-8.38,0-15.45-4.14-15.45-13.2h4.71c0,6.29,5.24,9.01,10.89,9.01,4.51,0,9.48-1.41,9.48-6.81,0-10.27-23.94-3.51-23.94-17.23,0-7.54,6.7-10.95,13.57-10.95,7.65,0,13.51,3.61,13.77,11.84h-4.71Z"/>
      <path class="cls-1" d="M543.58,254.02c-.79.47-1.88.73-3.19.73-2.3,0-3.77-1.26-3.77-4.19-2.46,2.93-5.76,4.19-9.53,4.19-4.92,0-8.96-2.15-8.96-7.59,0-6.13,4.56-7.49,9.17-8.33,4.87-.99,9.11-.58,9.11-3.98,0-3.93-3.25-4.5-6.02-4.5-3.77,0-6.55,1.15-6.76,5.13h-4.45c.26-6.7,5.39-9.06,11.47-9.06,4.87,0,10.16,1.1,10.16,7.44v13.93c0,2.1,0,3.04,1.41,3.04.42,0,.89-.11,1.36-.26v3.46ZM536.35,240.14c-3.46,2.57-13.51.05-13.51,6.7,0,2.93,2.51,3.98,5.24,3.98,5.87,0,8.28-3.61,8.28-6.13v-4.56Z"/>
      <path class="cls-1" d="M549.55,230.98h-4.56v-3.93h4.56v-4.03c0-4.4,2.62-6.7,7.49-6.7.84,0,2.04.16,2.88.42v3.88c-.79-.26-1.73-.37-2.51-.37-2.15,0-3.4.68-3.4,3.04v3.77h5.24v3.93h-5.24v23.15h-4.45v-23.15Z"/>
      <path class="cls-1" d="M586.31,245.54c-1.21,6.02-5.45,9.22-11.58,9.22-8.64,0-12.73-6.02-12.99-14.25,0-8.17,5.34-14.09,12.73-14.09,9.59,0,12.52,8.96,12.26,15.5h-20.27c-.16,4.71,2.51,8.9,8.43,8.9,3.72,0,6.23-1.73,7.02-5.29h4.4ZM582.02,237.99c-.26-4.24-3.35-7.65-7.8-7.65s-7.49,3.46-7.75,7.65h15.55Z"/>
      <path class="cls-1" d="M597.51,227.05h5.39v3.93h-5.39v16.81c0,2.1.58,2.41,3.35,2.41h2.04v3.93h-3.4c-4.61,0-6.44-.94-6.44-5.92v-17.23h-4.61v-3.93h4.61v-8.12h4.45v8.12Z"/>
      <path class="cls-1" d="M618.46,257.74c-2.1,5.24-3.87,7.23-7.86,7.23-1.05,0-2.1-.1-3.09-.47v-4.09c.84.26,1.73.63,2.62.63,1.83,0,2.83-.84,3.67-2.46l1.83-4.61-10.74-26.92h5.03l7.91,22.16h.11l7.59-22.16h4.71l-11.78,30.69Z"/>
      <path class="cls-1" d="M633.28,237.47h15.14v4.19h-15.14v-4.19Z"/>
      <path class="cls-1" d="M669.83,254.13h-5.66l-13.2-37.4h5.39l10.69,32.42h.1l10.79-32.42h5.18l-13.3,37.4Z"/>
      <path class="cls-1" d="M707.48,254.02c-.79.47-1.89.73-3.2.73-2.3,0-3.77-1.26-3.77-4.19-2.46,2.93-5.76,4.19-9.53,4.19-4.92,0-8.96-2.15-8.96-7.59,0-6.13,4.56-7.49,9.17-8.33,4.87-.99,9.11-.58,9.11-3.98,0-3.93-3.25-4.5-6.02-4.5-3.77,0-6.55,1.15-6.76,5.13h-4.45c.26-6.7,5.39-9.06,11.47-9.06,4.87,0,10.16,1.1,10.16,7.44v13.93c0,2.1,0,3.04,1.41,3.04.42,0,.89-.11,1.36-.26v3.46ZM700.26,240.14c-3.46,2.57-13.51.05-13.51,6.7,0,2.93,2.51,3.98,5.24,3.98,5.87,0,8.27-3.61,8.27-6.13v-4.56Z"/>
      <path class="cls-1" d="M711.88,216.73h4.45v37.4h-4.45v-37.4Z"/>
      <path class="cls-1" d="M735.44,254.13h-4.77l-10.06-27.08h4.98l7.59,22.57h.11l7.39-22.57h4.66l-9.9,27.08Z"/>
      <path class="cls-1" d="M772.52,245.54c-1.2,6.02-5.45,9.22-11.58,9.22-8.64,0-12.73-6.02-12.99-14.25,0-8.17,5.34-14.09,12.73-14.09,9.58,0,12.52,8.96,12.26,15.5h-20.27c-.16,4.71,2.51,8.9,8.43,8.9,3.72,0,6.23-1.73,7.02-5.29h4.4ZM768.22,237.99c-.26-4.24-3.35-7.65-7.8-7.65s-7.49,3.46-7.75,7.65h15.56Z"/>
      <path class="cls-1" d="M778.54,248.31h5.81v5.81h-5.81v-5.81Z"/>
      <path class="cls-1" d="M810.48,235.74c-.68-3.4-2.98-5.4-6.7-5.4-6.44,0-8.43,5.13-8.43,10.58,0,5.03,2.25,9.9,7.91,9.9,4.35,0,6.86-2.46,7.44-6.6h4.56c-.99,6.65-5.08,10.53-11.94,10.53-8.28,0-12.68-5.71-12.68-13.83s4.19-14.51,12.78-14.51c6.18,0,11,2.88,11.68,9.32h-4.61Z"/>
      <path class="cls-1" d="M831.9,226.42c8.59,0,13.15,6.23,13.15,14.19s-4.56,14.14-13.15,14.14-13.15-6.23-13.15-14.14,4.56-14.19,13.15-14.19ZM831.9,250.83c4.66,0,8.43-3.67,8.43-10.21s-3.77-10.27-8.43-10.27-8.43,3.72-8.43,10.27,3.77,10.21,8.43,10.21Z"/>
      <path class="cls-1" d="M850.28,227.05h4.19v3.98h.11c2.04-3.09,4.92-4.61,8.75-4.61,3.35,0,6.34,1.26,7.44,4.61,1.83-2.93,4.98-4.61,8.49-4.61,5.39,0,9.01,2.25,9.01,7.86v19.85h-4.45v-17.76c0-3.35-.89-6.02-5.24-6.02s-7.07,2.72-7.07,6.91v16.87h-4.45v-17.76c0-3.51-1.1-6.02-5.08-6.02-5.24,0-7.23,4.82-7.23,6.91v16.87h-4.45v-27.08Z"/>
    </g>
  </g>
</svg>