<?xml version="1.0" encoding="UTF-8" standalone="no"?>
<svg
   version="1.1"
   width="507"
   height="112.60825"
   id="svg43"
   sodipodi:docname="mobil1Quer.svg"
   inkscape:version="1.4.2 (f4327f4, 2025-05-13)"
   xmlns:inkscape="http://www.inkscape.org/namespaces/inkscape"
   xmlns:sodipodi="http://sodipodi.sourceforge.net/DTD/sodipodi-0.dtd"
   xmlns="http://www.w3.org/2000/svg"
   xmlns:svg="http://www.w3.org/2000/svg">
  <defs
     id="defs43" />
  <sodipodi:namedview
     id="namedview43"
     pagecolor="#ffffff"
     bordercolor="#000000"
     borderopacity="0.25"
     inkscape:showpageshadow="2"
     inkscape:pageopacity="0.0"
     inkscape:pagecheckerboard="0"
     inkscape:deskcolor="#d1d1d1"
     inkscape:zoom="2"
     inkscape:cx="217.75"
     inkscape:cy="109.25"
     inkscape:window-width="1920"
     inkscape:window-height="1177"
     inkscape:window-x="-8"
     inkscape:window-y="34"
     inkscape:window-maximized="1"
     inkscape:current-layer="svg43" />
  <path
     id="path2"
     d="M 399 0 L 399 109 L 507 109 L 507 0 L 399 0 z M 448 9 L 466 9 L 466 100 L 446 100 L 446 29 L 432 29 L 432 16 L 437.1875 15.3125 C 442.98202 14.544552 443.33966 13.660337 448 9 z " />
  <path
     d="M 0,1 H 35 C 46.761075,38.422913 41.552611,21.609557 55,65 66.15336,29.467917 66.044557,29.658831 75,1 h 33 V 109 H 86 L 85,38 c -6.537578,22.243601 -6.537578,22.243601 -13.073975,44.487549 -1.265014,4.302856 -1.265014,4.302856 -1.857437,6.317428 -0.413489,1.406477 -0.826763,2.813016 -1.239868,4.219605 -0.625914,2.131033 -1.25251,4.261866 -1.879257,6.392654 l -1.069931,3.640454 C 65.284531,105.04815 64.65696,107.02912 64,109 H 43 l -1.421143,-5.24146 C 40.01831,98.003012 38.457687,92.247499 36.897014,86.492 35.952052,83.007129 35.007119,79.522251 34.062256,76.037354 33.148089,72.665679 32.233843,69.294026 31.319544,65.922388 30.806089,64.028855 30.292715,62.1353 29.779343,60.241745 l -0.970017,-3.57695 -0.841141,-3.102127 C 26.648764,48.707545 25.323799,43.853931 24,39 l -1,70 H 0 Z"
     fill="#0e227a"
     id="path3"
     sodipodi:nodetypes="ccccccccccsccccssssccccccc" />
  <path
     id="path4"
     d="M 211 1 L 211 109 L 233 109 L 233 105 C 235.23784 106.49189 235.23784 106.49189 239.99609 109.08984 C 249.2714 113.48506 260.30157 113.58533 270 110.375 C 280.51189 105.83399 287.27499 98.450028 292.39062 88.21875 C 296.50974 77.659898 296.68957 64.261837 292.75 53.625 C 288.13099 43.467554 280.00336 35.351446 269.75 30.9375 C 261.04228 27.949052 251.58953 27.399285 243 31 L 233 37 L 233 1 L 211 1 z M 253.61133 51.677734 A 18.716232 18.804621 0 0 1 272.32812 70.482422 A 18.716232 18.804621 0 0 1 253.61133 89.287109 A 18.716232 18.804621 0 0 1 234.89648 70.482422 A 18.716232 18.804621 0 0 1 253.61133 51.677734 z "
     style="fill:#0e237c;fill-opacity:1" />
  <path
     d="m 338,1 c 7.26,0 14.52,0 22,0 0,35.64 0,71.28 0,108 -7.26,0 -14.52,0 -22,0 0,-35.64 0,-71.28 0,-108 z"
     fill="#0d217a"
     id="path6" />
  <path
     d="m 304,29 c 7.26,0 14.52,0 22,0 0,26.4 0,52.8 0,80 -7.26,0 -14.52,0 -22,0 0,-26.4 0,-52.8 0,-80 z"
     fill="#0e237c"
     id="path8" />
  <path
     d="m 303,0 c 7.59,0 15.18,0 23,0 0,7.59 0,15.18 0,23 -7.59,0 -15.18,0 -23,0 0,-7.59 0,-15.18 0,-23 z"
     fill="#0d227d"
     id="path11" />
  <path
     id="path43"
     style="display:inline;fill:#c1200e;fill-opacity:1;stroke-width:0.99368"
     d="m 162.26953,28.306641 a 42,42 0 0 0 -42,42 42,42 0 0 0 42,41.999999 42,42 0 0 0 42,-41.999999 42,42 0 0 0 -42,-42 z M 162.0625,51.25 A 19.4375,19.25 0 0 1 181.5,70.5 19.4375,19.25 0 0 1 162.0625,89.75 19.4375,19.25 0 0 1 142.625,70.5 19.4375,19.25 0 0 1 162.0625,51.25 Z" />
</svg>
