<?xml version="1.0" encoding="UTF-8"?>
<svg id="Ebene_2" data-name="Ebene 2" xmlns="http://www.w3.org/2000/svg" viewBox="0 0 623.62 191.08">
  <defs>
    <style>
      .cls-1 {
        fill: #e21617;
      }

      .cls-2 {
        fill: #fd0;
      }
    </style>
  </defs>
  <g id="_图层_2" data-name="图层 2">
    <rect class="cls-2" width="623.62" height="191.08"/>
    <path class="cls-1" d="M183.13,92.31h67.03c10.9,0,19.74,8.85,19.74,19.75,0,8.31-5.14,15.42-12.41,18.33l13.82,19.93h-38.15l-9.82-18.52h-8.63v18.52h-31.57v-58.01ZM230.59,104.6l-15.82.04v13.77h15.85c3.81,0,6.92-3.08,6.92-6.9s-3.1-6.91-6.95-6.91"/>
    <polygon class="cls-1" points="412.4 137.56 444.91 137.56 444.91 150.32 379.61 150.32 379.61 92.31 412.4 92.31 412.4 137.56"/>
    <polygon class="cls-1" points="321.3 137.56 361.39 137.56 361.39 150.32 287.9 150.32 287.9 92.31 357.75 92.31 357.75 105.07 321.3 105.07 321.3 114.94 357.75 114.94 357.75 127.7 321.3 127.7 321.3 137.56"/>
    <polygon class="cls-1" points="487.12 137.56 519.6 137.56 519.6 150.32 454.31 150.32 454.31 92.31 487.12 92.31 487.12 137.56"/>
    <path class="cls-1" d="M53.76,39.93h495.83c11.19,0,20.27,9.07,20.27,20.27s-9.08,20.27-20.27,20.27H109.03v69.84h-55.27V39.93ZM488.55,53.29H109.03v13.52h379.51c3.73,0,6.77-3.03,6.77-6.76s-3.03-6.76-6.77-6.76"/>
    <rect class="cls-1" x="130.29" y="92.32" width="31.58" height="58.01"/>
    <rect class="cls-1" x="528.71" y="92.32" width="31.58" height="58.01"/>
  </g>
</svg>