<?xml version="1.0" encoding="UTF-8" standalone="no"?>
<svg
   id="Ebene_2"
   data-name="Ebene 2"
   viewBox="0 0 484.15 116.91"
   version="1.1"
   sodipodi:docname="Stiftung Bildung SVG.svg"
   inkscape:version="1.3.2 (091e20e, 2023-11-25, custom)"
   xmlns:inkscape="http://www.inkscape.org/namespaces/inkscape"
   xmlns:sodipodi="http://sodipodi.sourceforge.net/DTD/sodipodi-0.dtd"
   xmlns="http://www.w3.org/2000/svg"
   xmlns:svg="http://www.w3.org/2000/svg">
  <sodipodi:namedview
     id="namedview27"
     pagecolor="#505050"
     bordercolor="#ffffff"
     borderopacity="1"
     inkscape:showpageshadow="0"
     inkscape:pageopacity="0"
     inkscape:pagecheckerboard="1"
     inkscape:deskcolor="#505050"
     inkscape:zoom="1.3889467"
     inkscape:cx="196.19183"
     inkscape:cy="134.27441"
     inkscape:window-width="1920"
     inkscape:window-height="1177"
     inkscape:window-x="1672"
     inkscape:window-y="-8"
     inkscape:window-maximized="1"
     inkscape:current-layer="Ebene_1-2" />
  <defs
     id="defs1">
    <style
       id="style1">
      .cls-1 {
        fill: #169ab1;
      }

      .cls-2 {
        fill: #fdfefe;
      }

      .cls-3 {
        fill: #eb6a10;
      }

      .cls-4 {
        fill: #139bb1;
      }

      .cls-5 {
        fill: #0f9ab2;
      }

      .cls-6 {
        fill: #2b8b99;
      }

      .cls-7 {
        fill: #1d9aaf;
      }

      .cls-8 {
        fill: #99bf22;
      }

      .cls-9 {
        fill: #189bb1;
      }

      .cls-10 {
        fill: #1b9cb2;
      }

      .cls-11 {
        fill: #149ab0;
      }

      .cls-12 {
        fill: #fcfefe;
      }

      .cls-13 {
        fill: #179bb1;
      }
    </style>
  </defs>
  <g
     id="Ebene_1-2"
     data-name="Ebene 1">
    <g
       id="g27">
      <path
         class="cls-8"
         d="M109,13.91c3.59,3.99,5.85,7.45,4.1,13.09-1.47,4.75-6.35,8.02-11.31,7.72-6.95-.41-8.64-6.47-14-9.59-16.58-9.63-35.7,7.04-28.67,24.81.91,2.29,2.35,3.7,3.44,5.71,6.5,11.99-9.4,23.31-18.66,12.4-8.25-9.72-10.44-25.32-7.05-37.37C45.79-1.1,86.84-10.73,109,13.91Z"
         id="path1" />
      <path
         class="cls-3"
         d="M79.96,39.11c8-1.09,12.24,5.22,15.27,11.57,15.22,31.98-12.96,67.29-47.47,59.75-8.91-1.95-19.96-8.44-24.89-16.27-4.5-7.14-.17-16.81,8.39-17.32s9.72,6.45,16.34,9.92c16.2,8.49,34.17-7.15,28.27-24.42-1.72-5.03-5.76-7.18-5.21-13.27.43-4.74,4.54-9.31,9.3-9.96Z"
         id="path2" />
      <path
         class="cls-5"
         d="M12.32,39.59c16.49-.63,17.98,24.47,1.84,25.94-17.83,1.62-19.25-25.27-1.84-25.94Z"
         id="path3" />
      <path
         class="cls-10"
         d="M325.34,71.55c5.92.27,10.66,2.92,9.52,9.64-.66,3.92-3.23,5.07-6.08,6.91-.19.12-.67.17-.31.54.16.16,3.24,1.25,4.08,1.83,7.02,4.81,3.89,16.47-4.44,16.47h-13.6l.24-35.39h10.59ZM319.8,86.96h3.49c1.14,0,3.7-1.14,4.57-1.93,2.41-2.18,2.71-7.06-.43-8.72-.37-.2-2.86-.91-3.18-.91h-4.45v11.56ZM319.8,103.09h4.21c.29,0,1.93-.23,2.35-.3,5.61-1.03,6.1-7.16,1.85-10.39-2.38-1.81-5.5-2.21-8.41-2.07v12.76Z"
         id="path4" />
      <path
         class="cls-9"
         d="M285.62,101.89c-2.13,2.65-4.99,4.62-8.55,4.6-10.88-.09-12.78-15.21-7.3-22.25,3.82-4.91,11.53-5.5,15.85-.88.09-.28-.12-2.41,0-2.41h5.06c-.28,7.26.38,14.8,0,22.03-.13,2.41-.46,5.78-1.4,7.99-3.14,7.41-13.9,6.47-20.25,4.63l.46-4.32c4.05,1.56,11.6,3.52,14.68-.6.41-.54,1.44-2.81,1.44-3.37v-5.42ZM277.37,84.13c-6.88,1.15-8.18,18.86,1.39,18,2.34-.21,6.88-2.65,7.12-5.16.19-2.02.26-7.24,0-9.17-.22-1.64-3.91-3.5-5.45-3.7-.8-.11-2.25-.1-3.05.04Z"
         id="path5" />
      <path
         class="cls-9"
         d="M479.18,101.65c-2.17,2.67-4.91,4.82-8.55,4.83-16.61.05-12.19-32.84,5.51-25.27l3.04,2.14c.09-.28-.12-2.41,0-2.41h4.82c-.36,7.7.48,15.82,0,23.47-.17,2.62-.68,5.78-2.11,8-3.63,5.62-13.91,5.16-19.45,2.97.11-.52.39-4.13.75-4.11,1.59.62,3.23,1.28,4.91,1.59,2.64.47,6.88.54,8.93-1.45,1.05-1.01,2.16-3.89,2.16-5.3v-4.45ZM470.93,84.13c-5.82.99-6.43,10.27-4.63,14.62,2.42,5.87,9.77,3.23,12.75-.72-.08-3.12.54-7.23.14-10.24-.24-1.77-4.02-3.55-5.67-3.72-.73-.07-1.87-.07-2.59.05Z"
         id="path6" />
      <path
         class="cls-13"
         d="M392.51,69.14v37.8h-4.82v-4.33c-2.04,3.03-4.97,5.1-8.78,5.06-14.92-.13-12.86-30.88,3.77-27.15,2.14.48,3.47,1.6,5,3.06v-14.45h4.82ZM379.21,84.13c-5.54.94-5.84,11.82-4.15,15.83,2.52,5.96,9.65,3.08,12.59-.89l.04-11.5c-1.91-2.69-5.2-4-8.48-3.44Z"
         id="path7" />
      <path
         class="cls-9"
         d="M130.81,76.61c-3.5-.89-8.64-3.38-12.12-1.17-3.22,2.05-2.8,5.43-.16,7.79,4.31,3.85,13.45,5.7,14.39,12.58,1.3,9.57-7.73,12.85-15.68,11.83-.87-.11-6.17-1.1-6.17-1.78v-4.69c4.15,1.59,11.46,4.73,15.18.85,2.99-3.12,1.17-6.86-1.86-9-5.56-3.93-15.9-6.9-12.47-16.17,2.82-7.61,12.64-7.07,18.89-4.7v4.45Z"
         id="path8" />
      <path
         class="cls-13"
         d="M212.91,80.94v18.9c0,.08.35,1.32.43,1.5,1.36,3.3,5.81,1.83,7.98.17.47-.36,3.15-3.33,3.15-3.59v-16.97h5.06v25.64s-.34.36-.36.36h-4.69v-4.33c-2.9,3.63-7.69,6.34-12.35,4.28-1.72-.76-4.03-3.47-4.03-5.36v-20.58h4.82Z"
         id="path9" />
      <path
         class="cls-13"
         d="M406.47,80.94v19.86c0,.18.44.88.59,1.09,1.79,2.44,5.48,1.27,7.47-.26.52-.4,3.5-3.63,3.5-3.97v-16.73h4.82v26h-4.82v-4.57c-3.02,4.32-10.04,7.48-14.42,3.22-.86-.83-2.19-3.4-2.19-4.55v-20.1h5.06Z"
         id="path10" />
      <path
         class="cls-9"
         d="M448.61,88.4c-.42-.41-.18-1.11-.35-1.69-.93-3.17-5.51-2.27-7.58-.82-.57.4-3.63,3.62-3.63,4.08v16.61s-.34.36-.36.36h-4.69v-26h5.06v4.09c2.99-3.4,7.2-5.99,11.86-4.28,1.95.71,4.51,3.5,4.51,5.6v20.58c-1.41-.13-3.1.18-4.47,0-.19-.02-.36-.01-.35-.25.4-.25.24-.91.24-1.32.07-5.86-.06-11.72,0-17.58-.36-.41-.24.45-.24.6Z"
         id="path11" />
      <path
         class="cls-9"
         d="M243.48,106.7c.01.24-.16.22-.35.25-1.37.17-3.06-.14-4.47,0v-26h4.82v4.33c2.94-3.65,8.06-6.66,12.73-4.18,1.94,1.03,3.88,3.76,3.88,5.99v19.86h-4.69s-.36-.34-.36-.36v-19.26c0-1.41-1.67-2.64-3.01-2.77-3.31-.32-7.13,2.72-8.55,5.54-.18.37-.21.33-.26.82-.38,4.3-.04,10.03.01,14.47,0,.41-.15,1.07.24,1.32Z"
         id="path12" />
      <path
         class="cls-9"
         d="M172.94,76.49c.45-5.05,3.59-8.15,8.79-8.08.63,0,4.88.63,5.18.86.39.29.44,3.81-.14,3.95-.2.05-3.32-.85-4.1-.91-1.77-.13-4.66.49-4.66,2.74v5.9h6.5v3.61h-6.5v22.39h-5.06v-22.39h-3.61v-3.61h3.61c.09-1.45-.13-3.03,0-4.45Z"
         id="path13" />
      <path
         class="cls-11"
         d="M195.09,75.64v5.3h6.74v3.61h-6.74v15.53c0,.17.61,1.87.76,2.13,1.19,2.05,4,1.63,5.98,1.36v3.37c-5.3,1.49-11.02.21-11.56-6.13-.45-5.19.35-11.01,0-16.26-.68-.11-2.93.26-3.27-.22l-.11-3.39h3.37v-4.82l4.82-.48Z"
         id="path14" />
      <path
         class="cls-1"
         d="M144.78,99.48c.06.58.4,2.04.67,2.58,1.13,2.22,4.04,1.8,6.07,1.52v3.37c-5.47,1.71-11.06.02-11.56-6.37-.4-5.15.32-10.82,0-16.02-2.81-.07-3.7.81-3.37-2.53.19-1.95,1.82-.8,3.37-1.08v-4.82l4.81-.48c.19,1.05-.35,4.7.24,5.3s5.11.05,6.26.24c-.06.54.23,3.13-.36,3.13h-6.02c-.26,0-.34.59-.37.83-.52,4.45.41,9.9.01,14.46l.24-.12Z"
         id="path15" />
      <path
         class="cls-10"
         d="M356.88,106.94v-37.8h4.69s.36.34.36.36v37.08s-.34.36-.36.36h-4.69Z"
         id="path16" />
      <rect
         class="cls-4"
         x="158.02"
         y="80.94"
         width="4.82"
         height="26"
         id="rect16" />
      <rect
         class="cls-4"
         x="342.92"
         y="80.94"
         width="4.82"
         height="26"
         id="rect17" />
      <rect
         class="cls-7"
         x="158.02"
         y="71.55"
         width="4.82"
         height="4.82"
         id="rect18" />
      <rect
         class="cls-7"
         x="342.92"
         y="71.55"
         width="4.82"
         height="4.82"
         id="rect19" />
      <path
         class="cls-6"
         d="M448.61,106.7c.12-6.09-.16-12.21,0-18.3,0-.15-.12-1.01.24-.6-.06,5.86.08,11.72,0,17.58,0,.41.15,1.07-.24,1.32Z"
         id="path19" />
      <path
         class="cls-6"
         d="M145.02,80.94h6.5v3.61h-6.74c.35,4.78-.47,10.23,0,14.93l-.24.12c.4-4.56-.53-10.02-.01-14.46.03-.24.11-.83.37-.83h6.02c.59,0,.3-2.59.36-3.13-1.15-.19-5.66.37-6.26-.24Z"
         id="path20" />
      <path
         class="cls-6"
         d="M243.48,106.7c-.4-.25-.24-.91-.24-1.32-.05-4.44-.39-10.18-.01-14.47.04-.49.07-.45.26-.82v16.61Z"
         id="path21" />
      <path
         class="cls-6"
         d="M325.34,71.55h-10.59c3.52.12,7.08-.16,10.59,0Z"
         id="path22" />
      <path
         class="cls-12"
         d="M319.8,103.09v-12.76c2.91-.15,6.03.26,8.41,2.07,4.25,3.23,3.77,9.36-1.85,10.39-.42.08-2.05.3-2.35.3h-4.21Z"
         id="path23"
         style="fill:#fcfefe;fill-opacity:0" />
      <path
         class="cls-12"
         d="M319.8,86.96v-11.56h4.45c.32,0,2.81.72,3.18.91,3.15,1.65,2.84,6.53.43,8.72-.87.79-3.44,1.93-4.57,1.93h-3.49Z"
         id="path24"
         style="fill:#fcfefe;fill-opacity:0" />
      <path
         class="cls-12"
         d="M277.37,84.13c.8-.13,2.25-.14,3.05-.04,1.54.2,5.23,2.06,5.45,3.7.26,1.93.18,7.15,0,9.17-.23,2.51-4.78,4.95-7.12,5.16-9.56.87-8.27-16.84-1.39-18Z"
         id="path25"
         style="fill:#fcfefe;fill-opacity:0" />
      <path
         class="cls-2"
         d="M470.93,84.13c.72-.12,1.86-.13,2.59-.05,1.65.17,5.44,1.95,5.67,3.72.4,3.01-.22,7.12-.14,10.24-2.98,3.95-10.33,6.59-12.75.72-1.8-4.36-1.2-13.63,4.63-14.62Z"
         id="path26"
         style="fill:#fdfefe;fill-opacity:0" />
      <path
         class="cls-2"
         d="M379.21,84.13c3.28-.56,6.58.74,8.48,3.44l-.04,11.5c-2.94,3.97-10.07,6.84-12.59.89-1.69-4.01-1.39-14.89,4.15-15.83Z"
         id="path27"
         style="fill:#fdfefe;fill-opacity:0.0027137" />
    </g>
  </g>
</svg>
