<?xml version="1.0" encoding="UTF-8" standalone="no"?>
<svg
   version="1.1"
   width="512"
   height="512"
   id="svg2"
   sodipodi:docname="tree1.svg"
   inkscape:version="1.3.2 (091e20e, 2023-11-25, custom)"
   xmlns:inkscape="http://www.inkscape.org/namespaces/inkscape"
   xmlns:sodipodi="http://sodipodi.sourceforge.net/DTD/sodipodi-0.dtd"
   xmlns="http://www.w3.org/2000/svg"
   xmlns:svg="http://www.w3.org/2000/svg">
  <defs
     id="defs2" />
  <sodipodi:namedview
     id="namedview2"
     pagecolor="#505050"
     bordercolor="#ffffff"
     borderopacity="1"
     inkscape:showpageshadow="0"
     inkscape:pageopacity="0"
     inkscape:pagecheckerboard="1"
     inkscape:deskcolor="#505050"
     showgrid="false"
     inkscape:zoom="1.8339844"
     inkscape:cx="172.84771"
     inkscape:cy="355.78275"
     inkscape:window-width="1920"
     inkscape:window-height="1177"
     inkscape:window-x="1672"
     inkscape:window-y="-8"
     inkscape:window-maximized="1"
     inkscape:current-layer="svg2" />
  <path
     id="path3"
     style="fill:currentColor;fill-rule:nonzero;stroke-width:0.377953"
     d="m 254.23586,20.403022 c -19.80683,0.658518 -38.52264,9.303897 -53.25781,24.539062 -4.27872,4.960824 -7.42456,10.627725 -10.61328,16.324219 -0.40339,0.71801 -0.80704,1.436012 -1.22266,2.175781 -0.35755,0.64969 -0.71365,1.299381 -1.08203,1.96875 -1.01807,1.531249 -1.01954,1.531251 -3.01953,2.53125 -6.88847,1.172819 -10.96366,-0.819163 -16.67188,-4.53125 -7.1856,-4.533205 -16.0645,-4.537247 -24.19531,-2.886718 -8.30252,2.575427 -14.94628,7.611447 -19.76172,14.875 -2.20986,4.188836 -3.6445,8.353443 -4.87109,12.917968 -0.88548,3.101607 -1.37741,4.487543 -3.5625,6.9375 -2.51032,1.442099 -5.01612,2.690302 -7.625,3.9375 -14.522927,7.078026 -26.00311,20.114626 -31.601564,35.230466 -5.446635,17.33909 -5.364998,34.2486 1.796875,51.05859 4.282275,8.5048 9.782605,15.80585 17.335937,21.66797 7.335602,5.78764 9.485092,10.50673 11.523432,19.31446 1.39375,5.9933 3.14825,10.12178 7.63282,14.47851 0.57363,0.62004 1.14727,1.24008 1.73828,1.87891 5.98852,5.93892 13.87642,9.14227 22.32422,9.55859 7.73746,-0.85972 13.81154,-2.33001 20.0625,-7.125 4.0207,-3.01073 6.83832,-4.34943 11.89843,-3.83984 3.77179,1.0063 4.90359,2.19802 6.97657,5.52734 0.66727,3.22803 1.08655,6.44402 1.49218,9.71485 1.49591,9.67741 7.00081,15.89997 13.82032,22.53515 7.82759,5.09704 15.3863,6.9292 24.6875,5.75 6.74505,-1.60296 12.09746,-4.34199 17.4414,-8.73047 5.11085,-4.16297 13.91835,-2.65969 20.25,-2.72851 1.85833,-0.0265 3.71654,-0.0673 5.57422,-0.12305 11.40782,-0.33816 18.90523,-0.37841 27.73438,7.58203 8.07015,4.42439 15.8535,5.26966 24.85546,3.41016 8.57726,-2.6252 15.02886,-7.79148 20.03126,-15.20703 3.49848,-6.40402 4.68652,-12.21715 5.58203,-19.39844 0.53125,-2.80469 0.53125,-2.80469 2.59375,-6.11719 3.40632,-1.95683 5.58659,-2.51645 9.48437,-2.3164 3.94879,1.01235 6.71295,3.42237 9.91016,5.87109 5.95766,4.1182 13.3765,5.73691 20.54297,4.75781 10.49985,-2.04875 18.32667,-7.04094 24.5664,-15.73047 3.58078,-5.66875 4.49623,-10.61547 5.1836,-17.26953 0.91933,-7.07585 3.09974,-10.27471 8.25,-15 12.08504,-11.84384 18.69377,-27.32001 19.39843,-44.19726 0.32785,-18.03995 -6.1781,-34.5266 -18.39843,-47.80274 -5.36251,-5.4315 -11.15572,-9.57321 -17.71485,-13.457027 -2.28516,-1.542968 -2.28516,-1.542971 -4.28515,-4.542969 -0.34978,-1.718348 -0.6349,-3.450421 -0.875,-5.1875 -1.53999,-8.934301 -5.41099,-15.664566 -12.125,-21.8125 -2.87895,-1.981158 -5.82534,-3.547881 -9,-5 -0.92813,-0.433129 -1.85625,-0.86625 -2.8125,-1.3125 -9.15346,-1.974278 -17.89662,-1.125555 -26.1875,3.3125 -1.74217,1.374839 -3.45097,2.792972 -5.125,4.25 -3.98507,3.389527 -6.54828,4.627292 -11.76954,4.519532 -4.36541,-1.595519 -6.67047,-4.961418 -8.80859,-8.933594 -0.51046,-1.142109 -1.02093,-2.284219 -1.54687,-3.460938 -7.92104,-16.754495 -22.04743,-28.897127 -39.14063,-35.730468 -9.18319,-3.13269 -18.41096,-4.48292 -27.41406,-4.183594 z M 52.040548,165.94208 c -5.807194,0 -13.871011,7.99619 -17.898437,11.7461 -9.96463,10.68698 -13.730139,22.91752 -13.574219,37.24414 0.48812,13.24004 5.790096,24.51606 15.097656,33.88476 2.180288,2.07319 4.371714,4.12205 6.613282,6.12891 2.544497,2.88301 2.380486,4.73406 2.222656,8.44922 -0.70397,3.8897 -2.423849,7.14332 -4.148438,10.67578 -6.080324,13.30071 -5.710959,27.5673 -1.558594,41.375 5.708325,16.01552 16.730805,27.06603 31.65625,34.73437 9.749631,4.59889 18.734646,5.09808 29.365236,5.06446 7.48169,0.15169 7.4817,0.15169 11.22461,2.90039 1.92167,2.68734 3.67313,5.36651 5.3125,8.23437 4.51548,7.24624 9.94059,11.72997 18.21484,14.08594 9.66419,1.86261 17.97499,0.50116 26.47266,-4.52344 2.94339,-2.45737 5.52908,-5.07123 8,-8 -1.11726,-3.35178 -1.95451,-4.01707 -4.625,-6.1875 -11.8544,-10.18507 -19.49066,-23.12886 -21.375,-38.8125 -0.59914,-8.58866 -0.60333,-17.20687 -0.6875,-25.8125 -0.0332,-2.34963 -0.0677,-4.69924 -0.10352,-7.04883 -0.0843,-5.71276 -0.15289,-11.42556 -0.20898,-17.13867 -1.22251,-0.18973 -2.44357,-0.37874 -3.70313,-0.57422 -1.62717,-0.25986 -3.25574,-0.52078 -4.88281,-0.78125 l -2.4336,-0.375 c -14.71086,-2.37936 -25.6401,-9.33438 -34.980462,-20.83203 -4.091546,-5.56407 -6.733608,-12.0913 -8.660156,-18.70312 -1.617488,-5.44164 -4.508048,-7.83817 -8.808594,-11.4336 -13.039467,-11.85222 -20.557254,-28.42174 -24.53125,-45.30078 -0.2243,-0.94746 -0.448587,-1.89492 -0.679687,-2.87109 -0.46411,-2.03765 -0.896903,-4.08242 -1.320313,-6.12891 z m 409.000002,1 c -1.87426,1.87426 -1.75794,5.11012 -2.1875,7.625 -2.57864,13.69778 -7.97217,27.11704 -17.59766,37.41406 -6.44828,6.93964 -9.18657,11.64412 -10.57031,21.32032 -2.30668,13.02925 -11.83925,23.45672 -22.19922,31.10937 -10.78042,6.75069 -22.83172,9.43372 -35.44531,8.53125 l -3,-1 c -0.0142,0.54785 -0.0284,1.0957 -0.043,1.66016 -0.99791,16.58693 -8.4296,30.71111 -20.3711,42.08203 -4.10045,3.58015 -8.38442,6.90706 -12.69531,10.22656 -4.28927,3.31505 -8.4659,6.76125 -12.64062,10.21875 -6.03899,4.99503 -12.1118,9.93959 -18.25,14.8125 -1.87551,1.49937 -3.75052,2.99936 -5.625,4.5 -1.45833,1.16667 -2.91668,2.33333 -4.375,3.5 9.48163,3.16055 20.35413,1.33058 29.41015,-2.16015 4.03891,-1.30975 6.51852,-1.00309 10.58985,0.16015 3.12765,2.20776 4.77406,5.19697 6.8125,8.375 5.06157,7.68703 11.17911,12.33756 20.1875,14.625 8.18474,1.05958 14.7011,-0.26538 22,-4 1.05187,-0.51563 2.10375,-1.03125 3.1875,-1.5625 3.58355,-3.10574 5.69631,-6.62403 8.10156,-10.68359 4.41463,-7.10575 4.41464,-7.10576 7.71094,-8.75391 1.63367,-0.12916 3.27196,-0.20234 4.91015,-0.24609 0.99064,-0.0329 1.9813,-0.0658 3.00196,-0.0996 2.07282,-0.0604 4.14575,-0.11778 6.21875,-0.17188 5.51061,-0.1883 10.61549,-0.65519 15.95507,-2.06445 3.30602,-0.72104 5.70547,-0.40523 8.91407,0.58203 2.96041,2.5825 4.59481,4.1802 5.44531,8 0.19268,3.39114 -0.34551,5.80474 -1.88281,8.8125 -0.46212,0.3945 -0.96813,0.70543 -1.45508,1.05274 l 2.53125,0.22656 34.88678,-27.5819 2.39177,-3.97293 12.16871,-40.9315 -0.79882,-1.60156 c -0.19301,0.64008 -0.27757,1.32366 -0.53711,1.93359 -1.92004,2.2629 -2.91844,3.1973 -5.75,4.0625 -4.97294,0.45209 -8.05331,0.15736 -12,-3 -2.27619,-3.54073 -2.67389,-7.42272 -3.3125,-11.5 -1.37247,-8.0704 -4.02406,-15.17309 -7.6875,-22.5 -0.42064,-3.05866 -0.45944,-5.94418 0,-9 1.99999,-2.56249 2,-2.5625 5,-5 9.43654,-8.56458 16.87984,-19.18036 18.22851,-32.19531 0.99224,-15.14884 -1.71442,-27.60714 -11.22851,-39.80469 -5.2569,-5.6317 -11.11062,-9.61231 -18,-13 z m -297,111 c -0.0748,5.78 -0.12817,11.55947 -0.16407,17.33985 -0.015,1.96195 -0.0364,3.92487 -0.0625,5.88671 -0.18944,14.59436 -0.16763,27.7377 9.22657,39.77344 6.89363,7.20842 14.75801,13.30549 22.63672,19.39063 3.86133,2.98282 7.62992,6.07295 11.39843,9.17187 3.58469,2.94709 7.17885,5.88231 10.77735,8.8125 0.67418,0.55019 1.34836,1.10111 2.04296,1.66797 3.37141,2.74208 6.76245,5.44909 10.21094,8.09375 0.64155,0.49387 1.28433,0.98921 1.94532,1.49805 1.21111,0.92836 2.42669,1.84933 3.64843,2.76367 3.02436,2.32021 5.04321,4.00909 6.33985,7.60156 0.20472,2.71369 0.30353,5.32163 0.30078,8.03516 0.008,1.17998 0.008,1.18095 0.0176,2.38476 0.012,2.54805 0.007,5.09454 -0.004,7.64258 -0.003,1.29862 -0.005,1.30015 -0.008,2.625 -0.0497,12.32233 -0.25904,24.3079 -3.30469,36.3125 -0.18804,0.77795 -0.37657,1.55591 -0.57031,2.35742 -4.04249,16.27286 -11.76973,42.86927 -26.42969,52.64258 -1.75766,0.30982 -3.5509,0.51828 -5.31641,0.51563 l -0.89062,4.44922 104.6914,0.54492 -1.22265,-5.41211 c -3.17556,0.64834 -6.06646,0.79656 -9.26367,-0.0977 -12.36524,-10.48888 -19.63477,-29.75488 -24.3125,-44.875 -0.23026,-0.7284 -0.46004,-1.45655 -0.69727,-2.20703 -4.47878,-15.37669 -5.45161,-31.05561 -5.38867,-46.97265 -0.002,-1.84417 -0.004,-3.68709 -0.008,-5.53126 -0.004,-3.82013 0.002,-7.64083 0.0156,-11.46093 0.0173,-4.89007 0.006,-9.77989 -0.0117,-14.66992 -0.0108,-3.78841 -0.005,-7.57683 0.002,-11.36524 0.002,-1.80449 -10e-4,-3.60763 -0.008,-5.41211 -0.008,-2.5094 0.005,-5.01801 0.0215,-7.52734 -0.006,-0.73764 -0.0132,-1.47634 -0.0195,-2.23633 0.0546,-4.43048 0.73974,-7.18894 3.40625,-10.74219 1.67895,-1.67822 1.67896,-1.67822 3.51953,-3.16406 0.68514,-0.55881 1.37027,-1.11762 2.07617,-1.69336 0.73154,-0.5833 1.46309,-1.1666 2.2168,-1.76758 0.76119,-0.61682 1.52239,-1.23363 2.30664,-1.86914 5.14569,-4.15696 10.34361,-8.24992 15.5625,-12.31445 5.50115,-4.29682 10.87941,-8.73625 16.25586,-13.1875 4.64805,-3.84656 9.32988,-7.63786 14.08203,-11.35547 2.1255,-1.76918 4.0542,-3.6659 5.98047,-5.64844 -0.58266,0.32613 -1.16531,0.65227 -1.76563,0.98828 -8.48728,4.52389 -16.4991,7.04263 -26.16992,7.11328 -8.46389,0.0992 -12.8838,2.37372 -19.37695,7.91407 -3.39579,2.50735 -5.63522,3.01716 -9.77735,2.55859 -2.96347,-0.89086 -4.81055,-2.34339 -6.91015,-4.57422 -1.53267,-3.06532 -1.10277,-6.26754 -1.0625,-9.625 0.005,-0.70641 0.009,-1.4128 0.0137,-2.14062 0.0118,-1.74482 0.0297,-3.48962 0.0488,-5.23438 -3.93744,-0.058 -7.87478,-0.0936 -11.8125,-0.125 -1.11955,-0.0168 -2.2391,-0.0335 -3.39258,-0.0508 -1.07314,-0.006 -2.1463,-0.0129 -3.25196,-0.0195 -0.98975,-0.0105 -1.97829,-0.0205 -2.99804,-0.0312 -2.7881,0.0444 -2.78933,0.0439 -5.54492,2.22656 -0.44333,2.54109 -0.44187,2.54207 -0.35157,5.54883 -0.005,1.74256 -0.006,1.74176 -0.0117,3.51953 0.0139,1.89211 0.013,1.89194 0.0273,3.82227 -0.009,1.97492 -0.0183,3.95088 -0.0293,5.92578 -0.0224,4.87812 -0.0116,9.75664 0.006,14.63476 0.009,2.73359 0.004,5.46569 -0.0137,8.19922 -0.0159,2.57536 -0.0118,5.15131 0.0156,7.72657 -0.0824,9.71918 -0.0825,9.71925 -2.96484,13.39648 -3.37474,2.80788 -5.30193,3.30333 -9.67773,3.22656 -5.17868,-2.13154 -9.12779,-5.32153 -13.375,-8.875 -1.41002,-1.16292 -2.82019,-2.32567 -4.23047,-3.48828 -0.72107,-0.59764 -1.44068,-1.19479 -2.1836,-1.81055 -3.61353,-2.98584 -7.25763,-5.93618 -10.89843,-8.88867 -0.65855,-0.53544 -1.31565,-1.06942 -1.99414,-1.62109 -0.62407,-0.50741 -1.24961,-1.01627 -1.89258,-1.53906 -0.88632,-0.73114 -0.88486,-0.73066 -1.78906,-1.47657 -1.75808,-1.43714 -1.75955,-1.43764 -4.28126,-3.04687 -4.27677,-4.09239 -7.00999,-9.13278 -7.66406,-15.05859 -0.0109,-2.90456 0.0752,-5.79291 0.1836,-8.69532 0.21306,-7.97941 0.21306,-7.97942 -3.16016,-14.89844 -2.80268,-2.49764 -2.80269,-2.49765 -5.75781,-4.34374 -4.04777,-3.09063 -6.33562,-6.94365 -8.95703,-11.25782 z m 39,27 c -0.51947,4.15573 -0.87001,6.97889 0,11 2.88889,3.34799 6.32792,5.57752 10,8 1.1824,0.98135 2.35248,1.97808 3.5,3 2.22669,2.20823 2.2267,2.20823 4.5,2 v -24 z"
     sodipodi:nodetypes="sccccccccccccccccccccccccccccccccccccccccccccccccccccscccccccccccccccccccccccccccccscccccccccccccccccccccccccccccccccccccccccccsscccccccccccccccccccccccccccccccccccccccccccccccccccccccccccccccccccccscccccccccccccccc" />
  <path
     d="M0 0 C1.05703125 0.37382813 2.1140625 0.74765625 3.203125 1.1328125 C23.20930164 8.87879371 39.85427996 22.65033895 51 41 C52.2065625 40.5978125 52.2065625 40.5978125 53.4375 40.1875 C54.613125 39.795625 55.78875 39.40375 57 39 C57.73476563 38.74734375 58.46953125 38.4946875 59.2265625 38.234375 C59.99742187 37.97140625 60.76828125 37.7084375 61.5625 37.4375 C62.28566406 37.18871094 63.00882812 36.93992188 63.75390625 36.68359375 C77.36756659 32.54030582 91.29311687 34.81182084 104 40.5625 C114.4875534 46.08512864 122.80480539 54.31633367 128 65 C128.73192658 67.34693849 129.43949089 69.70158618 130.125 72.0625 C132.58321302 79.53514092 136.55839799 82.50943716 142.78515625 86.78515625 C159.35492881 98.20078328 168.62516911 117.90514988 173 137 C173 137.99 173 138.98 173 140 C174.175625 140.165 175.35125 140.33 176.5625 140.5 C191.75088395 143.98116806 205.12615469 154.56067309 213.84790039 167.2253418 C225.06978082 184.51117541 228.67860442 203.18322213 225.61328125 223.57226562 C223.10604459 235.63708845 218.03440368 246.45311817 208.75 254.6875 C206.2997135 256.97892214 206.2997135 256.97892214 205 260 C205.21034899 265.29897677 207.36809031 270.22008132 209.3046875 275.09008789 C211.52861027 281.19884766 212.32325164 288.89035865 209.75 294.9375 C207.82996021 297.20040404 206.83156597 298.13479929 204 299 C199.02705971 299.45208548 195.94670031 299.15736025 192 296 C189.72380837 292.45925746 189.32611007 288.57727968 188.6875 284.5 C187.31503181 276.42959148 184.66345459 269.32690918 181 262 C180.57935739 258.94132733 180.54055892 256.0558174 181 253 C183 250.4375 183 250.4375 186 248 C195.43654611 239.435414 202.87886865 228.81915809 204.22753906 215.80419922 C205.21978139 200.65534224 202.51409866 188.19756239 193 176 C187.74309645 170.3682898 181.88939398 166.38769255 175 163 C173.12573792 164.87426208 173.24206187 168.1101105 172.8125 170.625 C170.23386015 184.32278765 164.84034447 197.74201521 155.21484375 208.0390625 C148.7665531 214.97870224 146.02827033 219.68315639 144.64453125 229.359375 C142.33784783 242.38864133 132.80528652 252.81608627 122.4453125 260.46875 C111.66488148 267.21943524 99.61360579 269.90247096 87 269 C86.01 268.67 85.02 268.34 84 268 C83.98582031 268.54785156 83.97164063 269.09570312 83.95703125 269.66015625 C82.95911679 286.24711279 75.52744728 300.3712618 63.5859375 311.7421875 C59.48548444 315.32234138 55.20150955 318.64924268 50.890625 321.96875 C46.60133928 325.28379919 42.42473098 328.72999121 38.25 332.1875 C32.21101213 337.18252996 26.13820841 342.12707816 20 347 C18.12449395 348.49936722 16.24948977 349.99936244 14.375 351.5 C12.91666667 352.66666667 11.45833333 353.83333333 10 355 C19.48164405 358.16054802 30.35412645 356.33057677 39.41015625 352.83984375 C43.44906938 351.53009062 45.92867094 351.83676312 50 353 C53.12765713 355.20775798 54.77405981 358.1969594 56.8125 361.375 C61.87408174 369.0620406 67.99160426 373.71256142 77 376 C85.1847482 377.05958431 91.70110533 375.73462295 99 372 C100.051875 371.484375 101.10375 370.96875 102.1875 370.4375 C105.77106046 367.3317476 107.88380822 363.81347862 110.2890625 359.75390625 C114.7037037 352.64814815 114.7037037 352.64814815 118 351 C119.63367527 350.8708392 121.27196742 350.79766397 122.91015625 350.75390625 C123.90080078 350.72103516 124.89144531 350.68816406 125.91210938 350.65429688 C127.98493784 350.59389828 130.05785699 350.53652315 132.13085938 350.48242188 C137.6414808 350.29411566 142.74513336 349.82698223 148.0847168 348.41772461 C151.39074156 347.69667829 153.7913974 348.01273766 157 349 C159.96042112 351.58249502 161.59480753 353.1801882 162.4453125 357 C162.63799111 360.3911436 162.09980628 362.80472684 160.5625 365.8125 C153.6551168 371.70904664 143.8401095 372.17228336 135.125 372.0625 C134.43664062 372.05798828 133.74828125 372.05347656 133.0390625 372.04882812 C131.35933665 372.03716336 129.67965625 372.01923271 128 372 C127.74089844 372.73476563 127.48179687 373.46953125 127.21484375 374.2265625 C122.9767282 383.90200314 113.42210298 390.22355863 104.02734375 394.28515625 C89.78136801 399.63458725 75.60227888 399.54467145 61.45703125 394.00390625 C53.89690204 390.61649952 47.25113436 385.25202944 42.2109375 378.66015625 C39.98540294 376.61247142 39.98540294 376.61247142 36.44921875 377.2421875 C35.7536084 377.36948242 35.05799805 377.49677734 34.34130859 377.62792969 C29.86727006 378.33892392 25.33233208 378.14321289 20.8125 378.125 C19.35553711 378.13080078 19.35553711 378.13080078 17.86914062 378.13671875 C16.92876953 378.13542969 15.98839844 378.13414062 15.01953125 378.1328125 C13.75266479 378.13112061 13.75266479 378.13112061 12.46020508 378.12939453 C9.88987985 377.99420823 7.51562885 377.52742755 5 377 C5.04221372 384.60943153 5.11505254 392.21816343 5.20751953 399.82714844 C5.23545139 402.40651107 5.25680139 404.98595488 5.27099609 407.56542969 C5.44442853 437.32643553 10.07705765 464.1473254 26.5 489.5 C29.27271706 494.02750512 29.96616411 496.73001392 29 502 C26.65486726 506.37758112 26.65486726 506.37758112 24 508 C20.51522712 508.7940712 17.45074068 508.96512904 14 508 C1.63474545 497.51111184 -5.63476216 478.24512592 -10.3125 463.125 C-10.54275879 462.39659912 -10.77301758 461.66819824 -11.01025391 460.91772461 C-15.48903642 445.54100943 -16.46138109 429.86236632 -16.3984375 413.9453125 C-16.40046579 412.10114426 -16.40338345 410.25697682 -16.40713501 408.41281128 C-16.41150739 404.59267358 -16.40528382 400.77274925 -16.39111328 396.95263672 C-16.37385278 392.06257135 -16.38399991 387.17299402 -16.40183067 382.28294563 C-16.41266249 378.49454042 -16.40922787 374.70625154 -16.4014473 370.91784286 C-16.3994524 369.11335059 -16.40187948 367.30884761 -16.40888596 365.50436783 C-16.41650933 362.99497498 -16.404892 360.48638386 -16.38818359 357.97705078 C-16.39425629 357.23941498 -16.40032898 356.50177917 -16.40658569 355.74179077 C-16.35196711 351.31131299 -15.66650901 348.55325177 -13 345 C-11.32104492 343.32177734 -11.32104492 343.32177734 -9.48046875 341.8359375 C-8.79533203 341.27712891 -8.11019531 340.71832031 -7.40429688 340.14257812 C-6.67275391 339.55927734 -5.94121094 338.97597656 -5.1875 338.375 C-4.42630859 337.75818359 -3.66511719 337.14136719 -2.88085938 336.50585938 C2.26483625 332.3488939 7.46103491 328.25618572 12.67993164 324.19165039 C18.1810841 319.89483186 23.55982279 315.45370311 28.9362793 311.00244141 C33.58434015 307.15588098 38.26737904 303.36605038 43.01953125 299.6484375 C45.14506439 297.87925607 47.07372904 295.98254404 49 294 C48.41734375 294.32613281 47.8346875 294.65226562 47.234375 294.98828125 C38.74708142 299.51216887 30.73406302 302.03017243 21.06323242 302.10083008 C12.5993308 302.19998122 8.18065854 304.4752669 1.6875 310.015625 C-1.70829232 312.52298328 -3.94770578 313.03278575 -8.08984375 312.57421875 C-11.05331869 311.68335818 -12.90039111 310.23083444 -15 308 C-16.53266582 304.93466836 -16.10276471 301.73245728 -16.0625 298.375 C-16.05798828 297.66859375 -16.05347656 296.9621875 -16.04882812 296.234375 C-16.03703875 294.48954725 -16.01910324 292.744763 -16 291 C-19.93743833 290.94202435 -23.87476719 290.90641211 -27.8125 290.875 C-28.93205078 290.85824219 -30.05160156 290.84148437 -31.20507812 290.82421875 C-32.27822266 290.81777344 -33.35136719 290.81132812 -34.45703125 290.8046875 C-35.44678955 290.79421387 -36.43654785 290.78374023 -37.45629883 290.77294922 C-40.2443952 290.81732596 -40.2443952 290.81732596 -43 293 C-43.44332526 295.54108786 -43.44332526 295.54108786 -43.35302734 298.54785156 C-43.35851089 300.29041229 -43.35851089 300.29041229 -43.36410522 302.06817627 C-43.3501622 303.96028839 -43.3501622 303.96028839 -43.3359375 305.890625 C-43.34524717 307.86553602 -43.35458561 309.84044739 -43.36561012 311.81534958 C-43.38806228 316.69348269 -43.37811399 321.57157571 -43.36035156 326.44970703 C-43.35152903 329.18329908 -43.35601126 331.91629649 -43.37417603 334.64984131 C-43.39008168 337.2251966 -43.38542009 339.80077915 -43.35800171 342.3760376 C-43.44043557 352.09523184 -43.44043557 352.09523184 -46.32275391 355.77246094 C-49.69749805 358.5803367 -51.62419319 359.07676854 -56 359 C-61.178687 356.86846122 -65.12778572 353.67846928 -69.375 350.125 C-70.78502521 348.96208068 -72.19518559 347.79932524 -73.60546875 346.63671875 C-74.32653809 346.03907715 -75.04760742 345.44143555 -75.79052734 344.82568359 C-79.40406172 341.83982613 -83.04669374 338.88998619 -86.6875 335.9375 C-87.3460498 335.40205566 -88.00459961 334.86661133 -88.68310547 334.31494141 C-89.30717285 333.80753418 -89.93124023 333.30012695 -90.57421875 332.77734375 C-91.46052979 332.04620361 -91.46052979 332.04620361 -92.36474609 331.30029297 C-94.12282153 329.86313891 -94.12282153 329.86313891 -96.64453125 328.25390625 C-100.92131959 324.16152338 -103.65550151 319.12113457 -104.30957031 313.1953125 C-104.32051216 310.29074833 -104.23334179 307.402407 -104.125 304.5 C-103.91193788 296.52057534 -103.91193788 296.52057534 -107.28515625 289.6015625 C-110.08784372 287.10391441 -110.08784372 287.10391441 -113.04296875 285.2578125 C-117.09073746 282.167178 -119.37857882 278.31416969 -122 274 C-122.07475627 279.78000129 -122.12888603 285.55971446 -122.16479492 291.34008789 C-122.17978159 293.3020519 -122.20017793 295.26398298 -122.22631836 297.22583008 C-122.41575911 311.82019696 -122.39421238 324.96424672 -113 337 C-106.10635687 344.20842135 -98.24199784 350.30548144 -90.36328125 356.390625 C-86.50194174 359.37344718 -82.73336089 362.46357254 -78.96484375 365.5625 C-75.38015908 368.50959253 -71.78600196 371.44480348 -68.1875 374.375 C-67.51332031 374.92518799 -66.83914062 375.47537598 -66.14453125 376.04223633 C-62.77312562 378.78431827 -59.38209847 381.49205739 -55.93359375 384.13671875 C-55.29204346 384.63059082 -54.65049316 385.12446289 -53.98950195 385.63330078 C-52.77838367 386.56166092 -51.5623141 387.48360985 -50.34057617 388.39794922 C-47.31621785 390.71816476 -45.29664333 392.40751992 -44 396 C-43.7952861 398.71368747 -43.69646881 401.32162502 -43.69921875 404.03515625 C-43.69075172 405.21513939 -43.69075172 405.21513939 -43.68211365 406.41896057 C-43.67008886 408.96700781 -43.6763398 411.51445393 -43.6875 414.0625 C-43.69073273 415.36111969 -43.69073273 415.36111969 -43.69403076 416.68597412 C-43.74357805 429.00835592 -43.95434495 440.9953907 -47 453 C-47.18804199 453.77794922 -47.37608398 454.55589844 -47.56982422 455.35742188 C-51.61231422 471.63029332 -59.34002397 498.22668265 -74 508 C-77.99460923 508.70413451 -82.19004979 509.08917358 -85.765625 506.9375 C-88.28946471 504.26861203 -89.00083681 501.99358445 -89.46875 498.40625 C-89.32500783 492.76534096 -86.29927604 488.65100778 -83.375 484 C-73.73850468 467.88845608 -67.82171418 450.7681182 -66 432 C-65.90050049 430.98470215 -65.80100098 429.9694043 -65.69848633 428.92333984 C-64.06695513 415.06809831 -64.06695513 415.06809831 -67.10449219 401.85498047 C-70.0803142 398.41527429 -73.86851842 396.40461815 -77.83837891 394.28710938 C-81.9790777 391.82158373 -85.49324503 388.52207547 -89.125 385.375 C-90.53710837 384.16606248 -91.95595183 382.96492757 -93.3828125 381.7734375 C-93.98496582 381.26216309 -94.58711914 380.75088867 -95.20751953 380.22412109 C-97.18609414 378.87291256 -98.61807309 378.26050426 -101 378 C-103.36143712 379.90372844 -103.36143712 379.90372844 -105.625 382.5625 C-114.57046035 391.94144081 -125.53922632 397.46116075 -138.56640625 398.203125 C-155.23462941 398.39864668 -168.58910156 394.6836007 -181.05078125 383.02734375 C-188 375.7995992 -188 375.7995992 -188 372 C-188.8971875 372.04640625 -189.794375 372.0928125 -190.71875 372.140625 C-209.93328828 372.69641743 -228.08812404 366.7391344 -242.7734375 354.04296875 C-243.50820312 353.36878906 -244.24296875 352.69460938 -245 352 C-246.13308594 351.00419922 -246.13308594 351.00419922 -247.2890625 349.98828125 C-260.93509707 337.30356526 -270.07477713 318.56884461 -271.11669922 299.91015625 C-271.71550547 285.77713716 -269.83587398 273.35622338 -265 260 C-265.4125 259.64550781 -265.825 259.29101562 -266.25 258.92578125 C-277.10745996 248.91656035 -285.13828765 233.33021233 -286.17700195 218.46728516 C-286.70676065 195.31408631 -283.26535426 176.69160734 -267 159 C-258.18574851 150.07397358 -247.85006915 144.07627949 -236 140 C-235.01 140 -234.02 140 -233 140 C-232.91363281 139.35675781 -232.82726562 138.71351563 -232.73828125 138.05078125 C-229.6288032 118.05312883 -218.73304112 98.19935487 -202.4609375 85.83007812 C-197.89221131 82.50978293 -193.28527645 79.17519202 -188.2578125 76.58984375 C-185.32479561 74.52455331 -184.74632022 72.73132547 -183.5625 69.375 C-178.42509813 56.13262872 -169.78817636 46.33766976 -157 40 C-141.08858834 33.30608622 -126.23402494 33.58865835 -110 39 C-109.28714844 38.07058594 -108.57429687 37.14117187 -107.83984375 36.18359375 C-82.5389885 3.40637788 -41.15437176 -14.78079549 0 0 Z M-85.0625 41 C-89.34121454 45.96082845 -92.48730092 51.62771717 -95.67602539 57.32421875 C-96.07942139 58.04222656 -96.48281738 58.76023438 -96.8984375 59.5 C-97.25599121 60.1496875 -97.61354492 60.799375 -97.98193359 61.46875 C-99 63 -99 63 -101 64 C-107.8884678 65.17282103 -111.96365797 63.18084206 -117.671875 59.46875 C-124.85749128 54.93554241 -133.73636899 54.93149725 -141.8671875 56.58203125 C-150.16971508 59.15746119 -156.81347419 64.19346587 -161.62890625 71.45703125 C-163.83876648 75.64587078 -165.27340707 79.81046567 -166.5 84.375 C-167.38548368 87.47661222 -167.8773982 88.86253738 -170.0625 91.3125 C-172.57282232 92.75460006 -175.07861032 94.00280353 -177.6875 95.25 C-192.21043564 102.32804292 -203.69059609 115.36460944 -209.2890625 130.48046875 C-214.73569729 147.81957592 -214.65407091 164.729046 -207.4921875 181.5390625 C-203.20991383 190.04385719 -197.70958514 197.34489615 -190.15625 203.20703125 C-182.82063851 208.99467096 -180.67141237 213.71300879 -178.63305664 222.52075195 C-177.23930917 228.51405534 -175.48456864 232.64325754 -171 237 C-170.42636719 237.62003906 -169.85273438 238.24007812 -169.26171875 238.87890625 C-163.27319132 244.81783925 -155.38530427 248.0211811 -146.9375 248.4375 C-139.20002561 247.57778062 -133.1259579 246.10748944 -126.875 241.3125 C-122.85429347 238.30176427 -120.0366755 236.9630689 -114.9765625 237.47265625 C-111.20477268 238.47896381 -110.07297705 239.67067322 -108 243 C-107.33272935 246.22803009 -106.91343975 249.44401313 -106.5078125 252.71484375 C-105.01189845 262.39225696 -99.50700566 268.6148053 -92.6875 275.25 C-84.85989781 280.34704329 -77.30121107 282.17919623 -68 281 C-61.25494279 279.3970358 -55.90254243 276.65801302 -50.55859375 272.26953125 C-45.44773584 268.10655175 -36.64025005 269.60886141 -30.30859375 269.54003906 C-28.45025702 269.51354678 -26.592064 269.4727491 -24.734375 269.41699219 C-13.3265446 269.0788315 -5.82916352 269.03955161 3 277 C11.07016109 281.4243929 18.8535019 282.26965966 27.85546875 280.41015625 C36.43273257 277.78495703 42.88432345 272.61868407 47.88671875 265.203125 C51.38521221 258.79910307 52.57324 252.98598887 53.46875 245.8046875 C54 243 54 243 56.0625 239.6875 C59.46883101 237.73067155 61.6490759 237.17104115 65.546875 237.37109375 C69.49566415 238.38344256 72.25982077 240.79347126 75.45703125 243.2421875 C81.41470317 247.3603939 88.83352875 248.97910044 96 248 C106.49985886 245.95124705 114.32666522 240.95905513 120.56640625 232.26953125 C124.14719249 226.60076611 125.0626262 221.6540618 125.75 215 C126.66933419 207.92414098 128.8497368 204.7252906 134 200 C146.08506427 188.15615458 152.69328557 172.67854153 153.39794922 155.80126953 C153.72580129 137.76131061 147.2203473 121.27614936 135 108 C129.63748901 102.56848611 123.84429369 98.42678994 117.28515625 94.54296875 C115 93 115 93 113 90 C112.65022187 88.28164554 112.36510375 86.54957714 112.125 84.8125 C110.58500701 75.87818954 106.71402007 69.14793602 100 63 C97.12104767 61.01883942 94.17466935 59.45211728 91 58 C90.071875 57.566875 89.14375 57.13375 88.1875 56.6875 C79.03403345 54.7132229 70.29088958 55.56193558 62 60 C60.25783139 61.3748439 58.54903777 62.79296713 56.875 64.25 C52.88992738 67.63952918 50.32673464 68.87728721 45.10546875 68.76953125 C40.74005537 67.1740091 38.43498781 63.80811955 36.296875 59.8359375 C35.78640625 58.69382813 35.2759375 57.55171875 34.75 56.375 C26.82896401 39.62048814 12.70258979 27.47787864 -4.390625 20.64453125 C-33.77686489 10.61991493 -63.62950418 18.83973685 -85.0625 41 Z M-251.8984375 173.74609375 C-261.86307528 184.43307516 -265.62882311 196.66336084 -265.47290039 210.98999023 C-264.9847816 224.2300471 -259.68257322 235.50629329 -250.375 244.875 C-248.19470885 246.94818913 -246.0032941 248.99705083 -243.76171875 251.00390625 C-241.21721922 253.88692013 -241.38122851 255.73795579 -241.5390625 259.453125 C-242.24302814 263.34283343 -243.96291473 266.59644607 -245.6875 270.12890625 C-251.76783106 283.42963045 -251.39846364 297.69619876 -247.24609375 311.50390625 C-241.537759 327.5194536 -230.51530166 338.56993415 -215.58984375 346.23828125 C-205.84019802 350.83717075 -196.85521412 351.33635425 -186.22460938 351.30273438 C-178.74291275 351.45442345 -178.74291275 351.45442345 -175 354.203125 C-173.07832472 356.89046777 -171.32686674 359.56962519 -169.6875 362.4375 C-165.1720094 369.68374086 -159.74691537 374.1674735 -151.47265625 376.5234375 C-141.80846355 378.38604652 -133.49766593 377.02460303 -125 372 C-122.05660429 369.54262796 -119.47092459 366.92877238 -117 364 C-118.11726439 360.64820682 -118.95449967 359.98292595 -121.625 357.8125 C-133.47941461 347.62742363 -141.11564734 334.68364778 -143 319 C-143.59913601 310.41132674 -143.60332694 301.79313545 -143.6875 293.1875 C-143.72072575 290.83787218 -143.75522013 288.48826195 -143.79101562 286.13867188 C-143.87531484 280.42590184 -143.94391215 274.71311305 -144 269 C-145.22251465 268.81026611 -146.4450293 268.62053223 -147.70458984 268.42504883 C-149.33175664 268.16519487 -150.95886972 267.90500447 -152.5859375 267.64453125 C-153.38894287 267.52082153 -154.19194824 267.39711182 -155.01928711 267.26965332 C-169.73017165 264.89028203 -180.65963427 257.93515832 -190 246.4375 C-194.09154575 240.8734185 -196.73360722 234.34620008 -198.66015625 227.734375 C-200.27765206 222.29273345 -203.16820204 219.8962069 -207.46875 216.30078125 C-220.50822558 204.44854187 -228.02599697 187.87905499 -232 171 C-232.22429687 170.05253906 -232.44859375 169.10507813 -232.6796875 168.12890625 C-233.14380091 166.09125767 -233.57658759 164.04649332 -234 162 C-239.80720469 162 -247.87101124 169.99617566 -251.8984375 173.74609375 Z M-83 301 C-83.51946657 305.15573258 -83.87000564 307.97887636 -83 312 C-80.11110135 315.3479872 -76.67208235 317.5775218 -73 320 C-71.81759874 320.98134518 -70.6475168 321.97808205 -69.5 323 C-67.27330408 325.20823168 -67.27330408 325.20823168 -65 325 C-65 317.08 -65 309.16 -65 301 C-70.94 301 -76.88 301 -83 301 Z "
     fill="#000000"
     id="path1"
     transform="translate(286,4)" />
  <path
     d="M0 0 C2.51811313 2.57953052 3.84513618 4.35134561 4.1875 7.99609375 C3.96002545 11.75653234 3.11413494 13.82879759 1 17 C-2.5498867 19.36659113 -4.65800014 19.66380999 -8.84375 19.43359375 C-12.03012361 18.79285558 -13.80330678 17.33398654 -16 15 C-17.6165224 11.76695521 -17.58353762 8.49474199 -17 5 C-15.3792422 1.97242443 -13.40263399 -0.49254299 -10.078125 -1.6953125 C-6.44055839 -2.22863993 -3.3398937 -1.48212052 0 0 Z "
     fill="#000000"
     transform="translate(481,327)"
     id="path2" />
</svg>
