<?xml version="1.0" encoding="UTF-8" standalone="no"?>
<svg
   version="1.0"
   width="1276.000000pt"
   height="1276.000000pt"
   viewBox="0 0 1276.000000 1276.000000"
   preserveAspectRatio="xMidYMid meet"
   id="svg3"
   sodipodi:docname="safari-pinned-tab.svg"
   inkscape:version="1.3.2 (091e20e, 2023-11-25, custom)"
   xmlns:inkscape="http://www.inkscape.org/namespaces/inkscape"
   xmlns:sodipodi="http://sodipodi.sourceforge.net/DTD/sodipodi-0.dtd"
   xmlns="http://www.w3.org/2000/svg"
   xmlns:svg="http://www.w3.org/2000/svg">
  <defs
     id="defs3" />
  <sodipodi:namedview
     id="namedview3"
     pagecolor="#505050"
     bordercolor="#ffffff"
     borderopacity="1"
     inkscape:showpageshadow="0"
     inkscape:pageopacity="0"
     inkscape:pagecheckerboard="1"
     inkscape:deskcolor="#505050"
     inkscape:document-units="pt"
     inkscape:zoom="0.50019592"
     inkscape:cx="850.66667"
     inkscape:cy="850.66667"
     inkscape:window-width="1920"
     inkscape:window-height="1177"
     inkscape:window-x="-8"
     inkscape:window-y="-8"
     inkscape:window-maximized="1"
     inkscape:current-layer="svg3" />
  <metadata
     id="metadata1">
Created by potrace 1.14, written by Peter Selinger 2001-2017
</metadata>
  <g
     transform="translate(0.000000,1276.000000) scale(0.100000,-0.100000)"
     fill="#000000"
     stroke="none"
     id="g3">
    <path
       d="M4944 10133 c-17 -27 -39 -63 -50 -80 -10 -18 -22 -33 -26 -33 -4 0 -8 -5 -8 -10 0 -9 -108 -179 -121 -190 -3 -3 -14 -21 -25 -40 -10 -19 -23 -39 -27 -45 -5 -5 -82 -122 -173 -260 -90 -137 -168 -257 -174 -265 -5 -8 -35 -53 -65 -100 -30 -47 -59 -92 -65 -100 -52 -76 -227 -347 -227 -354 -1 -5 -5 -12 -10 -15 -14 -9 -73 -98 -73 -110 0 -6 -4 -11 -9 -11 -5 0 -14 -13 -21 -30 -7 -16 -16 -30 -20 -30 -3 0 -13 -12 -21 -27 -16 -33 -49 -82 -66 -101 -7 -7 -13 -20 -13 -28 0 -8 -3 -14 -8 -14 -4 0 -23 -26 -41 -57 -19 -32 -37 -60 -40 -63 -9 -8 -51 -69 -51 -74 0 -2 -50 -80 -112 -173 -178 -268 -263 -397 -266 -406 -3 -6 -130 -199 -162 -247 -6 -8 -43 -64 -82 -125 -195 -298 -288 -441 -295 -450 -5 -5 -33 -49 -63 -97 -30 -49 -58 -88 -62 -88 -5 0 -8 -5 -8 -12 0 -6 -11 -26 -25 -44 -14 -18 -25 -36 -25 -39 0 -3 -11 -21 -25 -39 -14 -18 -25 -38 -25 -44 0 -6 -4 -12 -8 -14 -5 -1 -30 -37 -57 -78 -27 -41 -93 -142 -147 -223 -54 -82 -98 -151 -98 -154 0 -3 -14 -23 -31 -44 -17 -21 -27 -39 -22 -39 4 0 3 -4 -3 -8 -10 -7 -36 -46 -255 -382 -48 -74 -92 -139 -96 -145 -4 -5 -14 -22 -22 -37 -8 -16 -18 -28 -23 -28 -4 0 -8 -4 -8 -9 0 -10 -118 -192 -149 -231 -12 -14 -21 -28 -21 -32 0 -4 -25 -44 -55 -88 -30 -44 -55 -82 -55 -84 0 -2 -52 -81 -115 -176 -63 -95 -115 -174 -115 -175 0 -3 -167 -257 -178 -270 -4 -5 -19 -28 -32 -50 -13 -22 -28 -41 -32 -43 -4 -2 -8 -7 -8 -12 0 -7 -96 -157 -140 -220 -6 -8 -35 -53 -65 -100 -29 -47 -58 -90 -63 -96 -5 -5 -15 -21 -22 -34 -7 -13 -17 -29 -22 -34 -5 -6 -53 -78 -107 -161 -53 -82 -137 -211 -186 -285 -48 -74 -113 -173 -144 -220 -30 -47 -61 -91 -68 -98 -7 -7 -13 -18 -13 -23 0 -5 -15 -30 -34 -56 -18 -27 -41 -60 -50 -74 l-16 -26 1547 1 1547 1 113 190 c62 105 124 213 139 240 15 28 29 52 33 55 3 3 17 25 30 50 14 25 49 85 78 134 29 49 53 92 53 97 0 5 5 9 10 9 6 0 9 3 8 8 -1 4 10 26 25 49 15 24 27 44 27 46 0 3 32 57 70 121 39 65 70 121 70 127 0 5 5 9 10 9 6 0 10 4 10 9 0 10 76 147 95 171 7 8 25 40 41 70 16 30 31 57 35 60 3 3 29 48 59 100 30 52 57 97 60 100 3 3 12 20 19 38 8 17 16 32 20 32 4 0 12 12 18 28 7 15 18 36 25 47 30 46 78 126 78 130 0 2 43 76 95 164 52 88 95 165 95 171 0 5 4 10 8 10 4 0 18 19 30 43 12 23 33 60 47 82 14 22 28 46 32 54 3 8 30 54 60 103 29 49 53 93 53 98 0 6 3 10 8 10 4 0 12 10 18 23 18 38 66 121 85 149 11 14 19 28 19 31 0 2 50 90 112 193 61 104 116 198 122 209 18 33 160 274 178 303 9 15 23 38 31 52 22 40 51 89 106 182 28 48 51 91 51 97 0 6 4 11 8 11 4 0 18 19 30 43 22 41 29 54 87 152 44 72 47 78 81 137 56 97 71 122 133 226 33 56 61 105 61 109 0 4 6 14 14 22 7 9 28 43 46 76 18 33 39 68 48 78 8 9 11 17 6 17 -5 0 -4 4 1 8 6 4 16 18 24 32 8 14 107 183 220 375 112 193 214 367 225 387 12 21 23 38 26 38 3 0 17 -20 30 -44 14 -25 56 -98 94 -163 67 -115 90 -155 118 -204 7 -13 18 -31 24 -39 6 -8 23 -35 36 -60 37 -67 60 -107 112 -193 25 -43 46 -80 46 -82 0 -2 14 -24 30 -48 17 -25 30 -50 30 -56 0 -6 5 -11 12 -11 6 0 8 -3 5 -6 -4 -4 2 -19 12 -33 15 -21 252 -425 321 -545 9 -17 63 -109 119 -204 55 -95 101 -177 101 -182 0 -4 3 -10 8 -12 9 -4 92 -147 92 -159 0 -5 5 -9 10 -9 6 0 10 -6 10 -14 0 -7 7 -19 15 -26 8 -7 12 -16 9 -21 -3 -5 0 -9 5 -9 6 0 11 -4 11 -9 0 -4 50 -93 111 -197 62 -104 121 -205 132 -224 10 -19 47 -82 81 -140 33 -57 66 -112 71 -122 6 -9 32 -54 59 -100 26 -46 59 -103 73 -126 14 -24 38 -65 53 -90 16 -26 37 -63 46 -82 10 -19 20 -37 23 -40 8 -6 29 -41 38 -60 7 -15 151 -261 184 -315 10 -16 22 -37 26 -45 3 -8 18 -33 32 -55 14 -22 26 -42 26 -45 0 -3 8 -16 17 -30 8 -14 44 -74 79 -135 35 -60 69 -119 76 -130 7 -11 15 -27 19 -35 4 -8 22 -37 39 -65 17 -27 58 -96 91 -153 32 -57 69 -120 81 -140 13 -20 28 -49 35 -64 7 -16 16 -28 20 -28 4 0 8 -5 8 -10 0 -6 18 -40 40 -76 22 -36 40 -68 40 -69 0 -2 22 -40 50 -85 28 -45 50 -83 50 -86 0 -2 18 -33 40 -68 22 -35 40 -68 40 -75 0 -6 5 -11 10 -11 6 0 10 -4 10 -10 0 -5 20 -42 43 -82 80 -133 144 -242 169 -288 14 -25 46 -80 72 -122 l47 -78 1551 0 1550 0 -24 32 c-14 18 -28 43 -32 56 -4 12 -11 22 -15 22 -3 0 -15 15 -26 32 -10 18 -54 86 -97 151 -43 65 -78 122 -78 127 0 4 -4 10 -8 12 -4 2 -19 21 -32 43 -13 22 -28 45 -33 50 -10 13 -197 298 -197 302 0 1 -20 31 -45 66 -25 36 -45 68 -45 71 0 4 -5 12 -11 19 -18 21 -77 111 -94 145 -10 17 -21 32 -26 32 -5 0 -9 4 -9 10 0 12 -101 164 -112 168 -4 2 -8 9 -8 15 0 10 -37 68 -111 177 -72 106 -267 409 -272 423 -3 9 -11 17 -17 17 -5 0 -10 5 -10 11 0 7 -16 34 -35 60 -19 27 -35 54 -35 59 0 6 -4 10 -10 10 -5 0 -10 4 -10 9 0 11 -82 135 -92 139 -4 2 -8 8 -8 13 0 5 -48 82 -107 171 -60 89 -110 167 -113 173 -3 5 -49 76 -103 156 -53 81 -97 151 -97 157 0 6 -4 12 -8 14 -10 3 -112 156 -112 166 0 4 -14 23 -30 42 -16 19 -30 40 -30 46 0 6 -9 19 -20 29 -11 10 -20 24 -20 32 0 7 -4 13 -10 13 -5 0 -10 4 -10 10 0 5 -49 84 -110 175 -60 92 -110 170 -110 175 0 4 -3 10 -8 12 -4 2 -41 55 -82 118 -41 63 -118 182 -172 264 -54 81 -98 152 -98 157 0 5 -3 9 -8 9 -4 0 -18 20 -32 45 -14 25 -28 45 -32 45 -5 0 -8 6 -8 13 0 8 -9 22 -20 32 -11 10 -20 22 -20 27 0 12 -61 102 -72 106 -4 2 -8 8 -8 13 0 6 -18 37 -40 69 -22 32 -40 62 -40 65 0 3 -9 15 -19 27 -11 11 -26 32 -33 47 -19 37 -72 115 -80 119 -5 2 -8 8 -8 14 0 5 -8 20 -17 33 -20 26 -15 18 -125 185 -45 69 -82 127 -83 130 0 3 -12 21 -28 41 -15 20 -27 40 -27 46 0 5 -9 18 -20 28 -11 10 -20 24 -20 32 0 7 -4 13 -10 13 -5 0 -10 4 -10 9 0 10 -63 106 -88 135 -10 10 -17 21 -16 25 1 8 -149 235 -158 239 -5 2 -8 8 -8 12 0 5 -61 103 -136 217 -75 114 -176 269 -225 343 -49 74 -93 140 -99 147 -5 7 -10 14 -10 17 0 5 -91 145 -181 279 -21 32 -39 61 -39 66 0 4 -9 16 -20 26 -11 10 -20 24 -20 32 0 7 -3 13 -7 13 -5 0 -24 27 -43 60 -19 33 -38 60 -42 60 -5 0 -8 4 -8 9 0 6 -44 77 -98 158 -54 81 -112 171 -130 198 -17 28 -35 55 -40 60 -4 6 -23 35 -41 65 -19 30 -36 57 -40 60 -3 3 -11 14 -17 25 -11 20 -23 20 -1420 23 l-1409 2 -31 -47z"
       id="path1"
       style="fill:#000000;fill-opacity:1" />
    <path
       d="M6367 6568 c-30 -46 -153 -253 -160 -268 -4 -8 -32 -55 -62 -104 -30 -49 -55 -90 -55 -92 0 -1 -27 -46 -60 -99 -33 -53 -60 -97 -60 -99 0 -5 -189 -321 -199 -333 -6 -7 -11 -14 -11 -17 0 -6 -102 -180 -109 -186 -3 -3 -14 -21 -25 -40 -46 -87 -70 -125 -78 -128 -4 -2 -8 -7 -8 -12 0 -9 -71 -132 -80 -140 -4 -3 -13 -20 -21 -37 -8 -18 -17 -33 -21 -33 -5 0 -8 -4 -8 -9 0 -4 -31 -61 -70 -125 -38 -65 -70 -121 -70 -125 0 -4 -9 -16 -20 -26 -11 -10 -20 -22 -20 -27 0 -5 -27 -53 -60 -107 -33 -55 -60 -101 -60 -103 0 -2 572 -4 1270 -4 699 0 1270 2 1270 5 -1 3 -12 24 -25 46 -13 22 -41 69 -61 105 -21 36 -41 67 -46 68 -4 2 -8 7 -8 12 0 11 -192 333 -203 341 -5 3 -7 8 -6 10 2 2 -71 128 -161 279 -91 151 -170 286 -177 299 -7 13 -33 56 -58 95 -25 40 -45 76 -45 80 0 4 -5 12 -10 19 -12 14 -177 284 -187 307 -4 8 -17 32 -30 53 -13 21 -32 53 -43 71 -10 18 -24 44 -32 57 -7 13 -16 26 -19 29 -4 3 -16 23 -28 45 -12 22 -26 47 -31 55 -5 8 -30 48 -54 88 -44 73 -45 73 -59 50z"
       id="path2" />
    <path
       d="M4538 3481 c-16 -5 -29 -20 -46 -50 -39 -67 -53 -92 -91 -156 -22 -38 -45 -77 -51 -85 -26 -38 -120 -202 -120 -209 0 -4 -9 -16 -20 -26 -11 -10 -20 -22 -20 -26 0 -5 -18 -38 -40 -74 -22 -36 -40 -68 -40 -72 0 -3 -11 -21 -25 -39 -14 -18 -25 -35 -25 -38 0 -3 -13 -28 -30 -54 -16 -27 -30 -52 -30 -56 0 -3 1071 -6 2380 -6 1309 0 2380 3 2380 8 0 7 -141 247 -157 267 -4 6 -15 24 -23 40 -8 17 -17 32 -20 35 -3 3 -12 19 -20 35 -8 17 -17 32 -20 35 -5 5 -27 41 -70 115 -9 17 -62 104 -116 195 l-99 165 -1210 0 c-665 0 -1215 -4 -1221 -7 -6 -4 -14 -5 -18 -1 -9 9 -317 10 -323 0 -2 -4 -12 -3 -21 1 -9 4 -62 7 -117 5 -124 -3 -98 -3 -243 0 -68 1 -126 -1 -128 -5 -3 -4 -15 -4 -27 0 -28 10 -229 8 -245 -2 -6 -4 -12 -4 -12 1 0 8 -110 11 -132 4z"
       id="path3" />
  </g>
</svg>
