<?xml version="1.0" encoding="UTF-8"?>
<svg id="Ebene_2" data-name="Ebene 2" xmlns="http://www.w3.org/2000/svg" viewBox="0 0 316.5 78.58">
  <defs>
    <style>
      .cls-1 {
        fill: #5c5b5b;
      }

      .cls-2 {
        fill: #50504f;
      }

      .cls-3 {
        fill: #5d5d5c;
      }

      .cls-4 {
        fill: #626261;
      }

      .cls-5 {
        fill: #616060;
      }

      .cls-6 {
        fill: #646463;
      }

      .cls-7 {
        fill: #505050;
      }

      .cls-8 {
        fill: #605f5f;
      }

      .cls-9 {
        fill: #504f4f;
      }

      .cls-10 {
        fill: #515050;
      }

      .cls-11 {
        fill: #e31718;
      }

      .cls-12 {
        fill: #f3e3e4;
      }

      .cls-13 {
        fill: #fffefe;
      }

      .cls-14 {
        fill: #d41417;
      }

      .cls-15 {
        fill: #e52420;
      }

      .cls-16 {
        fill: #e4e7e8;
      }

      .cls-17 {
        fill: #5f5f5e;
      }

      .cls-18 {
        fill: #616160;
      }
    </style>
  </defs>
  <g id="Ebene_1-2" data-name="Ebene 1">
    <g>
      <g>
        <path class="cls-7" d="M154.17,38.18l-.36.19.36.19c.03.37-.01.74,0,1.11l-.37,4.45-20.39.37c-.08,3.55.15,10.59,4.24,11.88,4.64,1.47,7.76-1.5,8.37-5.94l7.61,1.09c-.86,13.11-19.68,16.11-26.08,5.68-5.82-9.49-4.41-33.16,9.75-34.57,10.9-1.09,15.93,5.36,16.86,15.56ZM145.65,38.55c-.36-4.06-.82-9.79-6.12-9.66s-5.45,5.6-6.11,9.66h12.23Z"/>
        <path class="cls-10" d="M187.9,31.51l.37,4.45h-7.41c-.54-.51-.94-2.96-1.41-3.96-1.99-4.2-7.02-4.12-9.17-.13s-2.21,16.96-.35,21.14c2.79,6.27,11.16,3.16,10.93-3.34h8.52c-1.33,10.05-8.82,15.64-18.91,13.17-10.64-2.6-11.53-16.22-10.73-25.21.94-10.55,8.96-17.5,19.56-14.75,4.52,1.18,7.3,4.25,8.6,8.63Z"/>
        <path class="cls-10" d="M233.48,30.4h-6.3v-7.04h5.93v-8.34c.23-.37.51-.48.93-.56,2.17-.4,5.59.17,7.97-.37.11,3.07-.15,6.2,0,9.27.01.25-.02.5,0,.74h7.41v5.93l-7.04.37-.37.37c-.49.31-.36.8-.39,1.26-.55,6.54.48,13.84,0,20.46-.14.43.32.71.39.89,1.39,3.33,4.8,2.55,7.78,2.59.04,1.42-.05,2.86-.02,4.28.02.88.79,2.03-.23,2.33-1.43.42-5.06.54-6.63.44-4.75-.28-8.79-2.31-9.44-7.43v-25.2Z"/>
        <path class="cls-9" d="M109.33,28.91c3.31-4.31,6.75-7.14,12.6-6.3v8.89c-7.59-1.74-11.36,1.33-11.86,8.89-1.12-.21-.71.57-.74,1.28-.27,6.72.2,13.5,0,20.21h-7.41V24.1h7.04v4.63s.37.19.37.19Z"/>
        <path class="cls-1" d="M54.85,9.64v52.63h-9.64V9.64h9.64ZM54.11,10.01h-8.15v51.89h8.15V10.01Z"/>
        <path class="cls-3" d="M110.07,40.4c-.41,6.3.54,13.24.01,19.47-.08.98-.18,2.05-.94,2.77h-7.41l-.56-.56V23.73c.47.2,1.1-.37,1.3-.37h5.93c.23,0,.56.29.92,0v5.56s-.36-.19-.36-.19v-4.63h-7.04v37.8h7.41c.2-6.72-.27-13.5,0-20.21.03-.71-.38-1.49.74-1.28Z"/>
        <path class="cls-17" d="M249.42,23.73h.37v6.67s-7.41,0-7.41,0l7.04-.37v-5.93h-7.41c-.02-.25.01-.5,0-.74l7.41.37Z"/>
        <path class="cls-17" d="M154.17,39.66c.05,1.6-.04,3.22,0,4.82h-20.76s20.39-.37,20.39-.37l.37-4.45Z"/>
        <path class="cls-8" d="M242.01,53.37c-.07-.18-.54-.45-.39-.89.47-6.62-.55-13.93,0-20.46.04-.46-.09-.95.39-1.26v22.61Z"/>
        <g>
          <path class="cls-2" d="M203.83,9.64l.37,17.05c2.17-1.97,4.57-3.76,7.6-4.07,7.74-.79,11.47,2.01,12.05,9.8.71,9.5-.56,19.88-.01,29.48h-8.16s.02-23.94.02-23.94c.16-.38-.38-.81-.39-.89-.13-1.01-.26-2.34-.46-3.43-.82-4.48-5.5-5.17-8.79-2.66-.93.71-.73,1.02-1.87,1.65-.5.28-.34.43-.39.9l.02,28.38h-8.15V9.64h8.15Z"/>
          <path class="cls-5" d="M195.68,9.64v52.26h8.15l-.02-28.38c.05-.47-.11-.62.39-.9l.02,28.74-.57,1.28h-8.34l.37-53Z"/>
          <path class="cls-4" d="M215.32,37.07c.01.08.55.51.39.89l-.02,23.95h8.16c-.13.53-.43.65-.93.73-2.18.39-5.3-.28-7.6,0v-25.57Z"/>
          <path class="cls-6" d="M204.21,26.69l-.37-17.05.37,17.05Z"/>
        </g>
        <path class="cls-8" d="M187.9,31.51c.49,1.64.99,3.03.74,4.82-1.61-.29-6.83.54-7.78-.37h7.41s-.37-4.45-.37-4.45Z"/>
        <g>
          <path class="cls-10" d="M12.6,50.04l-2.59,12.23H0L13.56,9.62l12.74.04,12.99,52.61h-10.01l-2.59-12.23c-.12-.46-.53-.35-.89-.39-3.91-.45-8.65.38-12.66.01l-.53.38ZM24.83,42.26l-5-22.98-5.37,22.98h10.38Z"/>
          <path class="cls-4" d="M26.68,50.04h-14.08l.53-.38c4.01.37,8.75-.46,12.66-.01.37.04.77-.07.89.39Z"/>
        </g>
        <polygon class="cls-10" points="249.79 23.73 249.42 23.73 249.6 23.36 249.79 23.73"/>
        <path class="cls-17" d="M154.17,38.55l-.36-.19.36-.19c.01.12,0,.25,0,.37Z"/>
        <rect class="cls-9" x="45.96" y="10.01" width="8.15" height="51.89"/>
        <g>
          <path class="cls-10" d="M64.12,9.64h8.52v17.42l3.36-3.13c9.84-4.33,16.29,1.06,17.97,10.89,1.51,8.85,1.04,25.28-9.68,28.16-3.88,1.04-9.38.03-11.66-3.31l-.72.26c.12.53-.24.85-.38,1.22-.35.7-.51.71-1.26.77-2,.14-4.14-.15-6.15-.02V9.64ZM78.12,28.99c-2.83.22-4.83,2.81-5.31,5.46-.58,3.18-.49,14.82.37,17.82,1.59,5.54,8.85,5.33,10.87.09,1.67-4.31,1.74-15.21,0-19.49-1-2.45-3.18-4.11-5.93-3.89Z"/>
          <path class="cls-18" d="M64.12,9.64v52.26c2.01-.13,4.15.16,6.15.02.75-.05.91-.06,1.26-.77-.16.41.22,1.16-.6,1.43l-7.18.05.37-53Z"/>
        </g>
      </g>
      <g>
        <path class="cls-11" d="M309.09,0v.75c-16.92.15-33.86-.11-50.78,0v77.09c-.19-.06-.51.04-.75,0V0s51.52,0,51.52,0Z"/>
        <path class="cls-15" d="M309.09,0h7.41,0s0,78.58,0,78.58h0s-58.93,0-58.93,0v-.75c.24.04.56-.06.75,0,.3.09.71.58,1.25.4l56.56-.03V.75s-.19-.36-.19-.36l-.18.36c-2.18-.41-4.41-.02-6.67,0V0Z"/>
        <path class="cls-14" d="M315.76.75h.37v77.46s-56.56.03-56.56.03c-.55.18-.95-.3-1.25-.4V.75c16.91-.11,33.86.15,50.77,0,2.26-.02,4.49-.41,6.67,0ZM269.8,30.4c-.36.1-.35.43-.37.74-.04.73,0,1.49,0,2.22,0,.86,0,1.73,0,2.59,0,.37,0,.74,0,1.11.02,1.35-.08,2.73,0,4.08.61,9.79,3.59,18.7,14.36,20.66,1.22.22,2.78-.17,3.79.29,1.61.73,6.09,6.6,8.19,8.11.3.22.56.48.96.52,1.25.12,5.48-4.46,6.78-5.34l-6.65-6.26c3.28-2.45,5.35-5.98,6.34-9.96.45-1.8.93-4.35,1.07-6.16.22-3.05.04-6.71,0-9.83,0-.63.24-1.65-.38-2.03-.38-11.78-3.24-20.72-16.85-21.14-13.11-.4-16.64,9.34-17.25,20.4Z"/>
        <polygon class="cls-11" points="316.13 .75 315.76 .75 315.94 .38 316.13 .75"/>
        <g>
          <path class="cls-13" d="M303.9,31.14c.11,3.26-.05,6.56,0,9.83,0,.63-.24,1.65.38,2.03-.13,1.81-.62,4.37-1.07,6.16-1,3.98-3.06,7.51-6.34,9.96l6.65,6.26c-1.3.88-5.53,5.46-6.78,5.34-.4-.04-.65-.3-.96-.52-2.1-1.51-6.58-7.37-8.19-8.11-1.01-.46-2.57-.07-3.79-.29-10.78-1.96-13.76-10.86-14.36-20.66.62-.87.63-3.14,0-4.08,0-.37,0-.74,0-1.11.61-.47.61-2.13,0-2.59,0-.74-.04-1.49,0-2.22.36-.1.35-.43.37-.74.61-11.06,4.13-20.8,17.25-20.4,13.6.42,16.46,9.35,16.85,21.14ZM281.41,52.52c2.39,2.85,8.79,2.72,11-.44,2.44-3.47,2.42-15.23,2.24-19.66-.12-2.88-.45-8.95-1.55-11.42-2.24-4.96-10.82-4.71-12.73.5-2.05,5.58-1.85,22.83,0,28.55.23.71.6,1.93,1.05,2.47Z"/>
          <path class="cls-16" d="M304.27,43c-.61-.39-.37-1.41-.38-2.03-.04-3.27.11-6.56,0-9.83.61.39.37,1.41.38,2.03.04,3.12.22,6.77,0,9.83Z"/>
          <path class="cls-12" d="M269.43,41.14c-.08-1.34.02-2.73,0-4.08.63.94.62,3.21,0,4.08Z"/>
          <path class="cls-12" d="M269.43,35.96c0-.86,0-1.73,0-2.59.61.47.61,2.13,0,2.59Z"/>
          <path class="cls-12" d="M269.43,31.14c.02-.31.01-.64.37-.74-.02.31-.02.64-.37.74Z"/>
        </g>
        <path class="cls-14" d="M281.41,52.52c-.45-.54-.83-1.76-1.05-2.47-1.84-5.71-2.04-22.96,0-28.55,1.91-5.21,10.5-5.46,12.73-.5,1.11,2.46,1.44,8.53,1.55,11.42.18,4.43.21,16.19-2.24,19.66-2.22,3.15-8.62,3.29-11,.44Z"/>
      </g>
    </g>
  </g>
</svg>