<?xml version="1.0" encoding="UTF-8"?>
<svg id="Ebene_2" xmlns="http://www.w3.org/2000/svg" version="1.1" viewBox="0 0 909.5 239.5">
  <!-- Generator: Adobe Illustrator 29.4.0, SVG Export Plug-In . SVG Version: 2.1.0 Build 152)  -->
  <defs>
    <style>
      .st0, .st1 {
        fill: #499239;
      }

      .st1 {
        stroke: #499239;
        stroke-miterlimit: 10;
      }

      .st2 {
        fill: #49923a;
      }

      .st3 {
        fill: #fefefe;
      }

      .st4 {
        fill: #204582;
      }
    </style>
  </defs>
  <g id="Ebene_1-2">
    <g>
      <g>
        <g>
          <g>
            <path class="st4" d="M262.6,0l10.6,4.9c3.7,4.6,4.7,9.7,4.3,15.6l-5.9,26.6h33.1c2.4,0,8.7,3.1,10.6,4.8,2.3,2.1,5.5,9.7,5.2,12.8-.1,1.5-2.8,8-3.7,9.5-2.7,4.4-7.2,6.5-12.2,7.5h-41.4c0,0-12.5,54.9-12.5,54.9l74.6-.9c.8-.5,1.5-4.8,1.8-6,5.3-20.4,7.7-44.2,14-64.1,3.7-11.9,12.9-17.7,25-18.5,17.1-1.3,35.8,1,53.1,0,7.6.8,13,5.5,18.5,10.1,3.5-5.3,9.4-8.9,15.6-10.1,16.2.9,34-1.4,50,0,4.6.4,4,1.1,6.8,2.8,1.2.7,3,.7,3.8,1.1,15.8,8.6,11.5,26.8,8.8,40.9-3.8,19.7-8.4,43.4-13.9,62.5-1.9,6.8-4.8,13.1-12.2,15.2-13.9,4-25.2-6.9-23.8-20.8,1.9-19.7,11.2-42.4,13.6-62.2.2-1.3,0-2.7,0-4-.1-.4-1.3-1-1.5-1h-29.8c-1.5,0-5.4,2-5.6,3.9-3.9,15.5-6.7,31.4-10.3,47-2.3,9.7-5.1,27.2-12.2,33.9-8.4,7.8-22.8,3.7-27.8-6-4-7.7.7-20.9,2.5-29,1.6-7.3,2.9-14.3,4.1-20.9,1.5-7.7,4.8-17.6,5.5-25,.1-1.6-.2-2.6-1.4-3.7h-29.8c-3.1,0-4.9,2.2-5.8,4.9-2.2,6.2-2.8,15.1-4.6,21.5-.1.6-2.2.3-.5,3.1l-1.1.4.5,1.3c-2,.7-.4,1.4-.8,2.6-3.2,12.3-6.6,40.7-14.2,49.4-3.7,4.3-6.5,5.3-12.2,5.7-34.2-2-71.2,2.5-105.1,0-2.3-.2-6.4-.9-8.6-1.5s-2.6-1.7-4.4-2.1c-1.6-1.4-7.4-8.9-7.9-10.6-2.1-7.2-.8-13.5.6-20.6,8-41.2,19.5-81.6,27.6-122.8,1.9-6,5.7-9.4,11.3-12l4.5-1.2h3.6Z"/>
            <g>
              <path class="st4" d="M105.1,0c17.5,1.9,28.8,15.1,30.9,32,3.8,30,5.9,62.8,8.2,93.1.6,7.3,2.2,18.8,2.1,25.6-.4,14.7-14.7,24.1-28.3,17.5-3.8-1.8-4.6-3.9-6.9-6.8-.7-.9-2-1.3-2.6-1.9,0,0,0,0,0-.1-.4-.6-.6-5.3-1.4-6.5l-1.9-22.2-47.2.3c-1.6,3.5-3.9,6.5-5.7,9.8-4.3,7.9-9.6,23-17.5,27.3-10.3,5.6-21,1.2-26.5-8.4-6.6-11.4,2.1-22.2,7.2-31.9,19.4-36.7,37.5-74.3,57.2-111,4.2-5.6,9.5-11.4,16.3-14.2,2.7-1.1,5.7-1.4,8.3-2.7,2.5.2,5.3-.3,7.8,0h0ZM102.1,93.8l-3.6-41.2-21.5,41.2h25.1Z"/>
              <path class="st4" d="M203.5,0l4.6,1.1c10.7,4.5,13.2,12.6,11.4,23.6l-29.4,130.5c-5.6,23.3-37.3,19-36-5L184.3,13.3c2.6-8,9.2-11.4,16.9-13.2,0,0,2.4,0,2.4,0Z"/>
            </g>
          </g>
          <g>
            <g>
              <path class="st4" d="M903.5,55.2c1.5,1.7,4.8,8.7,5.4,11,2.8,10.5-4.2,35.1-6.7,46.7-2.8,13.4-5.4,28.8-8.9,41.8-2.7,10-7.5,15.5-18.5,15.5s-6-.5-7-.8c-1.1-.3-7.2-6.6-8.2-7.9-3.5-4.9-2.4-10.9-1.5-16.4,2.3-14.3,6.8-28.6,9.7-42.8,1-4.8,3-11.9,3.2-16.6,0-.8-.2-2.6-.8-3.1-1.2-.5-2.4-.7-3.7-.8-6.4-.5-16.8-.5-23.3,0-5.3.4-6.9.2-8.3,5.4-6.1,21.6-8.6,45.5-14.6,67.1-3.6,12.7-12.3,20.1-25.8,14.6-4.5-1.9-9.7-8.1-10.4-12.9-.6-4.3,1.1-13.8,2.2-18.2,3.3-12.5,6.8-27.5,9.1-40.6,2-11.3,6-33.8,13.9-41.6,6.1-6,10.5-7.9,19.1-8.4,15.7-.9,41.3-1.3,56.7,0,5.1.5,15.2,4.2,18.6,7.9h0Z"/>
              <path class="st4" d="M757.9,167c-2.2,1.7-6.9,3.1-9.7,3.2-1.7,0-7.4-.3-8.8-.7-2.2-.6-10-9.5-10.4-11.6s-.3-7.5,0-9.9c1.8-14.3,7.5-31.2,10.4-45.7.9-4.3,3.1-12.7,3.2-16.6,0-2.6-1.4-3.6-3.9-3.8-5.8-.7-21.1-.7-26.9,0s-5.5,4.7-6.7,9.4c-5.2,20.6-7.9,42.9-13.6,63.4-1.3,4.6-2.7,8.6-6.5,11.7-6.8,5.6-17.1,5.8-23.4-.4-7.1-7-6.9-11-5.5-20.5,3.6-24.9,13.6-51.1,16.8-76.2,4.2-12.7,12.5-21.3,26.3-22.1,16.1-.9,41.4-1.3,57.3,0,19.9,1.7,26.7,17.1,23.8,35.1-2.4,15-6.8,31-10,46-2.2,10.6-3.6,32-12.4,38.6h0Z"/>
            </g>
            <path class="st2" d="M560.6,83.3c-19.4-2.5-19.7-31.1-.5-34.5h80.4c6.3,1.1,11.7,3.1,14.6,9.2,3.8,7.8,2.1,12.1.5,20-4.8,23.6-9.9,48.8-15.6,72.1-2.9,11.6-4.4,20.7-18.5,22.1-21.5-1-44.2,1.3-65.7,0-13.6-.9-24-4.8-25.4-20-.7-8,4.8-32.7,7.6-40.7,3.1-9,13.4-16,22.6-17.4,5.4-.8,24.9-.7,30.4,0,7.2.9,13.2,7.2,12.8,14.6-.3,4.7-4.2,10.6-8.4,12.6-7,3.2-16.4.5-23.9,1.8l-2.8,13.5.7,1.2h34c2.8,0,2.7-.8,3.6-3.6l10.4-50.7h-57,0ZM604.2,76.8c6.7.8,20.2-16.6,27.1-16l19.5,18.8c-.6,1.9-11.8,33.9-9.9,33.8.2,0-8.5,2.2-7.2,1.6,6.4-3.5-13.5-8.2-7.8-12.8,2.8-2.3,15.7-2.2,16.3-4.7.2-.6,1.3-.5,1.7-1.4.8-1.7.4-4.9,1-6.8.3-1.1,1.4-1.1,1.5-1.5.4-2-.2-11.3-1.1-13.1-.6-1.2-19.5,3.9-20.3,3.1-5.3-5.5,9.2-8.7,2.7-5.8-1.5.7.2-8.6-1.5-7.9-.8.4-.4,12.8-.6,13-.3.3-30.5-.3-32.2.8-1.6,1,6.9-5.7,5.7-4.3-.7,2.1,3.7,3.1,5.1,3.3h0Z"/>
          </g>
        </g>
        <g>
          <path class="st2" d="M503.2,238.2h-13.7l-1.3-10.1c-.8-1-17.3-1-19.2,0s-4.9,7.8-5.8,10h-15.5l30.5-49.8c2.5-.3,16.1-.9,17,.3l8,49.5h0ZM487.1,217.9c-1.1-6.3-2-12.7-1.8-19.1l-10.7,19.1h12.5Z"/>
          <path class="st2" d="M556.9,201.2l-7.2,37h-12.1c-1.2-.6.6-3.3-1.3-3-1.4.2-3.6,2.8-6.2,3.3-25.3,5.1-17.7-23.3-13.5-37.4h13.4c.8.9-4.3,19-4.2,22.4.2,3.6,3.4,5.1,6.6,4.2,8.1-2.2,8.8-19.7,10.7-26.6h13.7Z"/>
          <path class="st2" d="M596.5,234.4c-5.8-5.8-5.4-15.8-1.9-22.7,10.1-19.9,51.8-13.6,40,14.9-5.3,13-28.6,17.1-38.1,7.7h0ZM615.8,209.1c-10.7.6-13.7,19.9-4.2,21.2,12,1.7,15.7-21.9,4.2-21.2Z"/>
          <path class="st2" d="M234,238.2h-13.1c.2-5.8,5.8-20.1,3.7-24.9-1.2-2.7-4.8-3-7.3-2.3-8.1,2.4-8.5,20.3-10.7,27.2h-13.1l8.1-37h11l-1.2,7.2c4.7-5.6,9.8-8.9,17.6-7.7,16.6,2.6,7,27.3,5.1,37.6h0Z"/>
          <path class="st2" d="M897.3,230.5c0-.1-.1-.3-.2-.4-.2-.4-.3-.8-.4-1.2-7.3,1.5-20.9,5.1-21.1-5.6h26.6c4.3-7.9-.2-20.9-9.7-22.5-17.2-2.9-33.5,8.4-28.6,26.8,3.2,12.3,20.1,13.8,30.3,10.3,3.2-1.1,3-3.7,3.2-6.6,0-.3,0-.5,0-.8h0ZM892.9,216.1h-16.1c.8-10.5,16.8-12.2,16.1,0Z"/>
          <path class="st2" d="M189.2,223.2h-26.9c-.9,11.1,15.3,6.6,22.1,5.4l-1.5,8.4c-15.8,5.6-36.2,1.9-32.9-19.1,2.2-14.1,18.5-21.2,31.2-16.2,9.4,3.7,9.5,12.9,8,21.6h0ZM179.1,216.1c1.6-11.7-13.2-10.5-15.9-1.2l.6,1.2h15.2Z"/>
          <path class="st2" d="M63,223.2c-1.5.5-.8,2.8-.2,3.8,3.1,5.9,16.2,2.8,21.4,1.6l-1.2,8c-.7,1.1-3.8,1.7-5.2,2-13.2,2.3-28.2-.7-28.2-16.9,0-15.2,12.7-22.2,26.6-21.2,11.9.9,16.9,12.3,12.5,22.7h-25.7,0ZM79.4,216.1c.4-4.8-1.8-8.3-6.9-8.4-3.8,0-3.3.7-5.4,2.4-.5.4-1.4.4-1.8.9-1,1-2,3.7-2,5.2h16.1,0Z"/>
          <path class="st2" d="M690.6,223.2c.1,11,15.1,6.8,22.1,5.4l-.7,7.3c-.5,1.7-4.6,2.5-6.2,2.7-10.1,1.7-25.7.1-27.1-12.8-2-18.3,11.4-28.1,28.8-25.2,9.8,1.6,14,14.4,9.7,22.5h-26.6,0ZM707.9,216.1c.5-12.5-14.8-10-16.7,0h16.7Z"/>
          <path class="st2" d="M120,238.2l6-27.7-7.8-.3,1.8-8.9h8.3c.5-13.9,11.9-20.9,24.9-16.2.7.3,1-.4.8.9-.3,2.4-2,5.6-2.4,8.1-5.9-2.4-10,1.1-10.1,7.1h8.9l-1.9,8.9h-9.4c0,.1-6,28.1-6,28.1h-13.1Z"/>
          <path class="st2" d="M774.2,201.2c1.1,7,1.5,14.1,2.4,21.2.1.9,0,1.5.9,2.1l12.5-23.3h14l-21.9,36.9-15.4-.4c-.3-1.5-.7-3-.9-4.5-.2-1.7,1.4-2.3-.5-3.1l-4.8-28.8h13.7,0Z"/>
          <path class="st2" d="M671.8,210.6l.6-.4c.5-1.9,3.8-7.3,1.7-8.3-.9-.4-4.1-1.1-5.3-1.3-10.3-1.7-26.8,0-25.3,14,.8,7.3,10.2,8,15.4,11.1.9,5.4-8,4.6-11.5,4-2.1-.3-4.1-1.3-6.2-1.6,0,0-.1,0-.2,0,0,0,0,.1,0,.2,0,0-.1.4-.2.5-.1.4-.3.9-.5,1.2-.8,2.6-2.7,6.4-1.6,7.2,10,3.3,32.2,4.2,33.4-10.1.5-5.5-2.1-8.2-6.8-10.6-2.3-1.2-10.8-2.5-8.6-6.3,1.7-3.1,12.4-1.4,15.1.3h0Z"/>
          <path class="st2" d="M583.2,201.2h9l-1.8,8.9h-9.5c-.3,4.7-2.6,9.6-2.9,14.1-.5,6.1,2.3,6.1,7.5,5.1,1-.2.8-.2.8.8-.1,2.2-1.6,4.9-1.2,7.4-5,1.6-9.8,1.8-14.7-.4-10.4-4.8-2.9-18.6-2.6-27h-6.6l1.8-8.7,7.1-.3,2.3-8.3,12.7-3.6-1.8,11.9h0Z"/>
          <path class="st2" d="M861.9,202.4l-2.4,8.9c-6.7-2.1-18.3-2.4-20.1,6.4-2.3,11.3,8.2,12.6,16.6,10.3-.3,8.3,0,10.1-8.7,10.7-12.9,1-23.6-5.1-22.3-19.3,1.7-18.6,21.9-22.7,36.9-17h0Z"/>
          <path class="st2" d="M740.7,201.2v4.8c4.5-4.8,9.6-6.6,16.1-4.8l-2.4,11.3c-17.3-5.4-16.5,14.3-19.1,25.6h-13.7l7.2-37h11.9Z"/>
          <polygon class="st2" points="114.6 201.2 106.2 238.2 93.1 238.2 100.9 201.2 114.6 201.2"/>
          <polygon class="st2" points="821.9 201.2 813.8 238.2 801 238.2 809.7 201.2 821.9 201.2"/>
          <polygon class="st2" points="117.6 186.2 115.8 195.8 102.1 195.8 103.9 186.2 117.6 186.2"/>
          <path class="st2" d="M812.7,186.2h12.5c.6.5.7.5.7,1.2,0,1.8-1.7,6.6-2.5,8.3h-12.5c-.6-.4-.7-.5-.7-1.2,0-1,1.8-8.3,2.5-8.3Z"/>
          <path class="st2" d="M0,238.2l10.4-49.6.7-.5c5.2-.5,10.3.3,15.4.5,2.9.1,6.1-.3,9,0,18.4,1.8,15.8,24.7-1.5,25.1,7.1,5.4,6,16.6,9,24.5h-13.7c-1.2-4.1-1.8-14.8-3.9-17.9-1-1.5-6.1-2.5-7.5-1.5-1.7,1.1-2.9,16.9-5.1,19.4H0ZM19.7,209.5c4.1.2,12.5.1,14-4.7,2.5-7.9-6.3-7.4-11.6-7.1l-2.5,11.9h0Z"/>
          <path class="st3" d="M163.8,216.1l-.6-1.2"/>
          <g>
            <path class="st2" d="M434.5,185.1l-10.8,53.1h-12.5c-.4-.3.8-4.3-.9-3.6-7.2,8.5-23.9,4.9-25.8-6.4-1.5-9,.6-19.8,8.6-25.1,5.1-3.4,15.8-3.9,20.7,0,1.4,1.1,1.8,2.9,3.4,2.9l3.7-20.8c.9-1.4,11.3.3,13.6,0ZM406.9,209.7c-10.6.6-13.2,22.1-1.6,19.9,9.5-1.8,12.2-20.5,1.6-19.9Z"/>
            <path class="st2" d="M304.4,201.2c-.9,5.5-6.2,20.6-3.5,25.3.9,1.5,1.6,1.5,3.2,1.6,11.2.7,11.2-19.4,13.5-26.9h13.7l-7.8,36.4h-11.9l1.2-6c-4.6,6.5-11.8,9.2-19.4,6-13.1-5.6-4-26.1-2.7-36.4h13.7Z"/>
            <path class="st2" d="M373,238.2h-13.1c0-6.8,4.4-15.8,4.1-22.3-.1-2.6-2.4-5.1-5-5.1-10.4,0-11.3,20.4-13.4,27.5h-13.1l7.8-37h11.3l-1.2,7.2c4.9-5.8,9.1-8.6,17-7.8,17.1,1.8,7.4,27.2,5.7,37.6h0Z"/>
          </g>
        </g>
      </g>
      <path class="st0" d="M770.3,230.5c0-.1,0-.2,0-.4v.7c0-.2,0-.3,0-.5,0-.3,0-.6-.1-.8l-.2-.6c0-.1-.1-.2-.2-.3,0-.1-.1-.2-.2-.3-.2-.1-.3-.3-.5-.4-.4-.2-.8-.3-1.3-.3s-.9.1-1.3.3c-.4.2-.7.5-.9.9-.2.4-.3.8-.3,1.3,0,.4.1.9.2,1.3v-.7c0,.6,0,1.1.1,1.7,0,.3,0,.7.2,1,0,.3.3.6.5.8.2.2.5.4.8.5.3.2.6.2,1,.2h.7c.4-.2.8-.4,1.1-.7l.4-.5c.2-.4.3-.8.3-1.3,0-.4,0-.8-.2-1.1,0-.2,0-.4,0-.5,0-.3,0-.6-.1-.9,0-.1,0-.2,0-.3v.7c0,0,0,0,0-.1l-3.8,2.2h0s-.5-.4-.5-.4h0s-.4-.5-.4-.5h0c0-.2-.2-.4-.2-.6,0,0,0,0,0,0v-.7c0,.2,0,.3,0,.5,0,.4,0,.8.2,1.1,0,.3.2.6.5.9.2.3.4.5.7.6.3.2.6.3.9.3.3,0,.7,0,1,0l.6-.2c.4-.2.7-.5.9-.9l.2-.6c.1-.4.1-.9,0-1.3h0Z"/>
      <rect class="st1" x="242.4" y="213.8" width="20.8" height="10"/>
      <path class="st4" d="M107,154.3c.3.9.4,1.9.5,2.8.2,1,.4,1.9.9,2.9.7,1.7,2,3.2,3.2,4.5,2.6,2.6,5.9,4.4,9.5,5.1,1.3.2,2.8-.4,3.1-1.8.3-1.2-.4-2.8-1.8-3.1-.7-.1-1.4-.3-2.2-.6-.2,0-.4-.1-.6-.2-.4-.2.1,0-.1,0-.3-.2-.7-.3-1-.5-.7-.4-1.3-.7-1.9-1.2-.2-.1-.4-.3-.1,0-.2-.1-.3-.3-.5-.4-.3-.3-.6-.5-.8-.8s-.6-.6-.8-.9c-.1-.1-.2-.3-.4-.4s-.3-.4,0-.1c-.4-.6-.9-1.2-1.2-1.9.2.5,0-.2,0-.2,0-.2,0-.3-.1-.5-.1-.4-.2-.9-.2-1.3-.1-.9-.2-1.7-.5-2.6-.4-1.2-1.8-2.2-3.1-1.8s-2.1,1.7-1.8,3.1h0Z"/>
      <path class="st4" d="M505.6,52.5c2.2,1.4,4.4,2.8,6.7,4.1,1.1.7,2.8.3,3.4-.9.7-1.3.3-2.6-.9-3.4-.6-.4-1.2-.7-1.8-1l.5,3.9.3-.3c1.1-1.1.9-3.1-.5-3.9-1.1-.7-2.3-1.3-3.4-2-1.3-.7-2.5-1.2-4-1.4-2.6-.3-5.3-.3-7.9-.2-1.3,0-2.6,1.1-2.5,2.5s1.1,2.5,2.5,2.5c2.4,0,4.9,0,7.3.2h.3c-.2,0-.2,0,.1,0,.3,0,.5.1.8.2-.4-.2.3.2.3.2.2.1.5.3.8.4,1,.6,2.1,1.2,3.2,1.8l-.5-3.9-.3.3c-1.1,1-1,3.2.5,3.9.6.3,1.2.6,1.8,1l2.5-4.3c-2.3-1.3-4.5-2.7-6.7-4.1-1.1-.7-2.8-.2-3.4.9-.7,1.2-.3,2.7.9,3.4h0Z"/>
      <path class="st4" d="M513.8,51.4l-1.3-.7c-.3-.2-.6-.3-.9-.3-.3,0-.7,0-1,0-.3,0-.6.2-.9.5-.3.2-.5.4-.6.7l-.2.6c-.1.4-.1.9,0,1.3l.2.6c.2.4.5.7.9.9l1.3.7c.3.2.6.3.9.3.3,0,.7,0,1,0,.3,0,.6-.2.8-.5.3-.2.5-.4.6-.7l.2-.6c.1-.4.1-.9,0-1.3l-.2-.6c-.2-.4-.5-.7-.9-.9h0Z"/>
      <path class="st4" d="M728.7,154.1c-.8,3.2-.4,6.5.9,9.5,1.3,2.8,3.6,5.7,6.5,7,1.8.8,3.8.6,5.7.6s3.8-.1,5.8-.2c3.8-.1,7.3-1,9.7-4.1.8-1.1,1-2.5,0-3.5-.9-.9-2.7-1.1-3.5,0-1.7,2.2-3.8,2.6-6.4,2.6-1.5,0-3,0-4.6.1-1.3,0-3.1.4-4.4,0-1.9-.6-3.4-2.9-4.2-4.6-.9-1.9-1.2-4.1-.6-6.1.8-3.1-4-4.4-4.8-1.3h0Z"/>
      <path class="st4" d="M738.5,165.9c-.7-.1-1.4-.3-2.1-.5l.6.2c-.3-.1-.7-.3-1-.6l.5.4c-.2-.2-.4-.4-.6-.6l.4.5c-.3-.4-.6-.9-.8-1.4l.2.6c-.6-1.5-.9-3-1.3-4.6-.3-1.3-1.8-2.2-3.1-1.8s-2.1,1.7-1.8,3.1c.5,2,1,4.1,2,5.9.6,1,1.4,1.9,2.5,2.5,1,.5,2,.8,3.1,1,.7.1,1.3.1,1.9-.2.5-.3,1-.9,1.2-1.5.3-1.2-.4-2.8-1.8-3.1h0Z"/>
      <path class="st4" d="M733.3,153.9c0-.2-.1-.3-.1-.4l.2.6c0-.2,0-.4-.1-.6v.6c0-.3.1-.5.1-.8s0-.6,0-.8c0-.3,0-.7,0-1,0-.3-.2-.6-.4-.9-.2-.3-.5-.5-.7-.6-.3-.2-.6-.3-.9-.3h-.6c-.5,0-.9.2-1.2.5l-.5.5c-.3.4-.4.7-.5,1.2,0,.2,0,.5,0,.7s-.1.5-.1.7c-.1.9.1,1.7.4,2.6.1.3.3.6.6.8.2.2.5.4.8.5.3.1.6.2.9.2.3,0,.7,0,1-.2l.6-.3c.3-.3.6-.6.8-1l.2-.6c0-.4,0-.9-.2-1.3h0Z"/>
      <path class="st4" d="M732.3,158.1c3.2,0,3.2-5,0-5s-3.2,5,0,5h0Z"/>
      <path class="st4" d="M733,157.2c.7-7.3,1.5-14.7,3.5-21.8.9-3.1-4-4.3-4.9-1.2-2.1,7.5-2.9,15.4-3.6,23.1-.1,1.3,1.4,2.5,2.6,2.4s2.3-1.2,2.4-2.6h0Z"/>
    </g>
  </g>
</svg>