<?xml version="1.0" encoding="UTF-8"?>
<svg id="Ebene_2" data-name="Ebene 2" xmlns="http://www.w3.org/2000/svg" viewBox="0 0 447.95 196.3">
  <defs>
    <style>
      .cls-1 {
        fill: #09467e;
      }

      .cls-2 {
        fill: #717274;
      }

      .cls-3 {
        fill: #b82a2e;
      }

      .cls-4 {
        fill: #c7c7c8;
      }
    </style>
  </defs>
  <g id="Ebene_1-2" data-name="Ebene 1">
    <g>
      <g id="Ebene_1_Kopie" data-name="Ebene 1 Kopie">
        <path class="cls-4" d="M447.35,1.7l-.6-.5h0c-12.4,14.6-27.3,26.2-43.8,34.7l-.1-.1-.1.2c-21.9,11.3-46.5,17.2-71.1,17.2-29.9,0-59.9-8.6-85.3-26.4l-.9,1.3h0c5.8,4.1,11.8,7.6,18.1,10.8l-16.7,21.2c-6.2-3.1-12.3-6.7-18.1-10.8-5-3.5-10.1-6.6-15.4-9.4l16.5-21.3c5.3,2.8,10.5,5.9,15.5,9.4l.9-1.3C220.55,8.7,190.25,0,159.95,0c-43.6,0-87,18.2-116.3,52.6l.6.5-.6-.5-17.6,22.6h0l102.5,120.1h0l.6.5.6.5h0S-5.15,118.1.15,113.1c13.3-12.3,42.4-35.2,82.5-42h0v-.1c7.4-1.3,15.2-2,23.4-2,25.7,0,54.9,7.1,86.6,26.8,32.3,20,62,27.4,88.1,27.4,28.1,0,52-8.5,70.5-18.7l.1.1.1-.2c27.9-15.3,43.7-34.5,43.8-34.5l-.6-.5.6.5,17.5-22.5v-.1h0L447.95,2.2h0l-.6-.5ZM400.45,39l-15.3,19.6c-13.8,7.1-28.6,12.1-43.9,14.8l16.1-20.7c14.9-2.5,29.5-7,43.1-13.7ZM339.85,75.3c14.9-2.5,29.4-7,43-13.7l-15.3,19.6c-13.8,7.1-28.6,12.1-43.9,14.8l16.2-20.7ZM321.35,96.4c-8.2,1.3-16.5,2-24.8,2s-16.4-.7-24.5-2l16.4-21.1c8.5,1.4,17,2.1,25.6,2.1,7.8,0,15.7-.6,23.4-1.8l-16.1,20.8ZM331.65,54.8c7.8,0,15.7-.6,23.4-1.8l-16.1,20.8c-8.2,1.3-16.5,2-24.8,2s-16.4-.7-24.5-2l16.4-21.1c8.5,1.4,17,2.1,25.6,2.1ZM264.85,39.6c12.5,6.1,25.8,10.4,39.3,12.8l-16.4,21.1c-13.6-2.3-26.9-6.5-39.5-12.6l16.6-21.3ZM247.35,62.2c12.5,6.1,25.8,10.4,39.3,12.8l-16.4,21.1c-13.6-2.4-26.9-6.5-39.5-12.7l16.6-21.2ZM227.75,50.7l.6-.8-.6.8c5.8,4.1,11.8,7.6,18.1,10.8l-16.6,21.3c-6.2-3.1-12.3-6.7-18.1-10.8h0c-5-3.5-10.1-6.6-15.4-9.4l16.6-21.3c5.2,2.7,10.4,5.9,15.4,9.4ZM117.65,26.2c8.2-1.3,16.5-2,24.8-2s16.4.7,24.5,2l-16.4,21.1c-8.5-1.4-17-2.1-25.6-2.1-7.8,0-15.7.6-23.4,1.8l16.1-20.8ZM99.15,47.3c-15.8,2.6-31.3,7.6-45.6,15l15.2-19.5c14.5-7.9,30.3-13.3,46.5-16.2l-16.1,20.7ZM168.75,26.5c14.5,2.5,28.7,7.1,42.1,14l-16.6,21.3c-13.3-6.8-27.5-11.5-42-14.1l16.5-21.2ZM228.35,17.9l-16.5,21.3c-13.3-6.8-27.5-11.5-42-14.1l16.4-21.1c14.6,2.4,28.8,7.1,42.1,13.9ZM160.05,1.6c8.2,0,16.4.7,24.5,2l-16.4,21.1c-8.5-1.4-17-2.1-25.6-2.1-7.8,0-15.7.6-23.4,1.8l16.1-20.7c8.1-1.4,16.4-2.1,24.8-2.1ZM132.85,4l-16.1,20.7c-15.8,2.6-31.3,7.6-45.6,15l15-19.3-.1-.1c14.6-7.9,30.4-13.4,46.8-16.3ZM44.85,53.7h0c10.9-12.8,23.7-23.3,37.8-31.5l-15,19.3c-10.9,5.9-21.1,13.3-30.3,21.9l7.5-9.7ZM27.35,76.3c10.9-12.8,23.7-23.3,37.8-31.5l-15.1,19.3c-10.9,5.9-21.1,13.3-30.3,21.9l7.6-9.7ZM.45,110.8l9.3-12h0c10.9-12.8,23.7-23.3,37.8-31.5l-15.4,19.9.5.4c-14.2,7.9-25.1,16.7-32.2,23.2ZM81.85,69.6c-18,3.1-33.8,9.5-46.9,16.6l16.2-20.9c14.5-7.9,30.3-13.3,46.5-16.2l-15.8,20.5ZM106.15,67.4c-7.6,0-15,.6-22,1.7l15.9-20.4c8.2-1.3,16.5-2,24.8-2s16.4.7,24.5,2l-16.5,21.2c-9.3-1.7-18.2-2.5-26.7-2.5ZM134.65,70.3l16.5-21.2c14.5,2.5,28.7,7.1,42.1,14l-17,21.8c-14.5-7.2-28.4-11.9-41.6-14.6ZM193.55,94.5c-5.3-3.3-10.6-6.3-15.8-8.9l16.9-21.8c5.3,2.8,10.5,5.9,15.5,9.4h0l.6-.9-.6.9c5.8,4.1,11.8,7.6,18.1,10.8l-16.1,20.7c-6.1-2.9-12.3-6.3-18.6-10.2ZM213.65,105.5l16.1-20.7c12.5,6.1,25.8,10.4,39.3,12.8l-16.5,21.2c-12.3-2.6-25.3-6.9-38.9-13.3ZM280.85,121.6c-8.4,0-17.3-.8-26.4-2.5l16.5-21.2c8.5,1.4,17,2.1,25.6,2.1,7.8,0,15.7-.6,23.4-1.8l-16.3,21,.5.4c-7.4,1.3-15.2,2-23.3,2ZM350.45,103.2c-12.6,6.9-27.7,13-45,16.1l16.7-21.5c14.9-2.5,29.4-7,43-13.7l-14.7,19.1ZM394.05,68.9h0s-2.7,3.3-7.9,8.2c-6.7,6.4-17.6,15.6-32,24l14.5-18.7c11.9-6.2,23-14,33-23.3l-7.6,9.8ZM411.55,46.4c-11.5,13.6-25.3,24.6-40.5,32.9l15.1-19.4c11.9-6.2,23-14,33-23.3l-7.6,9.8ZM429.15,23.8c-11.6,13.6-25.4,24.6-40.5,33l15.1-19.4c11.9-6.2,23-14,33-23.3l-7.6,9.7Z"/>
      </g>
      <g id="Ebene_2-2" data-name="Ebene 2">
        <g id="TEXT">
          <g>
            <path class="cls-1" d="M38.95,9.8v42.9h-4.8V9.8h4.8Z"/>
            <path class="cls-1" d="M47.05,22.7h4.4l-.1,4.1.1.1c.5-1.1,1-1.9,1.7-2.4,1.7-1.4,4.5-2.2,8.3-2.2,5,0,8.3,1.3,9.8,3.9.7,1.1,1,3.5,1,7.1v19.5h-4.4v-19.3c0-2.6-.2-4.3-.7-5.2-.8-1.5-2.9-2.3-6.3-2.3-2.5,0-4.4.3-5.7,1-1.9,1-3,2.6-3.4,4.9-.1.9-.2,1.8-.2,2.7v18.1h-4.6v-30h.1Z"/>
            <path class="cls-1" d="M105.25,22.7v32c0,3.4-.5,5.8-1.4,7.3-.9,1.4-2.3,2.5-4.1,3.1-1.8.7-4.3,1-7.3,1-3.3,0-5.8-.3-7.5-1-2.4-.9-3.8-2.8-4.2-5.5-.1-.8-.2-1.9-.2-3.3h4.2c0,2.2.3,3.6.9,4.4.6.8,1.7,1.3,3.3,1.5.9.1,2.2.2,3.8.2,2.3,0,4.1-.3,5.2-.8,1.5-.7,2.5-2,2.7-4,.1-.9.2-1.7.2-2.5v-6h-.1c-.4.9-.7,1.5-1.1,1.9s-1,.8-1.8,1.1c-1.7.7-3.9,1.1-6.7,1.1-4,0-6.9-.9-8.8-2.7-1.5-1.4-2.4-3.2-2.7-5.4-.3-2-.4-4.2-.4-6.8,0-4.8.3-8.1,1-9.9,1-2.7,2.7-4.5,5.2-5.4,1.6-.6,3.6-.8,6.1-.8,2.8,0,5.1.5,6.7,1.5,1.1.7,2,1.7,2.7,3h.1l-.2-4.1h4.4v.1ZM92.15,26c-3.2,0-5.4.6-6.5,1.9-.9,1-1.4,2.5-1.6,4.5-.1,1.5-.2,3.1-.2,4.8,0,3.9.2,6.6.7,8.2.4,1.3.9,2.2,1.7,2.7,1.2.9,3.2,1.3,6,1.3,3.4,0,5.6-.8,6.8-2.3.8-1,1.3-2.5,1.4-4.2.2-1.8.3-3.7.3-5.8,0-3.1-.2-5.3-.5-6.6-.6-2-1.7-3.3-3.4-3.9-1.2-.4-2.7-.6-4.7-.6Z"/>
            <path class="cls-1" d="M133.75,43.6h4.5v1.3c0,2.8-.8,4.8-2.3,6-1,.8-2.4,1.4-4,1.7-1.7.3-3.9.5-6.7.5-5.3,0-8.8-1-10.6-3-1.2-1.4-1.9-3.3-2.2-5.9-.2-2-.3-4.1-.3-6.4,0-3.1.2-5.6.5-7.4.3-1.8.9-3.2,1.6-4.3,1.1-1.7,2.8-2.7,5-3.2,1.8-.4,3.8-.6,6-.6,4.1,0,7,.4,8.7,1.3,2.6,1.3,4,4.4,4.3,9.2.1,1.1.1,3,.1,5.7h-21.6c0,3.7.3,6.3.9,7.9.5,1.5,1.9,2.4,4,2.8.9.2,2.2.3,3.7.3,2.9,0,5-.2,6.2-.6,1.3-.4,2.1-1.4,2.3-3-.2-.5-.1-1.2-.1-2.3ZM133.75,35.1c-.1-3.2-.3-5.3-.7-6.3-.5-1.3-1.5-2.2-3.2-2.6-.9-.2-2.4-.3-4.4-.3-2.6,0-4.5.2-5.7.7-1.7.7-2.7,2.4-3,5.3-.1.8-.1,1.9-.1,3.3h17.1v-.1Z"/>
            <path class="cls-1" d="M145.15,22.7h4.4l-.1,4.1.1.1c.5-1.1,1-1.9,1.7-2.4,1.7-1.4,4.5-2.2,8.3-2.2,5,0,8.3,1.3,9.8,3.9.7,1.1,1,3.5,1,7.1v19.5h-4.4v-19.3c0-2.6-.2-4.3-.7-5.2-.8-1.5-2.9-2.3-6.3-2.3-2.5,0-4.4.3-5.7,1-1.9,1-3,2.6-3.4,4.9-.1.9-.2,1.8-.2,2.7v18.1h-4.6v-30h.1Z"/>
            <path class="cls-1" d="M182.65,9.8v4.9h-4.4v-4.9s4.4,0,4.4,0ZM182.65,22.7v30h-4.4v-30s4.4,0,4.4,0Z"/>
            <path class="cls-1" d="M211.25,43.6h4.5v1.3c0,2.8-.8,4.8-2.3,6-1,.8-2.4,1.4-4,1.7-1.7.3-3.9.5-6.7.5-5.3,0-8.8-1-10.6-3-1.2-1.4-1.9-3.3-2.2-5.9-.2-2-.3-4.1-.3-6.4,0-3.1.2-5.6.5-7.4.3-1.8.9-3.2,1.6-4.3,1.1-1.7,2.8-2.7,5-3.2,1.8-.4,3.8-.6,6-.6,4.1,0,7,.4,8.7,1.3,2.6,1.3,4,4.4,4.3,9.2.1,1.1.1,3,.1,5.7h-21.6c0,3.7.3,6.3.9,7.9.5,1.5,1.9,2.4,4,2.8.9.2,2.2.3,3.7.3,2.9,0,5-.2,6.2-.6,1.3-.4,2.1-1.4,2.3-3-.1-.5-.1-1.2-.1-2.3ZM211.25,35.1c-.1-3.2-.3-5.3-.7-6.3-.5-1.3-1.5-2.2-3.2-2.6-.9-.2-2.4-.3-4.4-.3-2.6,0-4.5.2-5.7.7-1.7.7-2.7,2.4-3,5.3-.1.8-.1,1.9-.1,3.3h17.1v-.1Z"/>
            <path class="cls-1" d="M247.15,22.7v30h-4.4l.3-3.9-.1-.1c-1.5,3-4.9,4.5-10,4.5-4.8,0-7.9-1.5-9.3-4.5-.6-1.4-1-3.3-1-6v-20h4.4v20c0,2.1.3,3.7.8,4.6.5.9,1.4,1.6,2.6,1.9.8.2,1.9.3,3.4.3,2.8,0,4.9-.4,6.1-1.2,1.5-1,2.4-2.6,2.8-5,.1-.9.2-2,.2-3.3v-17.3h4.2Z"/>
            <path class="cls-1" d="M255.75,22.7h4.4l-.4,3.5.1.1c1-1.6,2-2.6,3.1-3.1,1.5-.7,3.4-1.1,5.5-1.1,2.7,0,4.8.7,6.2,2,1.4,1.3,2,3.4,2,6.4v2.2h-4.3v-2.4c0-1.4-.3-2.4-.8-3-.8-1-2.2-1.4-4.2-1.4-3.3,0-5.4,1-6.4,3.1-.5,1.1-.8,3.1-.8,5.9v18h-4.4v-30.2h0Z"/>
            <path class="cls-1" d="M280.85,52.7V9.8h4.4v16.7l.1.1c.5-1.5,1.4-2.5,2.6-3.1,1.8-.9,4.3-1.3,7.3-1.3,3.8,0,6.5.8,8.2,2.4,1.4,1.3,2.3,3.1,2.7,5.4.4,2.4.7,5,.7,8,0,3.3-.3,6-.8,7.9s-1.4,3.5-2.6,4.7c-1.7,1.6-4.6,2.4-8.8,2.4-2.6,0-4.6-.4-6.2-1.1-1.4-.6-2.4-1.7-3.3-3.1h-.1l.2,3.7h-4.4v.2ZM294.05,26c-2.9,0-4.9.5-6.1,1.4-1.1.9-1.8,2.3-2.1,4.1-.3,1.5-.4,3.3-.4,5.2,0,3.3.1,5.7.4,7.2.2,1.5.7,2.7,1.3,3.5,1.1,1.4,3.3,2.1,6.8,2.1,3.1,0,5.2-.5,6.2-1.4,1-1,1.7-2.6,1.9-4.8.2-1.6.3-3.4.3-5.2,0-2.9-.1-5.1-.4-6.6s-.7-2.6-1.4-3.5c-1.1-1.4-3.3-2-6.5-2Z"/>
            <path class="cls-1" d="M338.25,22.7v30h-4.4l.3-3.9-.1-.1c-1.5,3-4.9,4.5-10,4.5-4.8,0-7.9-1.5-9.3-4.5-.6-1.4-1-3.3-1-6v-20h4.4v20c0,2.1.3,3.7.8,4.6.5.9,1.4,1.6,2.6,1.9.8.2,1.9.3,3.4.3,2.8,0,4.9-.4,6.1-1.2,1.5-1,2.4-2.6,2.8-5,.1-.9.2-2,.2-3.3v-17.3h4.2ZM323.05,13.3v4.2h-5.1v-4.2h5.1ZM334.45,13.3v4.2h-5.1v-4.2h5.1Z"/>
            <path class="cls-1" d="M346.85,22.7h4.4l-.4,3.5.1.1c1-1.6,2-2.6,3.1-3.1,1.5-.7,3.4-1.1,5.5-1.1,2.7,0,4.8.7,6.2,2,1.4,1.3,2,3.4,2,6.4v2.2h-4.3v-2.4c0-1.4-.3-2.4-.8-3-.8-1-2.2-1.4-4.2-1.4-3.3,0-5.4,1-6.4,3.1-.5,1.1-.8,3.1-.8,5.9v18h-4.4v-30.2h0Z"/>
            <path class="cls-1" d="M385.75,22.2c2.6,0,4.6.2,6.1.5s2.7.9,3.6,1.6c1.5,1.3,2.5,3.2,2.9,5.7.3,2.2.5,4.8.5,7.6,0,4.8-.4,8.1-1.1,10.1-.6,1.5-1.4,2.6-2.4,3.4s-2.4,1.3-4.1,1.6c-1.3.2-3.2.3-5.7.3-2.7,0-4.8-.2-6.3-.5s-2.7-.9-3.6-1.7c-1.5-1.3-2.5-3.2-2.9-5.7-.3-2.2-.5-4.6-.5-7.4,0-4.9.4-8.4,1.1-10.3,1-2.7,3.2-4.4,6.5-5,1.3,0,3.3-.2,5.9-.2ZM385.35,26c-3.4,0-5.6.4-6.6,1.2-.9.8-1.5,2.2-1.7,4.2-.2,1.8-.3,3.8-.3,6,0,4.2.2,7,.6,8.5.4,1.4,1,2.3,1.9,2.8,1.1.5,3.1.8,6.1.8,3.5,0,5.8-.4,6.7-1.2.9-.8,1.5-2.2,1.7-4.2.2-1.8.3-3.9.3-6.3,0-4-.2-6.7-.6-8.1s-1-2.3-1.9-2.8c-1-.6-3.1-.9-6.2-.9Z"/>
          </g>
        </g>
        <g id="TEXT-2" data-name="TEXT">
          <path class="cls-3" d="M141.55,96.7l12.8-32.1h16.5c-.7,2.1-.8,3.9-.8,5.9v32.3c0,2,.1,3.9.8,5.9h-14.2c.7-2.1.8-3.9.8-5.9v-31.9h-.1l-15.1,37.8h-9l-14.8-37.8h-.1v31.9c0,2,.1,3.9.8,5.9h-7.6c.7-2.1.8-3.9.8-5.9v-32.3c0-2-.1-3.9-.8-5.9h17.4l12.6,32.1Z"/>
        </g>
        <g id="TEXT-3" data-name="TEXT">
          <g>
            <path class="cls-1" d="M189.55,96.2l-2.8,6.6c-.7,1.7-1.2,3.7-1.2,5.9h-8.5c1.7-2.3,3-4.6,4.7-8.5l14.7-32.8-1.9-2.9h14.4l16.3,35.8c1.9,4.1,3.2,7,4.7,8.3h-16.3c.1-.3.1-.6.1-1,0-1.4-.6-3.3-1.9-6.3l-2.3-5.2h-20v.1ZM207.05,90.5l-7.5-16.7-7.4,16.7s14.9,0,14.9,0Z"/>
            <path class="cls-1" d="M247.45,102.8c0,2,.1,3.9.8,5.9h-14.6c.7-2.1.8-3.9.8-5.9v-32.3c0-2-.1-3.9-.8-5.9h35c5.5,0,8.8,2.8,8.8,8.6v9c0,3.9-1.6,6.6-6.8,7.4l5.7,14.6c.8,1.9,1.8,3.5,3.2,4.7h-14.8l-7.6-19.5h-9.7v13.4ZM247.45,83.6h15.1c1.7,0,2.3-.8,2.3-3v-7.5c0-2.2-.6-3-2.3-3h-15.1v13.5Z"/>
            <path class="cls-1" d="M301.55,64.6c-.7,2.1-.8,3.9-.8,5.9v32.3c0,2,.1,3.9.8,5.9h-14.6c.7-2.1.8-3.9.8-5.9v-32.3c0-2-.1-3.9-.8-5.9h14.6Z"/>
            <path class="cls-1" d="M309.55,108.7c.7-2.1.8-3.9.8-5.9v-32.3c0-2-.1-3.9-.8-5.9h36.2l1.1,6.7c-2.1-.9-4.9-1-6.8-1h-16.7v13.4h14.6c1.9,0,4.8-.1,6.8-1v7.7c-2.1-.9-4.9-1-6.8-1h-14.6v13.7h16.7c1.9,0,4.8-.1,6.8-1l-1.1,6.7h-36.2v-.1Z"/>
            <path class="cls-1" d="M382.95,108.7l-22.6-35.7h-.1v29.8c0,2,.1,3.9.8,5.9h-7.6c.7-2.1.8-3.9.8-5.9v-32.3c0-2-.1-3.9-.8-5.9h16.2l22.2,35.1h.1v-29.2c0-2-.1-3.9-.8-5.9h7.6c-.7,2.1-.8,3.9-.8,5.9v38.2s-15,0-15,0Z"/>
          </g>
        </g>
        <g id="TEXT-4" data-name="TEXT">
          <g>
            <path class="cls-2" d="M44.35,129.8h1.9l-5.5,15.4h-2.5l-5.5-15.4h1.9l4.1,11.6c.4,1.2.7,2,.8,2.4h0c.2-.7.5-1.5.8-2.3l4-11.7Z"/>
            <path class="cls-2" d="M54.05,142h1.6v.5c0,1-.3,1.7-.8,2.1-.4.3-.8.5-1.5.6-.6.1-1.4.2-2.4.2-1.9,0-3.2-.4-3.8-1.1-.4-.5-.7-1.2-.8-2.1-.1-.7-.1-1.5-.1-2.3,0-1.1.1-2,.2-2.7.1-.6.3-1.2.6-1.6.4-.6,1-1,1.8-1.2.6-.1,1.4-.2,2.2-.2,1.5,0,2.5.2,3.1.5.9.5,1.5,1.6,1.6,3.3v2.1h-7.8c0,1.3.1,2.3.3,2.8s.7.9,1.4,1c.3.1.8.1,1.3.1,1,0,1.8-.1,2.2-.2.5-.2.7-.5.8-1.1,0-.1.1-.4.1-.7ZM54.05,138.9c0-1.1-.1-1.9-.2-2.3-.2-.5-.6-.8-1.2-.9-.3-.1-.9-.1-1.6-.1-.9,0-1.6.1-2.1.2-.6.2-1,.9-1.1,1.9v1.2h6.2Z"/>
            <path class="cls-2" d="M58.25,134.4h1.6l-.2,1.2h0c.3-.6.7-.9,1.1-1.1.5-.3,1.2-.4,2-.4,1,0,1.7.2,2.2.7s.7,1.2.7,2.3v.8h-1.6v-.9c0-.5-.1-.9-.3-1.1-.3-.3-.8-.5-1.5-.5-1.2,0-2,.4-2.3,1.1-.2.4-.3,1.1-.3,2.1v6.5h-1.6v-10.7h.2Z"/>
            <path class="cls-2" d="M67.65,134.4h1.6v1.6h0c.3-.6.6-1,1-1.2.6-.4,1.5-.6,2.5-.6,1.8,0,2.9.6,3.3,1.8h0c.3-.6.7-1,1.2-1.3.7-.4,1.5-.6,2.6-.6,1.7,0,2.8.4,3.3,1.3.3.5.5,1.4.5,2.6v7.1h-1.6v-7.2c0-.7-.1-1.2-.3-1.6-.3-.5-1-.8-2.1-.8-1.6,0-2.7.4-3,1.3-.2.4-.3,1.1-.3,2.1v6.2h-1.6v-7.1c0-.7-.1-1.2-.1-1.3s-.1-.3-.1-.4c-.3-.5-1-.8-2.2-.8-1.4,0-2.4.4-2.8,1.2-.3.5-.4,1.3-.4,2.2v6.1h-1.6v-10.6h.1Z"/>
            <path class="cls-2" d="M94.25,142h1.6v.5c0,1-.3,1.7-.8,2.1-.4.3-.8.5-1.5.6-.6.1-1.4.2-2.4.2-1.9,0-3.2-.4-3.8-1.1-.4-.5-.7-1.2-.8-2.1-.1-.7-.1-1.5-.1-2.3,0-1.1.1-2,.2-2.7.1-.6.3-1.2.6-1.6.4-.6,1-1,1.8-1.2.6-.1,1.4-.2,2.2-.2,1.5,0,2.5.2,3.1.5.9.5,1.5,1.6,1.6,3.3v2.1h-7.8c0,1.3.1,2.3.3,2.8.2.5.7.9,1.4,1,.3.1.8.1,1.3.1,1,0,1.8-.1,2.2-.2.5-.2.7-.5.8-1.1.1-.1.1-.4.1-.7ZM94.25,138.9c0-1.1-.1-1.9-.2-2.3-.2-.5-.6-.8-1.2-.9-.3-.1-.9-.1-1.6-.1-.9,0-1.6.1-2.1.2-.6.2-1,.9-1.1,1.9v1.2h6.2Z"/>
            <path class="cls-2" d="M106.75,137.2h-1.6c0-.6-.1-1-.2-1.2-.2-.2-.5-.4-1-.5h-1.5c-.8,0-1.3,0-1.6.1-.3,0-.6.1-.8.3-.3.2-.4.6-.4,1.2s.1,1,.2,1.3.5.4,1,.5c.1,0,.7,0,1.7.1,1.4.1,2.2.1,2.5.2.9.1,1.4.5,1.8,1.2.2.5.3,1.1.3,1.8,0,1.1-.3,1.9-.9,2.4-.4.3-.9.5-1.6.6-.6.1-1.4.1-2.2.1-1,0-1.7-.1-2.3-.2-.5-.1-1-.3-1.4-.6-.6-.4-.9-1.2-.9-2.2v-.6h1.6v.6c0,.3.1.6.2.9.1.3.3.5.4.6.3.2,1.1.3,2.2.3,1.3,0,2.2-.1,2.6-.4.3-.2.5-.7.5-1.5,0-.7-.1-1.1-.3-1.4-.2-.2-.6-.4-1.3-.4-2,0-3.4-.1-4.2-.3-.7-.2-1.2-.5-1.5-1.1-.2-.4-.3-.9-.3-1.7,0-1.2.3-1.9.8-2.3.4-.3,1-.5,1.8-.6.6-.1,1.3-.1,2-.1.9,0,1.6.1,2.2.2.5.1,1,.3,1.3.5.5.4.8,1.1.8,2.1.1-.1.1,0,.1.1Z"/>
            <path class="cls-2" d="M117.65,137.2h-1.6c0-.6-.1-1-.2-1.2-.2-.2-.5-.4-1-.5h-1.5c-.8,0-1.3,0-1.6.1-.3,0-.6.1-.8.3-.3.2-.4.6-.4,1.2s.1,1,.2,1.3.5.4,1,.5c.1,0,.7,0,1.7.1,1.4.1,2.2.1,2.5.2.9.1,1.4.5,1.8,1.2.2.5.3,1.1.3,1.8,0,1.1-.3,1.9-.9,2.4-.4.3-.9.5-1.6.6-.6.1-1.4.1-2.2.1-1,0-1.7-.1-2.3-.2-.5-.1-1-.3-1.4-.6-.6-.4-.9-1.2-.9-2.2v-.6h1.6v.6c0,.3.1.6.2.9.1.3.3.5.4.6.3.2,1.1.3,2.2.3,1.3,0,2.2-.1,2.6-.4.3-.2.5-.7.5-1.5,0-.7-.1-1.1-.3-1.4-.2-.2-.6-.4-1.3-.4-2,0-3.4-.1-4.2-.3-.7-.2-1.2-.5-1.5-1.1-.2-.4-.3-.9-.3-1.7,0-1.2.3-1.9.8-2.3.4-.3,1-.5,1.8-.6.6-.1,1.3-.1,2-.1.9,0,1.6.1,2.2.2.5.1,1,.3,1.3.5.5.4.8,1.1.8,2.1.1-.1.1,0,.1.1Z"/>
            <path class="cls-2" d="M129.05,134.4v10.8h-1.6l.1-1.4h0c-.5,1.1-1.8,1.6-3.6,1.6-1.7,0-2.8-.5-3.4-1.6-.2-.5-.4-1.2-.4-2.1v-7.2h1.6v7.2c0,.8.1,1.3.3,1.6s.5.6.9.7c.3.1.7.1,1.2.1,1,0,1.8-.1,2.2-.4.5-.3.9-.9,1-1.8,0-.3.1-.7.1-1.2v-6.2h1.6v-.1Z"/>
            <path class="cls-2" d="M131.95,134.4h1.6v1.5h0c.2-.4.4-.7.6-.9.6-.5,1.6-.8,3-.8,1.8,0,3,.5,3.5,1.4.2.4.4,1.3.4,2.5v7h-1.6v-6.9c0-.9-.1-1.6-.2-1.9-.3-.6-1-.8-2.3-.8-.9,0-1.6.1-2,.4-.7.4-1.1,1-1.2,1.8-.1.3-.1.6-.1,1v6.5h-1.7v-10.8Z"/>
            <path class="cls-2" d="M152.95,134.4v11.5c0,1.2-.2,2.1-.5,2.6s-.8.9-1.5,1.1-1.5.4-2.6.4c-1.2,0-2.1-.1-2.7-.4-.9-.3-1.4-1-1.5-2,0-.3-.1-.7-.1-1.2h1.5c0,.8.1,1.3.3,1.6s.6.5,1.2.5c.3,0,.8.1,1.4.1.8,0,1.5-.1,1.9-.3.6-.2.9-.7,1-1.4,0-.3.1-.6.1-.9v-2.2h0c-.1.3-.3.5-.4.7-.1.2-.4.3-.6.4-.6.3-1.4.4-2.4.4-1.4,0-2.5-.3-3.2-1-.5-.5-.8-1.2-1-1.9-.1-.7-.2-1.5-.2-2.4,0-1.7.1-2.9.4-3.5.3-1,1-1.6,1.9-1.9.6-.2,1.3-.3,2.2-.3,1,0,1.8.2,2.4.5.4.2.7.6,1,1.1h0l-.1-1.5h1.5ZM148.15,135.6c-1.2,0-1.9.2-2.3.7-.3.4-.5.9-.6,1.6,0,.5-.1,1.1-.1,1.7,0,1.4.1,2.4.2,2.9.1.5.3.8.6,1,.4.3,1.1.5,2.2.5,1.2,0,2-.3,2.4-.8.3-.4.5-.9.5-1.5.1-.6.1-1.3.1-2.1,0-1.1-.1-1.9-.2-2.4-.2-.7-.6-1.2-1.2-1.4-.3-.1-.9-.2-1.6-.2Z"/>
            <path class="cls-2" d="M178.85,145.2v-15.4h6.8c.9,0,1.5,0,1.9.1,1,.1,1.7.6,2.2,1.3.3.6.5,1.5.5,2.7s-.2,2-.7,2.5c-.3.3-.7.5-1.2.7h0c.6.2,1.1.4,1.4.6.7.5,1,1.5,1,3.1,0,1.9-.5,3.2-1.5,3.8-.6.4-1.6.6-2.8.6h-7.6ZM180.65,136.6h4.6c1.2,0,2-.1,2.5-.4.4-.2.7-.6.8-1.1.1-.3.1-.7.1-1.3,0-.7-.1-1.2-.2-1.6-.2-.5-.7-.8-1.4-.9h-6.3v5.3h-.1ZM180.65,143.7h6.1c1.2-.1,1.9-.4,2.1-1,.1-.4.2-.9.2-1.6,0-.8-.1-1.4-.2-1.8-.2-.6-.7-1-1.6-1.1h-6.6v5.5h0Z"/>
            <path class="cls-2" d="M194.75,137.4h-1.6c0-1,.2-1.7.4-2.1.3-.5.8-.8,1.6-.9.6-.1,1.3-.2,2.3-.2,1.3,0,2.3.1,2.9.4.9.4,1.4,1.1,1.5,2.2.1.5.1.9.1,1.2v7.1h-1.6l.1-1.2h0c-.3.4-.5.7-.9.8-.6.3-1.5.5-2.8.5-.9,0-1.5-.1-2-.2-.5-.1-.9-.3-1.3-.6-.5-.5-.8-1.3-.8-2.4,0-.6.1-1.2.3-1.7s.4-.9.7-1.1c.6-.4,1.6-.7,3.2-.7,1.2,0,2.1.1,2.7.4.3.1.6.4.8.7h0v-1.3c0-1-.1-1.7-.3-2.1-.2-.4-.5-.6-1-.7-.4-.1-.9-.1-1.5-.1-1.2,0-2,.1-2.4.4-.3.2-.5.6-.5,1.2.1.2.1.3.1.4ZM197.35,139.9c-1.3,0-2.2.2-2.6.5-.3.2-.4.7-.4,1.5,0,.9.2,1.4.5,1.7.4.3,1.1.4,2.2.4,1.4,0,2.4-.2,2.9-.6.3-.3.5-.7.5-1.4,0-.8-.2-1.3-.5-1.6-.4-.3-1.3-.5-2.6-.5Z"/>
            <path class="cls-2" d="M213.65,134.4v10.8h-1.6l.1-1.4h0c-.5,1.1-1.8,1.6-3.6,1.6-1.7,0-2.8-.5-3.4-1.6-.2-.5-.4-1.2-.4-2.1v-7.2h1.6v7.2c0,.8.1,1.3.3,1.6s.5.6.9.7c.3.1.7.1,1.2.1,1,0,1.8-.1,2.2-.4.5-.3.9-.9,1-1.8,0-.3.1-.7.1-1.2v-6.2h1.6v-.1Z"/>
            <path class="cls-2" d="M218.25,137.4h-1.6c0-1,.2-1.7.4-2.1.3-.5.8-.8,1.6-.9.6-.1,1.3-.2,2.3-.2,1.3,0,2.3.1,2.9.4.9.4,1.4,1.1,1.5,2.2.1.5.1.9.1,1.2v7.1h-1.6l.1-1.2h0c-.3.4-.5.7-.9.8-.6.3-1.5.5-2.8.5-.9,0-1.5-.1-2-.2-.5-.1-.9-.3-1.3-.6-.5-.5-.8-1.3-.8-2.4,0-.6.1-1.2.3-1.7s.4-.9.7-1.1c.6-.4,1.6-.7,3.2-.7,1.2,0,2.1.1,2.7.4.3.1.6.4.8.7h0v-1.3c0-1-.1-1.7-.3-2.1-.2-.4-.5-.6-1-.7-.4-.1-.9-.1-1.5-.1-1.2,0-2,.1-2.4.4-.3.2-.5.6-.5,1.2.1.2.1.3.1.4ZM220.85,139.9c-1.3,0-2.2.2-2.6.5-.3.2-.4.7-.4,1.5,0,.9.2,1.4.5,1.7.4.3,1.1.4,2.2.4,1.4,0,2.4-.2,2.9-.6.3-.3.5-.7.5-1.4,0-.8-.2-1.3-.5-1.6-.4-.3-1.3-.5-2.6-.5Z"/>
            <path class="cls-2" d="M228.35,145.2v-15.4h1.6v6h0c.2-.5.5-.9.9-1.1.7-.3,1.5-.5,2.6-.5,1.4,0,2.3.3,3,.9.5.5.8,1.1,1,1.9.2.9.2,1.8.2,2.9,0,1.2-.1,2.1-.3,2.9-.2.7-.5,1.3-.9,1.7-.6.6-1.7.9-3.2.9-.9,0-1.7-.1-2.2-.4-.5-.2-.9-.6-1.2-1.1h0l.1,1.3h-1.6ZM233.05,135.6c-1,0-1.8.2-2.2.5s-.7.8-.8,1.5c-.1.5-.1,1.2-.1,1.9,0,1.2,0,2,.1,2.6s.2,1,.5,1.3c.4.5,1.2.7,2.4.7,1.1,0,1.9-.2,2.2-.5.4-.4.6-.9.7-1.7.1-.6.1-1.2.1-1.9,0-1.1,0-1.8-.1-2.4-.1-.5-.3-.9-.5-1.2-.3-.6-1.1-.8-2.3-.8Z"/>
            <path class="cls-2" d="M240.35,134.4h1.6l-.2,1.2h0c.3-.6.7-.9,1.1-1.1.5-.3,1.2-.4,2-.4,1,0,1.7.2,2.2.7s.7,1.2.7,2.3v.8h-1.6v-.9c0-.5-.1-.9-.3-1.1-.3-.3-.8-.5-1.5-.5-1.2,0-2,.4-2.3,1.1-.2.4-.3,1.1-.3,2.1v6.5h-1.6v-10.7h.2Z"/>
            <path class="cls-2" d="M257.35,142h1.6v.5c0,1-.3,1.7-.8,2.1-.4.3-.8.5-1.5.6-.6.1-1.4.2-2.4.2-1.9,0-3.2-.4-3.8-1.1-.4-.5-.7-1.2-.8-2.1-.1-.7-.1-1.5-.1-2.3,0-1.1.1-2,.2-2.7.1-.6.3-1.2.6-1.6.4-.6,1-1,1.8-1.2.6-.1,1.4-.2,2.2-.2,1.5,0,2.5.2,3.1.5.9.5,1.5,1.6,1.6,3.3v2.1h-7.8c0,1.3.1,2.3.3,2.8.2.5.7.9,1.4,1,.3.1.8.1,1.3.1,1,0,1.8-.1,2.2-.2.5-.2.7-.5.8-1.1.1-.1.1-.4.1-.7ZM257.35,138.9c0-1.1-.1-1.9-.2-2.3-.2-.5-.6-.8-1.2-.9-.3-.1-.9-.1-1.6-.1-.9,0-1.6.1-2.1.2-.6.2-1,.9-1.1,1.9v1.2h6.2Z"/>
            <path class="cls-2" d="M268.85,141.3h1.6v.5c0,1.3-.3,2.2-1,2.8-.3.3-.8.5-1.4.6s-1.3.2-2.2.2c-1.8,0-3.1-.4-3.7-1.1-.4-.5-.7-1.2-.8-2-.1-.7-.1-1.6-.1-2.5,0-1.1.1-1.9.2-2.5s.3-1.1.5-1.5c.6-1,1.9-1.5,3.9-1.5,1.5,0,2.6.2,3.3.6.7.4,1.1,1.1,1.2,2.1v1h-1.6v-.3c0-.7-.2-1.3-.5-1.6-.2-.2-.5-.3-.9-.4-.4-.1-1-.1-1.7-.1-1.2,0-2,.3-2.3.8s-.5,1.7-.5,3.6.3,3.2.8,3.6c.3.3,1.2.4,2.5.4.8,0,1.4-.1,1.8-.2.4-.2.6-.4.8-.9.1-.3.1-.8.1-1.6Z"/>
            <path class="cls-2" d="M274.15,129.8v6h0c.2-.5.5-.8.9-1,.6-.3,1.4-.5,2.5-.5,1.2,0,2,.1,2.6.4.8.4,1.3,1.2,1.4,2.3v8.2h-1.6v-8.1c0-.2-.1-.4-.2-.6-.2-.4-.5-.6-.9-.7-.3-.1-.7-.1-1.3-.1-1,0-1.7.1-2.2.4-.7.3-1.1,1.1-1.2,2.2v7.1h-1.6v-15.4h1.6v-.2Z"/>
            <path class="cls-2" d="M284.55,134.4h1.6v1.5h0c.2-.4.4-.7.6-.9.6-.5,1.6-.8,3-.8,1.8,0,3,.5,3.5,1.4.2.4.4,1.3.4,2.5v7h-1.6v-6.9c0-.9-.1-1.6-.2-1.9-.3-.6-1-.8-2.3-.8-.9,0-1.6.1-2,.4-.7.4-1.1,1-1.2,1.8-.1.3-.1.6-.1,1v6.5h-1.6v-10.8h-.1Z"/>
            <path class="cls-2" d="M305.25,134.4v10.8h-1.6l.1-1.4h0c-.5,1.1-1.8,1.6-3.6,1.6-1.7,0-2.8-.5-3.4-1.6-.2-.5-.3-1.2-.3-2.1v-7.2h1.6v7.2c0,.8.1,1.3.3,1.6.2.3.5.6.9.7.3.1.7.1,1.2.1,1,0,1.8-.1,2.2-.4.5-.3.9-.9,1-1.8,0-.3.1-.7.1-1.2v-6.2h1.5v-.1Z"/>
            <path class="cls-2" d="M308.15,134.4h1.6v1.5h0c.2-.4.4-.7.6-.9.6-.5,1.6-.8,3-.8,1.8,0,3,.5,3.5,1.4.2.4.4,1.3.4,2.5v7h-1.6v-6.9c0-.9-.1-1.6-.2-1.9-.3-.6-1-.8-2.3-.8-.9,0-1.6.1-2,.4-.7.4-1.1,1-1.2,1.8-.1.3-.1.6-.1,1v6.5h-1.6v-10.8h-.1Z"/>
            <path class="cls-2" d="M329.15,134.4v11.5c0,1.2-.2,2.1-.5,2.6s-.8.9-1.5,1.1c-.7.2-1.5.4-2.6.4-1.2,0-2.1-.1-2.7-.4-.9-.3-1.4-1-1.5-2,0-.3-.1-.7-.1-1.2h1.5c0,.8.1,1.3.3,1.6.2.3.6.5,1.2.5.3,0,.8.1,1.4.1.8,0,1.5-.1,1.9-.3.6-.2.9-.7,1-1.4,0-.3.1-.6.1-.9v-2.2h0c-.1.3-.3.5-.4.7s-.4.3-.6.4c-.6.3-1.4.4-2.4.4-1.4,0-2.5-.3-3.2-1-.5-.5-.8-1.2-1-1.9-.1-.7-.2-1.5-.2-2.4,0-1.7.1-2.9.4-3.5.3-1,1-1.6,1.9-1.9.6-.2,1.3-.3,2.2-.3,1,0,1.8.2,2.4.5.4.2.7.6,1,1.1h0l-.1-1.5h1.5ZM324.45,135.6c-1.2,0-1.9.2-2.3.7-.3.4-.5.9-.6,1.6,0,.5-.1,1.1-.1,1.7,0,1.4.1,2.4.2,2.9s.3.8.6,1c.4.3,1.1.5,2.2.5,1.2,0,2-.3,2.4-.8.3-.4.5-.9.5-1.5.1-.6.1-1.3.1-2.1,0-1.1-.1-1.9-.2-2.4-.2-.7-.6-1.2-1.2-1.4-.4-.1-.9-.2-1.6-.2Z"/>
            <path class="cls-2" d="M366.15,140.1h1.7v.8c0,1.3-.1,2.3-.5,2.9-.4.8-1.2,1.3-2.4,1.5-.5.1-1.9.1-3.9.1-1.3,0-2.2-.1-2.9-.3-1.2-.4-1.9-1.2-2.3-2.5-.2-.9-.4-2.5-.4-5,0-2.1,0-3.3.1-3.8.1-1,.3-1.9.8-2.5.4-.6,1.1-1.1,2-1.3.7-.2,2.2-.3,4.5-.3,1.2,0,2.1.1,2.7.2,1.2.4,1.9,1.2,2.1,2.5.1.3.1,1,.1,2.1h-1.8v-.5c0-.7-.1-1.3-.2-1.6-.1-.4-.3-.7-.6-.8-.4-.3-1.2-.4-2.5-.4-1.4,0-2.6,0-3.3.1-.5.1-.9.2-1.2.4-.3.2-.5.6-.7,1-.2.5-.2,1.2-.2,2.3,0,1.9,0,3.5.1,4.9.1,1.8.4,3,1,3.4.4.3,1,.5,1.9.5h1.4c1.2,0,2.1,0,2.8-.1.6-.1,1-.3,1.3-.5.4-.3.5-1.1.5-2.2-.1-.2-.1-.5-.1-.9Z"/>
            <path class="cls-2" d="M380.15,142h-7.8l-1.2,3.3h-1.8l5.6-15.4h2.4l5.8,15.4h-1.8l-1.2-3.3ZM379.65,140.6l-3.4-9.4-3.4,9.4h6.8Z"/>
            <path class="cls-2" d="M385.95,145.2v-15.4h7.1c1,0,1.8.1,2.5.3,1,.2,1.8.9,2.4,1.9.4.8.7,1.8.7,3.1v1.7c0,1.9,0,3.2-.1,3.9-.2,2-.9,3.3-2.2,3.9-.5.2-1.2.4-2.2.6-.3,0-.5.1-.7.1h-7.5v-.1ZM387.65,143.7h5c1.7,0,2.9-.3,3.4-1,.4-.5.7-1.4.8-2.6,0-.5.1-1.3.1-2.3,0-1.8,0-3.1-.1-3.8-.2-1.3-.7-2.1-1.7-2.5-.5-.2-1.2-.3-2.1-.3h-5.4v12.5h0Z"/>
          </g>
          <g id="MTEXT">
            <path class="cls-2" d="M166.85,140h-2v-2.3h2v2.3Z"/>
          </g>
          <g id="MTEXT-2" data-name="MTEXT">
            <path class="cls-2" d="M343.25,140h-2v-2.3h2v2.3Z"/>
          </g>
        </g>
      </g>
    </g>
  </g>
</svg>