<?xml version="1.0" encoding="UTF-8"?>
<svg id="Ebene_1" data-name="Ebene 1" xmlns="http://www.w3.org/2000/svg" xmlns:xlink="http://www.w3.org/1999/xlink" viewBox="0 0 521.53 101.2">
  <defs>
    <style>
      .cls-1 {
        fill: #dabeae;
      }

      .cls-2 {
        fill: #fff;
      }

      .cls-3 {
        fill: none;
      }

      .cls-4 {
        fill: #c69e88;
      }

      .cls-5 {
        clip-path: url(#clippath);
      }
    </style>
    <clipPath id="clippath">
      <rect class="cls-3" y="0" width="521.53" height="101.2"/>
    </clipPath>
  </defs>
  <g class="cls-5">
    <path class="cls-2" d="M510.31,85.85c0-3.41,1.66-4.53,3.29-4.53,2.11,0,2.81,1.66,2.81,3.44v10.66h1.81v-10.75c0-1.99-.39-4.8-4.17-4.8-1.63,0-2.81.91-3.68,2.17h-.06v-1.87h-1.81v15.25h1.81v-9.57ZM500.65,73.62h-2.23v2.29h2.23v-2.29ZM500.44,80.18h-1.81v15.25h1.81v-15.25ZM487.78,80.18h-1.81v15.25h1.81v-9.82c0-2.57,1.69-4.11,4.26-3.89v-1.84c-1.84,0-3.44.91-4.2,2.36h-.06v-2.05ZM470.09,86.73c0-3.38.54-5.41,3.44-5.41s3.44,2.03,3.44,5.41h-6.89ZM478.78,88.18c0-4.53,0-8.31-5.25-8.31-3.41,0-5.26,2.02-5.26,6.43v3.74c0,4.62,2.63,5.68,5.26,5.68,3.05,0,5.04-1.27,5.25-4.95h-1.9c.03,2.05-1.09,3.5-3.35,3.5-2.87,0-3.44-2.81-3.44-4.92v-1.18h8.7ZM457.58,81.63v10.9c0,1.87.72,2.96,3.17,2.96.57,0,1.18-.03,1.72-.09v-1.57c-.39.06-.82.09-1.42.09-1.45,0-1.66-.48-1.66-2.51v-9.79h3.08v-1.45h-3.08v-3.93l-1.81.79v3.14h-2.45v1.45h2.45ZM447.2,95.43h1.87c-.18-1.78-.18-2.75-.18-3.84v-7.67c0-3.89-3.2-4.05-4.74-4.05-2.66,0-4.92,1.15-5.07,4.08h1.93c0-1.81,1.33-2.63,2.99-2.63,2.42,0,3.08,1.36,3.08,3.59v1.27c-3.08.24-8.46-.3-8.46,5.04,0,2.66,1.48,4.5,4.2,4.5,1.87,0,3.35-.72,4.32-2.17h.06v1.87ZM447.07,90.41c0,1.99-1.69,3.87-3.78,3.87-1.87,0-2.75-1.42-2.75-3.14,0-3.71,3.93-3.41,6.52-3.5v2.78ZM429.08,80.18h-1.81v15.25h1.81v-9.82c0-2.57,1.69-4.11,4.26-3.89v-1.84c-1.84,0-3.44.91-4.2,2.36h-.06v-2.05ZM411.38,86.73c0-3.38.54-5.41,3.44-5.41s3.44,2.03,3.44,5.41h-6.89ZM420.08,88.18c0-4.53,0-8.31-5.25-8.31-3.41,0-5.26,2.02-5.26,6.43v3.74c0,4.62,2.63,5.68,5.26,5.68,3.05,0,5.04-1.27,5.25-4.95h-1.9c.03,2.05-1.09,3.5-3.35,3.5-2.87,0-3.44-2.81-3.44-4.92v-1.18h8.7ZM394.53,95.43v-1.84h.06c.75,1.42,2.05,2.14,3.83,2.14,4.44,0,4.71-4.59,4.71-7.94,0-2.72.39-7.91-4.56-7.91-1.72,0-2.93.63-3.87,2.08l-.06-.06v-8.28h-1.81v20.29c0,.51-.09,1-.18,1.51h1.87ZM394.59,87.57c0-2.29.36-6.25,3.29-6.25,3.35,0,3.44,2.96,3.44,6.53s-.09,6.43-3.44,6.43-3.29-4.29-3.29-6.71M382.54,80.18h-1.81v15.25h1.81v-9.82c0-2.57,1.69-4.11,4.26-3.89v-1.84c-1.84,0-3.44.91-4.2,2.36h-.06v-2.05ZM364.84,86.73c0-3.38.54-5.41,3.44-5.41s3.44,2.03,3.44,5.41h-6.89ZM373.54,88.18c0-4.53,0-8.31-5.25-8.31-3.41,0-5.25,2.02-5.25,6.43v3.74c0,4.62,2.63,5.68,5.25,5.68,3.05,0,5.04-1.27,5.25-4.95h-1.9c.03,2.05-1.09,3.5-3.35,3.5-2.87,0-3.44-2.81-3.44-4.92v-1.18h8.7ZM354.03,80.18v10.75c0,1.06-.88,3.35-3.32,3.35-2.63,0-2.54-3.2-2.54-3.62v-10.48h-1.81v10.78c0,2.48.88,4.77,4.02,4.77,1.69,0,2.78-.7,3.83-1.99h.06v1.69h1.57v-15.25h-1.81ZM330.47,86.73c0-3.38.54-5.41,3.44-5.41s3.44,2.03,3.44,5.41h-6.89ZM339.17,88.18c0-4.53,0-8.31-5.25-8.31-3.41,0-5.25,2.02-5.25,6.43v3.74c0,4.62,2.63,5.68,5.25,5.68,3.05,0,5.04-1.27,5.25-4.95h-1.9c.03,2.05-1.09,3.5-3.35,3.5-2.87,0-3.44-2.81-3.44-4.92v-1.18h8.7ZM317.97,81.63v10.9c0,1.87.72,2.96,3.17,2.96.57,0,1.18-.03,1.72-.09v-1.57c-.39.06-.82.09-1.42.09-1.45,0-1.66-.48-1.66-2.51v-9.79h3.08v-1.45h-3.08v-3.93l-1.81.79v3.14h-2.45v1.45h2.45ZM309.52,79.15c0-3.14-.97-5.95-5.5-5.95-3.56,0-5.95,1.57-5.92,5.35.03,2.17.21,3.47,4.44,6.07,3.14,1.93,5.1,2.78,5.1,5.74,0,2.51-1.24,3.87-3.77,3.87-3.9,0-4.08-2.51-4.08-4.92h-1.99c-.18,4.26,1.72,6.55,5.98,6.55,3.8,0,5.8-1.9,5.8-5.8,0-4.23-2.75-4.8-5.44-6.73-2.48-1.78-4.11-1.87-4.11-5.1,0-2.57,1.48-3.38,3.83-3.38,2.96,0,3.62,1.63,3.68,4.32h1.96ZM271.49,85.85c0-3.41,1.66-4.53,3.29-4.53,2.11,0,2.81,1.66,2.81,3.44v10.66h1.81v-10.75c0-1.99-.39-4.8-4.17-4.8-1.63,0-2.81.91-3.68,2.17h-.06v-1.87h-1.81v15.25h1.81v-9.57ZM261.82,73.62h-2.23v2.29h2.23v-2.29ZM261.61,80.18h-1.81v15.25h1.81v-15.25ZM248.96,80.18h-1.81v15.25h1.81v-9.82c0-2.57,1.69-4.11,4.26-3.89v-1.84c-1.84,0-3.44.91-4.2,2.36h-.06v-2.05ZM231.26,86.73c0-3.38.54-5.41,3.44-5.41s3.44,2.03,3.44,5.41h-6.89ZM239.96,88.18c0-4.53,0-8.31-5.25-8.31-3.41,0-5.26,2.02-5.26,6.43v3.74c0,4.62,2.63,5.68,5.26,5.68,3.05,0,5.04-1.27,5.25-4.95h-1.9c.03,2.05-1.09,3.5-3.35,3.5-2.87,0-3.44-2.81-3.44-4.92v-1.18h8.7ZM218.85,95.43h1.81v-13.8h3.08v-1.45h-3.08v-2.6c0-.88,0-2.45,1.75-2.45h1.36v-1.51c-.45-.06-.75-.12-1.03-.12-3.69,0-3.9,2.66-3.9,4.11v2.57h-2.45v1.45h2.45v13.8ZM208.28,80.18v10.75c0,1.06-.88,3.35-3.32,3.35-2.63,0-2.54-3.2-2.54-3.62v-10.48h-1.81v10.78c0,2.48.88,4.77,4.02,4.77,1.69,0,2.78-.7,3.84-1.99h.06v1.69h1.57v-15.25h-1.81ZM206.77,78.18h1.93v-3.05h-1.93v3.05ZM202,78.18h1.93v-3.05h-1.93v3.05ZM190.25,80.18h-1.81v15.25h1.81v-9.82c0-2.57,1.69-4.11,4.26-3.89v-1.84c-1.84,0-3.44.91-4.2,2.36h-.06v-2.05ZM172.95,80.18h-1.75v21.02h1.81v-7.49l.06.03c.94,1.45,2.05,1.99,3.17,1.99,3.9,0,5.26-2.33,5.26-6.28v-3.41c0-1.99-.03-6.16-4.8-6.16-1.21,0-2.72.63-3.69,2.12l-.06.03v-1.84ZM173.01,86.43c0-3.78,2.05-5.11,3.44-5.11,3.23,0,3.23,3.44,3.23,6.46,0,.97-.06,3.71-.36,4.47-.15.36-.57,2.02-3.08,2.02-1.66,0-3.23-1.66-3.23-5.13v-2.72ZM164.16,91.41c0-5.1-6.85-4.08-6.85-7.88,0-1.36,1.03-2.21,2.33-2.21,2.05,0,2.57,1.03,2.66,2.96h1.78c0-2.33-.97-4.41-3.99-4.41-2.66,0-4.59,1-4.59,3.81,0,5.04,6.85,4.02,6.85,8,0,1.69-.85,2.69-2.6,2.69-2.33,0-2.81-1.39-2.81-3.47h-1.84c-.03,3.23,1.27,4.83,4.56,4.83,2.84,0,4.5-1.45,4.5-4.32M144.53,81.63v10.9c0,1.87.73,2.96,3.17,2.96.57,0,1.18-.03,1.72-.09v-1.57c-.39.06-.81.09-1.42.09-1.45,0-1.66-.48-1.66-2.51v-9.79h3.08v-1.45h-3.08v-3.93l-1.81.79v3.14h-2.45v1.45h2.45ZM132.45,95.43h1.81v-13.8h3.08v-1.45h-3.08v-2.6c0-.88,0-2.45,1.75-2.45h1.36v-1.51c-.45-.06-.76-.12-1.03-.12-3.68,0-3.9,2.66-3.9,4.11v2.57h-2.45v1.45h2.45v13.8ZM121.97,95.43h1.87c-.18-1.78-.18-2.75-.18-3.84v-7.67c0-3.89-3.2-4.05-4.74-4.05-2.66,0-4.92,1.15-5.07,4.08h1.93c0-1.81,1.33-2.63,2.99-2.63,2.42,0,3.08,1.36,3.08,3.59v1.27c-3.08.24-8.46-.3-8.46,5.04,0,2.66,1.48,4.5,4.2,4.5,1.87,0,3.35-.72,4.32-2.17h.06v1.87ZM121.85,90.41c0,1.99-1.69,3.87-3.78,3.87-1.87,0-2.75-1.42-2.75-3.14,0-3.71,3.93-3.41,6.52-3.5v2.78ZM98.72,95.43v-9.57c0-3.41,1.66-4.53,3.29-4.53,2.11,0,2.81,1.66,2.81,3.44v10.66h1.81v-10.75c0-1.99-.39-4.8-4.17-4.8-1.63,0-2.81.91-3.68,2.17h-.06v-8.43h-1.81v21.81h1.81ZM89.99,84.56c.15-3.2-1.63-4.68-4.26-4.68-2.08,0-3.81.79-4.59,2.96-.39,1.15-.45,3.54-.45,5.04,0,3.78,0,7.85,5.16,7.85,1.42,0,4.32-.7,4.17-4.8h-1.81c-.09,1.84-.39,3.35-2.78,3.35-2.81,0-2.81-3.65-2.81-6.4,0-2.02.18-4.11.42-4.8.39-1.12,1.33-1.75,2.45-1.75,2.08,0,2.78,1.33,2.69,3.23h1.81ZM74.41,91.41c0-5.1-6.85-4.08-6.85-7.88,0-1.36,1.03-2.21,2.33-2.21,2.05,0,2.57,1.03,2.66,2.96h1.78c0-2.33-.97-4.41-3.99-4.41-2.66,0-4.59,1-4.59,3.81,0,5.04,6.85,4.02,6.85,8,0,1.69-.85,2.69-2.6,2.69-2.33,0-2.81-1.39-2.81-3.47h-1.84c-.03,3.23,1.27,4.83,4.56,4.83,2.84,0,4.5-1.45,4.5-4.32M54.78,81.63v10.9c0,1.87.73,2.96,3.17,2.96.57,0,1.18-.03,1.72-.09v-1.57c-.39.06-.81.09-1.42.09-1.45,0-1.66-.48-1.66-2.51v-9.79h3.08v-1.45h-3.08v-3.93l-1.81.79v3.14h-2.45v1.45h2.45ZM43.45,80.18h-1.81v15.25h1.81v-9.82c0-2.57,1.69-4.11,4.26-3.89v-1.84c-1.84,0-3.44.91-4.2,2.36h-.06v-2.05ZM33.67,73.62h-2.23v2.29h2.23v-2.29ZM33.46,80.18h-1.81v15.25h1.81v-15.25ZM7.09,92.89h-.06l-4.41-19.27H.57l5.25,21.81h2.42l4.5-19.39h.06l4.38,19.39h2.54l5.41-21.81h-1.9l-4.65,19.12h-.06l-4.38-19.12h-2.6l-4.44,19.27Z"/>
    <path class="cls-4" d="M511.1,56.5h10.42v-11.28h-10.42v11.28ZM486.45,27.24v-3.32c0-2.55.11-4.12.34-4.7.23-.58.82-.87,1.78-.87.78,0,1.29.34,1.54,1.02.25.68.37,2.2.37,4.55v3.32h-4.03ZM504.32,28.61c0-4.4-.51-7.81-1.52-10.24-1.01-2.43-2.78-4.38-5.3-5.84-2.52-1.47-5.71-2.2-9.59-2.2-3.17,0-5.97.61-8.41,1.83-2.44,1.22-4.19,2.97-5.26,5.26-1.07,2.29-1.61,5.42-1.61,9.38v13.23c0,3.37.24,5.94.72,7.71.48,1.77,1.34,3.38,2.58,4.85,1.24,1.47,2.98,2.62,5.21,3.47,2.23.84,4.81,1.27,7.72,1.27s5.51-.43,7.5-1.28c1.99-.85,3.64-2.13,4.94-3.84,1.3-1.71,2.12-3.32,2.48-4.82.35-1.5.53-3.66.53-6.46v-3.35h-13.09v5.98c0,2.26-.18,3.78-.53,4.56-.35.79-1.05,1.18-2.1,1.18-.84,0-1.41-.3-1.71-.89-.3-.59-.45-1.91-.45-3.96v-9.81h17.88v-6.02ZM454.22,11.14l-4.31,13.25-.02-23.23h-13.81v55.34h13.81l.02-19.77,4.31,19.77h13.28l-7.28-27.29,5.6-18.06h-11.6ZM414.23,43.13c0,2.69-.13,4.39-.39,5.09-.26.71-.83,1.06-1.69,1.06s-1.41-.34-1.69-1.03c-.29-.68-.43-2.24-.43-4.68v-19.55c0-2.53.12-4.11.38-4.73.25-.63.8-.94,1.64-.94s1.45.36,1.74,1.08c.3.72.44,2.25.44,4.6v19.11ZM396.22,1.16v55.34h12.92l.89-3.43c1.16,1.42,2.44,2.48,3.85,3.19,1.4.71,2.91,1.06,4.53,1.06,2.26,0,4.2-.6,5.84-1.8,1.64-1.2,2.68-2.61,3.13-4.24.44-1.63.67-4.11.67-7.43v-20.44c0-3.35-.07-5.54-.22-6.56-.15-1.02-.59-2.07-1.32-3.14-.73-1.07-1.79-1.9-3.18-2.5-1.39-.59-3.03-.89-4.92-.89-1.64,0-3.16.32-4.56.98-1.4.65-2.67,1.64-3.81,2.96V1.16h-13.81ZM373.54,56.5h14.22V11.14h-14.22v45.36ZM373.54,8.37h14.22V1.16h-14.22v7.21ZM347.66,27.24v-3.32c0-2.55.11-4.12.34-4.7.23-.58.82-.87,1.78-.87.78,0,1.29.34,1.54,1.02.25.68.38,2.2.38,4.55v3.32h-4.03ZM365.53,28.61c0-4.4-.51-7.81-1.52-10.24-1.01-2.43-2.78-4.38-5.3-5.84-2.52-1.47-5.71-2.2-9.59-2.2-3.17,0-5.97.61-8.41,1.83-2.44,1.22-4.19,2.97-5.26,5.26-1.07,2.29-1.61,5.42-1.61,9.38v13.23c0,3.37.24,5.94.72,7.71.48,1.77,1.34,3.38,2.58,4.85,1.24,1.47,2.98,2.62,5.21,3.47,2.23.84,4.81,1.27,7.72,1.27s5.51-.43,7.5-1.28c1.99-.85,3.64-2.13,4.94-3.84,1.3-1.71,2.12-3.32,2.48-4.82.35-1.5.53-3.66.53-6.46v-3.35h-13.09v5.98c0,2.26-.18,3.78-.53,4.56-.35.79-1.05,1.18-2.1,1.18-.84,0-1.41-.3-1.71-.89-.3-.59-.45-1.91-.45-3.96v-9.81h17.88v-6.02ZM305.7,11.14v45.36h13.81v-17.91c0-4.4.14-7.21.41-8.42.27-1.22,1-2.17,2.19-2.85,1.18-.68,3.04-1.02,5.57-1.02v-15.96c-3.81.25-6.71,2.51-8.72,6.78l.55-5.96h-13.81ZM297.04,19.14c0-4.53-.42-7.99-1.26-10.37-.84-2.38-2.65-4.44-5.43-6.17-2.78-1.73-6.28-2.6-10.49-2.6s-7.78,1-10.48,2.99c-2.7,1.99-4.34,4.19-4.9,6.58-.57,2.39-.86,6.23-.86,11.52v16.44c0,3.8.14,6.66.41,8.56.27,1.9.96,3.72,2.05,5.45,1.1,1.73,2.7,3.19,4.81,4.36,2.11,1.17,4.37,1.76,6.79,1.76,2.03,0,3.79-.43,5.29-1.28,1.49-.85,2.73-2.13,3.71-3.84l1.33,3.96h9.04v-29.7h-16.85v8.41h2.91v6.56c0,2.57-.19,4.31-.56,5.19-.38.89-1.09,1.33-2.14,1.33-.96,0-1.59-.39-1.91-1.18-.32-.79-.48-2.42-.48-4.91V15.66c0-2.83.16-4.58.48-5.26s.92-1.02,1.81-1.02c1.03,0,1.68.4,1.95,1.2.27.8.41,2.78.41,5.95v5.02h14.39v-2.39Z"/>
    <path class="cls-1" d="M243.86,56.5h10.43v-11.28h-10.43v11.28ZM223.04,44.26c0,2.28-.13,3.69-.39,4.22-.26.54-.83.8-1.69.8-.91,0-1.52-.34-1.83-1.03-.31-.68-.46-2.2-.46-4.55,0-2.05.18-3.62.53-4.72.35-1.09,1.63-2.45,3.84-4.07v9.33ZM218.66,23.96c0-2.53.11-4.1.34-4.7.23-.6.81-.91,1.74-.91.82,0,1.41.36,1.76,1.08.35.72.53,2.26.53,4.63,0,1.89-.16,3.14-.48,3.76-.32.61-2.75,1.81-7.28,3.59-4.24,1.64-6.89,3.08-7.96,4.31-1.07,1.23-1.61,3.54-1.61,6.94v3.73c0,4.58,1.01,7.55,3.02,8.9,2.02,1.36,4.23,2.03,6.65,2.03,1.85,0,3.43-.4,4.77-1.21,1.33-.81,2.42-2.03,3.26-3.65v4.04h13.43v-22.77c0-7.5-.24-12.45-.72-14.85-.48-2.4-1.9-4.43-4.27-6.08-2.37-1.65-5.89-2.48-10.56-2.48-3.9,0-7.06.73-9.5,2.19-2.44,1.46-4.06,3.14-4.87,5.04-.81,1.9-1.21,4.61-1.21,8.12v3.04h12.95v-4.75ZM183.65,56.5h14.22V11.14h-14.22v45.36ZM183.65,8.37h14.22V1.16h-14.22v7.21ZM161.38,43.55c0,2.53-.15,4.12-.44,4.77-.3.65-.89.97-1.78.97-.77,0-1.3-.29-1.57-.87-.27-.58-.41-1.79-.41-3.64v-22.22c0-1.78.14-2.92.43-3.44.28-.51.84-.77,1.66-.77s1.41.29,1.69.85c.28.57.43,1.69.43,3.35v20.99ZM161.38,1.16v12.86c-1.16-1.23-2.46-2.16-3.88-2.77-1.43-.62-2.99-.92-4.7-.92-2.21,0-4.11.55-5.71,1.66-1.59,1.11-2.61,2.39-3.06,3.85-.44,1.46-.67,3.93-.67,7.42v21.23c0,3.35.22,5.76.67,7.25.44,1.48,1.45,2.79,3.03,3.91,1.57,1.13,3.43,1.69,5.57,1.69,1.6,0,3.12-.34,4.58-1.03,1.46-.69,2.85-1.71,4.17-3.08v3.29h13.81V1.16h-13.81ZM121.52,11.14v30.52c0,3.71-.1,5.91-.29,6.6-.19.68-.8,1.03-1.83,1.03-.96,0-1.54-.33-1.76-.99-.22-.66-.32-2.76-.32-6.29V11.14h-13.81v30.59c0,3.9.08,6.5.24,7.81.16,1.31.56,2.57,1.21,3.78.65,1.21,1.66,2.18,3.03,2.91,1.37.73,3.09,1.09,5.16,1.09,1.82,0,3.44-.38,4.84-1.15,1.4-.77,2.58-1.91,3.54-3.44l-.24,3.77h14.05V11.14h-13.81ZM81.65,44.26c0,2.28-.13,3.69-.39,4.22-.26.54-.83.8-1.69.8-.91,0-1.52-.34-1.83-1.03-.31-.68-.46-2.2-.46-4.55,0-2.05.18-3.62.53-4.72.35-1.09,1.64-2.45,3.85-4.07v9.33ZM77.27,23.96c0-2.53.11-4.1.34-4.7.23-.6.81-.91,1.74-.91.82,0,1.41.36,1.76,1.08.35.72.53,2.26.53,4.63,0,1.89-.16,3.14-.48,3.76-.32.61-2.75,1.81-7.28,3.59-4.24,1.64-6.89,3.08-7.96,4.31-1.07,1.23-1.61,3.54-1.61,6.94v3.73c0,4.58,1.01,7.55,3.02,8.9,2.02,1.36,4.23,2.03,6.65,2.03,1.85,0,3.44-.4,4.77-1.21,1.33-.81,2.42-2.03,3.27-3.65v4.04h13.43v-22.77c0-7.5-.24-12.45-.72-14.85-.48-2.4-1.9-4.43-4.27-6.08-2.37-1.65-5.89-2.48-10.56-2.48-3.9,0-7.06.73-9.5,2.19-2.44,1.46-4.06,3.14-4.87,5.04-.81,1.9-1.21,4.61-1.21,8.12v3.04h12.95v-4.75ZM42.26,56.5h14.22V1.16h-14.22v55.34ZM34.01,20c0-5.16-.43-8.97-1.3-11.42-.87-2.45-2.68-4.49-5.43-6.13C24.52.82,21.02,0,16.78,0,13.66,0,10.9.53,8.49,1.59c-2.4,1.06-4.28,2.51-5.64,4.36-1.36,1.85-2.17,3.77-2.44,5.76-.27,2-.41,4.98-.41,8.97v16.17c0,5.42.44,9.49,1.33,12.19.89,2.7,2.7,4.81,5.43,6.34,2.73,1.53,6.21,2.29,10.43,2.29s7.47-.9,10.24-2.7c2.77-1.8,4.56-3.9,5.37-6.3.81-2.4,1.21-6.46,1.21-12.19v-2.16h-14.39v6.96c0,3.04-.17,4.97-.49,5.79-.33.82-1.03,1.23-2.1,1.23s-1.84-.41-2.15-1.23c-.32-.82-.48-2.57-.48-5.26v-25.7c0-2.8.16-4.63.48-5.47.32-.84,1.07-1.27,2.26-1.27,1.05,0,1.73.35,2.03,1.04.31.69.46,2.44.46,5.23v9.62h14.39v-5.26Z"/>
  </g>
</svg>