<?xml version="1.0" encoding="UTF-8"?>
<svg id="Ebene_1" data-name="Ebene 1" xmlns="http://www.w3.org/2000/svg" viewBox="0 0 424.96 92.16">
  <defs>
    <style>
      .cls-1 {
        fill: #74a9d0;
      }

      .cls-2 {
        fill: #fff;
      }
    </style>
  </defs>
  <path class="cls-1" d="M49.1,92.16h-9.12c-2.38-.56-4.81-.86-7.18-1.5-15.04-4.05-27-15.94-31.14-30.91-.68-2.44-1-4.93-1.57-7.39.21-3.02-.28-6.4,0-9.38C3.44,7.85,47.06-8.8,73.6,14.4c29.06,25.4,13.64,74.25-24.51,77.76ZM42.2,9.52c-10.12.77-20.9,7.04-7.54,14.75,7.78,4.49,21.33,6.78,29.97,4.22,8.22-2.43,7.32-7.93,1.41-12.51-6.27-4.86-16.01-7.05-23.84-6.46ZM18.54,23.44c-17.3,2.27-16.65,44.77.51,49.38,12.41,3.33,16.26-16.89,15.79-25.43-.45-8.2-5.35-25.39-16.31-23.95ZM69.83,33.39c-13.47,1.52-27.51,19.13-30.85,31.48-3.03,11.21-.68,22.99,13.6,20.67,10.03-1.63,21.6-10.95,26.3-19.82,5.28-9.97,8.38-34.3-9.04-32.34Z"/>
  <path class="cls-2" d="M153.1,28.48c3.98-4.55,8.44-7.54,14.67-7.96,27.24-1.82,17.87,30.18,19.53,46.78-.74,5.14-7.31,5.45-8.72.43-.78-9.31.61-19.37-.12-28.6-.57-7.3-5.39-11.3-12.7-10.66-5.54.48-9.36,4.98-9.83,10.38-.8,9.16.67,19.38-.06,28.66-1.63,5.66-8.45,4.87-9.05-1.07-.88-8.78.71-18.97,0-27.87-1.09-13.71-21.46-14.25-22.53,1.42-.59,8.68.83,18.48.02,27.03-.53,5.66-8.3,5.93-8.86-.28-1.17-13.12.91-27.95,0-41.25.14-3.7,4.71-5.95,7.42-3.11,1.34,1.41.94,3.03,1.57,4.69,7.17-8.73,23.08-9.18,28.64,1.42Z"/>
  <path class="cls-2" d="M267.58,20.61c20.71-1.83,25.07,16.59,22.82,33.29-3.21,23.73-36.33,24.24-40.57,1.6-2.72-14.5-.21-33.3,17.76-34.89ZM278.08,31.42c-4.44-4.44-13.26-3.95-17.11,1.06s-3.68,19.19-1.44,24.7c3.69,9.11,17.09,9.24,20.79.28,2.47-5.98,2.63-21.2-2.23-26.05Z"/>
  <path class="cls-2" d="M315.22,27.06c6.86-8.15,21.41-9.15,28.16-.38,6.62,8.61,2.11,29.67,3.47,40.32-.62,5.69-8.53,6.1-9.13-.84-.76-8.81.72-18.75.02-27.6-1.08-13.66-21.41-14.11-22.53,1.14-.68,9.17.63,19.07-.11,28.32-1.45,4.29-6.86,4.44-8.52.22l-.13-43.52c.76-3.2,4.66-4.89,7.2-2.48,1.47,1.4,1.14,3.05,1.57,4.83Z"/>
  <path class="cls-2" d="M219.77,58.62l.59-.4,11.5-34.58c1.47-2.93,5.69-3.57,7.52-.65,1.47,2.35.54,4.14-.23,6.5-6,18.37-14.02,36.52-20.23,54.87-1.63,4.32-7.94,3.21-7.93-1.43,0-3.39,4.08-9.85,4.45-13.58l-15.41-42.06c-1.65-5.42,4.63-8.49,7.84-3.84l11.91,35.17Z"/>
  <path class="cls-2" d="M408.33,20.61c4.44-.39,11.87.5,15.31,3.61,2.6,2.35,1.13,6.68-2.31,7.09-2.82.34-5.06-2.5-8.24-2.82-13.78-1.39-16.3,10.43-15.54,21.47.62,9.01,6.44,15.43,15.98,13.93,3.17-.5,8.45-5.55,10.87-.64,2.91,5.88-7.96,8.49-11.89,8.73-19.58,1.2-26.15-16.05-23.41-32.74,1.69-10.3,8.58-17.68,19.23-18.63Z"/>
  <path class="cls-2" d="M368.14,21.15c2.42-.35,4.75,1.64,4.93,4.05v42.38c-1.32,5.44-8.37,4.68-8.86-.85V25.49c.2-2.04,1.86-4.04,3.93-4.34Z"/>
  <path class="cls-2" d="M367.57.12c7.56-1.4,8.15,10.26.21,9.32-4.86-.58-5.21-8.39-.21-9.32Z"/>
</svg>