<?xml version="1.0" encoding="UTF-8"?>
<svg id="Ebene_2" data-name="Ebene 2" xmlns="http://www.w3.org/2000/svg" xmlns:xlink="http://www.w3.org/1999/xlink" viewBox="0 0 185.21 32.05">
  <defs>
    <style>
      .cls-1 {
        fill: #e20b15;
      }

      .cls-2 {
        fill: #e20c15;
      }

      .cls-3 {
        fill: #fff;
      }

      .cls-4, .cls-5, .cls-6 {
        fill: none;
      }

      .cls-7 {
        clip-path: url(#clippath-1);
      }

      .cls-8 {
        fill: #e20e16;
      }

      .cls-5, .cls-6 {
        clip-rule: evenodd;
      }

      .cls-9 {
        clip-path: url(#clippath-2);
      }

      .cls-6 {
        clip-path: url(#clippath);
      }
    </style>
    <clipPath id="clippath">
      <polygon class="cls-5" points="0 32.05 185.21 32.05 185.21 0 0 0 0 32.05 0 32.05"/>
    </clipPath>
    <clipPath id="clippath-1">
      <polygon class="cls-6" points="0 0 185.21 0 185.21 32.05 0 32.05 0 0 0 0"/>
    </clipPath>
    <clipPath id="clippath-2">
      <polygon class="cls-4" points="0 32.05 185.21 32.05 185.21 0 0 0 0 32.05 0 32.05"/>
    </clipPath>
  </defs>
  <g id="Ebene_1-2" data-name="Ebene 1">
    <g class="cls-7">
      <g class="cls-9">
        <path class="cls-2" d="M143.78,15.8l8.5,11.85c.07.09.49.08.5.03l-.12-11.88h5.1v16h-8.59c-2.91-3.9-5.71-7.9-8.56-11.85-.07-.09-.55-.08-.55-.03l.12,11.88h-5.1V15.8h8.71,0Z"/>
        <path class="cls-2" d="M185.14,21.33h-4.98c.32-2.02-2.08-1.68-3.43-1.73-1.89-.06-4.04-.16-5.92.06-1.15.13-1.85.28-2.12,1.5-.26,1.21-.24,4.13-.01,5.37.19,1.01.67,1.44,1.71,1.55,1.68.17,3.47.06,5.16.06,1.18,0,2.6.12,3.73-.14.35-.08.69-.2.86-.53.12-.22.33-1.51.1-1.51h-6.42v-3.22h11.31c.08.46.07.94.06,1.41-.03,1.42.03,4.18-.52,5.42-1.23,2.78-5.96,2.38-8.55,2.43-2.67.05-8.02.34-10.35-.78-2.18-1.04-2.09-3.18-2.17-5.24-.08-2.21-.38-6.93,1.06-8.69,1.36-1.66,4.7-1.57,6.71-1.64,2.26-.08,4.54-.09,6.8,0,1.57.06,4.01.12,5.36.95,1.64,1.01,1.53,3.07,1.59,4.74h.02Z"/>
        <path class="cls-2" d="M20.7,20.81h-4.81c-.04-.85-.07-1.27-.99-1.47-1.33-.28-4.05-.19-5.48-.14-.61.02-1.83.04-2.37.21-.89.27-.97,1.71-.14,2.05.37.15,1.37.2,1.82.23,2.83.19,5.75.05,8.56.35,3.73.39,4.2,2.31,4.02,5.67-.27,4.89-4.2,4.22-8,4.29-2.47.04-8.14.32-10.23-.78-1.82-.96-1.67-2.93-1.7-4.69h4.86c-.05.57.06,1.31.65,1.59.71.33,2.36.19,3.2.2,1.57.03,3.3.11,4.86,0,.87-.06,1.48-.23,1.55-1.18.08-1.1-.48-1.34-1.49-1.41-2.65-.17-5.32-.13-7.98-.28-1.42-.08-3.61-.1-4.6-1.25-1.28-1.48-1.23-5.64,0-7.13,1.23-1.5,3.83-1.42,5.6-1.47,2.68-.07,7.93-.29,10.35.49,2.42.78,2.48,2.59,2.34,4.75h-.01v-.02h0Z"/>
        <path class="cls-2" d="M112.8,15.8c.06,2.67-.08,5.36,0,8.03.02.71.03,2.16.27,2.79.5,1.34,3.09,1.17,4.28,1.21,1.31.04,4.89.21,5.88-.55.84-.64.72-2.36.76-3.33,0-.11.06-.22.06-.35.08-2.59-.07-5.21,0-7.8h4.9c.12,0,.04.21.05.26.04.35-.01.49-.02.8-.05,2.77.09,5.58,0,8.34-.03.9-.08,2.11-.24,2.99-.69,4.12-5.16,3.7-8.42,3.77-2.64.06-5.65.16-8.25-.24-4.4-.68-4.19-3.55-4.27-7.21-.07-2.91.05-5.82,0-8.72h4.99v.02h0Z"/>
        <path class="cls-2" d="M67.07,19.6v2.91l11.67.12v3.34c0,.06-.04.29-.08.32h-11.58v5.53h-4.98V15.81h17.14c.07,0,.08.14.09.2.1.87.03,2.45-.06,3.34,0,.05.09.26-.03.26h-12.17Z"/>
        <path class="cls-2" d="M45.68,15.8v4.09h-7.12s-.09.08-.14.06c-.02.06.06.12.06.14v11.62l-.08.08h-5.19v-11.83l-.08-.08h-7.12v-4.09h19.7,0Z"/>
        <path class="cls-1" d="M102.89,15.8v4.09h-7.18s-.08.08-.08.08v11.68s.1.14-.03.14h-5.19v-11.83l-.08-.08h-7.18v-4.09h19.76Z"/>
        <polygon class="cls-8" points="50.66 15.8 55.93 15.8 55.93 31.8 50.66 31.8 50.66 15.8 50.66 15.8"/>
        <path class="cls-3" d="M1.79.72l3.4,7.14.27-.04L8.64.73l1.34.02,3.19,7.11.21-.03,3.34-7.01s.12-.1.15-.1h1.08l-3.78,8c-.18.15-1.5,0-1.82.06l-2.96-6.75-3.11,6.73h-1.91L.65.72h1.14Z"/>
        <path class="cls-3" d="M72.97.72c1.45,2.02,2.75,4.13,4.11,6.21l.4.53,4.24-6.64s.12-.1.15-.1h2.05s.08.08.08.08v7.88l-.08.08h-1.03V1.81s-.42-.09-.47.04l-4.51,6.89c-.1.06-.86.06-.97-.03l-4.5-6.9h-.52s-.03,6.95-.03,6.95h-1s-.08-.08-.08-.08V.81l.08-.08h2.06Z"/>
        <path class="cls-3" d="M160.17.72v8.05h-1.03l-.08-7c-.1-.07-.39.02-.47.13l-4.41,6.78c-.15.15-.89.14-1.05.01l-4.51-6.85c-.03-.12-.47-.05-.47-.03v6.96h-1.12V.81l.08-.08h2.05l.18.18,4.28,6.56c1.48-2.16,2.85-4.38,4.26-6.58.03-.04.16-.15.2-.15h2.09Z"/>
        <path class="cls-3" d="M132.41.72c.12.03.29.28.37.39,1.36,1.87,2.53,4.02,3.85,5.94.07.1.23.4.35.41l4.34-6.74h2.11v8.05h-1.03V1.84c0-.13-.46-.11-.52.06l-4.43,6.81c-.11.1-.94.12-1.05-.06l-4.43-6.75c-.05-.19-.52-.12-.52-.1v6.96h-1.12V.81s.07-.06.08-.08c.56.08,1.48-.11,1.99,0h0Z"/>
        <path class="cls-3" d="M174.88.81c.03-.08.13-.08.2-.09,1.79-.21,3.98.16,5.81,0,1.16.15,2.74-.17,3.22,1.21.28.81.36,2.59-.44,3.13l-.58.26c.4.05.82.39.94.78.03.08.11.46.11.52v2.16h-1.03s-.08-.08-.08-.08v-2.02c0-.35-.42-.78-.76-.87-.05-.01-.42-.08-.44-.08h-5.83v3.06h-1.12V.81h0ZM175.99,1.78v2.97h5.65c1,0,1.44-.38,1.49-1.35.05-.98-.11-1.49-1.14-1.63-1.83-.25-3.93.05-5.8-.07-.07,0-.18.03-.2.09h0Z"/>
        <path class="cls-3" d="M104.06,3.14h-1.12c-.04-.65-.02-1.05-.71-1.3-.92-.33-3.7-.26-4.7-.07-.94.18-1.25.56-1.16,1.51.1,1.17,1.82.92,2.67.94.14,0,.27.06.4.06,2.13.06,5.03-.69,4.84,2.39-.14,2.3-2.47,2.07-4.25,2.1-1.04.03-3.09.14-3.99-.35-.8-.43-.83-1.26-.82-2.07,0-.05.02-.12.07-.12h1.08v.89c0,.11.2.38.29.46.27.2,1.01.24,1.37.26,1.09.06,2.74.08,3.81-.06.63-.08,1.18-.23,1.26-.95.12-1.02-.12-1.5-1.19-1.58-1.49-.12-3.29.13-4.75-.06-1.22-.17-1.91-.73-1.97-1.98-.05-.82.17-1.61.94-2.02,1.2-.64,5.75-.7,6.96-.1.89.44.89,1.14.96,2.03h0Z"/>
        <path class="cls-3" d="M57.23.72v.98c-.06-.02-.12.06-.14.06h-6.77v2.36h6.54s.08.08.08.08v.86l-.08.08h-6.54v2.65h6.91v.98h-8.03V.81l.08-.08h7.95Z"/>
        <path class="cls-3" d="M164.85,1.76v2.36h6.54s.08.08.08.08v.86l-.08.08h-6.54v2.65h6.91v.98h-8.03V.81l.08-.08h7.85s.08.08.08.08v.86l-.08.08h-6.83,0Z"/>
        <path class="cls-3" d="M127.22.72v.98c-.07-.03-.18.06-.21.06h-6.71v2.36h6.62v.98l-6.62.06v2.65h6.91v.98h-7.95c-.13,0-.03-.13-.03-.14V.72h7.98Z"/>
        <path class="cls-3" d="M37.06,4.11h7.5V.72h1.03s.08.08.08.08v7.88l-.08.08h-1.03v-3.63h-7.5v3.63h-1.12V.72h1.03s.08.08.08.08v3.31h0Z"/>
        <path class="cls-3" d="M107.02,1.76c-.2-.06-.04-.57-.03-.72.01-.13-.16-.28.08-.31h9.03c.28-.03.13.43.14.67,0,.11.05.21.06.31-.06-.01-.12.06-.14.06h-4.02l-.03,7.02h-1s-.08-.08-.08-.08V1.9s.08-.08.06-.14h-4.07.01Z"/>
        <path class="cls-3" d="M26.57,7.8h6.45v.98h-7.56V.72h1.03s.08.08.08.08v6.99h0Z"/>
        <path class="cls-3" d="M61.44,7.8h6.45v.98h-7.56V.81l.08-.08h.94s.08.08.08.08v6.99h0Z"/>
        <polygon class="cls-3" points="20.76 .72 21.88 .72 21.88 8.78 20.76 8.78 20.76 .72 20.76 .72"/>
      </g>
    </g>
  </g>
</svg>