<?xml version="1.0" encoding="UTF-8" standalone="no"?>
<svg
   version="1.1"
   width="512"
   height="512"
   id="svg4"
   sodipodi:docname="tree2.svg"
   inkscape:version="1.3.2 (091e20e, 2023-11-25, custom)"
   xmlns:inkscape="http://www.inkscape.org/namespaces/inkscape"
   xmlns:sodipodi="http://sodipodi.sourceforge.net/DTD/sodipodi-0.dtd"
   xmlns="http://www.w3.org/2000/svg"
   xmlns:svg="http://www.w3.org/2000/svg">
  <defs
     id="defs4" />
  <sodipodi:namedview
     id="namedview4"
     pagecolor="#505050"
     bordercolor="#ffffff"
     borderopacity="1"
     inkscape:showpageshadow="0"
     inkscape:pageopacity="0"
     inkscape:pagecheckerboard="1"
     inkscape:deskcolor="#505050"
     inkscape:zoom="1.8339844"
     inkscape:cx="255.72737"
     inkscape:cy="256"
     inkscape:window-width="1920"
     inkscape:window-height="1177"
     inkscape:window-x="1672"
     inkscape:window-y="-8"
     inkscape:window-maximized="1"
     inkscape:current-layer="svg4" />
  <path
     style="fill:currentColor;stroke-width:0.377953"
     d="m 179.39084,486.918 45.80192,-68.15762 -16.35783,-69.79339 -26.71778,-34.35144 -71.97444,-8.17892 -55.616618,23.44622 -38.168265,-35.98722 13.086262,-46.34717 31.625134,-116.14058 32.715655,-15.81257 23.446222,-31.079868 34.35143,-2.726305 98.69223,-66.521831 82.3344,38.168264 26.17252,31.079872 53.98083,6.543131 21.81044,34.351437 27.26305,20.71992 3.27156,41.43983 14.17679,35.98722 17.99361,58.88817 -25.08201,40.34931 -50.164,0.54526 -15.81257,-18.53887 -54.52609,11.45048 -32.71565,9.8147 -29.98935,64.88605 15.81256,61.06922 27.80831,39.25879 -27.26305,4.90734 -42.53035,-11.45048 -82.87966,13.08627 z"
     id="path5" />
  <path
     d="M0 0 C1.43520996 0.00858032 1.43520996 0.00858032 2.89941406 0.01733398 C15.88158962 0.34090785 26.15177541 4.27556443 36.3125 12.5 C37.8903125 13.6446875 37.8903125 13.6446875 39.5 14.8125 C43.83352103 18.95342009 48.00433989 24.10585485 50.1796875 29.75 C51.20235047 31.75657308 51.20235047 31.75657308 53.7109375 32.15234375 C54.69320313 32.24644531 55.67546875 32.34054688 56.6875 32.4375 C67.15336341 33.87890634 75.89711002 38.23894986 84.3125 44.5 C85.34375 45.2425 86.375 45.985 87.4375 46.75 C92.91466995 51.98903213 97.34305324 58.51306645 100.3125 65.5 C100.3125 66.16 100.3125 66.82 100.3125 67.5 C100.8389209 67.28923828 101.3653418 67.07847656 101.90771484 66.86132812 C108.00568967 64.60232677 113.45876304 63.95492953 119.9375 64 C121.37947754 64.00858032 121.37947754 64.00858032 122.85058594 64.01733398 C135.85616733 64.33997495 146.13112926 68.25885274 156.3125 76.5 C157.8903125 77.6446875 157.8903125 77.6446875 159.5 78.8125 C166.06952605 85.09004711 171.87573333 93.66406114 174.0703125 102.578125 C175.04535963 105.67751394 175.04535963 105.67751394 177.81640625 106.96875 C178.82574219 107.3090625 179.83507812 107.649375 180.875 108 C186.65064917 110.15374927 191.39390227 112.80869153 196.3125 116.5 C197.55 117.41845703 197.55 117.41845703 198.8125 118.35546875 C207.79334547 126.05935026 213.9799953 137.96754543 216.3125 149.5 C216.51091578 154.96443106 216.15104537 160.41678219 215.75585938 165.8671875 C215.52529509 172.29274961 216.03579471 175.92172576 220.15625 181 C220.86330078 181.7528125 221.57035156 182.505625 222.29882812 183.28125 C229.08586439 190.75949753 232.62741954 201.85728201 232.32421875 211.8125 C232.18400277 215.1697841 231.99885882 218.51573911 231.75585938 221.8671875 C231.52529509 228.29274961 232.03579471 231.92172576 236.15625 237 C236.86330078 237.7528125 237.57035156 238.505625 238.29882812 239.28125 C246.26164502 248.05502303 248.89319103 260.69464582 248.8125 272.1875 C248.80677979 273.14430664 248.80105957 274.10111328 248.79516602 275.08691406 C248.47172407 288.0637968 244.54247072 298.35218543 236.3125 308.5 C235.88710938 309.10972656 235.46171875 309.71945312 235.0234375 310.34765625 C228.71356376 318.84469481 217.2138993 325.24012561 207.1171875 327.90625 C190.72048157 330.46507885 174.78247633 329.5005062 160.75 320 C159.25457298 318.85424995 157.77335578 317.68951483 156.3125 316.5 C155.71824219 316.04367187 155.12398438 315.58734375 154.51171875 315.1171875 C151.29603518 312.57974985 148.66733843 309.85111623 146.3125 306.5 C146.3125 305.84 146.3125 305.18 146.3125 304.5 C145.51328125 305.01949219 144.7140625 305.53898437 143.890625 306.07421875 C128.83286529 315.6355427 114.22536923 321.07807522 96.1875 320.8125 C94.53427734 320.81733398 94.53427734 320.81733398 92.84765625 320.82226562 C86.11203365 320.77832028 79.85554938 320.10859939 73.3125 318.5 C69.27602916 324.14149732 65.27424856 329.80575494 61.3125 335.5 C60.87067383 336.13405762 60.42884766 336.76811523 59.97363281 337.42138672 C45.22602932 358.79652769 39.31565057 380.98868127 42.63769531 407.05126953 C45.58572007 423.68860145 53.68439001 437.9667846 63.6875 451.3125 C64.27748779 452.10712646 64.86747559 452.90175293 65.4753418 453.72045898 C70.99928506 461.13733782 76.60998824 468.4892617 82.24560547 475.8215332 C83.21651123 477.08743286 83.21651123 477.08743286 84.20703125 478.37890625 C84.78300049 479.1272876 85.35896973 479.87566895 85.95239258 480.64672852 C88.34253664 483.90351969 88.51649043 486.40686084 88.73828125 490.4296875 C88.07879895 493.63634455 86.96126112 494.54792921 84.3125 496.5 C80.93306447 497.21217452 77.57065626 497.27587174 74.125 497.34765625 C73.11268311 497.37282822 72.10036621 497.39800018 71.05737305 497.42393494 C68.90563152 497.4661217 66.75362991 497.49644789 64.6015625 497.51586914 C61.3751373 497.56161196 58.16101799 497.69820154 54.9375 497.83789062 C40.42082628 498.1597833 31.85546938 495.10858984 20.39453125 486.20874023 C17.52184902 484.08305892 16.74245214 483.50905843 13.06787109 483.43164062 C10.31679832 484.49833338 7.93438068 485.68996324 5.4140625 487.22265625 C-13.48979868 497.35718423 -32.35326662 497.63112943 -53.3125 497.5 C-54.78830965 497.49582938 -56.26411938 497.49168905 -57.7399292 497.48757935 C-61.27672057 497.47170797 -64.81188195 497.42562199 -68.3479538 497.35287666 C-70.31289174 497.31327929 -72.2780704 497.28626624 -74.2432251 497.25950623 C-76.02089264 497.20259361 -76.02089264 497.20259361 -77.83447266 497.14453125 C-78.87205719 497.11721924 -79.90964172 497.08990723 -80.97866821 497.06176758 C-84.38343163 496.35567512 -85.59524041 495.23946858 -87.6875 492.5 C-88.5641963 487.33783796 -88.09195835 484.5893453 -85.15234375 480.265625 C-83.99545719 478.74584634 -82.81836222 477.24130825 -81.625 475.75 C-81.00028809 474.9357959 -80.37557617 474.1215918 -79.73193359 473.28271484 C-78.40780706 471.55795685 -77.07589691 469.83915041 -75.73681641 468.12597656 C-58.03269203 445.89560599 -58.03269203 445.89560599 -45.6875 420.5 C-45.29433594 419.37980469 -44.90117187 418.25960938 -44.49609375 417.10546875 C-37.71502663 394.54129072 -40.73301049 370.60515172 -51.27734375 349.8125 C-54.98951041 342.91375535 -59.64076066 336.64250627 -64.30712891 330.36816406 C-66.23514233 327.75883285 -68.08708854 325.10239277 -69.9375 322.4375 C-70.85387773 321.12479825 -71.77048878 319.81225929 -72.6875 318.5 C-73.26218018 318.64002441 -73.83686035 318.78004883 -74.42895508 318.92431641 C-97.55628587 324.10443545 -119.40397294 320.24874305 -139.6875 308.5 C-141.7213644 307.20858732 -143.70417191 305.86907702 -145.6875 304.5 C-145.914375 305.03625 -146.14125 305.5725 -146.375 306.125 C-151.88539568 316.09619219 -162.25226138 322.51908472 -172.625 326.5625 C-187.34991623 330.93276986 -203.8262193 330.23648112 -217.6875 323.5 C-221.25472666 321.40919559 -224.47689282 319.09877449 -227.6875 316.5 C-228.739375 315.736875 -229.79125 314.97375 -230.875 314.1875 C-240.50230526 304.98807497 -247.40584421 291.62880047 -248.15625 278.23828125 C-248.1903658 276.42997929 -248.20019799 274.62107917 -248.1875 272.8125 C-248.18177979 271.85569336 -248.17605957 270.89888672 -248.17016602 269.91308594 C-247.84707522 256.95029175 -243.92514166 246.6358007 -235.6875 236.5 C-234.58921875 235.51 -234.58921875 235.51 -233.46875 234.5 C-230.57940988 229.63374295 -231.49635067 224.64978724 -231.75 219.125 C-232.08833115 203.85477665 -229.528293 192.60835828 -219.6875 180.5 C-218.58921875 179.51 -218.58921875 179.51 -217.46875 178.5 C-214.57940988 173.63374295 -215.49635067 168.64978724 -215.75 163.125 C-216.08884927 147.83139189 -213.51097954 136.63623346 -203.6875 124.5 C-202.924375 123.448125 -202.16125 122.39625 -201.375 121.3125 C-194.05876838 113.65597854 -184.6591427 108.8238809 -174.6875 105.5 C-173.4244896 103.01916581 -173.4244896 103.01916581 -172.375 100 C-170.10044372 94.24871955 -167.36972523 89.44922746 -163.6875 84.5 C-162.945 83.46875 -162.2025 82.4375 -161.4375 81.375 C-152.17687683 71.69343941 -138.72509157 64.63976195 -125.21484375 64.1015625 C-123.35156259 64.0937281 -121.48815106 64.10162946 -119.625 64.125 C-118.2318457 64.10759766 -118.2318457 64.10759766 -116.81054688 64.08984375 C-110.5899548 64.11603572 -105.44986425 65.16095432 -99.6875 67.5 C-99.48125 66.695625 -99.275 65.89125 -99.0625 65.0625 C-97.24906834 60.36406342 -94.61920342 56.57058571 -91.6875 52.5 C-90.57375 50.953125 -90.57375 50.953125 -89.4375 49.375 C-81.18065263 40.74284139 -70.2768562 35.12052322 -58.6875 32.5 C-57.27111645 32.46484154 -55.85430952 32.44290767 -54.4375 32.4375 C-50.66798888 31.89930613 -50.66798888 31.89930613 -49.0703125 29.46484375 C-48.04621804 27.70584213 -47.05754026 25.92583771 -46.1015625 24.12890625 C-40.04085711 12.86135175 -28.00066132 5.76367927 -16.10546875 1.921875 C-10.69185998 0.33774264 -5.61990386 -0.0394572 0 0 Z M-30.6875 31.5 C-33.54317619 35.48728231 -36.04890177 39.47777226 -37.53125 44.171875 C-38.6875 46.5 -38.6875 46.5 -40.83984375 47.765625 C-43.63317983 48.48599151 -46.33425972 48.84715372 -49.20703125 49.08056641 C-60.52955981 50.0196002 -70.07871154 53.61871858 -77.94140625 62.16796875 C-82.78419371 68.63585267 -85.87099752 76.11436618 -88.046875 83.85546875 C-88.6875 85.5 -88.6875 85.5 -90.6875 86.5 C-95.46518712 86.91909536 -98.56934204 86.76194094 -102.875 84.625 C-112.01350113 80.22090307 -122.0375011 79.41090687 -131.6875 82.5 C-143.8233708 87.22465199 -150.90356072 93.73304654 -156.4609375 105.45703125 C-157.6130876 108.3153909 -158.4004234 111.07253028 -159.125 114.0625 C-160.29508271 118.25473919 -160.29508271 118.25473919 -163.6875 120.375 C-165.01119445 120.78272023 -166.34641183 121.15375542 -167.6875 121.5 C-178.39610502 124.83228495 -187.28232567 130.0289343 -193.6875 139.5 C-197.40146671 146.51130253 -198.86767602 152.38063043 -198.875 160.3125 C-198.89336914 161.34213867 -198.89336914 161.34213867 -198.91210938 162.39257812 C-198.92546071 167.09669712 -198.07440799 170.97053464 -196.6875 175.5 C-196.7602315 179.71842726 -197.0201885 181.73455446 -199.8125 184.9375 C-200.76125 185.783125 -201.71 186.62875 -202.6875 187.5 C-209.60433734 194.5096808 -214.3934624 202.12006779 -214.85546875 212.14453125 C-214.8673656 213.53381848 -214.87371714 214.92316242 -214.875 216.3125 C-214.88724609 216.99892578 -214.89949219 217.68535156 -214.91210938 218.39257812 C-214.92546071 223.09669712 -214.07440799 226.97053464 -212.6875 231.5 C-212.7602315 235.71842726 -213.0201885 237.73455446 -215.8125 240.9375 C-216.76125 241.783125 -217.71 242.62875 -218.6875 243.5 C-227.09125054 252.01655257 -230.89495933 260.54129012 -231.0625 272.5 C-231.08828366 283.02982376 -228.3295762 290.72552343 -221.5 298.875 C-213.81711615 306.83958959 -204.65249478 311.62408175 -193.59375 312.5234375 C-182.35403713 312.43279465 -172.41561847 308.8976501 -164.25 301.203125 C-159.88887421 296.58377466 -156.43135795 291.88283046 -153.5625 286.21484375 C-152.6875 284.5 -152.6875 284.5 -151.6875 283.5 C-147.04644157 283.01199171 -144.04888112 282.80738212 -140.265625 285.6953125 C-139.14297603 286.65658587 -138.03394517 287.63394239 -136.9375 288.625 C-123.8246883 299.65324707 -108.57819709 305.38322351 -91.30859375 304.28515625 C-73.5867644 302.20605895 -59.29104417 295.10639456 -47.17578125 282.03125 C-45.05960148 279.85397318 -43.96605888 279.52076459 -40.91015625 279.29296875 C-37.42475952 279.51687909 -35.2686627 280.3303002 -32.125 281.8125 C-10.31760276 291.30449905 12.49424029 289.57508544 34.3125 281.5 C35.64993706 280.84160474 36.98463061 280.17748439 38.3125 279.5 C41.0625 278.9375 41.0625 278.9375 44.3125 279.5 C47.2232893 281.56390017 49.72241147 284.05329137 52.3125 286.5 C65.23584063 297.87341295 79.93554175 304.47852045 97.3125 304.5 C114.65398367 303.39736231 128.51430133 297.09239864 141.43359375 285.76953125 C144.77790782 283.13310456 146.31793519 282.55088279 150.43359375 282.82421875 C154.27046467 284.20421598 155.51944962 288.08327534 157.3125 291.5 C163.75626778 301.32349612 171.68850116 308.58758528 183.3125 311.5 C195.33697188 313.13615322 206.04985003 311.75559285 216.0546875 304.515625 C223.90877062 297.94336554 228.95634561 290.49773619 231.3125 280.5 C232.37974593 268.43763903 231.26745634 258.50519238 223.875 248.5625 C221.28182019 245.43510289 218.53215294 242.98373227 215.3125 240.5 C213.70725082 238.45695559 213.28497851 237.20107368 213.38671875 234.609375 C213.69065241 231.9188147 214.06997819 229.32348822 214.8359375 226.72265625 C216.90772192 217.05998956 216.01713142 206.19393876 211.3125 197.5 C207.9139958 192.28144379 204.24257723 188.30320244 199.3125 184.5 C197.70725082 182.45695559 197.28497851 181.20107368 197.38671875 178.609375 C197.69065241 175.9188147 198.06997819 173.32348822 198.8359375 170.72265625 C201.1469498 159.94424642 199.64042879 148.72175099 193.9921875 139.296875 C187.0796417 129.40022473 178.5327896 124.00205431 166.9375 121.1875 C162.57125796 119.91401274 162.57125796 119.91401274 160.4375 116.5 C160.03154957 115.17576172 159.66043645 113.84065022 159.3125 112.5 C155.60663074 100.93424058 149.96821391 91.20574232 138.94140625 85.2109375 C129.35375702 80.83430944 117.91144476 79.74116491 107.5625 82.25 C103.1459578 85.30760614 102.69085253 88.37543089 101.2890625 93.421875 C99.06544606 100.43071403 94.64477674 104.79368511 88.4375 108.4921875 C80.05416586 112.468107 70.26532282 112.9082765 61.2578125 110.77734375 C52.74636394 107.58231671 47.50824726 102.52595593 43.3125 94.5 C41.2829541 89.62908983 41.00171151 86.01369207 40.3125 80.5 C45.9225 80.5 51.5325 80.5 57.3125 80.5 C57.6425 82.81 57.9725 85.12 58.3125 87.5 C60.37159802 91.27373727 63.32532102 93.90367057 67.3125 95.5 C72.22193384 96.19671833 76.19804196 96.03659091 80.6875 93.875 C85.55992613 89.52758115 85.55992613 89.52758115 87.5078125 83.46484375 C86.94466882 74.07359475 81.84035702 66.24372965 75.5546875 59.54296875 C67.15380923 51.88850998 58.30965873 49.42193032 47.1796875 48.84375 C44.06783439 48.47066679 42.01981489 48.09998242 39.3125 46.5 C37.57421875 43.5234375 37.57421875 43.5234375 36 39.875 C30.77010078 28.63923513 23.69906603 23.37513716 12.3125 18.5 C-3.61773176 13.18992275 -19.93998105 19.39469841 -30.6875 31.5 Z M-41.765625 298.9765625 C-42.48234375 299.68554688 -43.1990625 300.39453125 -43.9375 301.125 C-47.94831063 304.91631353 -51.92426189 307.72866146 -56.6875 310.5 C-53.31747628 315.96791928 -49.86063717 321.31745585 -46.02368164 326.46801758 C-27.80879686 351.05828661 -21.86725553 378.96086155 -24.97607422 409.31787109 C-28.41066352 432.68690887 -41.10166617 451.17168416 -55.27905273 469.39355469 C-55.94880127 470.25625977 -56.6185498 471.11896484 -57.30859375 472.0078125 C-57.9111499 472.77754395 -58.51370605 473.54727539 -59.13452148 474.34033203 C-60.56806701 476.3339091 -61.6656124 478.27278475 -62.6875 480.5 C-39.50920157 482.47507787 -21.35770454 480.43116819 -0.02880859 470.83569336 C0.73945755 470.4913475 1.50772369 470.14700165 2.29927063 469.79222107 C3.72717296 469.14204157 5.14750115 468.47481829 6.55754089 467.78675842 C11.3851093 465.52931961 14.97237467 464.92846337 20.3125 465.5 C23.01464844 466.87695312 23.01464844 466.87695312 25.421875 468.78125 C26.33251709 469.45921631 27.24315918 470.13718262 28.18139648 470.83569336 C29.13216064 471.54991455 30.0829248 472.26413574 31.0625 473 C41.99457046 480.75918807 50.18971312 482.44039017 63.3125 480.5 C59.70674132 474.92586818 55.90631688 469.56994076 51.85717773 464.30981445 C34.96131659 442.32993862 24.64524833 419.90136991 24.875 391.6875 C24.88257324 390.37450928 24.89014648 389.06151855 24.89794922 387.70874023 C25.06635833 377.76215386 26.09266037 368.89953184 29.3125 359.5 C29.52680664 358.86642578 29.74111328 358.23285156 29.96191406 357.58007812 C34.79985049 343.59442783 42.24899622 331.45953385 51.27587891 319.82836914 C51.77007324 319.1914917 52.26426758 318.55461426 52.7734375 317.8984375 C53.21478027 317.33817871 53.65612305 316.77791992 54.11083984 316.20068359 C55.39836112 314.37848262 56.36357157 312.51626639 57.3125 310.5 C56.50425781 309.98050781 55.69601562 309.46101563 54.86328125 308.92578125 C53.79464844 308.22839844 52.72601563 307.53101563 51.625 306.8125 C50.56925781 306.12800781 49.51351562 305.44351562 48.42578125 304.73828125 C45.3125 302.5 45.3125 302.5 42.66796875 299.66796875 C40.60705888 297.2761691 40.60705888 297.2761691 38.36380005 297.51416016 C35.28412923 298.99422749 34.62169864 301.06401174 33.13623047 304.10546875 C32.70126251 304.9810997 32.70126251 304.9810997 32.25750732 305.87442017 C31.30181881 307.80597197 30.36607559 309.74652853 29.4296875 311.6875 C28.76898543 313.02957868 28.10686656 314.37096073 27.44338989 315.71166992 C25.6994255 319.24334364 23.9713852 322.78255791 22.24755859 326.32409668 C19.48485693 331.99488862 16.70122293 337.65537648 13.9119606 343.31314087 C12.93876969 345.29401374 11.97416665 347.27889974 11.01046753 349.2644043 C10.41722151 350.47456904 9.82373875 351.68461777 9.22998047 352.89453125 C8.71353973 353.95518799 8.197099 355.01584473 7.66500854 356.10864258 C6.3125 358.5 6.3125 358.5 4.3125 359.5 C-3.10663724 359.97105633 -3.10663724 359.97105633 -5.12709045 358.33255005 C-7.10913466 356.00483088 -8.28873381 353.60188051 -9.62670898 350.85107422 C-10.19417343 349.69332489 -10.76163788 348.53557556 -11.34629822 347.34274292 C-11.6455464 346.72540157 -11.94479458 346.10806023 -12.25311089 345.47201157 C-13.19276509 343.53578931 -14.14128125 341.60415719 -15.09254456 339.6736145 C-17.79519516 334.18588994 -20.48544816 328.69219845 -23.16040039 323.19091797 C-24.79886368 319.82287417 -26.45084 316.4617547 -28.1115284 313.10461807 C-28.74152258 311.82414143 -29.36624507 310.54105726 -29.9855938 309.2553978 C-30.85053601 307.46073954 -31.73428858 305.67518353 -32.61889648 303.89013672 C-33.11614731 302.87104218 -33.61339813 301.85194763 -34.12571716 300.80197144 C-35.47643123 298.37856088 -35.47643123 298.37856088 -37.74940491 297.5708313 C-39.84860493 297.29726432 -39.84860493 297.29726432 -41.765625 298.9765625 Z M-13.6875 304.5 C-12.30615094 308.64404717 -11.02174704 312.07183724 -9.0859375 315.8984375 C-8.59609375 316.87167969 -8.10625 317.84492188 -7.6015625 318.84765625 C-7.09367188 319.84667969 -6.58578125 320.84570312 -6.0625 321.875 C-5.546875 322.89722656 -5.03125 323.91945313 -4.5 324.97265625 C-3.23278127 327.48362669 -1.96185444 329.99264561 -0.6875 332.5 C-0.0275 332.5 0.6325 332.5 1.3125 332.5 C3.1689979 328.83637915 5.02026879 325.1701704 6.86669922 321.50146484 C7.49579431 320.25334278 8.12632241 319.00594195 8.75830078 317.75927734 C9.66553597 315.96901889 10.56722596 314.17595372 11.46875 312.3828125 C12.28569336 310.76463623 12.28569336 310.76463623 13.11914062 309.11376953 C14.45094199 306.67566042 14.45094199 306.67566042 14.3125 304.5 C5.0725 304.5 -4.1675 304.5 -13.6875 304.5 Z "
     fill="#000000"
     transform="translate(255.6875,7.5)"
     id="path1" />
  <path
     d="M0 0 C3.03344435 0.6870373 4.14643131 2.02283821 6.03515625 4.4609375 C6.94140625 7.484375 6.94140625 7.484375 7.53515625 10.8359375 C9.25210411 19.04423368 12.3730727 23.56634551 19.03515625 28.4609375 C25.07642524 31.35993571 31.93278973 31.60086297 38.3828125 29.80859375 C44.32228155 27.14212691 48.40518026 22.64327158 51.34765625 16.8984375 C52.12625788 14.13794081 52.56362733 11.29011105 53.03515625 8.4609375 C58.64515625 8.4609375 64.25515625 8.4609375 70.03515625 8.4609375 C70.720323 18.90973047 67.77413961 27.36400715 61.0078125 35.39453125 C53.61717329 43.13640875 45.55303974 48.08834594 34.71875 48.83984375 C22.17764439 49.33631203 12.77682927 47.28816395 2.91015625 39.14453125 C-0.63452701 35.96170107 -0.63452701 35.96170107 -1.96484375 34.4609375 C-1.96484375 33.8009375 -1.96484375 33.1409375 -1.96484375 32.4609375 C-2.61710937 32.87085938 -3.269375 33.28078125 -3.94140625 33.703125 C-4.81539063 34.24195313 -5.689375 34.78078125 -6.58984375 35.3359375 C-7.44835937 35.86960938 -8.306875 36.40328125 -9.19140625 36.953125 C-17.60546979 41.52753137 -27.71857879 41.88311426 -36.984375 39.7734375 C-46.78363752 36.16080616 -52.41330071 29.71675992 -56.96484375 20.4609375 C-58.48532941 16.32879411 -57.96484375 13.23652624 -57.96484375 8.4609375 C-52.35484375 8.4609375 -46.74484375 8.4609375 -40.96484375 8.4609375 C-40.57296875 9.8634375 -40.18109375 11.2659375 -39.77734375 12.7109375 C-38.37223899 16.96639762 -36.86700692 19.05960632 -32.96484375 21.4609375 C-29.25247961 23.31711957 -25.01641287 22.90903731 -20.96484375 22.4609375 C-16.46412152 20.25149204 -14.00342732 18.02348168 -11.96484375 13.4609375 C-11.18489066 10.6134897 -10.46308465 7.76569956 -9.80859375 4.88671875 C-8.11971043 0.03117919 -4.60134125 0.19504722 0 0 Z "
     fill="#000000"
     transform="translate(329.96484375,191.5390625)"
     id="path2" />
  <path
     d="M0 0 C5.61 0 11.22 0 17 0 C17.2475 1.36125 17.495 2.7225 17.75 4.125 C19.38995067 11.39089256 23.13386766 15.69018849 29 20 C35.04126899 22.89899821 41.89763348 23.13992547 48.34765625 21.34765625 C54.2871253 18.68118941 58.37002401 14.18233408 61.3125 8.4375 C62.09110163 5.67700331 62.52847108 2.82917355 63 0 C68.61 0 74.22 0 80 0 C80.68516675 10.44879297 77.73898336 18.90306965 70.97265625 26.93359375 C63.58201704 34.67547125 55.51788349 39.62740844 44.68359375 40.37890625 C32.48915991 40.86165074 22.63883772 39.03815755 13.06640625 30.97265625 C5.97850456 24.20632287 0.64427567 16.29827025 -0.23828125 6.30078125 C-0.24817955 4.1990428 -0.13752509 2.09725757 0 0 Z "
     fill="#000000"
     transform="translate(144,168)"
     id="path3" />
  <path
     d="M0 0 C5.61 0 11.22 0 17 0 C17.391875 1.4025 17.78375 2.805 18.1875 4.25 C19.59260476 8.50546012 21.09783683 10.59866882 25 13 C28.71236414 14.85618207 32.94843088 14.44809981 37 14 C41.46811466 11.8065619 43.90863356 9.51294863 46 5 C46.33 3.35 46.66 1.7 47 0 C52.61 0 58.22 0 64 0 C64 9.52216077 62.27856327 16.42838175 55.703125 23.46875 C47.47956115 30.86241291 38.76554365 32.58190067 27.98828125 32.3125 C20.35823255 31.88091582 14.09304691 28.89763344 8.53125 23.703125 C1.97671342 16.41287513 0 9.8214775 0 0 Z "
     fill="#000000"
     transform="translate(64,240)"
     id="path4" />
</svg>
