<?xml version="1.0" encoding="UTF-8" standalone="no"?>
<svg
   version="1.1"
   width="512"
   height="512"
   id="svg1"
   sodipodi:docname="tree4.svg"
   inkscape:version="1.3.2 (091e20e, 2023-11-25, custom)"
   xmlns:inkscape="http://www.inkscape.org/namespaces/inkscape"
   xmlns:sodipodi="http://sodipodi.sourceforge.net/DTD/sodipodi-0.dtd"
   xmlns="http://www.w3.org/2000/svg"
   xmlns:svg="http://www.w3.org/2000/svg">
  <defs
     id="defs1" />
  <sodipodi:namedview
     id="namedview1"
     pagecolor="#505050"
     bordercolor="#ffffff"
     borderopacity="1"
     inkscape:showpageshadow="0"
     inkscape:pageopacity="0"
     inkscape:pagecheckerboard="1"
     inkscape:deskcolor="#505050"
     inkscape:zoom="0.64841139"
     inkscape:cx="89.449384"
     inkscape:cy="272.20373"
     inkscape:window-width="1920"
     inkscape:window-height="1177"
     inkscape:window-x="1672"
     inkscape:window-y="-8"
     inkscape:window-maximized="1"
     inkscape:current-layer="svg1" />
  <path
     style="fill:currentColor;stroke-width:0.377953"
     d="m 258.99894,351.14803 -119.95741,16.90309 -81.243873,-52.89031 -8.178914,-69.24814 9.269436,-60.52396 41.439831,-33.80618 29.98935,-31.62513 22.90096,-56.707134 47.98296,-31.625133 57.25239,-8.178914 57.2524,3.271566 41.43983,42.530351 27.80831,55.616614 36.53248,31.62513 37.07774,57.2524 4.90735,62.15974 -29.44409,61.06923 -50.16401,25.62726 -81.24387,4.36209 -43.62087,-11.99574 z"
     id="path2" />
  <path
     d="M0 0 C0.71842072 -0.00067474 1.43684143 -0.00134949 2.17703247 -0.00204468 C12.96719835 0.01406971 23.13228698 0.52476328 33.625 3.25 C34.2938623 3.41097168 34.96272461 3.57194336 35.65185547 3.73779297 C69.73137273 12.00936617 100.48244948 34.76271251 119.2421875 64.296875 C124.66853519 73.13494573 129.10620715 82.46948411 132.875 92.125 C133.13112061 92.77686279 133.38724121 93.42872559 133.65112305 94.1003418 C134.97488465 97.7016939 135.78863962 101.01030328 136.14453125 104.8359375 C136.92385222 113.28748086 136.92385222 113.28748086 141.62353516 120.03271484 C146.79919577 123.51959623 152.40233302 126.15503164 158.00488281 128.87646484 C161.79426068 130.86295757 165.07278796 133.29560623 168.375 136 C168.93243896 136.45600586 169.48987793 136.91201172 170.06420898 137.38183594 C171.59660463 138.65678169 173.11134123 139.95286461 174.625 141.25 C175.91470703 142.33087891 175.91470703 142.33087891 177.23046875 143.43359375 C190.06725681 154.46420058 199.78960148 168.34007843 207.625 183.25 C208.2334375 184.39984375 208.841875 185.5496875 209.46875 186.734375 C213.04960983 193.92750572 215.70083925 201.15596148 217.9375 208.875 C218.18000488 209.709104 218.42250977 210.54320801 218.67236328 211.40258789 C221.96510209 223.37163528 222.99036344 235.11233298 222.9375 247.5 C222.93476578 248.51913986 222.93476578 248.51913986 222.93197632 249.55886841 C222.76930228 285.64124164 208.46520995 319.00650391 184.2421875 345.60546875 C177.38316066 352.58046947 169.48642987 358.45929073 161.625 364.25 C160.78582031 364.87003906 159.94664062 365.49007813 159.08203125 366.12890625 C130.53649627 385.68872434 93.30159044 391.4803569 59.625 386.25 C44.01300103 383.5507826 29.76520262 378.32010131 15.625 371.25 C15.625 417.78 15.625 464.31 15.625 512.25 C5.725 512.25 -4.175 512.25 -14.375 512.25 C-14.375 465.72 -14.375 419.19 -14.375 371.25 C-19.325 373.56 -24.275 375.87 -29.375 378.25 C-65.0941117 391.60584176 -103.23302488 391.37769787 -138.375 376.25 C-151.66179103 370.37067329 -163.24289905 362.52028616 -174.375 353.25 C-175.01179688 352.73695313 -175.64859375 352.22390625 -176.3046875 351.6953125 C-180.85034999 347.95776779 -184.65086887 343.79838551 -188.375 339.25 C-189.53708984 337.84427734 -189.53708984 337.84427734 -190.72265625 336.41015625 C-211.00877193 311.30212597 -221.59700904 280.54942055 -221.625 248.375 C-221.62567474 247.68025574 -221.62634949 246.98551147 -221.62704468 246.26971436 C-221.61060675 235.61824629 -221.03088818 225.6133841 -218.375 215.25 C-218.14949463 214.27643555 -218.14949463 214.27643555 -217.91943359 213.28320312 C-212.6650364 190.73785607 -201.16405875 170.23392417 -185.3828125 153.43359375 C-183.3193403 151.25110798 -183.3193403 151.25110798 -181.4296875 148.73828125 C-177.70028421 144.22187461 -172.96146107 140.85659937 -168.375 137.25 C-167.46621094 136.51394531 -166.55742187 135.77789062 -165.62109375 135.01953125 C-161.1087773 131.47369148 -157.0606097 128.46077091 -151.7890625 126.19921875 C-143.24212546 122.68836595 -143.24212546 122.68836595 -137.21337891 116.07714844 C-135.45549663 110.86325075 -134.75998803 105.45642057 -133.91943359 100.03564453 C-128.30388284 71.30316286 -105.71697225 42.41828543 -82.03125 25.84375 C-78.55642234 23.5130669 -74.99149909 21.35259319 -71.375 19.25 C-70.77284668 18.89808594 -70.17069336 18.54617187 -69.55029297 18.18359375 C-47.87208736 5.68070741 -24.98809968 0.02100349 0 0 Z M-31.375 35.25 C-33.08429688 35.79333984 -33.08429688 35.79333984 -34.828125 36.34765625 C-47.55863086 40.88328334 -59.23933438 47.3047649 -69.375 56.25 C-70.20515625 56.94867188 -71.0353125 57.64734375 -71.890625 58.3671875 C-93.84660307 77.2924324 -105.87012112 104.08604437 -108.71484375 132.6640625 C-108.95939633 135.52499266 -109.1819805 138.38518424 -109.375 141.25 C-109.90754395 141.45044922 -110.44008789 141.65089844 -110.98876953 141.85742188 C-136.11766593 151.39634446 -158.8531991 164.84977132 -173.375 188.25 C-173.95765625 189.16136719 -174.5403125 190.07273438 -175.140625 191.01171875 C-189.85815701 214.97570022 -194.4619837 243.63892231 -188.875 271.25 C-185.69040318 285.10620916 -179.79533211 298.78639931 -171.375 310.25 C-170.78332031 311.06210937 -170.19164062 311.87421875 -169.58203125 312.7109375 C-161.67367005 323.04887771 -152.48499417 332.40181911 -141.375 339.25 C-139.82232422 340.23419922 -139.82232422 340.23419922 -138.23828125 341.23828125 C-114.01898061 356.13085107 -85.08815358 360.23563016 -57.39453125 354.46875 C-44.20523668 351.24439137 -31.70803424 345.7185897 -20.375 338.25 C-19.3025 337.79496094 -18.23 337.33992188 -17.125 336.87109375 C-14.1604836 334.56211556 -14.1604836 334.56211556 -13.89697266 331.5871582 C-13.7828304 328.20601661 -13.85337969 324.87978601 -14 321.5 C-14.04060547 319.73849609 -14.04060547 319.73849609 -14.08203125 317.94140625 C-14.15273827 315.0424184 -14.25138044 312.1471353 -14.375 309.25 C-14.95652832 308.94932617 -15.53805664 308.64865234 -16.13720703 308.33886719 C-26.98187703 302.72450663 -37.79458593 297.06376778 -48.5 291.1875 C-56.01239673 287.06880775 -63.5472217 282.99732039 -71.125 279 C-72.02492676 278.52167725 -72.92485352 278.04335449 -73.85205078 277.55053711 C-74.67946777 277.11620361 -75.50688477 276.68187012 -76.359375 276.234375 C-77.08866211 275.84991211 -77.81794922 275.46544922 -78.56933594 275.06933594 C-80.3480687 274.11226361 -80.3480687 274.11226361 -82.375 274.25 C-82.02195801 273.5794458 -81.66891602 272.9088916 -81.30517578 272.21801758 C-79.70091858 269.16750219 -78.10042528 266.11502739 -76.5 263.0625 C-75.94441406 262.00740234 -75.38882813 260.95230469 -74.81640625 259.86523438 C-74.28144531 258.84365234 -73.74648437 257.82207031 -73.1953125 256.76953125 C-72.70305176 255.83214111 -72.21079102 254.89475098 -71.70361328 253.92895508 C-70.4534712 251.40822574 -69.3791562 248.87705595 -68.375 246.25 C-67.65771729 246.63631592 -66.94043457 247.02263184 -66.20141602 247.4206543 C-52.8998073 254.57931904 -39.58353695 261.70677136 -26.1875 268.6875 C-25.1137915 269.24848389 -24.04008301 269.80946777 -22.93383789 270.38745117 C-21.9514917 270.89767822 -20.96914551 271.40790527 -19.95703125 271.93359375 C-19.09311768 272.38275146 -18.2292041 272.83190918 -17.33911133 273.29467773 C-15.5891415 274.32289915 -15.5891415 274.32289915 -14.375 274.25 C-14.375 233 -14.375 191.75 -14.375 149.25 C-4.475 149.25 5.425 149.25 15.625 149.25 C15.625 168.39 15.625 187.53 15.625 207.25 C19.83198009 205.8476733 23.17196977 204.58105559 27.01171875 202.5625 C28.02403564 202.03301758 29.03635254 201.50353516 30.0793457 200.95800781 C31.14628662 200.39436523 32.21322754 199.83072266 33.3125 199.25 C34.96415161 198.3852002 34.96415161 198.3852002 36.64916992 197.50292969 C41.89300154 194.7544805 47.12611264 191.98634521 52.3515625 189.203125 C53.21563721 188.74421875 54.07971191 188.2853125 54.9699707 187.8125 C56.57756231 186.95740823 58.18298949 186.09823084 59.78588867 185.234375 C60.50236572 184.8528125 61.21884277 184.47125 61.95703125 184.078125 C62.57296143 183.7471582 63.1888916 183.41619141 63.82348633 183.07519531 C65.625 182.25 65.625 182.25 69.625 181.25 C73.915 189.5 78.205 197.75 82.625 206.25 C77.00086657 210.74930675 77.00086657 210.74930675 74.01000977 212.2578125 C73.0048658 212.77044899 73.0048658 212.77044899 71.97941589 213.29344177 C71.26562271 213.65035599 70.55182953 214.0072702 69.81640625 214.375 C69.06083939 214.75902481 68.30527252 215.14304962 67.52680969 215.53871155 C65.91479732 216.35767799 64.30155666 217.17423055 62.68719482 217.98855591 C58.49707127 220.10305667 54.31682485 222.2368746 50.13671875 224.37109375 C49.3138739 224.79087997 48.49102905 225.2106662 47.64324951 225.64317322 C40.87540634 229.10378461 34.16639632 232.65955325 27.5 236.3125 C26.62029541 236.79396484 25.74059082 237.27542969 24.83422852 237.77148438 C21.67894645 239.51171102 18.6257461 241.2495026 15.625 243.25 C15.26466653 246.12861935 15.1012782 248.79961749 15.06225586 251.68774414 C15.02786659 252.99785965 15.02786659 252.99785965 14.99278259 254.33444214 C14.92326537 257.23464139 14.87862361 260.13439004 14.83984375 263.03515625 C14.82512087 264.02605192 14.81039799 265.01694759 14.79522896 266.03787041 C14.72085637 271.2871572 14.66783455 276.53622113 14.62963867 281.78588867 C14.58536051 287.19937467 14.46153224 292.60798189 14.31972408 298.0196619 C14.22603737 302.18831131 14.19477621 306.35581316 14.17990303 310.52541924 C14.16164332 312.51955434 14.11965972 314.51362396 14.05308342 316.50673103 C13.33921658 326.78084663 13.33921658 326.78084663 17.00303841 335.96701241 C20.78896759 339.28951197 25.02427986 341.28311291 29.625 343.25 C31.02608836 343.99916406 32.42425623 344.75388532 33.81640625 345.51953125 C60.83528595 357.8862259 90.21770636 361.02259461 118.625 351.25 C141.23380693 342.78265128 161.68402137 327.8683986 174.625 307.25 C175.12257813 306.50878906 175.62015625 305.76757812 176.1328125 305.00390625 C191.03173147 281.87547969 195.14560126 253.46977509 190.5925293 226.56054688 C187.62128642 211.87655594 181.49766108 197.32940998 172.625 185.25 C172.03332031 184.43789062 171.44164062 183.62578125 170.83203125 182.7890625 C155.09841769 162.22182333 134.75715834 149.8450153 110.625 141.25 C110.53863281 140.02667969 110.45226562 138.80335938 110.36328125 137.54296875 C107.81142743 105.44553284 95.79985036 77.96521504 71.484375 56.41015625 C43.52696408 32.71036581 3.74097747 24.0625276 -31.375 35.25 Z "
     fill="#000000"
     transform="translate(255.375,-0.24999999999999997)"
     id="path1" />
</svg>
