<?xml version="1.0" encoding="UTF-8" standalone="no"?>
<svg
   version="1.1"
   width="512"
   height="512"
   id="svg2"
   sodipodi:docname="tree3.svg"
   inkscape:version="1.3.2 (091e20e, 2023-11-25, custom)"
   xmlns:inkscape="http://www.inkscape.org/namespaces/inkscape"
   xmlns:sodipodi="http://sodipodi.sourceforge.net/DTD/sodipodi-0.dtd"
   xmlns="http://www.w3.org/2000/svg"
   xmlns:svg="http://www.w3.org/2000/svg">
  <defs
     id="defs2" />
  <sodipodi:namedview
     id="namedview2"
     pagecolor="#505050"
     bordercolor="#ffffff"
     borderopacity="1"
     inkscape:showpageshadow="0"
     inkscape:pageopacity="0"
     inkscape:pagecheckerboard="1"
     inkscape:deskcolor="#505050"
     inkscape:zoom="0.91699219"
     inkscape:cx="402.40256"
     inkscape:cy="243.73163"
     inkscape:window-width="1920"
     inkscape:window-height="1177"
     inkscape:window-x="1672"
     inkscape:window-y="-8"
     inkscape:window-maximized="1"
     inkscape:current-layer="svg2" />
  <path
     style="fill:currentColor;stroke-width:0.377953"
     d="m 201.74654,501.64004 18.53887,-99.23748 -15.13099,-8.99681 -48.66454,-8.45154 -11.72311,-11.17785 -51.390838,-32.57934 -9.951012,-35.44196 -44.711395,-30.3983 -4.907348,-50.164 13.631523,-29.98935 -9.269436,-23.99148 2.181044,-33.26092 35.98722,-16.90309 18.538871,-34.351434 35.987221,-25.627263 40.89457,-5.45261 17.99361,-2.726304 34.35144,-37.077742 38.71352,-4.362088 38.71353,10.905219 22.90095,29.444089 42.53036,-5.452609 47.4377,27.808307 12.541,31.079875 31.62513,7.08839 17.44835,25.62726 -7.63365,35.44196 14.72204,43.07561 -26.71778,64.34079 -29.44409,11.45048 -9.8147,48.52822 -60.52396,39.25879 -13.35889,5.38445 -49.82322,3.68051 -10.03363,24.20602 15.80787,56.67699 10.79561,34.31463 z"
     id="path3" />
  <path
     d="M0 0 C1.59134766 0.54333984 1.59134766 0.54333984 3.21484375 1.09765625 C19.71763596 7.36319512 34.48297611 19.43350095 43 35 C43 35.66 43 36.32 43 37 C44.010625 36.690625 45.02125 36.38125 46.0625 36.0625 C65.47006801 30.12140775 87.13568524 34.55686576 105 43 C119.55404295 50.65093957 132.55909383 63.30472849 140 78 C140.32871094 79.06863281 140.65742188 80.13726562 140.99609375 81.23828125 C142.02767753 84.58992504 142.92135222 87.16630729 145 90 C148.49351797 91.19479223 151.62468501 91.44145959 155.3046875 91.67578125 C166.25777809 92.6367818 176.68509387 99.34920761 184.1015625 107.234375 C192.75828639 117.91714065 196.65079912 129.65909498 196.36328125 143.4296875 C195.65995158 150.34198124 193.34228094 156.73785056 190.7109375 163.1328125 C189.7083487 165.90590442 189.7083487 165.90590442 190.90625 167.9921875 C191.4321875 168.61351562 191.958125 169.23484375 192.5 169.875 C203.5972185 185.03527333 206.71722886 206.70406974 204.53125 224.90234375 C201.67433804 243.70996654 193.34799358 259.4317425 180 273 C179.23945313 273.7734375 178.47890625 274.546875 177.6953125 275.34375 C168.49008176 284.15662665 157.79786306 289.47046329 146 294 C146.01571045 294.63389648 146.0314209 295.26779297 146.04760742 295.92089844 C146.54706571 319.12779581 143.20086804 336.23411071 127 354 C126.41347656 354.65613281 125.82695312 355.31226563 125.22265625 355.98828125 C112.38672958 369.60946461 91.32616851 379.91417808 72.63964844 381.15698242 C69.90483629 381.27745762 67.17458976 381.33321237 64.4375 381.375 C63.50486328 381.41238281 62.57222656 381.44976562 61.61132812 381.48828125 C56.92710472 381.5483782 54.73138339 381.54876696 50.88671875 378.6640625 C49 376 49 376 48.375 373 C49.23435926 368.87507554 50.68581978 367.58008071 54 365 C56.96142751 364.34660214 59.85240747 364.40305278 62.875 364.4375 C82.76157043 363.98427739 99.74925958 356.71518893 114.14453125 342.94921875 C123.41090508 333.25761935 129.2584649 321.54567769 129.22460938 308.09375 C129.21236328 307.3203125 129.20011719 306.546875 129.1875 305.75 C129.18685547 304.96109375 129.18621094 304.1721875 129.18554688 303.359375 C129.15770574 299.69671848 128.91408115 296.5519079 128 293 C127.44855967 287.20987654 127.44855967 287.20987654 128 285 C131.51865969 280.59838076 134.63864203 279.1584658 140 277.6875 C157.81512578 272.30290614 171.67281113 260.02611355 180.72265625 243.9375 C188.82961527 227.68374432 189.83862381 211.30291873 185 194 C182.08510977 185.42071317 178.01063025 178.0109062 172.35546875 170.9453125 C170.14943207 167.7793002 170.44964461 165.79133711 171 162 C172.38130578 159.3725621 173.9339899 156.90761959 175.53125 154.40625 C179.2013552 148.39352446 179.81070311 141.87596345 179 135 C176.73710324 126.10742733 173.2563972 119.069036 165.6875 113.75 C157.64737532 108.8314898 151.34987636 107.59095093 142.078125 107.5534668 C138.58256265 107.47297687 136.2078894 107.11527382 133.1328125 105.41015625 C130.44568585 102.3736047 129.65436562 99.77052056 128.5625 95.875 C123.98055786 80.89806955 114.36385794 68.36016659 100.73046875 60.45703125 C99.37888672 59.73580078 99.37888672 59.73580078 98 59 C96.72576172 58.29423828 96.72576172 58.29423828 95.42578125 57.57421875 C79.6889658 49.59995801 62.28761549 49.49121283 45.53393555 53.75219727 C42.01722229 54.60365827 39.65194471 55.14924036 36.08203125 54.33203125 C33.82870716 52.89041115 32.94514751 51.89813109 31.6875 49.5625 C21.54810695 32.10373259 8.97361724 20.67699951 -10.37890625 14.69140625 C-27.86936771 10.07767797 -45.74538252 12.65375505 -61.6015625 20.984375 C-75.02275838 28.94453256 -82.49787544 39.10995419 -89 53 C-92.7195122 60.7195122 -92.7195122 60.7195122 -95 63 C-100.1510808 63.72670849 -104.9606567 62.89365823 -109.91015625 61.51171875 C-113.88817105 60.53766279 -117.92218345 60.26268143 -122 60 C-122.75796875 59.94585937 -123.5159375 59.89171875 -124.296875 59.8359375 C-144.10082515 59.10491921 -164.51813248 67.04151005 -179.1875 80.125 C-189.91688267 90.11801844 -196.84684463 102.46044594 -200.875 116.5 C-202.57063919 121.70803465 -202.57063919 121.70803465 -206.125 124.125 C-208.19548229 124.59252826 -210.26990328 125.04826085 -212.359375 125.421875 C-218.75870695 126.5745497 -223.53002566 128.45868195 -229 132 C-229.886875 132.556875 -230.77375 133.11375 -231.6875 133.6875 C-238.30643442 140.30643442 -241.84371106 148.35771987 -242.0625 157.65625 C-241.61086643 167.70509689 -237.90977296 174.38831328 -230.75 181.3125 C-229.44289063 182.48232422 -229.44289063 182.48232422 -228.109375 183.67578125 C-225.78202199 186.24017947 -225.17824367 187.57437946 -225 191 C-226.42849145 194.57122863 -227.93366586 197.60026024 -231 200 C-231.66 200 -232.32 200 -233 200 C-233.27199219 200.5878125 -233.54398438 201.175625 -233.82421875 201.78125 C-234.97505621 203.95292999 -236.2459182 205.61514169 -237.8125 207.5 C-246.33313309 218.70806994 -248.72811253 231.58702629 -247.5390625 245.31640625 C-246.76576159 250.60062916 -245.24362178 255.17050905 -243 260 C-242.65066406 260.76699219 -242.30132812 261.53398437 -241.94140625 262.32421875 C-235.68472894 274.72932636 -225.35506324 283.40363636 -212.4375 288.25 C-209.70405835 289.17944859 -206.98571003 290.00371659 -204.19140625 290.73046875 C-203.30324219 290.96378906 -202.41507813 291.19710938 -201.5 291.4375 C-200.7059375 291.62183594 -199.911875 291.80617188 -199.09375 291.99609375 C-196.08979926 293.43642088 -195.38076637 294.98593771 -194 298 C-193.3650644 300.60966923 -192.81577435 303.17931815 -192.3125 305.8125 C-188.26427862 324.64081853 -177.68881086 339.74628159 -162.171875 351.0625 C-151.60811479 358.06961732 -139.73253686 362.33285188 -127.1875 364.125 C-123.81669814 364.6112183 -121.84802291 365.07598854 -118.75 366.625 C-116.57226759 369.58049399 -116.3241153 371.48064503 -116.59375 375.09375 C-117 377 -117 377 -118.4375 379.5 C-124.28603816 382.92353454 -132.24078286 380.87624537 -138.5625 379.4375 C-139.33480957 379.26186523 -140.10711914 379.08623047 -140.90283203 378.90527344 C-164.47498564 373.1747601 -184.90520138 358.24291038 -198.125 337.9375 C-203.14265514 329.52206265 -207.00035057 320.29978975 -208.82421875 310.65234375 C-209.59472651 306.87750264 -209.59472651 306.87750264 -212.43359375 305.5546875 C-213.42488281 305.33039063 -214.41617188 305.10609375 -215.4375 304.875 C-226.24248131 301.90588925 -234.61090593 296.3224395 -243 289 C-243.62648438 288.46890625 -244.25296875 287.9378125 -244.8984375 287.390625 C-257.34034549 276.01838331 -264.03198081 258.48312443 -265.21875 241.953125 C-265.74897422 223.83713086 -260.36179051 207.99531812 -249 194 C-248.01 193.01 -248.01 193.01 -247 192 C-247.35431067 188.67225858 -248.85914413 186.58318453 -250.8125 183.9375 C-258.03426218 173.27845678 -260.18625633 161.24060338 -258.5 148.5 C-255.7546572 136.15504792 -248.68518729 124.83973113 -238.625 117.1953125 C-232.10445987 112.99457992 -223.87202161 109 -216 109 C-215.814375 108.17822266 -215.814375 108.17822266 -215.625 107.33984375 C-212.20719551 94.20265772 -205.06981717 82.95428516 -196 73 C-195.37609375 72.29488281 -194.7521875 71.58976562 -194.109375 70.86328125 C-177.97138363 53.60647956 -153.93195276 44.07926472 -130.609375 42.81640625 C-121.91556944 42.65071713 -113.56859724 43.65590632 -105 45 C-104.27296875 43.65808594 -104.27296875 43.65808594 -103.53125 42.2890625 C-92.18753886 21.68103458 -76.60472226 6.82129316 -54 -1 C-53.08863281 -1.3196875 -52.17726562 -1.639375 -51.23828125 -1.96875 C-34.97067829 -6.66007475 -15.88377626 -5.51143545 0 0 Z "
     fill="#000000"
     transform="translate(286,4)"
     id="path1" />
  <path
     d="M0 0 C7.05770554 4.05760595 11.35312784 9.21750911 13.625 17 C14.04495666 19.65104112 14.40425979 22.26169752 14.6953125 24.92578125 C14.82424393 26.04632149 14.82424393 26.04632149 14.95578003 27.1894989 C15.13528312 28.76326581 15.31158985 30.33740025 15.48486328 31.91186523 C15.74815903 34.29583125 16.02368397 36.67815011 16.30078125 39.06054688 C17.13547292 46.38930107 17.88006516 53.61161253 17.625 61 C26.01674076 55.29498823 34.34856386 49.52134872 42.5625 43.5625 C48.59306394 39.19270575 54.62358148 34.82345566 60.6875 30.5 C61.35322021 30.01990479 62.01894043 29.53980957 62.70483398 29.04516602 C78.15799138 18.06838834 78.15799138 18.06838834 87.69140625 19.2578125 C93.44232692 20.45819442 97.64281374 23.01781374 101.8125 27.1875 C105.5383648 32.96901434 107.068879 38.0165018 106.375 44.9375 C104.86408671 52.12799095 100.88026428 56.11138206 95.625 61 C94.67625 61.9075 93.7275 62.815 92.75 63.75 C87.2286339 68.96391816 81.45727321 73.79624143 75.5390625 78.5546875 C71.48799372 81.95410983 67.66587567 85.57817082 63.81689453 89.20263672 C60.35438522 92.44548452 56.83213152 95.53429479 53.125 98.5 C47.44582688 103.04669399 42.18350711 107.98613252 36.8828125 112.9609375 C33.64762554 115.99380819 30.34030845 118.93393472 26.98046875 121.828125 C26.17256181 122.52660362 25.38017746 123.24482254 24.625 124 C22.46774892 160.723437 32.03699271 200.12856696 48.0625 233 C49.85498154 236.95839674 49.89666437 239.76111877 48.625 244 C46.97075378 246.21404183 46.11307828 246.91738233 43.36171055 247.38311005 C42.47000125 247.38683876 41.57829195 247.39056747 40.65956116 247.39440918 C39.63469101 247.40575897 38.60982086 247.41710876 37.55389404 247.42880249 C36.43017395 247.42587189 35.30645386 247.42294128 34.14868164 247.41992188 C32.96473312 247.42839142 31.78078461 247.43686096 30.56095886 247.44558716 C27.31293618 247.46499614 24.06526553 247.4707329 20.81719518 247.46883965 C18.1059056 247.46872003 15.39466992 247.4772803 12.68339533 247.48561716 C6.28702197 247.50485842 -0.10922087 247.50773248 -6.50561523 247.50097656 C-13.10471082 247.49433483 -19.70324759 247.51720301 -26.30222982 247.55429029 C-31.96773152 247.58497612 -37.63305335 247.59634859 -43.2986365 247.59245348 C-46.68255314 247.59038476 -50.06603499 247.59588302 -53.44987297 247.62034607 C-57.22346542 247.6424124 -60.99570039 247.63289454 -64.76928711 247.61523438 C-65.89098297 247.62849762 -67.01267883 247.64176086 -68.16836548 247.65542603 C-75.73232915 247.57292744 -75.73232915 247.57292744 -79.08055115 244.58805847 C-81.55630609 239.6381537 -80.0633979 235.32749843 -78.54589844 230.19677734 C-77.49207657 227.00987465 -76.37663437 223.84936716 -75.25 220.6875 C-68.83506596 201.9876403 -63.91846028 183.11781729 -60.9375 163.5625 C-60.77338623 162.49193359 -60.60927246 161.42136719 -60.44018555 160.31835938 C-58.00284123 145.84402881 -58.00284123 145.84402881 -62.6875 132.6875 C-64.24840735 130.79035517 -65.81105235 128.89463929 -67.375 127 C-69.13531398 124.55577789 -70.81590022 122.05963464 -72.5 119.5625 C-76.74716329 113.34346622 -81.04910176 107.16447851 -85.375 101 C-90.43021206 93.79064414 -95.46172425 86.56666427 -100.4296875 79.296875 C-102.70918655 75.96172601 -105.01256796 72.64378661 -107.3203125 69.328125 C-108.69287142 67.3438628 -110.0652682 65.35948843 -111.4375 63.375 C-112.09355225 62.4380127 -112.74960449 61.50102539 -113.42553711 60.53564453 C-118.81035265 52.71822426 -121.33520085 46.57152593 -120.375 37 C-118.41237814 30.56696169 -114.96617431 25.0452249 -109.04296875 21.671875 C-102.91553563 18.99877053 -97.60780552 17.66745012 -91.0546875 19.73046875 C-78.3121074 24.88217193 -70.31432016 38.89353659 -62.59570312 49.75073242 C-56.99925734 57.60748855 -51.17850673 65.29578405 -45.375 73 C-45.2939653 72.41277161 -45.2129306 71.82554321 -45.12944031 71.22052002 C-44.27716459 65.05394285 -43.41567941 58.88870018 -42.54907227 52.72412109 C-42.22774505 50.42984803 -41.90868984 48.13525547 -41.59204102 45.84033203 C-41.1338886 42.52287566 -40.66730794 39.20669216 -40.19921875 35.890625 C-40.06158615 34.88074524 -39.92395355 33.87086548 -39.78215027 32.8303833 C-36.67070405 11.0351432 -36.67070405 11.0351432 -29.375 4 C-20.69638005 -2.57471209 -10.23777531 -4.68641635 0 0 Z M-20.375 18 C-21.55421343 21.16638375 -21.55421343 21.16638375 -22.05493164 24.77856445 C-22.16949487 25.43779309 -22.28405809 26.09702173 -22.40209293 26.776227 C-22.75270979 28.84761425 -23.06907187 30.92157572 -23.375 33 C-23.65741043 34.89134171 -23.65741043 34.89134171 -23.94552612 36.82089233 C-24.3993112 40.04516569 -24.82817105 43.27113353 -25.23669243 46.50142479 C-25.50450191 48.60914277 -25.78097401 50.71556992 -26.05982971 52.82185364 C-26.85041683 58.79667123 -27.63422204 64.77224896 -28.39282227 70.7512207 C-28.86152253 74.44041293 -29.34670683 78.12711654 -29.84266853 81.81273842 C-30.02705881 83.20695123 -30.20526098 84.60199757 -30.37701225 85.99782372 C-30.61649539 87.93958621 -30.87891801 89.87847785 -31.14233398 91.81713867 C-31.28428696 92.91773117 -31.42623993 94.01832367 -31.57249451 95.15226746 C-32.51912362 98.51143018 -33.64162233 99.86917907 -36.375 102 C-39.6875 102.75 -39.6875 102.75 -43.375 102 C-48.44763753 97.37118145 -52.37829499 91.40695348 -56.3125 85.8125 C-61.86979874 78.00704739 -67.63116908 70.37944401 -73.47753906 62.78881836 C-78.36144183 56.41642608 -83.03557652 49.92553221 -87.48266602 43.23999023 C-90.02931219 39.50691745 -92.11315272 36.88463598 -96.375 35 C-99.20528135 35.1347753 -100.83400646 35.67540388 -103.25 37.125 C-104.68346027 39.51410045 -104.48847316 41.19189625 -104.04003906 43.89013672 C-102.60795409 48.43348412 -99.55755213 52.16364904 -96.8125 56 C-96.14573242 56.95406738 -95.47896484 57.90813477 -94.79199219 58.89111328 C-93.38018262 60.90934875 -91.96289358 62.92376078 -90.54052734 64.93457031 C-87.72347199 68.92227573 -84.94130284 72.93370232 -82.15844727 76.9453125 C-80.13569455 79.85959184 -78.10750759 82.77002211 -76.078125 85.6796875 C-72.9924984 90.10763999 -69.92617834 94.54826176 -66.875 99 C-61.51608677 106.81850366 -56.09905073 114.5963599 -50.6796875 122.37304688 C-50.02097656 123.31857422 -49.36226562 124.26410156 -48.68359375 125.23828125 C-48.09376709 126.08430908 -47.50394043 126.93033691 -46.89624023 127.80200195 C-39.15892357 138.98143735 -43.45693844 157.24440368 -45.53637695 170.05419922 C-48.52976446 187.30513067 -52.8832895 204.15380508 -58.19067383 220.83081055 C-58.47579834 221.72968994 -58.76092285 222.62856934 -59.0546875 223.5546875 C-59.30976074 224.34343262 -59.56483398 225.13217773 -59.82763672 225.94482422 C-60.50368128 228.12868782 -60.50368128 228.12868782 -60.375 231 C-31.005 231 -1.635 231 28.625 231 C25.325 221.1 22.025 211.2 18.625 201 C12.35592443 177.17751282 8.70315048 154.12336531 8.375 129.5 C8.34273315 128.08279663 8.34273315 128.08279663 8.30981445 126.63696289 C8.28469561 121.33593998 8.49124038 117.48328757 11.625 113 C13.64069071 110.93098032 15.81328203 109.12142223 18.0625 107.3125 C19.32968351 106.26229434 20.59528085 105.21017218 21.859375 104.15625 C22.80973633 103.36734375 22.80973633 103.36734375 23.77929688 102.5625 C26.53563496 100.2290921 29.17447334 97.77782728 31.8125 95.3125 C35.43672062 91.94302834 39.13741159 88.72070955 43 85.625 C48.73022487 81.01428361 54.05585078 76.02243362 59.41796875 70.99609375 C64.16786281 66.54486623 69.08734659 62.30901841 74.04296875 58.08984375 C74.66236328 57.56140869 75.28175781 57.03297363 75.91992188 56.48852539 C77.14983601 55.43995695 78.38151246 54.39345086 79.61523438 53.34936523 C86.4982215 48.132613 86.4982215 48.132613 90.1875 40.875 C89.85042085 37.95744051 89.85042085 37.95744051 88 36 C85.63070334 34.73419614 85.63070334 34.73419614 82.9921875 35.57421875 C78.62798924 37.42216813 75.15461203 39.98284173 71.375 42.8125 C69.76705379 43.99496399 68.15897721 45.17725071 66.55078125 46.359375 C65.73303223 46.96458984 64.9152832 47.56980469 64.07275391 48.19335938 C60.25582761 51.01056011 56.40990167 53.78713887 52.5625 56.5625 C51.45503418 57.36288696 51.45503418 57.36288696 50.32519531 58.17944336 C43.07871468 63.41011073 35.78161682 68.56797994 28.46826172 73.70458984 C26.78062576 74.8906291 25.09527356 76.07991623 23.41015625 77.26953125 C22.51167969 77.90246094 21.61320312 78.53539062 20.6875 79.1875 C19.93597656 79.71730469 19.18445313 80.24710937 18.41015625 80.79296875 C14.73304425 83.2792436 12.06496004 83.38947018 7.625 83 C4.80885526 80.13985259 4.17121484 77.73445868 3.76538086 73.80761719 C3.65193832 72.77264099 3.53849579 71.73766479 3.4216156 70.67132568 C3.31213089 69.55775696 3.20264618 68.44418823 3.08984375 67.296875 C2.96565567 66.1451178 2.84146759 64.9933606 2.71351624 63.80670166 C2.31791132 60.12228513 1.93921683 56.43639174 1.5625 52.75 C1.179811 49.07820866 0.79344502 45.40688233 0.40077209 41.73614502 C0.15728931 39.45292062 -0.08011684 37.16903754 -0.31056213 34.88446045 C-1.02638343 24.47549935 -1.02638343 24.47549935 -5.5625 15.5 C-11.5067109 12.32975418 -15.75206942 13.36512669 -20.375 18 Z "
     fill="#000000"
     transform="translate(269.375,265)"
     id="path2" />
</svg>
