<?xml version="1.0" encoding="UTF-8" standalone="no"?>
<svg
   height="480.14264"
   stroke="#000000"
   stroke-linecap="square"
   stroke-miterlimit="10"
   viewBox="0 0 1117.5823 480.34647"
   width="1117.1417"
   version="1.1"
   id="svg11"
   sodipodi:docname="GraphWithAxisAllOne.svg"
   inkscape:version="1.3.2 (091e20e, 2023-11-25, custom)"
   inkscape:export-filename="GraphWithAxisAllOne.jpg"
   inkscape:export-xdpi="96"
   inkscape:export-ydpi="96"
   xmlns:inkscape="http://www.inkscape.org/namespaces/inkscape"
   xmlns:sodipodi="http://sodipodi.sourceforge.net/DTD/sodipodi-0.dtd"
   xmlns:xlink="http://www.w3.org/1999/xlink"
   xmlns="http://www.w3.org/2000/svg"
   xmlns:svg="http://www.w3.org/2000/svg">
  <sodipodi:namedview
     id="namedview11"
     pagecolor="#505050"
     bordercolor="#ffffff"
     borderopacity="1"
     inkscape:showpageshadow="0"
     inkscape:pageopacity="0"
     inkscape:pagecheckerboard="1"
     inkscape:deskcolor="#505050"
     inkscape:zoom="1"
     inkscape:cx="331.49999"
     inkscape:cy="377.49999"
     inkscape:window-width="1920"
     inkscape:window-height="1177"
     inkscape:window-x="1672"
     inkscape:window-y="-8"
     inkscape:window-maximized="1"
     inkscape:current-layer="svg11"
     inkscape:export-bgcolor="#01010100"
     showgrid="false" />
  <defs
     id="defs2">
    <linearGradient
       id="linearGradient15"
       inkscape:collect="always">
      <stop
         style="stop-color:#ffffff;stop-opacity:1;"
         offset="0"
         id="stop15" />
      <stop
         style="stop-color:#ffffff;stop-opacity:0;"
         offset="1"
         id="stop16" />
    </linearGradient>
    <clipPath
       id="a">
      <path
         d="M 0,0 V 424.18 H 786.31 V 0 Z"
         id="path1" />
    </clipPath>
    <clipPath
       clip-path="url(#a)"
       id="b">
      <path
         d="m -122.46,491.15 h 960 v -540 h -960 z"
         id="path2" />
    </clipPath>
    <linearGradient
       inkscape:collect="always"
       xlink:href="#linearGradient15"
       id="linearGradient16" />
    <linearGradient
       inkscape:collect="always"
       xlink:href="#linearGradient15"
       id="linearGradient17"
       x1="-158.53455"
       y1="54.606087"
       x2="-16.234516"
       y2="54.606087"
       gradientUnits="userSpaceOnUse" />
    <linearGradient
       inkscape:collect="always"
       xlink:href="#linearGradient15"
       id="linearGradient18"
       x1="-104.36695"
       y1="160.75919"
       x2="-16.339977"
       y2="160.75919"
       gradientUnits="userSpaceOnUse" />
    <linearGradient
       inkscape:collect="always"
       xlink:href="#linearGradient15"
       id="linearGradient19"
       x1="-99.597191"
       y1="262.06644"
       x2="-17.834597"
       y2="262.06644"
       gradientUnits="userSpaceOnUse" />
    <linearGradient
       inkscape:collect="always"
       xlink:href="#linearGradient15"
       id="linearGradient20"
       x1="-252.5643"
       y1="366.56842"
       x2="-13.635968"
       y2="366.56842"
       gradientUnits="userSpaceOnUse" />
  </defs>
  <g
     id="g11"
     transform="translate(304.68171,-5)">
    <g
       fill="#d9d9d9"
       stroke="#d9d9d9"
       stroke-linecap="butt"
       stroke-linejoin="round"
       stroke-width="0.75"
       id="g10">
      <path
         clip-path="url(#b)"
         d="M 160.47,5 V 419.18 M 315.57,5 V 419.18 M 470.68,5 V 419.18 M 625.83,5 V 419.18 M 780.94,5 v 414.18"
         fill="none"
         id="path3" />
      <path
         clip-path="url(#b)"
         d="m 5.35,388.07 h 108.6 v -41.4 H 5.35 Z"
         fill="#7030a0"
         stroke="none"
         id="path4"
         style="fill:#c53cf5;fill-opacity:1" />
      <path
         clip-path="url(#b)"
         d="m 5.35,284.57 h 116.7 v -41.4 H 5.35 Z"
         fill="#7030a0"
         stroke="none"
         id="path5"
         style="fill:#c53cf5;fill-opacity:1" />
      <path
         clip-path="url(#b)"
         d="M 5.35,181.01 H 315.6 v -41.4 H 5.35 Z"
         fill="#7030a0"
         stroke="none"
         id="path6"
         style="fill:#c53cf5;fill-opacity:1" />
      <path
         clip-path="url(#b)"
         d="M 5.35,77.51 H 265.93 V 36.11 H 5.35 Z"
         fill="#7030a0"
         stroke="none"
         id="path7"
         style="fill:#c53cf5;fill-opacity:1" />
      <path
         clip-path="url(#b)"
         d="m 184.09,284.57 h -62.05 v -41.4 h 62.04 z M 439.69,181.01 H 315.6 v -41.4 H 439.69 Z M 421.09,77.51 H 265.93 v -41.4 h 155.15 z"
         fill="#c53cf5"
         stroke="none"
         id="path8"
         style="fill:#c53cf5;fill-opacity:1" />
      <path
         clip-path="url(#b)"
         d="m 229.99,284.57 h -45.9 v -41.4 h 45.9 z M 597.9,77.51 H 421.08 V 36.11 H 597.9 Z"
         fill="#ff66cc"
         stroke="none"
         id="path9"
         style="fill:#c53cf5;fill-opacity:1" />
      <path
         clip-path="url(#b)"
         d="M 5.38,419.18 V 5"
         fill="none"
         id="path10" />
    </g>
    <rect
       style="fill:#c53cf5;fill-opacity:1;stroke:none;stroke-width:1.00042"
       id="rect1"
       width="77.28421"
       height="40.322197"
       x="117.3792"
       y="243.74985" />
    <rect
       style="fill:#c53cf5;fill-opacity:1;stroke:none;stroke-width:1.00042"
       id="rect2"
       width="105.04994"
       height="40.675896"
       x="269.29483"
       y="140.11472" />
    <rect
       style="fill:#c53cf5;fill-opacity:1;stroke:none;stroke-width:1.00042"
       id="rect3"
       width="91.538849"
       height="41.142456"
       x="252.39996"
       y="36.513371" />
    <rect
       style="fill:#c53cf5;fill-opacity:1;stroke:none;stroke-width:1.00042"
       id="rect4"
       width="64.727722"
       height="40.6759"
       x="406.00122"
       y="36.47961" />
    <rect
       style="fill:#c53cf5;fill-opacity:1;stroke:none;stroke-width:1.00042"
       id="rect5"
       width="154.39156"
       height="41.383305"
       x="160.70786"
       y="36.125904" />
  </g>
  <text
     xml:space="preserve"
     style="font-size:12.0051px;fill:#ffffff;fill-opacity:1;stroke:none;stroke-width:1.00042"
     x="207.92851"
     y="47.918354"
     id="text11"><tspan
       sodipodi:role="line"
       id="tspan11"
       style="fill:#ffffff;fill-opacity:1;stroke:none;stroke-width:1.00042"
       x="207.92851"
       y="47.918354" /></text>
  <path
     d="m 129.63155,50.158877 -2.49846,6.775013 h 5.00603 z m -1.03951,-1.814573 h 2.08813 l 5.1884,13.613856 h -1.91487 l -1.24011,-3.492369 h -6.13673 l -1.24011,3.492369 h -1.94223 z m 9.01816,9.583498 v -6.182314 h 1.67779 v 6.118485 q 0,1.449835 0.56535,2.179311 0.56534,0.720358 1.69603,0.720358 1.35865,0 2.14284,-0.866253 0.7933,-0.866253 0.7933,-2.36168 v -5.790221 h 1.6778 V 61.95816 h -1.6778 v -1.568374 q -0.61093,0.930082 -1.42248,1.386005 -0.80242,0.446805 -1.86928,0.446805 -1.75986,0 -2.67171,-1.094215 -0.91184,-1.094215 -0.91184,-3.200579 z m 4.22184,-6.428512 z m 9.44672,-2.653471 v 2.899669 h 3.4559 v 1.30394 h -3.4559 v 5.544022 q 0,1.249228 0.33739,1.604848 0.3465,0.35562 1.39512,0.35562 h 1.72339 v 1.404242 h -1.72339 q -1.94223,0 -2.68083,-0.720358 -0.73859,-0.729476 -0.73859,-2.644352 v -5.544022 h -1.23099 v -1.30394 h 1.23099 v -2.899669 z m 9.61998,4.07595 q -1.34954,0 -2.13372,1.057741 -0.78419,1.048623 -0.78419,2.881433 0,1.83281 0.77507,2.890551 0.78419,1.048622 2.14284,1.048622 1.34041,0 2.1246,-1.057741 0.78418,-1.057741 0.78418,-2.881432 0,-1.814573 -0.78418,-2.872314 -0.78419,-1.06686 -2.1246,-1.06686 z m 0,-1.422479 q 2.18843,0 3.43765,1.422479 1.24923,1.42248 1.24923,3.939174 0,2.507576 -1.24923,3.939173 -1.24922,1.42248 -3.43765,1.42248 -2.19755,0 -3.44678,-1.42248 -1.24011,-1.431597 -1.24011,-3.939173 0,-2.516694 1.24011,-3.939174 1.24923,-1.422479 3.44678,-1.422479 z m 16.18526,3.136749 q -0.82978,0.738595 -1.22187,1.47719 -0.38298,0.729477 -0.38298,1.531901 0,1.331295 0.96656,2.215785 0.96655,0.884491 2.42551,0.884491 0.86625,0 1.62308,-0.282673 0.75683,-0.29179 1.42248,-0.875372 z m 1.2857,-1.021267 4.63218,4.741598 q 0.53799,-0.811543 0.8389,-1.732507 0.3009,-0.930083 0.35562,-1.969587 h 1.69603 q -0.10942,1.203636 -0.58358,2.379917 -0.47416,1.176281 -1.32218,2.325207 l 2.54405,2.59876 h -2.29785 l -1.30394,-1.340413 q -0.94832,0.811543 -1.98782,1.212755 -1.03951,0.392094 -2.23403,0.392094 -2.19754,0 -3.59267,-1.249229 -1.39512,-1.258347 -1.39512,-3.218815 0,-1.167163 0.61093,-2.18843 0.61094,-1.030386 1.83281,-1.933113 -0.43768,-0.574463 -0.66564,-1.139807 -0.22796,-0.574463 -0.22796,-1.121571 0,-1.47719 1.01214,-2.370798 1.01215,-0.902728 2.68995,-0.902728 0.75683,0 1.50454,0.164132 0.75684,0.164133 1.53191,0.492397 v 1.659559 q -0.79331,-0.428567 -1.51367,-0.64741 -0.72036,-0.227961 -1.34041,-0.227961 -0.95744,0 -1.55926,0.510633 -0.5927,0.501515 -0.5927,1.30394 0,0.465041 0.26444,0.939201 0.27355,0.465041 1.10333,1.322176 z m 18.34634,-3.756804 v 5.115454 h 2.31608 q 1.28571,0 1.98783,-0.665647 0.70212,-0.665648 0.70212,-1.896639 0,-1.221874 -0.70212,-1.887521 -0.70212,-0.665647 -1.98783,-0.665647 z m -1.84193,-1.513664 h 4.15801 q 2.28874,0 3.4559,1.039504 1.17628,1.030385 1.17628,3.027328 0,2.015179 -1.17628,3.045564 -1.16716,1.030386 -3.4559,1.030386 h -2.31608 v 5.471074 h -1.84193 z m 16.77796,4.969559 q -0.28267,-0.164132 -0.62006,-0.23708 -0.32826,-0.08207 -0.72947,-0.08207 -1.42248,0 -2.18843,0.930082 -0.75684,0.920965 -0.75684,2.653472 v 5.379889 h -1.68691 V 51.745488 h 1.68691 V 53.3321 q 0.52888,-0.930083 1.37689,-1.376887 0.84802,-0.455923 2.06077,-0.455923 0.17325,0 0.38298,0.02736 0.20972,0.01824 0.46504,0.06383 z m 5.30694,-0.392094 q -1.34953,0 -2.13372,1.057741 -0.78419,1.048623 -0.78419,2.881433 0,1.83281 0.77507,2.890551 0.78419,1.048622 2.14284,1.048622 1.34041,0 2.1246,-1.057741 0.78419,-1.057741 0.78419,-2.881432 0,-1.814573 -0.78419,-2.872314 -0.78419,-1.06686 -2.1246,-1.06686 z m 0,-1.422479 q 2.18843,0 3.43766,1.422479 1.24923,1.42248 1.24923,3.939174 0,2.507576 -1.24923,3.939173 -1.24923,1.42248 -3.43766,1.42248 -2.19755,0 -3.44678,-1.42248 -1.24011,-1.431597 -1.24011,-3.939173 0,-2.516694 1.24011,-3.939174 1.24923,-1.422479 3.44678,-1.422479 z m 9.12758,-2.653471 v 2.899669 h 3.45589 v 1.30394 h -3.45589 v 5.544022 q 0,1.249228 0.33738,1.604848 0.3465,0.35562 1.39513,0.35562 h 1.72338 v 1.404242 h -1.72338 q -1.94224,0 -2.68083,-0.720358 -0.7386,-0.729476 -0.7386,-2.644352 v -5.544022 h -1.23099 v -1.30394 h 1.23099 v -2.899669 z m 9.61997,4.07595 q -1.34953,0 -2.13372,1.057741 -0.78419,1.048623 -0.78419,2.881433 0,1.83281 0.77507,2.890551 0.78419,1.048622 2.14284,1.048622 1.34041,0 2.1246,-1.057741 0.78419,-1.057741 0.78419,-2.881432 0,-1.814573 -0.78419,-2.872314 -0.78419,-1.06686 -2.1246,-1.06686 z m 0,-1.422479 q 2.18843,0 3.43766,1.422479 1.24923,1.42248 1.24923,3.939174 0,2.507576 -1.24923,3.939173 -1.24923,1.42248 -3.43766,1.42248 -2.19755,0 -3.44678,-1.42248 -1.24011,-1.431597 -1.24011,-3.939173 0,-2.516694 1.24011,-3.939174 1.24923,-1.422479 3.44678,-1.422479 z m 9.12758,-2.653471 v 2.899669 h 3.4559 v 1.30394 h -3.4559 v 5.544022 q 0,1.249228 0.33738,1.604848 0.3465,0.35562 1.39513,0.35562 h 1.72339 v 1.404242 h -1.72339 q -1.94223,0 -2.68083,-0.720358 -0.73859,-0.729476 -0.73859,-2.644352 v -5.544022 h -1.231 v -1.30394 h 1.231 v -2.899669 z m 9.91176,14.060661 q -0.71124,1.823691 -1.386,2.379917 -0.67477,0.556226 -1.80546,0.556226 h -1.34041 v -1.404242 h 0.98479 q 0.69301,0 1.07598,-0.328265 0.38298,-0.328264 0.84802,-1.550137 l 0.30091,-0.765951 -4.13066,-10.04854 h 1.77809 l 3.19146,7.987769 3.19146,-7.987769 h 1.7781 z m 8.42545,-2.48022 v 5.416363 h -1.68691 V 51.745488 h 1.68691 v 1.550138 q 0.52887,-0.911846 1.3313,-1.349532 0.81154,-0.446804 1.93311,-0.446804 1.86017,0 3.01821,1.47719 1.16716,1.47719 1.16716,3.884463 0,2.407272 -1.16716,3.884463 -1.15804,1.47719 -3.01821,1.47719 -1.12157,0 -1.93311,-0.437686 -0.80243,-0.446805 -1.3313,-1.35865 z m 5.70816,-3.565317 q 0,-1.851047 -0.76595,-2.89967 -0.75683,-1.057741 -2.08813,-1.057741 -1.33129,0 -2.09724,1.057741 -0.75684,1.048623 -0.75684,2.89967 0,1.851047 0.75684,2.908788 0.76595,1.048622 2.09724,1.048622 1.3313,0 2.08813,-1.048622 0.76595,-1.057741 0.76595,-2.908788 z m 13.25823,-0.428568 v 0.820661 h -7.71422 q 0.10943,1.732507 1.03951,2.644353 0.9392,0.902727 2.60788,0.902727 0.96655,0 1.86928,-0.23708 0.91185,-0.237079 1.80546,-0.711239 v 1.586611 q -0.90273,0.382976 -1.85105,0.583582 -0.94832,0.200606 -1.924,0.200606 -2.44374,0 -3.87534,-1.42248 -1.42248,-1.422479 -1.42248,-3.847989 0,-2.507575 1.34953,-3.975647 1.35865,-1.47719 3.6565,-1.47719 2.06078,0 3.25529,1.331295 1.20364,1.322176 1.20364,3.60179 z m -1.6778,-0.492396 q -0.0182,-1.376887 -0.77507,-2.197549 -0.74771,-0.820661 -1.98782,-0.820661 -1.40424,0 -2.25226,0.793306 -0.8389,0.793306 -0.96655,2.234022 z m 12.92086,-0.145896 v 6.164077 h -1.6778 v -6.109366 q 0,-1.449835 -0.56534,-2.170193 -0.56535,-0.720358 -1.69603,-0.720358 -1.35865,0 -2.14284,0.866253 -0.78419,0.866254 -0.78419,2.361681 v 5.771983 h -1.68691 V 51.745488 h 1.68691 V 53.3321 q 0.60182,-0.920964 1.41336,-1.376887 0.82066,-0.455923 1.88752,-0.455923 1.75986,0 2.66259,1.094215 0.90273,1.085096 0.90273,3.200578 z"
     id="text12"
     style="font-size:18.6746px;font-family:Popp;-inkscape-font-specification:Popp;fill:#ffffff;stroke:none;stroke-width:1.00042"
     aria-label="Auto &amp; Prototypen" />
  <path
     d="m 192.51929,165.38237 -3.09998,-5.32226 h -2.05421 v 5.32226 h -1.69939 v -13.0162 h 4.20179 q 1.47529,0 2.48372,0.50422 1.0271,0.50421 1.53132,1.36324 0.50421,0.85904 0.50421,1.96084 0,1.34457 -0.78433,2.37167 -0.76566,1.0271 -2.31565,1.36325 l 3.26805,5.45298 z m -5.15419,-6.68551 h 2.5024 q 1.38192,0 2.07288,-0.67228 0.69096,-0.69096 0.69096,-1.83011 0,-1.15783 -0.69096,-1.79277 -0.67229,-0.63493 -2.07288,-0.63493 h -2.5024 z m 18.99207,1.1765 q 0,0.48554 -0.056,1.02711 h -8.17947 q 0.0934,1.51264 1.0271,2.37167 0.9524,0.84036 2.29698,0.84036 1.1018,0 1.83011,-0.50422 0.74698,-0.52289 1.04577,-1.38192 h 1.83012 q -0.41085,1.4753 -1.64337,2.40903 -1.23252,0.91505 -3.06263,0.91505 -1.45662,0 -2.61445,-0.65361 -1.13915,-0.65361 -1.79276,-1.84879 -0.65361,-1.21384 -0.65361,-2.80119 0,-1.58734 0.63494,-2.78251 0.63493,-1.19518 1.77408,-1.83011 1.15783,-0.65361 2.6518,-0.65361 1.45662,0 2.57709,0.63493 1.12048,0.63494 1.71806,1.75542 0.61627,1.1018 0.61627,2.50239 z m -1.75542,-0.35481 q 0,-0.97108 -0.42951,-1.66204 -0.42952,-0.70964 -1.1765,-1.06446 -0.72831,-0.37349 -1.62469,-0.37349 -1.28855,0 -2.20361,0.82168 -0.89638,0.82169 -1.0271,2.27831 z m 4.87409,-6.0319 q -0.48554,0 -0.82168,-0.33614 -0.33614,-0.33615 -0.33614,-0.82169 0,-0.48554 0.33614,-0.82168 0.33614,-0.33614 0.82168,-0.33614 0.46687,0 0.78433,0.33614 0.33615,0.33614 0.33615,0.82168 0,0.48554 -0.33615,0.82169 -0.31746,0.33614 -0.78433,0.33614 z m 0.82168,1.66204 v 10.23368 h -1.69939 v -10.23368 z m 6.51744,10.40175 q -1.1765,0 -2.11023,-0.39217 -0.93373,-0.41084 -1.47529,-1.12047 -0.54156,-0.72831 -0.59759,-1.66204 h 1.75542 q 0.0747,0.76566 0.70963,1.2512 0.65361,0.48554 1.69939,0.48554 0.97108,0 1.53132,-0.42952 0.56023,-0.42951 0.56023,-1.08313 0,-0.67228 -0.59758,-0.98975 -0.59759,-0.33614 -1.84879,-0.65361 -1.13915,-0.29879 -1.86746,-0.59759 -0.70963,-0.31747 -1.23252,-0.91505 -0.50422,-0.61626 -0.50422,-1.60602 0,-0.78433 0.46687,-1.43794 0.46686,-0.65361 1.3259,-1.02711 0.85903,-0.39216 1.96083,-0.39216 1.69939,0 2.74516,0.85903 1.04578,0.85903 1.12048,2.353 h -1.69939 q -0.056,-0.80301 -0.65361,-1.28855 -0.57891,-0.48554 -1.56867,-0.48554 -0.91505,0 -1.45661,0.39217 -0.54157,0.39216 -0.54157,1.0271 0,0.50422 0.31747,0.84036 0.33614,0.31747 0.82168,0.52289 0.50422,0.18674 1.38192,0.42951 1.1018,0.2988 1.79276,0.59759 0.69097,0.28012 1.1765,0.85903 0.50422,0.57891 0.52289,1.51264 0,0.84036 -0.46686,1.51265 -0.46687,0.67228 -1.3259,1.06445 -0.84036,0.37349 -1.94216,0.37349 z m 15.46256,-5.67708 q 0,0.48554 -0.056,1.02711 h -8.17948 q 0.0934,1.51264 1.02711,2.37167 0.9524,0.84036 2.29697,0.84036 1.1018,0 1.83011,-0.50422 0.74699,-0.52289 1.04578,-1.38192 h 1.83011 q -0.41084,1.4753 -1.64336,2.40903 -1.23253,0.91505 -3.06264,0.91505 -1.45662,0 -2.61444,-0.65361 -1.13915,-0.65361 -1.79276,-1.84879 -0.65361,-1.21384 -0.65361,-2.80119 0,-1.58734 0.63493,-2.78251 0.63494,-1.19518 1.77409,-1.83011 1.15782,-0.65361 2.65179,-0.65361 1.45662,0 2.5771,0.63493 1.12047,0.63494 1.71806,1.75542 0.61626,1.1018 0.61626,2.50239 z m -1.75541,-0.35481 q 0,-0.97108 -0.42952,-1.66204 -0.42951,-0.70964 -1.1765,-1.06446 -0.72831,-0.37349 -1.62469,-0.37349 -1.28854,0 -2.2036,0.82168 -0.89638,0.82169 -1.0271,2.27831 z m 9.71081,5.86382 -4.01504,-4.51925 v 4.51925 h -1.69939 v -13.8192 h 1.69939 v 8.12345 l 3.94034,-4.53793 h 2.37167 l -4.81805,5.09816 4.83673,5.13552 z m 8.36621,0.16807 q -1.43795,0 -2.61445,-0.65361 -1.15782,-0.65361 -1.83011,-1.84879 -0.65361,-1.21384 -0.65361,-2.80119 0,-1.56866 0.67229,-2.76384 0.69096,-1.21385 1.86746,-1.84878 1.1765,-0.65361 2.63311,-0.65361 1.45662,0 2.63312,0.65361 1.1765,0.63493 1.84879,1.83011 0.69096,1.19517 0.69096,2.78251 0,1.58735 -0.70964,2.80119 -0.69096,1.19518 -1.88613,1.84879 -1.19518,0.65361 -2.65179,0.65361 z m 0,-1.49397 q 0.91505,0 1.71806,-0.42951 0.80301,-0.42952 1.28855,-1.28855 0.50421,-0.85903 0.50421,-2.09156 0,-1.23252 -0.48554,-2.09155 -0.48554,-0.85903 -1.26987,-1.26987 -0.78433,-0.42952 -1.69939,-0.42952 -0.93373,0 -1.71806,0.42952 -0.76566,0.41084 -1.23253,1.26987 -0.46686,0.85903 -0.46686,2.09155 0,1.2512 0.44819,2.11023 0.46686,0.85904 1.23252,1.28855 0.76566,0.41084 1.68072,0.41084 z m 11.11138,1.49397 q -1.1765,0 -2.11023,-0.39217 -0.93373,-0.41084 -1.4753,-1.12047 -0.54156,-0.72831 -0.59759,-1.66204 h 1.75542 q 0.0747,0.76566 0.70963,1.2512 0.65361,0.48554 1.69939,0.48554 0.97108,0 1.53132,-0.42952 0.56024,-0.42951 0.56024,-1.08313 0,-0.67228 -0.59759,-0.98975 -0.59759,-0.33614 -1.84879,-0.65361 -1.13915,-0.29879 -1.86746,-0.59759 -0.70963,-0.31747 -1.23252,-0.91505 -0.50421,-0.61626 -0.50421,-1.60602 0,-0.78433 0.46686,-1.43794 0.46687,-0.65361 1.3259,-1.02711 0.85903,-0.39216 1.96083,-0.39216 1.69939,0 2.74517,0.85903 1.04577,0.85903 1.12047,2.353 h -1.69939 q -0.056,-0.80301 -0.65361,-1.28855 -0.57891,-0.48554 -1.56866,-0.48554 -0.91506,0 -1.45662,0.39217 -0.54157,0.39216 -0.54157,1.0271 0,0.50422 0.31747,0.84036 0.33615,0.31747 0.82168,0.52289 0.50422,0.18674 1.38193,0.42951 1.1018,0.2988 1.79276,0.59759 0.69096,0.28012 1.1765,0.85903 0.50421,0.57891 0.52289,1.51264 0,0.84036 -0.46687,1.51265 -0.46686,0.67228 -1.3259,1.06445 -0.84035,0.37349 -1.94215,0.37349 z m 8.19813,-9.00116 v 6.0319 q 0,0.74698 0.31747,1.06445 0.31746,0.2988 1.1018,0.2988 h 1.25119 v 1.43794 h -1.53131 q -1.41927,0 -2.12891,-0.65361 -0.70963,-0.65361 -0.70963,-2.14758 v -6.0319 h -1.3259 v -1.40059 h 1.3259 v -2.5771 h 1.69939 v 2.5771 h 2.67046 v 1.40059 z m 14.06198,3.32408 q 0,0.48554 -0.056,1.02711 h -8.17947 q 0.0934,1.51264 1.0271,2.37167 0.95241,0.84036 2.29698,0.84036 1.1018,0 1.83011,-0.50422 0.74698,-0.52289 1.04578,-1.38192 h 1.83011 q -0.41084,1.4753 -1.64337,2.40903 -1.23252,0.91505 -3.06263,0.91505 -1.45662,0 -2.61445,-0.65361 -1.13915,-0.65361 -1.79276,-1.84879 -0.65361,-1.21384 -0.65361,-2.80119 0,-1.58734 0.63494,-2.78251 0.63493,-1.19518 1.77408,-1.83011 1.15783,-0.65361 2.6518,-0.65361 1.45662,0 2.57709,0.63493 1.12048,0.63494 1.71807,1.75542 0.61626,1.1018 0.61626,2.50239 z m -1.75541,-0.35481 q 0,-0.97108 -0.42952,-1.66204 -0.42952,-0.70964 -1.1765,-1.06446 -0.72831,-0.37349 -1.62469,-0.37349 -1.28855,0 -2.2036,0.82168 -0.89638,0.82169 -1.02711,2.27831 z m 8.9825,-4.55661 q 1.86746,0 3.02528,1.13915 1.15783,1.12048 1.15783,3.24938 v 6.0319 h -1.68072 v -5.78913 q 0,-1.53131 -0.76566,-2.33432 -0.76565,-0.82168 -2.09155,-0.82168 -1.34457,0 -2.14758,0.84035 -0.78433,0.84036 -0.78433,2.44638 v 5.6584 h -1.69939 v -10.23368 h 1.69939 v 1.45662 q 0.50421,-0.78434 1.36324,-1.21385 0.87771,-0.42952 1.92349,-0.42952 z"
     id="text13"
     style="font-size:18.6746px;font-family:Poppins;-inkscape-font-specification:Poppins;fill:#ffffff;stroke:none;stroke-width:1.00042"
     aria-label="Reisekosten" />
  <path
     d="m 196.98249,252.38923 v 1.38192 h -3.54817 v 11.63428 h -1.69939 v -11.63428 h -3.56685 v -1.38192 z m 11.42886,7.50719 q 0,0.48554 -0.056,1.0271 h -8.17948 q 0.0934,1.51264 1.02711,2.37168 0.9524,0.84035 2.29697,0.84035 1.1018,0 1.83011,-0.50421 0.74699,-0.52289 1.04578,-1.38192 h 1.83011 q -0.41084,1.47529 -1.64336,2.40902 -1.23253,0.91506 -3.06264,0.91506 -1.45662,0 -2.61444,-0.65361 -1.13915,-0.65361 -1.79276,-1.84879 -0.65361,-1.21385 -0.65361,-2.80119 0,-1.58734 0.63493,-2.78251 0.63494,-1.19518 1.77409,-1.83012 1.15782,-0.65361 2.65179,-0.65361 1.45662,0 2.5771,0.63494 1.12047,0.63494 1.71806,1.75541 0.61626,1.1018 0.61626,2.5024 z m -1.75541,-0.35482 q 0,-0.97108 -0.42952,-1.66204 -0.42951,-0.70963 -1.1765,-1.06445 -0.72831,-0.37349 -1.62469,-0.37349 -1.28854,0 -2.2036,0.82168 -0.89638,0.82168 -1.0271,2.2783 z m 3.36144,0.70964 q 0,-1.56867 0.63494,-2.74517 0.63494,-1.19517 1.73674,-1.84879 1.12047,-0.65361 2.48372,-0.65361 1.34457,0 2.33432,0.57892 0.98976,0.57891 1.4753,1.45661 v -1.86746 h 1.71806 v 10.23369 h -1.71806 v -1.90481 q -0.50422,0.89638 -1.51265,1.49396 -0.98975,0.57892 -2.31565,0.57892 -1.36324,0 -2.46504,-0.67229 -1.1018,-0.67228 -1.73674,-1.88613 -0.63494,-1.21385 -0.63494,-2.76384 z m 8.66502,0.0187 q 0,-1.15782 -0.46687,-2.01686 -0.46686,-0.85903 -1.26987,-1.30722 -0.78433,-0.46686 -1.73674,-0.46686 -0.9524,0 -1.73674,0.44819 -0.78433,0.44819 -1.25119,1.30722 -0.46687,0.85903 -0.46687,2.01686 0,1.1765 0.46687,2.0542 0.46686,0.85903 1.25119,1.3259 0.78434,0.44819 1.73674,0.44819 0.95241,0 1.73674,-0.44819 0.80301,-0.46687 1.26987,-1.3259 0.46687,-0.8777 0.46687,-2.03553 z m 16.90052,-5.28491 q 1.19518,0 2.12891,0.50421 0.93373,0.48554 1.47529,1.4753 0.54156,0.98975 0.54156,2.40902 v 6.0319 h -1.68071 v -5.78913 q 0,-1.53132 -0.76566,-2.33433 -0.74698,-0.82168 -2.03553,-0.82168 -1.3259,0 -2.11023,0.85903 -0.78433,0.84036 -0.78433,2.44638 v 5.63973 h -1.68072 v -5.78913 q 0,-1.53132 -0.76566,-2.33433 -0.74698,-0.82168 -2.03553,-0.82168 -1.32589,0 -2.11023,0.85903 -0.78433,0.84036 -0.78433,2.44638 v 5.63973 h -1.69939 v -10.23369 h 1.69939 v 1.4753 q 0.50421,-0.80301 1.34457,-1.23253 0.85903,-0.42951 1.88614,-0.42951 1.28854,0 2.2783,0.57891 0.98975,0.57891 1.47529,1.69939 0.42952,-1.08313 1.41927,-1.68071 0.98975,-0.59759 2.2036,-0.59759 z m 10.55117,10.5885 q -1.1765,0 -2.11023,-0.39217 -0.93373,-0.41084 -1.4753,-1.12048 -0.54156,-0.7283 -0.59758,-1.66203 h 1.75541 q 0.0747,0.76565 0.70963,1.25119 0.65361,0.48554 1.69939,0.48554 0.97108,0 1.53132,-0.42951 0.56024,-0.42952 0.56024,-1.08313 0,-0.67229 -0.59759,-0.98975 -0.59759,-0.33615 -1.84879,-0.65361 -1.13915,-0.2988 -1.86746,-0.59759 -0.70963,-0.31747 -1.23252,-0.91506 -0.50421,-0.61626 -0.50421,-1.60601 0,-0.78434 0.46686,-1.43795 0.46687,-0.65361 1.3259,-1.0271 0.85903,-0.39217 1.96083,-0.39217 1.69939,0 2.74517,0.85904 1.04577,0.85903 1.12047,2.35299 h -1.69939 q -0.056,-0.803 -0.65361,-1.28854 -0.57891,-0.48554 -1.56866,-0.48554 -0.91506,0 -1.45662,0.39216 -0.54157,0.39217 -0.54157,1.02711 0,0.50421 0.31747,0.84035 0.33615,0.31747 0.82169,0.52289 0.50421,0.18675 1.38192,0.42952 1.1018,0.29879 1.79276,0.59759 0.69096,0.28012 1.1765,0.85903 0.50421,0.57891 0.52289,1.51264 0,0.84036 -0.46687,1.51264 -0.46686,0.67229 -1.3259,1.06446 -0.84035,0.37349 -1.94215,0.37349 z m 8.19813,-9.00116 v 6.0319 q 0,0.74698 0.31747,1.06445 0.31747,0.29879 1.1018,0.29879 h 1.2512 v 1.43795 h -1.53131 q -1.41927,0 -2.12891,-0.65361 -0.70963,-0.65362 -0.70963,-2.14758 v -6.0319 h -1.3259 v -1.4006 h 1.3259 v -2.57709 h 1.69938 v 2.57709 h 2.67047 v 1.4006 z m 4.08975,3.6789 q 0,-1.56867 0.63493,-2.74517 0.63494,-1.19517 1.73674,-1.84879 1.12048,-0.65361 2.48372,-0.65361 1.34457,0 2.33433,0.57892 0.98975,0.57891 1.47529,1.45661 v -1.86746 h 1.71806 v 10.23369 h -1.71806 v -1.90481 q -0.50421,0.89638 -1.51264,1.49396 -0.98976,0.57892 -2.31565,0.57892 -1.36325,0 -2.46505,-0.67229 -1.1018,-0.67228 -1.73674,-1.88613 -0.63493,-1.21385 -0.63493,-2.76384 z m 8.66501,0.0187 q 0,-1.15782 -0.46686,-2.01686 -0.46687,-0.85903 -1.26988,-1.30722 -0.78433,-0.46686 -1.73674,-0.46686 -0.9524,0 -1.73673,0.44819 -0.78434,0.44819 -1.2512,1.30722 -0.46687,0.85903 -0.46687,2.01686 0,1.1765 0.46687,2.0542 0.46686,0.85903 1.2512,1.3259 0.78433,0.44819 1.73673,0.44819 0.95241,0 1.73674,-0.44819 0.80301,-0.46687 1.26988,-1.3259 0.46686,-0.8777 0.46686,-2.03553 z m 9.58009,-5.28491 q 1.86746,0 3.02528,1.13915 1.15783,1.12048 1.15783,3.24938 v 6.0319 h -1.68072 v -5.78913 q 0,-1.53132 -0.76566,-2.33433 -0.76565,-0.82168 -2.09155,-0.82168 -1.34457,0 -2.14758,0.84036 -0.78433,0.84036 -0.78433,2.44637 v 5.65841 h -1.69939 v -10.23369 h 1.69939 v 1.45662 q 0.50421,-0.78433 1.36324,-1.21385 0.87771,-0.42951 1.92349,-0.42951 z m 6.33067,5.26624 q 0,-1.56867 0.63494,-2.74517 0.63493,-1.19517 1.73673,-1.84879 1.12048,-0.65361 2.5024,-0.65361 1.19518,0 2.22228,0.56024 1.0271,0.54156 1.56867,1.43795 v -5.41564 h 1.71806 v 13.81921 h -1.71806 v -1.92349 q -0.50422,0.91506 -1.49397,1.51264 -0.98976,0.57892 -2.31565,0.57892 -1.36325,0 -2.48373,-0.67229 -1.1018,-0.67228 -1.73673,-1.88613 -0.63494,-1.21385 -0.63494,-2.76384 z m 8.66502,0.0187 q 0,-1.15782 -0.46687,-2.01686 -0.46686,-0.85903 -1.26987,-1.30722 -0.78434,-0.46686 -1.73674,-0.46686 -0.95241,0 -1.73674,0.44819 -0.78433,0.44819 -1.2512,1.30722 -0.46686,0.85903 -0.46686,2.01686 0,1.1765 0.46686,2.0542 0.46687,0.85903 1.2512,1.3259 0.78433,0.44819 1.73674,0.44819 0.9524,0 1.73674,-0.44819 0.80301,-0.46687 1.26987,-1.3259 0.46687,-0.8777 0.46687,-2.03553 z"
     id="text14"
     style="font-size:18.6746px;font-family:Poppins;-inkscape-font-specification:Poppins;fill:#ffffff;stroke:none;stroke-width:1.00042"
     aria-label="Teamstand" />
  <path
     d="m 8.7984956,352.09705 v 1.38192 H 5.2503215 v 11.63428 H 3.5509328 v -11.63428 h -3.5668487 v -1.38192 z m 11.4288624,7.50719 q 0,0.48554 -0.05602,1.02711 h -8.179475 q 0.09337,1.51264 1.027103,2.37167 0.952404,0.84036 2.296976,0.84036 1.101801,0 1.83011,-0.50422 0.746985,-0.52289 1.045778,-1.38192 h 1.830111 q -0.410841,1.4753 -1.643365,2.40903 -1.232524,0.91505 -3.062634,0.91505 -1.456619,0 -2.614444,-0.65361 -1.139151,-0.65361 -1.792762,-1.84878 -0.653611,-1.21385 -0.653611,-2.80119 0,-1.58735 0.634936,-2.78252 0.634937,-1.19517 1.774087,-1.83011 1.157826,-0.65361 2.651794,-0.65361 1.456618,0 2.577095,0.63493 1.120476,0.63494 1.718063,1.75542 0.616262,1.1018 0.616262,2.50239 z m -1.755413,-0.35481 q 0,-0.97108 -0.429516,-1.66204 -0.429516,-0.70964 -1.1765,-1.06446 -0.728309,-0.37349 -1.62469,-0.37349 -1.288547,0 -2.203603,0.82168 -0.89638,0.82169 -1.027103,2.27831 z m 3.361443,0.70963 q 0,-1.56867 0.634936,-2.74517 0.634937,-1.19517 1.736738,-1.84878 1.120476,-0.65361 2.483722,-0.65361 1.344571,0 2.334325,0.57891 0.989754,0.57891 1.475294,1.45662 v -1.86746 h 1.718063 v 10.23368 h -1.718063 v -1.90481 q -0.504215,0.89638 -1.512643,1.49397 -0.989754,0.57891 -2.31565,0.57891 -1.363246,0 -2.465048,-0.67228 -1.101801,-0.67229 -1.736738,-1.88614 -0.634936,-1.21385 -0.634936,-2.76384 z m 8.665015,0.0187 q 0,-1.15783 -0.466865,-2.01686 -0.466865,-0.85903 -1.269873,-1.30722 -0.784333,-0.46687 -1.736738,-0.46687 -0.952405,0 -1.736738,0.44819 -0.784333,0.44819 -1.251198,1.30722 -0.466865,0.85904 -0.466865,2.01686 0,1.1765 0.466865,2.05421 0.466865,0.85903 1.251198,1.32589 0.784333,0.44819 1.736738,0.44819 0.952405,0 1.736738,-0.44819 0.803008,-0.46686 1.269873,-1.32589 0.466865,-0.87771 0.466865,-2.03553 z m 16.900526,-5.28492 q 1.195174,0 2.128904,0.50422 0.93373,0.48554 1.475294,1.47529 0.541563,0.98976 0.541563,2.40902 v 6.0319 h -1.680714 v -5.78913 q 0,-1.53131 -0.765659,-2.33432 -0.746984,-0.82168 -2.035531,-0.82168 -1.325897,0 -2.11023,0.85903 -0.784333,0.84036 -0.784333,2.44637 v 5.63973 h -1.680714 v -5.78913 q 0,-1.53131 -0.765659,-2.33432 -0.746984,-0.82168 -2.035531,-0.82168 -1.325897,0 -2.11023,0.85903 -0.784333,0.84036 -0.784333,2.44637 v 5.63973 h -1.699389 v -10.23368 h 1.699389 v 1.47529 q 0.504214,-0.803 1.344571,-1.23252 0.859031,-0.42952 1.886134,-0.42952 1.288548,0 2.278302,0.57892 0.989754,0.57891 1.475293,1.69938 0.429516,-1.08312 1.41927,-1.68071 0.989754,-0.59759 2.203603,-0.59759 z m 12.642718,10.42043 -4.01504,-4.51925 v 4.51925 h -1.699388 v -13.8192 h 1.699388 v 8.12345 l 3.940341,-4.53793 h 2.371674 l -4.818047,5.09817 4.836722,5.13551 z m 5.602369,-13.8192 v 13.8192 h -1.699389 v -13.8192 z m 12.231872,8.31019 q 0,0.48554 -0.05602,1.02711 h -8.179475 q 0.09337,1.51264 1.027103,2.37167 0.952404,0.84036 2.296976,0.84036 1.101801,0 1.83011,-0.50422 0.746985,-0.52289 1.045778,-1.38192 h 1.830111 q -0.410841,1.4753 -1.643365,2.40903 -1.232524,0.91505 -3.062634,0.91505 -1.456619,0 -2.614444,-0.65361 -1.139151,-0.65361 -1.792762,-1.84878 -0.653611,-1.21385 -0.653611,-2.80119 0,-1.58735 0.634936,-2.78252 0.634937,-1.19517 1.774087,-1.83011 1.157826,-0.65361 2.651794,-0.65361 1.456618,0 2.577095,0.63493 1.120476,0.63494 1.718063,1.75542 0.616262,1.1018 0.616262,2.50239 z m -1.755413,-0.35481 q 0,-0.97108 -0.429516,-1.66204 -0.429515,-0.70964 -1.1765,-1.06446 -0.728309,-0.37349 -1.62469,-0.37349 -1.288547,0 -2.203603,0.82168 -0.89638,0.82169 -1.027103,2.27831 z m 4.874081,-6.0319 q -0.48554,0 -0.821683,-0.33614 -0.336142,-0.33615 -0.336142,-0.82169 0,-0.48553 0.336142,-0.82168 0.336143,-0.33614 0.821683,-0.33614 0.466865,0 0.784333,0.33614 0.336143,0.33615 0.336143,0.82168 0,0.48554 -0.336143,0.82169 -0.317468,0.33614 -0.784333,0.33614 z m 0.821682,1.66204 v 10.23368 H 80.11685 v -10.23368 z m 2.259631,5.07949 q 0,-1.56867 0.634937,-2.74517 0.634936,-1.19517 1.736737,-1.84878 1.120476,-0.65361 2.502397,-0.65361 1.195174,0 2.222277,0.56024 1.027103,0.54156 1.568667,1.43794 v -5.41563 h 1.718063 v 13.8192 h -1.718063 v -1.92348 q -0.504214,0.91505 -1.493968,1.51264 -0.989754,0.57891 -2.315651,0.57891 -1.363246,0 -2.483722,-0.67228 -1.101801,-0.67229 -1.736737,-1.88614 -0.634937,-1.21385 -0.634937,-2.76384 z m 8.665015,0.0187 q 0,-1.15783 -0.466865,-2.01686 -0.466865,-0.85903 -1.269873,-1.30722 -0.784333,-0.46687 -1.736738,-0.46687 -0.952404,0 -1.736738,0.44819 -0.784333,0.44819 -1.251198,1.30722 -0.466865,0.85904 -0.466865,2.01686 0,1.1765 0.466865,2.05421 0.466865,0.85903 1.251198,1.32589 0.784334,0.44819 1.736738,0.44819 0.952405,0 1.736738,-0.44819 0.803008,-0.46686 1.269873,-1.32589 0.466865,-0.87771 0.466865,-2.03553 z m 13.669826,-5.09817 v 10.23368 h -1.69939 v -1.51264 q -0.48554,0.78433 -1.36325,1.23252 -0.85903,0.42952 -1.90481,0.42952 -1.19517,0 -2.147575,-0.48554 -0.952405,-0.50422 -1.512643,-1.49397 -0.541563,-0.98975 -0.541563,-2.40902 v -5.99455 h 1.680714 v 5.77045 q 0,1.51264 0.765659,2.33433 0.765658,0.803 2.091558,0.803 1.36324,0 2.14758,-0.84035 0.78433,-0.84036 0.78433,-2.44638 v -5.62105 z m 7.86199,-0.18675 q 1.86746,0 3.02528,1.13915 1.15783,1.12048 1.15783,3.24938 v 6.0319 h -1.68071 v -5.78913 q 0,-1.53131 -0.76566,-2.33432 -0.76566,-0.82168 -2.09156,-0.82168 -1.34457,0 -2.14758,0.84035 -0.78433,0.84036 -0.78433,2.44638 v 5.6584 h -1.69939 v -10.23368 h 1.69939 v 1.45662 q 0.50421,-0.78433 1.36325,-1.21385 0.8777,-0.42952 1.92348,-0.42952 z m 11.18608,0.0187 q 1.32589,0 2.31565,0.57891 1.00843,0.57891 1.49397,1.45662 v -1.86746 h 1.71806 v 10.45778 q 0,1.40059 -0.59759,2.48372 -0.59759,1.1018 -1.71806,1.71806 -1.1018,0.61626 -2.5771,0.61626 -2.01685,0 -3.36142,-0.9524 -1.34458,-0.95241 -1.58735,-2.59577 h 1.68072 q 0.28012,0.93373 1.15782,1.49397 0.87771,0.57891 2.11023,0.57891 1.4006,0 2.2783,-0.87771 0.89639,-0.8777 0.89639,-2.46504 v -2.14758 q -0.50422,0.89638 -1.49397,1.49396 -0.98976,0.59759 -2.31565,0.59759 -1.36325,0 -2.48372,-0.67228 -1.10181,-0.67229 -1.73674,-1.88614 -0.63494,-1.21385 -0.63494,-2.76384 0,-1.56867 0.63494,-2.74517 0.63493,-1.19517 1.73674,-1.84878 1.12047,-0.65361 2.48372,-0.65361 z m 3.80962,5.26624 q 0,-1.15783 -0.46687,-2.01686 -0.46686,-0.85903 -1.26987,-1.30722 -0.78434,-0.46687 -1.73674,-0.46687 -0.9524,0 -1.73674,0.44819 -0.78433,0.44819 -1.2512,1.30722 -0.46686,0.85904 -0.46686,2.01686 0,1.1765 0.46686,2.05421 0.46687,0.85903 1.2512,1.32589 0.78434,0.44819 1.73674,0.44819 0.9524,0 1.73674,-0.44819 0.80301,-0.46686 1.26987,-1.32589 0.46687,-0.87771 0.46687,-2.03553 z m 19.57099,5.13551 -1.69939,-1.71806 q -0.9524,0.98975 -2.03553,1.47529 -1.08313,0.46687 -2.44637,0.46687 -1.34457,0 -2.39035,-0.48554 -1.02711,-0.48554 -1.60602,-1.38192 -0.56024,-0.89638 -0.56024,-2.09156 0,-1.36325 0.76566,-2.39035 0.78434,-1.04578 2.29698,-1.64336 -0.59759,-0.70964 -0.85903,-1.30723 -0.26145,-0.59758 -0.26145,-1.30722 0,-0.82168 0.41084,-1.47529 0.42952,-0.67229 1.21385,-1.04578 0.78434,-0.37349 1.81144,-0.37349 1.00843,0 1.75541,0.39217 0.74699,0.39216 1.12048,1.1018 0.37349,0.69096 0.33614,1.54999 h -1.69939 q 0.0187,-0.76566 -0.42951,-1.19517 -0.44819,-0.4482 -1.15783,-0.4482 -0.74698,0 -1.21385,0.42952 -0.44819,0.41084 -0.44819,1.06445 0,0.56024 0.29879,1.08313 0.31747,0.52289 1.04578,1.28855 l 3.88432,3.90299 0.33614,-0.52289 1.26987,-2.1289 h 1.83012 l -1.53132,2.65179 q -0.31747,0.56024 -0.74699,1.1765 l 2.93192,2.93191 z m -6.18129,-1.23252 q 1.00842,0 1.81143,-0.39217 0.82169,-0.39217 1.54999,-1.21385 l -3.82829,-3.84697 q -2.39035,0.91506 -2.39035,2.89457 0,1.1018 0.78434,1.83011 0.803,0.72831 2.07288,0.72831 z m 28.17999,-11.6903 v 12.92282 h -1.69939 v -9.63609 l -4.29516,9.63609 h -1.19517 l -4.31384,-9.65477 v 9.65477 h -1.69939 v -12.92282 h 1.83012 l 4.78069,10.68187 4.7807,-10.68187 z m 12.21318,7.41381 q 0,0.48554 -0.056,1.02711 h -8.17948 q 0.0934,1.51264 1.02711,2.37167 0.9524,0.84036 2.29697,0.84036 1.1018,0 1.83011,-0.50422 0.74699,-0.52289 1.04578,-1.38192 h 1.83011 q -0.41084,1.4753 -1.64336,2.40903 -1.23253,0.91505 -3.06264,0.91505 -1.45662,0 -2.61444,-0.65361 -1.13915,-0.65361 -1.79276,-1.84878 -0.65361,-1.21385 -0.65361,-2.80119 0,-1.58735 0.63493,-2.78252 0.63494,-1.19517 1.77409,-1.83011 1.15782,-0.65361 2.65179,-0.65361 1.45662,0 2.5771,0.63493 1.12047,0.63494 1.71806,1.75542 0.61626,1.1018 0.61626,2.50239 z m -1.75541,-0.35481 q 0,-0.97108 -0.42952,-1.66204 -0.42951,-0.70964 -1.1765,-1.06446 -0.72831,-0.37349 -1.62469,-0.37349 -1.28854,0 -2.2036,0.82168 -0.89638,0.82169 -1.0271,2.27831 z m 5.69576,-2.70782 q 0.44819,-0.87771 1.26988,-1.36325 0.84035,-0.48554 2.03553,-0.48554 v 1.75542 h -0.44819 q -2.85722,0 -2.85722,3.09998 v 5.56503 h -1.69939 v -10.23368 h 1.69939 z m 4.6313,3.43613 q 0,-1.58735 0.63494,-2.76385 0.63493,-1.19517 1.75541,-1.84878 1.13915,-0.65361 2.59577,-0.65361 1.88613,0 3.09998,0.91505 1.23253,0.91506 1.62469,2.53975 h -1.83011 q -0.26144,-0.93373 -1.0271,-1.47529 -0.74699,-0.54157 -1.86746,-0.54157 -1.45662,0 -2.353,1.00843 -0.89638,0.98975 -0.89638,2.81987 0,1.84878 0.89638,2.85721 0.89638,1.00843 2.353,1.00843 1.12047,0 1.86746,-0.52289 0.74698,-0.52289 1.0271,-1.49397 h 1.83011 q -0.41084,1.56867 -1.64336,2.52107 -1.23253,0.93373 -3.08131,0.93373 -1.45662,0 -2.59577,-0.65361 -1.12048,-0.65361 -1.75541,-1.84878 -0.63494,-1.19518 -0.63494,-2.80119 z m 17.04991,-5.28492 q 1.15782,0 2.09155,0.50422 0.93373,0.48554 1.45662,1.47529 0.54156,0.98976 0.54156,2.40902 v 6.0319 h -1.68071 v -5.78913 q 0,-1.53131 -0.76566,-2.33432 -0.76566,-0.82168 -2.09155,-0.82168 -1.34457,0 -2.14758,0.84035 -0.78434,0.84036 -0.78434,2.44638 v 5.6584 h -1.69938 v -13.8192 h 1.69938 v 5.04214 q 0.50422,-0.78433 1.38192,-1.21385 0.89639,-0.42952 1.99819,-0.42952 z m 6.23731,5.26624 q 0,-1.56867 0.63493,-2.74517 0.63494,-1.19517 1.73674,-1.84878 1.12048,-0.65361 2.48372,-0.65361 1.34457,0 2.33433,0.57891 0.98975,0.57891 1.47529,1.45662 v -1.86746 h 1.71806 v 10.23368 h -1.71806 v -1.90481 q -0.50421,0.89638 -1.51264,1.49397 -0.98976,0.57891 -2.31565,0.57891 -1.36325,0 -2.46505,-0.67228 -1.1018,-0.67229 -1.73674,-1.88614 -0.63493,-1.21385 -0.63493,-2.76384 z m 8.66501,0.0187 q 0,-1.15783 -0.46686,-2.01686 -0.46687,-0.85903 -1.26988,-1.30722 -0.78433,-0.46687 -1.73674,-0.46687 -0.9524,0 -1.73673,0.44819 -0.78434,0.44819 -1.2512,1.30722 -0.46687,0.85904 -0.46687,2.01686 0,1.1765 0.46687,2.05421 0.46686,0.85903 1.2512,1.32589 0.78433,0.44819 1.73673,0.44819 0.95241,0 1.73674,-0.44819 0.80301,-0.46686 1.26988,-1.32589 0.46686,-0.87771 0.46686,-2.03553 z m 9.58008,-5.28492 q 1.86746,0 3.02528,1.13915 1.15783,1.12048 1.15783,3.24938 v 6.0319 h -1.68071 v -5.78913 q 0,-1.53131 -0.76566,-2.33432 -0.76566,-0.82168 -2.09156,-0.82168 -1.34457,0 -2.14758,0.84035 -0.78433,0.84036 -0.78433,2.44638 v 5.6584 h -1.69939 v -10.23368 h 1.69939 v 1.45662 q 0.50421,-0.78433 1.36325,-1.21385 0.8777,-0.42952 1.92348,-0.42952 z m 6.33068,5.26624 q 0,-1.56867 0.63494,-2.74517 0.63493,-1.19517 1.73674,-1.84878 1.12047,-0.65361 2.50239,-0.65361 1.19518,0 2.22228,0.56024 1.0271,0.54156 1.56867,1.43794 v -5.41563 h 1.71806 v 13.8192 h -1.71806 v -1.92348 q -0.50422,0.91505 -1.49397,1.51264 -0.98976,0.57891 -2.31565,0.57891 -1.36325,0 -2.48372,-0.67228 -1.10181,-0.67229 -1.73674,-1.88614 -0.63494,-1.21385 -0.63494,-2.76384 z m 8.66502,0.0187 q 0,-1.15783 -0.46687,-2.01686 -0.46686,-0.85903 -1.26987,-1.30722 -0.78434,-0.46687 -1.73674,-0.46687 -0.9524,0 -1.73674,0.44819 -0.78433,0.44819 -1.2512,1.30722 -0.46686,0.85904 -0.46686,2.01686 0,1.1765 0.46686,2.05421 0.46687,0.85903 1.2512,1.32589 0.78434,0.44819 1.73674,0.44819 0.9524,0 1.73674,-0.44819 0.80301,-0.46686 1.26987,-1.32589 0.46687,-0.87771 0.46687,-2.03553 z m 5.47166,-6.76021 q -0.48554,0 -0.82168,-0.33614 -0.33614,-0.33615 -0.33614,-0.82169 0,-0.48553 0.33614,-0.82168 0.33614,-0.33614 0.82168,-0.33614 0.46687,0 0.78434,0.33614 0.33614,0.33615 0.33614,0.82168 0,0.48554 -0.33614,0.82169 -0.31747,0.33614 -0.78434,0.33614 z m 0.82168,1.66204 v 10.23368 h -1.69938 v -10.23368 z m 6.51745,10.40175 q -1.1765,0 -2.11023,-0.39216 -0.93373,-0.41085 -1.47529,-1.12048 -0.54156,-0.72831 -0.59759,-1.66204 h 1.75541 q 0.0747,0.76566 0.70964,1.2512 0.65361,0.48554 1.69939,0.48554 0.97108,0 1.53131,-0.42952 0.56024,-0.42951 0.56024,-1.08312 0,-0.67229 -0.59758,-0.98976 -0.59759,-0.33614 -1.84879,-0.65361 -1.13915,-0.29879 -1.86746,-0.59759 -0.70963,-0.31747 -1.23252,-0.91505 -0.50422,-0.61626 -0.50422,-1.60602 0,-0.78433 0.46687,-1.43794 0.46686,-0.65361 1.32589,-1.02711 0.85904,-0.39216 1.96084,-0.39216 1.69939,0 2.74516,0.85903 1.04578,0.85903 1.12048,2.353 h -1.69939 q -0.056,-0.80301 -0.65361,-1.28855 -0.57891,-0.48554 -1.56867,-0.48554 -0.91505,0 -1.45662,0.39217 -0.54156,0.39217 -0.54156,1.0271 0,0.50422 0.31747,0.84036 0.33614,0.31747 0.82168,0.52289 0.50422,0.18674 1.38192,0.42951 1.1018,0.2988 1.79276,0.59759 0.69096,0.28012 1.1765,0.85903 0.50422,0.57892 0.52289,1.51265 0,0.84035 -0.46686,1.51264 -0.46687,0.67228 -1.3259,1.06445 -0.84036,0.37349 -1.94216,0.37349 z m 7.00297,-12.06379 q -0.48554,0 -0.82168,-0.33614 -0.33614,-0.33615 -0.33614,-0.82169 0,-0.48553 0.33614,-0.82168 0.33614,-0.33614 0.82168,-0.33614 0.46687,0 0.78434,0.33614 0.33614,0.33615 0.33614,0.82168 0,0.48554 -0.33614,0.82169 -0.31747,0.33614 -0.78434,0.33614 z m 0.82169,1.66204 v 10.23368 h -1.69939 v -10.23368 z m 7.88066,-0.18675 q 1.86746,0 3.02528,1.13915 1.15783,1.12048 1.15783,3.24938 v 6.0319 h -1.68071 v -5.78913 q 0,-1.53131 -0.76566,-2.33432 -0.76566,-0.82168 -2.09156,-0.82168 -1.34457,0 -2.14758,0.84035 -0.78433,0.84036 -0.78433,2.44638 v 5.6584 h -1.69939 v -10.23368 h 1.69939 v 1.45662 q 0.50421,-0.78433 1.36325,-1.21385 0.8777,-0.42952 1.92348,-0.42952 z m 11.18609,0.0187 q 1.3259,0 2.31565,0.57891 1.00843,0.57891 1.49397,1.45662 v -1.86746 h 1.71806 v 10.45778 q 0,1.40059 -0.59758,2.48372 -0.59759,1.1018 -1.71807,1.71806 -1.1018,0.61626 -2.57709,0.61626 -2.01686,0 -3.36143,-0.9524 -1.34457,-0.95241 -1.58734,-2.59577 h 1.68071 q 0.28012,0.93373 1.15783,1.49397 0.87771,0.57891 2.11023,0.57891 1.40059,0 2.2783,-0.87771 0.89638,-0.8777 0.89638,-2.46504 v -2.14758 q -0.50421,0.89638 -1.49397,1.49396 -0.98975,0.59759 -2.31565,0.59759 -1.36324,0 -2.48372,-0.67228 -1.1018,-0.67229 -1.73674,-1.88614 -0.63493,-1.21385 -0.63493,-2.76384 0,-1.56867 0.63493,-2.74517 0.63494,-1.19517 1.73674,-1.84878 1.12048,-0.65361 2.48372,-0.65361 z m 3.80962,5.26624 q 0,-1.15783 -0.46686,-2.01686 -0.46687,-0.85903 -1.26988,-1.30722 -0.78433,-0.46687 -1.73673,-0.46687 -0.95241,0 -1.73674,0.44819 -0.78434,0.44819 -1.2512,1.30722 -0.46687,0.85904 -0.46687,2.01686 0,1.1765 0.46687,2.05421 0.46686,0.85903 1.2512,1.32589 0.78433,0.44819 1.73674,0.44819 0.9524,0 1.73673,-0.44819 0.80301,-0.46686 1.26988,-1.32589 0.46686,-0.87771 0.46686,-2.03553 z"
     id="text15"
     style="font-size:18.6746px;font-family:Poppins;-inkscape-font-specification:Poppins;fill:#ffffff;stroke:none;stroke-width:1.00042"
     aria-label="Teamkleidung &amp; Merchandising" />
  <path
     d="m 304.08586,434.71662 q 0,-3.21203 1.04578,-5.0048 1.04578,-1.81143 3.66022,-1.81143 2.59577,0 3.64155,1.81143 1.04578,1.79277 1.04578,5.0048 0,3.26805 -1.04578,5.07949 -1.04578,1.81143 -3.64155,1.81143 -2.61444,0 -3.66022,-1.81143 -1.04578,-1.81144 -1.04578,-5.07949 z m 7.71261,0 q 0,-1.62469 -0.22409,-2.74517 -0.20542,-1.13915 -0.87771,-1.83011 -0.65361,-0.69096 -1.90481,-0.69096 -1.26987,0 -1.94215,0.69096 -0.65362,0.69096 -0.87771,1.83011 -0.20542,1.12048 -0.20542,2.74517 0,1.68071 0.20542,2.81986 0.22409,1.13915 0.87771,1.83011 0.67228,0.69096 1.94215,0.69096 1.2512,0 1.90481,-0.69096 0.67229,-0.69096 0.87771,-1.83011 0.22409,-1.13915 0.22409,-2.81986 z m 11.33549,5.47165 q 1.4006,0 2.40903,-0.61626 1.0271,-0.61626 1.56866,-1.75541 h 2.01686 q -0.70964,1.86746 -2.29698,2.89456 -1.58734,1.00843 -3.69757,1.00843 -2.2036,0 -3.88431,-1.21385 -1.68072,-1.21385 -2.31565,-3.24938 h -1.81144 v -1.19517 h 1.54999 q -0.056,-0.48554 -0.056,-0.97108 0,-0.46687 0.056,-0.91506 h -1.54999 v -1.1765 h 1.79276 q 0.41084,-1.36324 1.30722,-2.39035 0.91506,-1.04577 2.16626,-1.60601 1.26987,-0.57891 2.74516,-0.57891 2.11023,0 3.69757,1.0271 1.58734,1.0271 2.29698,2.91324 h -2.01686 q -0.54156,-1.15783 -1.54999,-1.77409 -1.00843,-0.61626 -2.4277,-0.61626 -1.56866,0 -2.74516,0.80301 -1.15783,0.803 -1.66204,2.22227 h 4.4072 v 1.1765 h -4.706 q -0.056,0.44819 -0.056,0.91506 0,0.54156 0.0747,0.97108 h 4.68732 v 1.19517 h -4.38853 q 0.54156,1.38192 1.69939,2.16626 1.1765,0.76565 2.68914,0.76565 z"
     id="text20"
     style="font-size:18.6746px;font-family:Poppins;-inkscape-font-specification:Poppins;fill:#ffffff;stroke:none;stroke-width:1.00042"
     aria-label="0€" />
  <path
     d="m 457.66806,429.76094 h -6.55478 v 4.25781 q 0.42951,-0.59759 1.26987,-0.97108 0.84036,-0.39217 1.81144,-0.39217 1.54999,0 2.52107,0.65362 0.97108,0.63493 1.38192,1.66203 0.42951,1.00843 0.42951,2.14758 0,1.34458 -0.50421,2.40903 -0.50422,1.06445 -1.54999,1.68071 -1.02711,0.61626 -2.55842,0.61626 -1.96084,0 -3.17469,-1.00843 -1.21384,-1.00842 -1.47529,-2.68914 h 1.66204 q 0.24277,1.06445 1.0271,1.66204 0.78434,0.59759 1.97951,0.59759 1.47529,0 2.22228,-0.87771 0.74698,-0.89638 0.74698,-2.353 0,-1.45662 -0.74698,-2.24095 -0.74699,-0.80301 -2.2036,-0.80301 -0.98976,0 -1.73674,0.48554 -0.72831,0.46687 -1.06445,1.28855 h -1.60602 v -7.61924 h 8.12345 z m 3.11866,5.13552 q 0,-3.21203 1.04578,-5.0048 1.04578,-1.81143 3.66022,-1.81143 2.59577,0 3.64155,1.81143 1.04578,1.79277 1.04578,5.0048 0,3.26805 -1.04578,5.07949 -1.04578,1.81143 -3.64155,1.81143 -2.61444,0 -3.66022,-1.81143 -1.04578,-1.81144 -1.04578,-5.07949 z m 7.71261,0 q 0,-1.62469 -0.22409,-2.74517 -0.20542,-1.13915 -0.87771,-1.83011 -0.65361,-0.69096 -1.90481,-0.69096 -1.26987,0 -1.94215,0.69096 -0.65362,0.69096 -0.87771,1.83011 -0.20542,1.12048 -0.20542,2.74517 0,1.68071 0.20542,2.81986 0.22409,1.13915 0.87771,1.83011 0.67228,0.69096 1.94215,0.69096 1.2512,0 1.90481,-0.69096 0.67229,-0.69096 0.87771,-1.83011 0.22409,-1.13915 0.22409,-2.81986 z m 4.01505,0 q 0,-3.21203 1.04578,-5.0048 1.04577,-1.81143 3.66022,-1.81143 2.59577,0 3.64155,1.81143 1.04577,1.79277 1.04577,5.0048 0,3.26805 -1.04577,5.07949 -1.04578,1.81143 -3.64155,1.81143 -2.61445,0 -3.66022,-1.81143 -1.04578,-1.81144 -1.04578,-5.07949 z m 7.71261,0 q 0,-1.62469 -0.2241,-2.74517 -0.20542,-1.13915 -0.8777,-1.83011 -0.65361,-0.69096 -1.90481,-0.69096 -1.26987,0 -1.94216,0.69096 -0.65361,0.69096 -0.87771,1.83011 -0.20542,1.12048 -0.20542,2.74517 0,1.68071 0.20542,2.81986 0.2241,1.13915 0.87771,1.83011 0.67229,0.69096 1.94216,0.69096 1.2512,0 1.90481,-0.69096 0.67228,-0.69096 0.8777,-1.83011 0.2241,-1.13915 0.2241,-2.81986 z m 11.33549,5.47165 q 1.40059,0 2.40902,-0.61626 1.0271,-0.61626 1.56867,-1.75541 h 2.01685 q -0.70963,1.86746 -2.29697,2.89456 -1.58734,1.00843 -3.69757,1.00843 -2.2036,0 -3.88432,-1.21385 -1.68071,-1.21385 -2.31565,-3.24938 h -1.81144 v -1.19517 h 1.55 q -0.056,-0.48554 -0.056,-0.97108 0,-0.46687 0.056,-0.91506 h -1.55 v -1.1765 h 1.79277 q 0.41084,-1.36324 1.30722,-2.39035 0.91505,-1.04577 2.16625,-1.60601 1.26987,-0.57891 2.74517,-0.57891 2.11023,0 3.69757,1.0271 1.58734,1.0271 2.29697,2.91324 h -2.01685 q -0.54157,-1.15783 -1.54999,-1.77409 -1.00843,-0.61626 -2.4277,-0.61626 -1.56867,0 -2.74517,0.80301 -1.15782,0.803 -1.66204,2.22227 h 4.40721 v 1.1765 h -4.706 q -0.056,0.44819 -0.056,0.91506 0,0.54156 0.0747,0.97108 h 4.68733 v 1.19517 h -4.38853 q 0.54156,1.38192 1.69939,2.16626 1.1765,0.76565 2.68914,0.76565 z"
     id="text21"
     style="font-size:18.6746px;font-family:Poppins;-inkscape-font-specification:Poppins;fill:#ffffff;stroke:none;stroke-width:1.00042"
     aria-label="500€" />
  <path
     d="M 597.5651,429.93299 V 428.383 h 3.51083 v 13.50174 h -1.71806 v -11.95175 z m 6.42406,5.06082 q 0,-3.21203 1.04578,-5.0048 1.04578,-1.81143 3.66022,-1.81143 2.59577,0 3.64155,1.81143 1.04577,1.79277 1.04577,5.0048 0,3.26805 -1.04577,5.07949 -1.04578,1.81144 -3.64155,1.81144 -2.61444,0 -3.66022,-1.81144 -1.04578,-1.81144 -1.04578,-5.07949 z m 7.71261,0 q 0,-1.62469 -0.22409,-2.74517 -0.20543,-1.13915 -0.87771,-1.83011 -0.65361,-0.69096 -1.90481,-0.69096 -1.26987,0 -1.94216,0.69096 -0.65361,0.69096 -0.87771,1.83011 -0.20542,1.12048 -0.20542,2.74517 0,1.68071 0.20542,2.81986 0.2241,1.13915 0.87771,1.83011 0.67229,0.69096 1.94216,0.69096 1.2512,0 1.90481,-0.69096 0.67228,-0.69096 0.87771,-1.83011 0.22409,-1.13915 0.22409,-2.81986 z m 4.01505,0 q 0,-3.21203 1.04577,-5.0048 1.04578,-1.81143 3.66023,-1.81143 2.59576,0 3.64154,1.81143 1.04578,1.79277 1.04578,5.0048 0,3.26805 -1.04578,5.07949 -1.04578,1.81144 -3.64154,1.81144 -2.61445,0 -3.66023,-1.81144 -1.04577,-1.81144 -1.04577,-5.07949 z m 7.71261,0 q 0,-1.62469 -0.2241,-2.74517 -0.20542,-1.13915 -0.87771,-1.83011 -0.65361,-0.69096 -1.9048,-0.69096 -1.26988,0 -1.94216,0.69096 -0.65361,0.69096 -0.87771,1.83011 -0.20542,1.12048 -0.20542,2.74517 0,1.68071 0.20542,2.81986 0.2241,1.13915 0.87771,1.83011 0.67228,0.69096 1.94216,0.69096 1.25119,0 1.9048,-0.69096 0.67229,-0.69096 0.87771,-1.83011 0.2241,-1.13915 0.2241,-2.81986 z m 4.01504,0 q 0,-3.21203 1.04578,-5.0048 1.04577,-1.81143 3.66022,-1.81143 2.59577,0 3.64155,1.81143 1.04577,1.79277 1.04577,5.0048 0,3.26805 -1.04577,5.07949 -1.04578,1.81144 -3.64155,1.81144 -2.61445,0 -3.66022,-1.81144 -1.04578,-1.81144 -1.04578,-5.07949 z m 7.71261,0 q 0,-1.62469 -0.2241,-2.74517 -0.20542,-1.13915 -0.8777,-1.83011 -0.65361,-0.69096 -1.90481,-0.69096 -1.26987,0 -1.94216,0.69096 -0.65361,0.69096 -0.87771,1.83011 -0.20542,1.12048 -0.20542,2.74517 0,1.68071 0.20542,2.81986 0.2241,1.13915 0.87771,1.83011 0.67229,0.69096 1.94216,0.69096 1.2512,0 1.90481,-0.69096 0.67228,-0.69096 0.8777,-1.83011 0.2241,-1.13915 0.2241,-2.81986 z m 11.33549,5.47166 q 1.40059,0 2.40902,-0.61627 1.0271,-0.61626 1.56867,-1.75541 h 2.01685 q -0.70963,1.86746 -2.29697,2.89456 -1.58734,1.00843 -3.69757,1.00843 -2.20361,0 -3.88432,-1.21385 -1.68071,-1.21385 -2.31565,-3.24938 h -1.81144 v -1.19517 h 1.54999 q -0.056,-0.48554 -0.056,-0.97108 0,-0.46687 0.056,-0.91506 h -1.54999 v -1.1765 h 1.79276 q 0.41085,-1.36324 1.30723,-2.39034 0.91505,-1.04578 2.16625,-1.60602 1.26987,-0.57891 2.74517,-0.57891 2.11023,0 3.69757,1.0271 1.58734,1.0271 2.29697,2.91324 h -2.01685 q -0.54157,-1.15783 -1.55,-1.77409 -1.00842,-0.61626 -2.42769,-0.61626 -1.56867,0 -2.74517,0.80301 -1.15783,0.803 -1.66204,2.22227 h 4.40721 v 1.1765 h -4.706 q -0.056,0.44819 -0.056,0.91506 0,0.54156 0.0747,0.97108 h 4.68733 v 1.19517 h -4.38853 q 0.54156,1.38192 1.69938,2.16626 1.1765,0.76566 2.68915,0.76566 z"
     id="text22"
     style="font-size:18.6746px;font-family:Poppins;-inkscape-font-specification:Poppins;fill:#ffffff;stroke:none;stroke-width:1.00042"
     aria-label="1000€&#10;" />
  <path
     d="m 752.26786,429.71201 v -1.54999 h 3.51083 v 13.50174 h -1.71807 v -11.95175 z m 15.03305,-0.0747 h -6.55478 v 4.25781 q 0.42951,-0.59758 1.26987,-0.97108 0.84036,-0.39216 1.81143,-0.39216 1.55,0 2.52108,0.65361 0.97107,0.63494 1.38192,1.66204 0.42951,1.00843 0.42951,2.14758 0,1.34457 -0.50421,2.40902 -0.50422,1.06445 -1.54999,1.68071 -1.02711,0.61627 -2.55842,0.61627 -1.96084,0 -3.17469,-1.00843 -1.21385,-1.00843 -1.47529,-2.68914 h 1.66204 q 0.24277,1.06445 1.0271,1.66204 0.78434,0.59758 1.97951,0.59758 1.47529,0 2.22228,-0.8777 0.74698,-0.89638 0.74698,-2.353 0,-1.45662 -0.74698,-2.24096 -0.74699,-0.803 -2.20361,-0.803 -0.98975,0 -1.73673,0.48554 -0.72831,0.46686 -1.06446,1.28854 h -1.60601 v -7.61923 h 8.12345 z m 3.11866,5.13552 q 0,-3.21203 1.04578,-5.00479 1.04578,-1.81144 3.66022,-1.81144 2.59577,0 3.64155,1.81144 1.04578,1.79276 1.04578,5.00479 0,3.26805 -1.04578,5.07949 -1.04578,1.81144 -3.64155,1.81144 -2.61444,0 -3.66022,-1.81144 -1.04578,-1.81144 -1.04578,-5.07949 z m 7.71261,0 q 0,-1.62469 -0.22409,-2.74517 -0.20542,-1.13915 -0.87771,-1.83011 -0.65361,-0.69096 -1.90481,-0.69096 -1.26987,0 -1.94215,0.69096 -0.65362,0.69096 -0.87771,1.83011 -0.20542,1.12048 -0.20542,2.74517 0,1.68071 0.20542,2.81986 0.22409,1.13916 0.87771,1.83012 0.67228,0.69096 1.94215,0.69096 1.2512,0 1.90481,-0.69096 0.67229,-0.69096 0.87771,-1.83012 0.22409,-1.13915 0.22409,-2.81986 z m 4.01505,0 q 0,-3.21203 1.04578,-5.00479 1.04577,-1.81144 3.66022,-1.81144 2.59577,0 3.64154,1.81144 1.04578,1.79276 1.04578,5.00479 0,3.26805 -1.04578,5.07949 -1.04577,1.81144 -3.64154,1.81144 -2.61445,0 -3.66022,-1.81144 -1.04578,-1.81144 -1.04578,-5.07949 z m 7.71261,0 q 0,-1.62469 -0.2241,-2.74517 -0.20542,-1.13915 -0.8777,-1.83011 -0.65361,-0.69096 -1.90481,-0.69096 -1.26988,0 -1.94216,0.69096 -0.65361,0.69096 -0.87771,1.83011 -0.20542,1.12048 -0.20542,2.74517 0,1.68071 0.20542,2.81986 0.2241,1.13916 0.87771,1.83012 0.67228,0.69096 1.94216,0.69096 1.2512,0 1.90481,-0.69096 0.67228,-0.69096 0.8777,-1.83012 0.2241,-1.13915 0.2241,-2.81986 z m 11.33548,5.47166 q 1.4006,0 2.40903,-0.61626 1.0271,-0.61627 1.56866,-1.75542 h 2.01686 q -0.70963,1.86746 -2.29697,2.89457 -1.58735,1.00842 -3.69758,1.00842 -2.2036,0 -3.88431,-1.21384 -1.68072,-1.21385 -2.31565,-3.24938 h -1.81144 v -1.19518 h 1.54999 q -0.056,-0.48554 -0.056,-0.97108 0,-0.46686 0.056,-0.91505 h -1.54999 v -1.1765 h 1.79276 q 0.41084,-1.36325 1.30722,-2.39035 0.91506,-1.04578 2.16626,-1.60602 1.26987,-0.57891 2.74516,-0.57891 2.11023,0 3.69758,1.0271 1.58734,1.02711 2.29697,2.91324 h -2.01686 q -0.54156,-1.15783 -1.54999,-1.77409 -1.00843,-0.61626 -2.4277,-0.61626 -1.56866,0 -2.74516,0.80301 -1.15783,0.80301 -1.66204,2.22228 h 4.4072 v 1.1765 h -4.70599 q -0.056,0.44819 -0.056,0.91505 0,0.54157 0.0747,0.97108 h 4.68732 v 1.19518 h -4.38853 q 0.54157,1.38192 1.69939,2.16625 1.1765,0.76566 2.68914,0.76566 z"
     id="text25"
     style="font-size:18.6746px;font-family:Poppins;-inkscape-font-specification:Poppins;fill:#ffffff;stroke:none;stroke-width:1.00042"
     aria-label="1500€" />
  <path
     d="m 902.95369,440.31919 q 2.37167,-1.90481 3.71624,-3.11866 1.34457,-1.23252 2.25963,-2.55842 0.93373,-1.34457 0.93373,-2.63312 0,-1.21385 -0.59759,-1.90481 -0.57891,-0.70963 -1.88613,-0.70963 -1.26988,0 -1.97951,0.803 -0.69096,0.78434 -0.74698,2.11023 h -1.64337 q 0.0747,-2.09155 1.26987,-3.2307 1.19518,-1.13915 3.08131,-1.13915 1.92349,0 3.04396,1.06445 1.13915,1.06445 1.13915,2.93191 0,1.54999 -0.93373,3.02529 -0.91505,1.45662 -2.09155,2.57709 -1.1765,1.1018 -3.00661,2.5771 h 6.42406 v 1.41927 h -8.98248 z m 10.94333,-5.52768 q 0,-3.21203 1.04577,-5.0048 1.04578,-1.81143 3.66023,-1.81143 2.59577,0 3.64154,1.81143 1.04578,1.79277 1.04578,5.0048 0,3.26805 -1.04578,5.07949 -1.04577,1.81143 -3.64154,1.81143 -2.61445,0 -3.66023,-1.81143 -1.04577,-1.81144 -1.04577,-5.07949 z m 7.71261,0 q 0,-1.62469 -0.2241,-2.74517 -0.20542,-1.13915 -0.87771,-1.83011 -0.65361,-0.69096 -1.9048,-0.69096 -1.26988,0 -1.94216,0.69096 -0.65361,0.69096 -0.87771,1.83011 -0.20542,1.12048 -0.20542,2.74517 0,1.68071 0.20542,2.81986 0.2241,1.13915 0.87771,1.83011 0.67228,0.69096 1.94216,0.69096 1.25119,0 1.9048,-0.69096 0.67229,-0.69096 0.87771,-1.83011 0.2241,-1.13915 0.2241,-2.81986 z m 4.01504,0 q 0,-3.21203 1.04578,-5.0048 1.04578,-1.81143 3.66022,-1.81143 2.59577,0 3.64155,1.81143 1.04578,1.79277 1.04578,5.0048 0,3.26805 -1.04578,5.07949 -1.04578,1.81143 -3.64155,1.81143 -2.61444,0 -3.66022,-1.81143 -1.04578,-1.81144 -1.04578,-5.07949 z m 7.71261,0 q 0,-1.62469 -0.22409,-2.74517 -0.20542,-1.13915 -0.87771,-1.83011 -0.65361,-0.69096 -1.90481,-0.69096 -1.26987,0 -1.94216,0.69096 -0.65361,0.69096 -0.8777,1.83011 -0.20542,1.12048 -0.20542,2.74517 0,1.68071 0.20542,2.81986 0.22409,1.13915 0.8777,1.83011 0.67229,0.69096 1.94216,0.69096 1.2512,0 1.90481,-0.69096 0.67229,-0.69096 0.87771,-1.83011 0.22409,-1.13915 0.22409,-2.81986 z m 4.01505,0 q 0,-3.21203 1.04577,-5.0048 1.04578,-1.81143 3.66022,-1.81143 2.59577,0 3.64155,1.81143 1.04578,1.79277 1.04578,5.0048 0,3.26805 -1.04578,5.07949 -1.04578,1.81143 -3.64155,1.81143 -2.61444,0 -3.66022,-1.81143 -1.04577,-1.81144 -1.04577,-5.07949 z m 7.71261,0 q 0,-1.62469 -0.2241,-2.74517 -0.20542,-1.13915 -0.87771,-1.83011 -0.65361,-0.69096 -1.90481,-0.69096 -1.26987,0 -1.94215,0.69096 -0.65361,0.69096 -0.87771,1.83011 -0.20542,1.12048 -0.20542,2.74517 0,1.68071 0.20542,2.81986 0.2241,1.13915 0.87771,1.83011 0.67228,0.69096 1.94215,0.69096 1.2512,0 1.90481,-0.69096 0.67229,-0.69096 0.87771,-1.83011 0.2241,-1.13915 0.2241,-2.81986 z m 11.33548,5.47165 q 1.4006,0 2.40903,-0.61626 1.0271,-0.61626 1.56866,-1.75541 h 2.01686 q -0.70964,1.86746 -2.29698,2.89456 -1.58734,1.00843 -3.69757,1.00843 -2.2036,0 -3.88431,-1.21385 -1.68072,-1.21385 -2.31566,-3.24938 h -1.81143 v -1.19517 h 1.54999 q -0.056,-0.48554 -0.056,-0.97108 0,-0.46687 0.056,-0.91506 h -1.54999 v -1.1765 h 1.79276 q 0.41084,-1.36324 1.30722,-2.39035 0.91506,-1.04577 2.16626,-1.60601 1.26987,-0.57891 2.74516,-0.57891 2.11023,0 3.69757,1.0271 1.58734,1.0271 2.29698,2.91324 h -2.01686 q -0.54156,-1.15783 -1.54999,-1.77409 -1.00843,-0.61626 -2.4277,-0.61626 -1.56866,0 -2.74516,0.80301 -1.15783,0.803 -1.66204,2.22227 h 4.4072 v 1.1765 h -4.706 q -0.056,0.44819 -0.056,0.91506 0,0.54156 0.0747,0.97108 h 4.68732 v 1.19517 h -4.38853 q 0.54156,1.38192 1.69939,2.16626 1.1765,0.76565 2.68914,0.76565 z"
     id="text26"
     style="font-size:18.6746px;font-family:Poppins;-inkscape-font-specification:Poppins;fill:#ffffff;stroke:none;stroke-width:1.00042"
     aria-label="2000€" />
  <path
     d="m 1058.1588,440.20981 q 2.3717,-1.90481 3.7163,-3.11866 1.3445,-1.23252 2.2596,-2.55842 0.9337,-1.34457 0.9337,-2.63311 0,-1.21385 -0.5976,-1.90481 -0.5789,-0.70964 -1.8861,-0.70964 -1.2699,0 -1.9795,0.80301 -0.691,0.78433 -0.747,2.11023 h -1.6434 q 0.075,-2.09156 1.2699,-3.23071 1.1952,-1.13915 3.0813,-1.13915 1.9235,0 3.044,1.06446 1.1391,1.06445 1.1391,2.93191 0,1.54999 -0.9337,3.02528 -0.915,1.45662 -2.0915,2.5771 -1.1765,1.1018 -3.0067,2.57709 h 6.4241 v 1.41927 h -8.9825 z m 19.5523,-10.66319 h -6.5547 v 4.25781 q 0.4295,-0.59759 1.2698,-0.97108 0.8404,-0.39217 1.8115,-0.39217 1.55,0 2.521,0.65361 0.9711,0.63494 1.382,1.66204 0.4295,1.00843 0.4295,2.14758 0,1.34457 -0.5042,2.40902 -0.5043,1.06445 -1.55,1.68072 -1.0271,0.61626 -2.5584,0.61626 -1.9609,0 -3.1747,-1.00843 -1.2139,-1.00843 -1.4753,-2.68914 h 1.662 q 0.2428,1.06445 1.0271,1.66204 0.7844,0.59758 1.9795,0.59758 1.4753,0 2.2223,-0.8777 0.747,-0.89638 0.747,-2.353 0,-1.45662 -0.747,-2.24095 -0.747,-0.80301 -2.2036,-0.80301 -0.9898,0 -1.7367,0.48554 -0.7283,0.46686 -1.0645,1.28855 h -1.606 v -7.61924 h 8.1234 z m 3.1187,5.13551 q 0,-3.21203 1.0458,-5.00479 1.0458,-1.81144 3.6602,-1.81144 2.5958,0 3.6416,1.81144 1.0457,1.79276 1.0457,5.00479 0,3.26806 -1.0457,5.07949 -1.0458,1.81144 -3.6416,1.81144 -2.6144,0 -3.6602,-1.81144 -1.0458,-1.81143 -1.0458,-5.07949 z m 7.7126,0 q 0,-1.62469 -0.2241,-2.74516 -0.2054,-1.13916 -0.8777,-1.83012 -0.6536,-0.69096 -1.9048,-0.69096 -1.2699,0 -1.9421,0.69096 -0.6537,0.69096 -0.8778,1.83012 -0.2054,1.12047 -0.2054,2.74516 0,1.68072 0.2054,2.81987 0.2241,1.13915 0.8778,1.83011 0.6722,0.69096 1.9421,0.69096 1.2512,0 1.9048,-0.69096 0.6723,-0.69096 0.8777,-1.83011 0.2241,-1.13915 0.2241,-2.81987 z m 4.0151,0 q 0,-3.21203 1.0457,-5.00479 1.0458,-1.81144 3.6603,-1.81144 2.5957,0 3.6415,1.81144 1.0458,1.79276 1.0458,5.00479 0,3.26806 -1.0458,5.07949 -1.0458,1.81144 -3.6415,1.81144 -2.6145,0 -3.6603,-1.81144 -1.0457,-1.81143 -1.0457,-5.07949 z m 7.7126,0 q 0,-1.62469 -0.2241,-2.74516 -0.2054,-1.13916 -0.8777,-1.83012 -0.6536,-0.69096 -1.9048,-0.69096 -1.2699,0 -1.9422,0.69096 -0.6536,0.69096 -0.8777,1.83012 -0.2054,1.12047 -0.2054,2.74516 0,1.68072 0.2054,2.81987 0.2241,1.13915 0.8777,1.83011 0.6723,0.69096 1.9422,0.69096 1.2512,0 1.9048,-0.69096 0.6723,-0.69096 0.8777,-1.83011 0.2241,-1.13915 0.2241,-2.81987 z m 11.3355,5.47166 q 1.4006,0 2.409,-0.61626 1.0271,-0.61626 1.5687,-1.75541 h 2.0168 q -0.7096,1.86746 -2.297,2.89456 -1.5873,1.00843 -3.6975,1.00843 -2.2036,0 -3.8844,-1.21385 -1.6807,-1.21385 -2.3156,-3.24938 h -1.8114 v -1.19518 h 1.5499 q -0.056,-0.48554 -0.056,-0.97108 0,-0.46686 0.056,-0.91505 h -1.5499 v -1.1765 h 1.7927 q 0.4109,-1.36325 1.3072,-2.39035 0.9151,-1.04578 2.1663,-1.60602 1.2699,-0.57891 2.7452,-0.57891 2.1102,0 3.6975,1.0271 1.5874,1.02711 2.297,2.91324 h -2.0168 q -0.5416,-1.15782 -1.55,-1.77409 -1.0085,-0.61626 -2.4277,-0.61626 -1.5687,0 -2.7452,0.80301 -1.1578,0.80301 -1.662,2.22228 h 4.4072 v 1.1765 h -4.706 q -0.056,0.44819 -0.056,0.91505 0,0.54157 0.075,0.97108 h 4.6874 v 1.19518 h -4.3886 q 0.5416,1.38192 1.6994,2.16625 1.1765,0.76566 2.6892,0.76566 z"
     id="text27"
     style="font-size:18.6746px;font-family:Poppins;-inkscape-font-specification:Poppins;fill:#ffffff;stroke:none;stroke-width:1.00042"
     aria-label="2500€" />
  <path
     d="m 314.73542,468.43207 q -0.54156,-1.13915 -1.56867,-1.75541 -1.0271,-0.63494 -2.39035,-0.63494 -1.36324,0 -2.46504,0.63494 -1.08313,0.61626 -1.71807,1.79276 -0.61626,1.15782 -0.61626,2.68914 0,1.53132 0.61626,2.68914 0.63494,1.15783 1.71807,1.79276 1.1018,0.61627 2.46504,0.61627 1.90481,0 3.13734,-1.13916 1.23252,-1.13915 1.43794,-3.0813 h -5.19154 v -1.38192 h 7.00298 v 1.30722 q -0.1494,1.60601 -1.00843,2.95058 -0.85903,1.3259 -2.25963,2.11023 -1.40059,0.76566 -3.11866,0.76566 -1.81143,0 -3.3054,-0.84035 -1.49397,-0.85904 -2.37167,-2.37168 -0.85904,-1.51264 -0.85904,-3.41745 0,-1.90481 0.85904,-3.41745 0.8777,-1.53132 2.37167,-2.37168 1.49397,-0.85903 3.3054,-0.85903 2.07289,0 3.66023,1.0271 1.60601,1.02711 2.33432,2.89457 z m 14.00595,3.73492 q 0,0.48554 -0.056,1.0271 h -8.17947 q 0.0934,1.51264 1.0271,2.37168 0.95241,0.84035 2.29698,0.84035 1.1018,0 1.83011,-0.50421 0.74698,-0.52289 1.04578,-1.38192 h 1.83011 q -0.41084,1.47529 -1.64337,2.40902 -1.23252,0.91506 -3.06263,0.91506 -1.45662,0 -2.61445,-0.65361 -1.13915,-0.65362 -1.79276,-1.84879 -0.65361,-1.21385 -0.65361,-2.80119 0,-1.58734 0.63494,-2.78252 0.63493,-1.19517 1.77408,-1.83011 1.15783,-0.65361 2.6518,-0.65361 1.45662,0 2.57709,0.63494 1.12048,0.63494 1.71807,1.75541 0.61626,1.1018 0.61626,2.5024 z m -1.75541,-0.35482 q 0,-0.97108 -0.42952,-1.66204 -0.42952,-0.70963 -1.1765,-1.06445 -0.72831,-0.37349 -1.62469,-0.37349 -1.28855,0 -2.2036,0.82168 -0.89638,0.82168 -1.02711,2.2783 z m 7.61925,6.0319 q -1.1765,0 -2.11023,-0.39217 -0.93373,-0.41084 -1.47529,-1.12048 -0.54157,-0.72831 -0.59759,-1.66204 h 1.75541 q 0.0747,0.76566 0.70964,1.2512 0.65361,0.48554 1.69938,0.48554 0.97108,0 1.53132,-0.42951 0.56024,-0.42952 0.56024,-1.08313 0,-0.67229 -0.59759,-0.98975 -0.59759,-0.33615 -1.84878,-0.65362 -1.13915,-0.29879 -1.86746,-0.59758 -0.70964,-0.31747 -1.23253,-0.91506 -0.50421,-0.61626 -0.50421,-1.60601 0,-0.78434 0.46686,-1.43795 0.46687,-0.65361 1.3259,-1.0271 0.85903,-0.39217 1.96083,-0.39217 1.69939,0 2.74517,0.85903 1.04578,0.85904 1.12048,2.353 h -1.69939 q -0.056,-0.803 -0.65361,-1.28854 -0.57892,-0.48554 -1.56867,-0.48554 -0.91506,0 -1.45662,0.39216 -0.54156,0.39217 -0.54156,1.02711 0,0.50421 0.31747,0.84035 0.33614,0.31747 0.82168,0.52289 0.50421,0.18675 1.38192,0.42952 1.1018,0.29879 1.79276,0.59759 0.69096,0.28011 1.1765,0.85903 0.50421,0.57891 0.52289,1.51264 0,0.84036 -0.46687,1.51264 -0.46686,0.67229 -1.32589,1.06445 -0.84036,0.3735 -1.94216,0.3735 z m 5.49032,-5.32226 q 0,-1.56867 0.63494,-2.74517 0.63493,-1.19518 1.73673,-1.84879 1.12048,-0.65361 2.48373,-0.65361 1.34457,0 2.33432,0.57891 0.98976,0.57892 1.47529,1.45662 v -1.86746 h 1.71807 v 10.23368 h -1.71807 v -1.9048 q -0.50421,0.89638 -1.51264,1.49396 -0.98975,0.57892 -2.31565,0.57892 -1.36324,0 -2.46505,-0.67229 -1.1018,-0.67228 -1.73673,-1.88613 -0.63494,-1.21385 -0.63494,-2.76384 z m 8.66501,0.0187 q 0,-1.15783 -0.46686,-2.01686 -0.46687,-0.85903 -1.26987,-1.30722 -0.78434,-0.46686 -1.73674,-0.46686 -0.95241,0 -1.73674,0.44819 -0.78433,0.44819 -1.2512,1.30722 -0.46686,0.85903 -0.46686,2.01686 0,1.17649 0.46686,2.0542 0.46687,0.85903 1.2512,1.3259 0.78433,0.44819 1.73674,0.44819 0.9524,0 1.73674,-0.44819 0.803,-0.46687 1.26987,-1.3259 0.46686,-0.87771 0.46686,-2.03553 z m 16.90053,-5.28491 q 1.19518,0 2.12891,0.50421 0.93373,0.48554 1.47529,1.4753 0.54156,0.98975 0.54156,2.40902 v 6.03189 h -1.68071 v -5.78912 q 0,-1.53132 -0.76566,-2.33433 -0.74698,-0.82168 -2.03553,-0.82168 -1.3259,0 -2.11023,0.85903 -0.78433,0.84036 -0.78433,2.44638 v 5.63972 h -1.68072 v -5.78912 q 0,-1.53132 -0.76566,-2.33433 -0.74698,-0.82168 -2.03553,-0.82168 -1.3259,0 -2.11023,0.85903 -0.78433,0.84036 -0.78433,2.44638 v 5.63972 h -1.69939 v -10.23368 h 1.69939 v 1.4753 q 0.50421,-0.80301 1.34457,-1.23253 0.85903,-0.42951 1.88613,-0.42951 1.28855,0 2.27831,0.57891 0.98975,0.57891 1.47529,1.69939 0.42951,-1.08313 1.41927,-1.68072 0.98975,-0.59758 2.2036,-0.59758 z m 9.00117,1.58734 v 6.03189 q 0,0.74699 0.31747,1.06446 0.31746,0.29879 1.1018,0.29879 h 1.2512 v 1.43794 h -1.53132 q -1.41927,0 -2.12891,-0.65361 -0.70963,-0.65361 -0.70963,-2.14758 v -6.03189 h -1.3259 v -1.4006 h 1.3259 v -2.57709 h 1.69939 v 2.57709 h 2.67047 v 1.4006 z m 5.26624,8.94513 q -0.48554,0 -0.82168,-0.33614 -0.33614,-0.33614 -0.33614,-0.82168 0,-0.48554 0.33614,-0.82169 0.33614,-0.33614 0.82168,-0.33614 0.46687,0 0.78434,0.33614 0.33614,0.33615 0.33614,0.82169 0,0.48554 -0.33614,0.82168 -0.31747,0.33614 -0.78434,0.33614 z m 0,-7.99273 q -0.48554,0 -0.82168,-0.33614 -0.33614,-0.33614 -0.33614,-0.82168 0,-0.48554 0.33614,-0.82168 0.33614,-0.33615 0.82168,-0.33615 0.46687,0 0.78434,0.33615 0.33614,0.33614 0.33614,0.82168 0,0.48554 -0.33614,0.82168 -0.31747,0.33614 -0.78434,0.33614 z m 7.73128,4.87407 v -1.28854 l 6.55478,-9.07586 h 2.03553 v 8.88911 h 1.86746 v 1.47529 h -1.86746 v 3.00661 h -1.68071 v -3.00661 z m 6.9843,-8.59031 -5.02347,7.11502 h 5.02347 z m 7.63791,4.57528 q -1.04578,-0.41085 -1.60602,-1.19518 -0.56024,-0.78433 -0.56024,-1.90481 0,-1.00843 0.50422,-1.81143 0.50421,-0.82169 1.49397,-1.28855 1.00843,-0.48554 2.42769,-0.48554 1.41927,0 2.40903,0.48554 1.00843,0.46686 1.51264,1.28855 0.52289,0.803 0.52289,1.81143 0,1.08313 -0.57891,1.90481 -0.57892,0.80301 -1.58734,1.19518 1.15782,0.35481 1.83011,1.25119 0.69096,0.87771 0.69096,2.12891 0,1.21385 -0.59759,2.1289 -0.59759,0.89638 -1.69939,1.4006 -1.08313,0.48554 -2.5024,0.48554 -1.41926,0 -2.50239,-0.48554 -1.06445,-0.50422 -1.66204,-1.4006 -0.59759,-0.91505 -0.59759,-2.1289 0,-1.2512 0.67229,-2.14758 0.67228,-0.89638 1.83011,-1.23252 z m 5.06082,-2.89457 q 0,-1.13915 -0.74699,-1.75541 -0.74698,-0.61626 -2.05421,-0.61626 -1.28854,0 -2.03553,0.61626 -0.74698,0.61626 -0.74698,1.77409 0,1.04577 0.76566,1.68071 0.78433,0.63494 2.01685,0.63494 1.2512,0 2.01686,-0.63494 0.78434,-0.65361 0.78434,-1.69939 z m -2.8012,3.64155 q -1.38192,0 -2.25962,0.65361 -0.87771,0.63494 -0.87771,1.92348 0,1.19518 0.84036,1.92349 0.85903,0.72831 2.29697,0.72831 1.43795,0 2.27831,-0.72831 0.84035,-0.72831 0.84035,-1.92349 0,-1.25119 -0.85903,-1.90481 -0.85903,-0.67228 -2.25963,-0.67228 z m 7.02167,-3.82829 q 0.13072,-1.71807 1.32589,-2.68915 1.19518,-0.97108 3.09999,-0.97108 1.26987,0 2.18492,0.46687 0.93373,0.44819 1.4006,1.23252 0.48554,0.78434 0.48554,1.77409 0,1.15783 -0.67229,1.99818 -0.65361,0.84036 -1.71806,1.08313 v 0.0934 q 1.21385,0.2988 1.92348,1.1765 0.70964,0.87771 0.70964,2.29698 0,1.06445 -0.48554,1.92348 -0.48554,0.84036 -1.45662,1.3259 -0.97108,0.48554 -2.33432,0.48554 -1.97951,0 -3.24939,-1.02711 -1.26987,-1.04577 -1.41927,-2.95058 h 1.64337 q 0.13072,1.12047 0.91506,1.83011 0.78433,0.70963 2.09155,0.70963 1.30722,0 1.97951,-0.67228 0.69096,-0.69096 0.69096,-1.77409 0,-1.40059 -0.93373,-2.01686 -0.93373,-0.61626 -2.81987,-0.61626 h -0.42951 v -1.41927 h 0.44819 q 1.71806,-0.0187 2.59577,-0.56024 0.8777,-0.56023 0.8777,-1.71806 0,-0.98975 -0.65361,-1.58734 -0.63493,-0.59759 -1.83011,-0.59759 -1.15782,0 -1.86746,0.59759 -0.70963,0.59759 -0.84035,1.60602 z m 10.62586,7.09634 v -1.28854 l 6.55478,-9.07586 h 2.03553 v 8.88911 h 1.86746 v 1.47529 h -1.86746 v 3.00661 h -1.68071 v -3.00661 z m 6.9843,-8.59031 -5.02347,7.11502 h 5.02347 z m 7.20838,9.24393 -2.09155,5.02346 h -1.13915 l 1.36324,-5.02346 z m 1.21385,-9.59875 v -1.54999 h 3.51083 v 13.50173 h -1.71807 v -11.95174 z m 5.97586,0 v -1.54999 h 3.51083 v 13.50173 h -1.71807 v -11.95174 z m 13.74451,10.53248 q 1.4006,0 2.40903,-0.61627 1.0271,-0.61626 1.56866,-1.75541 h 2.01686 q -0.70964,1.86746 -2.29698,2.89456 -1.58734,1.00843 -3.69757,1.00843 -2.2036,0 -3.88431,-1.21385 -1.68072,-1.21385 -2.31566,-3.24938 h -1.81143 v -1.19517 h 1.54999 q -0.056,-0.48554 -0.056,-0.97108 0,-0.46687 0.056,-0.91506 h -1.54999 v -1.1765 h 1.79276 q 0.41084,-1.36324 1.30722,-2.39034 0.91506,-1.04578 2.16626,-1.60602 1.26987,-0.57891 2.74516,-0.57891 2.11023,0 3.69757,1.0271 1.58734,1.0271 2.29698,2.91324 h -2.01686 q -0.54156,-1.15783 -1.54999,-1.77409 -1.00843,-0.61626 -2.4277,-0.61626 -1.56866,0 -2.74516,0.80301 -1.15783,0.803 -1.66204,2.22227 h 4.4072 v 1.1765 h -4.706 q -0.056,0.44819 -0.056,0.91506 0,0.54156 0.0747,0.97108 h 4.68732 v 1.19517 h -4.38853 q 0.54156,1.38192 1.69939,2.16626 1.1765,0.76566 2.68914,0.76566 z"
     id="text28"
     style="font-size:18.6746px;font-family:Poppins;-inkscape-font-specification:Poppins;fill:#ffffff;stroke:none;stroke-width:1.00042"
     aria-label="Gesamt: 4834,11€" />
</svg>
